<?xml version="1.0" encoding="UTF-8"?>
<svg width="47px" height="30px" viewBox="0 0 47 30" version="1.1" xmlns="http://www.w3.org/2000/svg" xmlns:xlink="http://www.w3.org/1999/xlink">
    <!-- Generator: Sketch 49.1 (51147) - http://www.bohemiancoding.com/sketch -->
    <title>Group 16 Copy 3</title>
    <desc>Created with Sketch.</desc>
    <defs></defs>
    <g id="design" stroke="none" stroke-width="1" fill="none" fill-rule="evenodd">
        <g id="Artboard" transform="translate(-199.000000, -20.000000)">
            <g id="Group-16-Copy-3" transform="translate(200.000000, 21.000000)">
                <rect id="Rectangle-2" stroke="#CCCCCC" x="0" y="0" width="45" height="28" rx="2"></rect>
                <g id="amex-logo-e238f7a3" transform="translate(5.000000, 9.000000)" fill="#008BB6">
                    <g id="amex-logo">
                        <g id="Page-1">
                            <g id="amex-logo">
                                <g id="amex-copy">
                                    <g id="_x34__x5F_COL_x5F_SQ">
                                        <g id="Express" transform="translate(7.793852, 4.695833)">
                                            <path d="M14.3791559,4.21970805 L14.3791559,3.4093871 C14.3791559,3.4093871 14.3355286,2.77522287 13.6652552,2.77522287 L12.6237534,2.77522287 L12.6237534,4.21970805 L11.5521091,4.21970805 L11.5521091,0.0553629534 L14.1507077,0.0553629534 C14.1507077,0.0553629534 15.5071191,-0.106701239 15.5071191,1.27436753 C15.5071191,1.99308698 14.9074424,2.24675268 14.9074424,2.24675268 C14.9074424,2.24675268 15.421451,2.48632583 15.421451,3.19016983 L15.421451,4.21892515 L14.3791559,4.21892515 M12.6229602,1.79579145 L13.7302995,1.79579145 C14.0507616,1.79579145 14.3149049,1.61963472 14.3149049,1.40120037 C14.3149049,1.18276603 14.0507616,1.00660929 13.7302995,1.00660929 L12.6229602,1.00660929 L12.6229602,1.79579145" id="SVGID_17_"></path>
                                            <path d="M7.24014873,4.22555016 L6.30493877,4.22555016 L5.16983662,2.99245305 L4.02759549,4.22555016 L3.37794582,4.22555016 L0.0440294638,4.22555016 L0.0440294638,0.0541587886 L3.37794582,0.0541587886 L3.94192739,0.0541587886 L5.16983662,1.3788574 L6.4048849,0.0612050576 L7.22587071,0.0612050576 L7.22587071,0.0541587886 L9.82446935,0.0541587886 C9.82446935,0.0541587886 11.1808807,-0.0938128651 11.1808807,1.27942671 C11.1808807,2.50547756 10.7311233,2.88675901 9.34615584,2.88675901 L8.29672179,2.88675901 L8.29672179,4.22555016 L7.24014873,4.22555016 M5.89801535,2.17586874 L7.22587071,3.6274002 L7.22587071,0.731383551 L5.89801535,2.17586874 M1.12201955,3.32441062 L3.37794582,3.32441062 L4.43451887,2.17586874 L3.37794582,1.03359021 L1.12201955,1.03359021 L1.12201955,1.67401779 L3.32083377,1.67401779 L3.32083377,2.61900078 L1.12201955,2.61900078 L1.12201955,3.32441062 M8.29672179,1.80163355 L9.40326791,1.80163355 C9.72452322,1.80163355 9.98866651,1.62547682 9.98866651,1.40704248 C9.98866651,1.18939105 9.72452322,1.0124514 9.40326791,1.0124514 L8.29672179,1.0124514 L8.29672179,1.80163355" id="SVGID_20_"></path>
                                            <path d="M21.6823603,4.20761775 L19.7762454,4.20761775 L19.7762454,3.24854221 L21.446773,3.24854221 C21.446773,3.24854221 22.0464497,3.3190049 22.0464497,2.91815048 C22.0464497,2.54313237 21.1397958,2.57288328 21.1397958,2.57288328 C21.1397958,2.57288328 19.6620213,2.69971613 19.6620213,1.3327399 C19.6620213,-0.0271900566 20.9970156,0.0503189048 20.9970156,0.0503189048 L23.0538429,0.0503189048 L23.0538429,1.02270406 L21.3975932,1.02270406 C21.3975932,1.02270406 20.8256794,0.909180831 20.8256794,1.31943028 C20.8256794,1.66313163 21.603038,1.61459067 21.603038,1.61459067 C21.603038,1.61459067 23.2386639,1.49558701 23.2386639,2.74904001 C23.2386639,4.09409451 22.1852637,4.21309815 21.8116556,4.21309815 C21.7315401,4.21231526 21.6823603,4.20761775 21.6823603,4.20761775" id="SVGID_23_"></path>
                                            <polyline id="SVGID_26_" points="15.9497375 4.20680619 15.9497375 0.0495073452 19.2899997 0.0495073452 19.2899997 1.01484623 17.0277276 1.01484623 17.0277276 1.65605672 19.2336808 1.65605672 19.2336808 2.60103972 17.0277276 2.60103972 17.0277276 3.30566664 19.2899997 3.30566664 19.2899997 4.20680619 15.9497375 4.20680619"></polyline>
                                            <path d="M25.4588951,4.20761775 L23.5527802,4.20761775 L23.5527802,3.24854221 L25.2169621,3.24854221 C25.2169621,3.24854221 25.8237777,3.3190049 25.8237777,2.91815048 C25.8237777,2.54313237 24.9171238,2.57288328 24.9171238,2.57288328 C24.9171238,2.57288328 23.4393493,2.69971613 23.4393493,1.3327399 C23.4393493,-0.0271900566 24.7743436,0.0503189048 24.7743436,0.0503189048 L26.8240319,0.0503189048 L26.8240319,1.02270406 L25.1741281,1.02270406 C25.1741281,1.02270406 24.6030075,0.909180831 24.6030075,1.31943028 C24.6030075,1.66313163 25.3811592,1.61459067 25.3811592,1.61459067 C25.3811592,1.61459067 27.0159919,1.49558701 27.0159919,2.74904001 C27.0159919,4.09409451 25.9625917,4.21309815 25.5889837,4.21309815 C25.5072817,4.21231526 25.4588951,4.20761775 25.4588951,4.20761775" id="SVGID_29_"></path>
                                        </g>
                                        <g id="American" transform="translate(0.199842, 0.204167)">
                                            <path d="M18.110868,4.24277513 L18.110868,3.43245419 C18.110868,3.43245419 18.0672408,2.79828996 17.3969673,2.79828996 L16.3546723,2.79828996 L16.3546723,4.24277513 L15.2838212,4.24277513 L15.2838212,0.079212961 L17.8824198,0.079212961 C17.8824198,0.079212961 19.2388312,-0.0828512306 19.2388312,1.29821754 C19.2388312,2.016937 18.6391546,2.27060269 18.6391546,2.27060269 C18.6391546,2.27060269 19.1595089,2.51095876 19.1595089,3.21558568 L19.1595089,4.24355807 L18.110868,4.24355807 M16.3546723,1.81885854 L17.4612184,1.81885854 C17.7824737,1.81885854 18.046617,1.64270181 18.046617,1.42426746 C18.046617,1.20583312 17.7824737,1.02967638 17.4612184,1.02967638 L16.3546723,1.02967638 L16.3546723,1.81885854" id="SVGID_2_"></path>
                                            <path d="M30.7469108,4.24277513 L29.0478271,1.45949881 L29.0478271,4.24277513 L28.1268952,4.24277513 L27.9547657,4.24277513 L26.948959,4.24277513 L26.5697984,3.36903776 L24.6137104,3.36903776 L24.2416888,4.24277513 L23.2565058,4.24277513 L23.0780306,4.24277513 L22.5640221,4.24277513 C22.5640221,4.24277513 21.1227358,4.03843334 21.1227358,2.27686604 C21.1227358,-0.0343102651 22.7583617,0.0572912345 22.8146806,0.043198696 L24.1353969,0.0784300423 L24.1353969,1.01558385 L23.051061,1.02967638 C23.051061,1.02967638 22.3435061,1.02967638 22.257838,1.93942803 C22.2475261,2.04355623 22.2427668,2.13985525 22.24356,2.22910799 C22.2475261,3.63679599 23.4817811,3.1999273 23.5214423,3.18661768 L24.8492976,0.079212961 L26.3484891,0.079212961 L27.9539725,3.85601326 L27.9539725,0.079212961 L29.4674421,0.079212961 L31.1451087,2.82021168 L31.1451087,0.079212961 L32.2230988,0.079212961 L32.2230988,4.24277513 L30.7469108,4.24277513 M25.0714001,2.30505111 L26.1129019,2.30505111 L25.5996866,1.06490773 L25.0714001,2.30505111" id="SVGID_5_"></path>
                                            <path d="M9.55913064,4.26257876 L9.55913064,1.38848385 L8.21699727,4.26257876 L7.33889939,4.26257876 L5.98962705,1.40179347 L5.98962705,4.26257876 L5.0544171,4.26257876 L4.91163696,4.26257876 L3.87648091,4.26257876 L3.50525253,3.38884138 L1.54916456,3.38884138 L1.17079718,4.26257876 L0,4.26257876 L1.77761279,0.0990165789 L3.28394331,0.0990165789 L4.91163696,3.92514076 L4.91163696,0.0990165789 L6.60358165,0.0990165789 L7.78151786,2.68499738 L8.95231502,0.0990165789 L10.6442597,0.0990165789 L10.6442597,4.26257876 L9.55913064,4.26257876 M2.00606102,2.32485473 L3.04835608,2.32485473 L2.52720855,1.08471135 L2.00606102,2.32485473" id="SVGID_8_"></path>
                                            <polyline id="SVGID_11_" points="11.3859233 4.24277513 11.3859233 0.079212961 14.7269786 0.079212961 14.7269786 1.05081519 12.4639134 1.05081519 12.4639134 1.69202569 14.6698666 1.69202569 14.6698666 2.63622577 12.4639134 2.63622577 12.4639134 3.3416356 14.7269786 3.3416356 14.7269786 4.24277513 11.3859233 4.24277513"></polyline>
                                            <polyline id="SVGID_14_" points="19.6814496 4.25686769 19.6814496 0.079212961 20.7594397 0.079212961 20.7594397 4.25686769 19.6814496 4.25686769"></polyline>
                                        </g>
                                    </g>
                                </g>
                            </g>
                        </g>
                    </g>
                </g>
            </g>
        </g>
    </g>
</svg>