<?xml version="1.0" encoding="UTF-8"?>
<svg width="191px" height="34px" viewBox="0 0 191 34" version="1.1" xmlns="http://www.w3.org/2000/svg" xmlns:xlink="http://www.w3.org/1999/xlink">
    <!-- Generator: Sketch 49.1 (51147) - http://www.bohemiancoding.com/sketch -->
    <title>logo</title>
    <desc>Created with Sketch.</desc>
    <defs></defs>
    <g id="design" stroke="none" stroke-width="1" fill="none" fill-rule="evenodd">
        <g id="102_HT---Signup" transform="translate(-624.000000, -270.000000)" fill="#9F9C91">
            <g id="Group-25">
                <g id="Group-3" transform="translate(452.000000, 246.000000)">
                    <g id="Group-13">
                        <g id="logo" transform="translate(172.000000, 24.000000)">
                            <polygon id="Fill-1" points="47.5199828 21.5001931 45.8709828 21.5001931 45.8709828 16.1111931 39.4279828 16.1111931 39.4279828 21.5001931 37.7789828 21.5001931 37.7789828 9.2091931 39.4279828 9.2091931 39.4279828 14.5301931 45.8709828 14.5301931 45.8709828 9.2091931 47.5199828 9.2091931"></polygon>
                            <polygon id="Fill-2" points="59.8114517 9.20931034 59.8114517 10.7903103 53.4704517 10.7903103 53.4704517 14.5303103 59.1314517 14.5303103 59.1314517 16.1107241 53.4704517 16.1107241 53.4704517 19.9023103 60.0488655 19.9023103 60.0488655 21.5003103 51.8208655 21.5003103 51.8208655 9.20931034"></polygon>
                            <polygon id="Fill-3" points="73.2065724 9.20931034 68.6001586 17.4033103 68.6001586 21.5003103 66.9505724 21.5003103 66.9505724 17.4033103 62.3945724 9.20931034 64.4345724 9.20931034 67.8181586 15.5333103 71.1835724 9.20931034"></polygon>
                            <polygon id="Fill-4" points="89.6118069 9.20931034 89.6118069 10.7903103 86.3138069 10.7903103 86.3138069 21.5003103 84.6648069 21.5003103 84.6648069 10.7903103 81.4512207 10.7903103 81.4512207 9.20931034"></polygon>
                            <path d="M98.3579552,14.6832517 C98.7489552,14.2183897 98.9441621,13.6861138 98.9441621,13.0846655 C98.9441621,12.7223897 98.8615069,12.3659759 98.6979552,12.0142517 C98.533231,11.6631138 98.272369,11.3711828 97.9159552,11.1384586 C97.5589552,10.9069069 97.1081621,10.7902517 96.5641621,10.7902517 L94.6601621,10.7902517 L94.6601621,15.3796655 L96.4451621,15.3796655 C97.3291621,15.3796655 97.9669552,15.1481138 98.3579552,14.6832517 Z M99.7771621,21.5002517 L96.8871621,16.9612517 C96.7963,16.9723897 96.6603,16.9782517 96.4791621,16.9782517 L94.6601621,16.9782517 L94.6601621,21.5002517 L93.0111621,21.5002517 L93.0111621,9.20925172 L96.2927483,9.20925172 C97.1310241,9.20925172 97.8790241,9.35638966 98.5367483,9.65125172 C99.1938862,9.94611379 99.7097483,10.3793207 100.083162,10.9520448 C100.457162,11.5241828 100.644162,12.2123897 100.644162,13.0172517 C100.644162,13.7763897 100.477093,14.4739759 100.142955,15.1082517 C99.8088172,15.7431138 99.2958862,16.2243897 98.6041621,16.5526655 L101.698162,21.5002517 L99.7771621,21.5002517 Z" id="Fill-5"></path>
                            <path d="M110.87781,16.8420172 L109.127397,12.3546034 L107.30781,16.8420172 L110.87781,16.8420172 Z M111.43881,18.2706034 L106.713397,18.2706034 L105.40381,21.5000172 L103.77181,21.5000172 L109.14381,8.69901724 L109.24581,8.69901724 L114.61781,21.5000172 L112.71381,21.5000172 L111.43881,18.2706034 Z" id="Fill-7"></path>
                            <polygon id="Fill-9" points="127.453045 9.20931034 122.030045 22.0783103 116.607045 9.20931034 118.562045 9.20931034 122.097459 18.0657241 125.514459 9.20931034"></polygon>
                            <polygon id="Fill-11" points="138.656221 9.20931034 138.656221 10.7903103 132.315221 10.7903103 132.315221 14.5303103 137.976221 14.5303103 137.976221 16.1107241 132.315221 16.1107241 132.315221 19.9023103 138.893634 19.9023103 138.893634 21.5003103 130.665634 21.5003103 130.665634 9.20931034"></polygon>
                            <polygon id="Fill-13" points="144.181162 9.20931034 144.181162 19.9023103 150.437162 19.9023103 150.437162 21.5003103 142.532162 21.5003103 142.532162 9.20931034"></polygon>
                            <polygon id="Fill-15" points="153.871103 21.5000172 155.520103 21.5000172 155.520103 9.20901724 153.871103 9.20901724"></polygon>
                            <path d="M164.767634,10.8242517 C164.268772,10.6771138 163.798634,10.6032517 163.356634,10.6032517 C162.687772,10.6032517 162.158428,10.7533207 161.767428,11.0540448 C161.376428,11.3541828 161.180634,11.7645276 161.180634,12.2862517 C161.180634,12.7962517 161.409841,13.2124586 161.869428,13.5354586 C162.328428,13.8590448 162.982634,14.1791138 163.832634,14.4962517 C164.46691,14.7231138 165.002703,14.9693207 165.439428,15.2354586 C165.875566,15.5015966 166.238428,15.8703207 166.526841,16.3404586 C166.815841,16.8111828 166.960634,17.4085276 166.960634,18.1342517 C166.960634,18.7919759 166.79591,19.3863897 166.467634,19.9192517 C166.138772,20.4521138 165.670979,20.8712517 165.065428,21.1772517 C164.458703,21.4832517 163.747634,21.6362517 162.931634,21.6362517 C162.17191,21.6362517 161.44091,21.5143207 160.738634,21.2704586 C160.035772,21.0271828 159.41791,20.7182517 158.885634,20.3442517 L159.616634,19.0352517 C160.035772,19.3529759 160.53991,19.6220448 161.129634,19.8430448 C161.718772,20.0640448 162.268634,20.1742517 162.778048,20.1742517 C163.435772,20.1742517 164.010841,20.0042517 164.504428,19.6642517 C164.997428,19.3242517 165.243634,18.8201138 165.243634,18.1512517 C165.243634,17.5843897 165.036703,17.1341828 164.623428,16.7994586 C164.209566,16.4653207 163.628634,16.1511138 162.880634,15.8562517 C162.189497,15.5959759 161.613841,15.3403897 161.155428,15.0912517 C160.696428,14.8421138 160.302497,14.4991828 159.973634,14.0624586 C159.644772,13.6263207 159.480048,13.0799759 159.480048,12.4222517 C159.480048,11.4591138 159.817703,10.6794586 160.491841,10.0844586 C161.165979,9.49004483 162.041772,9.17525172 163.118634,9.14125172 C164.444634,9.14125172 165.674497,9.46952759 166.807048,10.1272517 L166.178634,11.4022517 C165.736634,11.1642517 165.266497,10.9713897 164.767634,10.8242517" id="Fill-17"></path>
                            <polygon id="Fill-18" points="177.738634 9.20931034 177.738634 10.7903103 174.440634 10.7903103 174.440634 21.5003103 172.791634 21.5003103 172.791634 10.7903103 169.578048 10.7903103 169.578048 9.20931034"></polygon>
                            <path d="M187.020048,16.8420172 L185.269634,12.3546034 L183.450048,16.8420172 L187.020048,16.8420172 Z M187.581048,18.2706034 L182.855634,18.2706034 L181.546048,21.5000172 L179.914048,21.5000172 L185.286048,8.69901724 L185.388048,8.69901724 L190.760048,21.5000172 L188.856048,21.5000172 L187.581048,18.2706034 Z" id="Fill-19"></path>
                            <path d="M1.46551724,24.1329655 L14.4224483,31.6135517 L27.3787931,24.1329655 L27.3787931,9.17237931 L14.4224483,1.69237931 L1.46551724,9.17237931 L1.46551724,24.1329655 Z M14.4224483,33.3053448 L0,24.9788621 L0,8.32589655 L14.4224483,0 L28.8443103,8.32589655 L28.8443103,24.9788621 L14.4224483,33.3053448 Z" id="Fill-20"></path>
                            <polygon id="Path" stroke="#9F9C91" stroke-width="0.5" points="8.21088276 15.7566552 16.7712621 15.7566552 15.8491586 16.8417241 8.21088276 16.8417241"></polygon>
                            <polygon id="Path" stroke="#9F9C91" stroke-width="0.5" points="7.9171931 25.0116897 7.05136552 26.0293448 7.05136552 5.14689655 7.9171931 5.14689655"></polygon>
                            <polygon id="Fill-22" stroke="#9F9C91" stroke-width="0.5" points="24.1466828 10.6903034 19.8474414 10.6903034 19.8474414 29.3944069 18.9698897 29.3944069 18.9698897 10.6903034 13.573269 10.6903034 13.573269 9.66913103 25.0623379 9.66913103"></polygon>
                        </g>
                    </g>
                </g>
            </g>
        </g>
    </g>
</svg>