<?xml version="1.0" encoding="UTF-8"?>
<svg width="50px" height="56px" viewBox="0 0 50 56" version="1.1" xmlns="http://www.w3.org/2000/svg" xmlns:xlink="http://www.w3.org/1999/xlink">
    <!-- Generator: Sketch 49.1 (51147) - http://www.bohemiancoding.com/sketch -->
    <title>Group 24</title>
    <desc>Created with Sketch.</desc>
    <defs></defs>
    <g id="design" stroke="none" stroke-width="1" fill="none" fill-rule="evenodd">
        <g id="102_HT---Signup" transform="translate(-617.000000, -402.000000)">
            <g id="Group-25">
                <g id="Group-3" transform="translate(452.000000, 246.000000)">
                    <g id="Group-13">
                        <g id="Group-24" transform="translate(162.000000, 156.000000)">
                            <polygon id="Polygon" fill="#9F9C91" points="28 0 52.2487113 14 52.2487113 42 28 56 3.75128869 42 3.75128869 14"></polygon>
                            <path d="M29.7898237,39.1100006 L29.7898237,28.5685056 L33.3282697,28.5685056 L33.8580218,24.4602242 L29.7898237,24.4602242 L29.7898237,21.8372681 C29.7898237,20.6478248 30.1200773,19.8372857 31.8258096,19.8372857 L34.001322,19.8362658 L34.001322,16.161863 C33.6249676,16.1118864 32.3336331,16 30.831275,16 C27.6946818,16 25.5474214,17.9145122 25.5474214,21.4305197 L25.5474214,24.4602242 L22,24.4602242 L22,28.5685056 L25.5474214,28.5685056 L25.5474214,39.1100006 L29.7898237,39.1100006 Z" id="Fill-1" fill="#FFFFFF"></path>
                        </g>
                    </g>
                </g>
            </g>
        </g>
    </g>
</svg>