<?xml version="1.0" encoding="UTF-8"?>
<svg width="50px" height="56px" viewBox="0 0 50 56" version="1.1" xmlns="http://www.w3.org/2000/svg" xmlns:xlink="http://www.w3.org/1999/xlink">
    <!-- Generator: Sketch 49.1 (51147) - http://www.bohemiancoding.com/sketch -->
    <title>Group 15</title>
    <desc>Created with Sketch.</desc>
    <defs></defs>
    <g id="design" stroke="none" stroke-width="1" fill="none" fill-rule="evenodd">
        <g id="102_HT---Signup" transform="translate(-773.000000, -402.000000)">
            <g id="Group-25">
                <g id="Group-3" transform="translate(452.000000, 246.000000)">
                    <g id="Group-13">
                        <g id="Group-15" transform="translate(318.000000, 156.000000)">
                            <polygon id="Polygon-Copy" fill="#9F9C91" points="28 0 52.2487113 14 52.2487113 42 28 56 3.75128869 42 3.75128869 14"></polygon>
                            <g id="Google+" transform="translate(13.000000, 18.000000)" fill="#FFFFFF">
                                <path d="M9.56815488,19.6947188 C4.34650336,19.6947188 0.113130515,15.4097195 0.113130515,10.1806927 C0.113130515,4.95166601 4.34650336,0.681417095 9.56815488,0.681417095 C12.0167259,0.681417095 14.2514158,1.61069406 15.9255894,3.13736336 C13.949032,5.01066772 14.0154089,5.11392072 13.2336362,5.8956934 C12.2674832,5.08441986 11.2054524,4.50177795 9.56815488,4.50177795 C6.46318978,4.50177795 4.04411958,7.02410115 4.04411958,10.1290662 C4.04411958,13.2340313 6.46318978,15.8301067 9.56815488,15.8301067 C12.6288687,15.8301067 13.8752799,14.3550639 14.6791782,12.1424997 L9.67878309,12.1424997 L9.67878309,8.45489266 L18.6470433,8.45489266 C19.2739365,12.8800211 17.3711313,19.6947188 9.56815488,19.6947188 L9.56815488,19.6947188 Z" id="Path"></path>
                                <polygon id="Path" points="29.5918609 10.6674569 26.6417753 10.6674569 26.6417753 14.3550639 24.4292111 14.3550639 24.4292111 10.6674569 20.7416041 10.6674569 20.7416041 8.45489266 24.4292111 8.45489266 24.4292111 5.50480706 26.6417753 5.50480706 26.6417753 8.45489266 29.5918609 8.45489266"></polygon>
                            </g>
                        </g>
                    </g>
                </g>
            </g>
        </g>
    </g>
</svg>