<?xml version="1.0" encoding="UTF-8"?>
<svg width="194px" height="225px" viewBox="0 0 194 225" version="1.1" xmlns="http://www.w3.org/2000/svg" xmlns:xlink="http://www.w3.org/1999/xlink" preserveAspectRatio="none">
    <!-- Generator: Sketch 48.2 (47327) - http://www.bohemiancoding.com/sketch -->
    <title>Group</title>
    <desc>Created with Sketch.</desc>
    <defs></defs>
    <g id="100_HT---Landing-Page-Loading" stroke="none" stroke-width="1" fill="none" fill-rule="evenodd" transform="translate(-623.000000, -1291.000000)" opacity="0.919999957">
        <g id="Group-4" transform="translate(0.000000, 1132.000000)" fill="#FEFEFE">
            <g id="Group" transform="translate(623.000000, 159.000000)">
                <path d="M9.85529557,163.016444 L96.9879347,213.321815 L184.116632,163.016444 L184.116632,62.4096447 L96.9879347,12.1082161 L9.85529557,62.4096447 L9.85529557,163.016444 Z M96.9879347,224.698768 L0,168.704921 L0,56.717226 L96.9879347,0.727320813 L193.971927,56.717226 L193.971927,168.704921 L96.9879347,224.698768 Z" id="Fill-20"></path>
                <polygon id="Path" stroke="#FFFFFF" stroke-width="1.5" points="55.2164616 106.687517 112.783214 106.687517 106.582262 113.984377 55.2164616 113.984377"></polygon>
                <polygon id="Path" stroke="#FFFFFF" stroke-width="1.5" points="53.2414603 168.925679 47.4189517 175.769196 47.4189517 35.3391188 53.2414603 35.3391188"></polygon>
                <polygon id="Fill-22" stroke="#FFFFFF" stroke-width="1.5" points="162.381369 72.6173656 133.469874 72.6173656 133.469874 198.398532 127.568523 198.398532 127.568523 72.6173656 91.2773823 72.6173656 91.2773823 65.7501957 168.538957 65.7501957"></polygon>
            </g>
        </g>
    </g>
</svg>
