<?xml version="1.0" encoding="UTF-8"?>
<svg width="18px" height="18px" viewBox="0 0 18 18" version="1.1" xmlns="http://www.w3.org/2000/svg" xmlns:xlink="http://www.w3.org/1999/xlink">
    <!-- Generator: Sketch 49.1 (51147) - http://www.bohemiancoding.com/sketch -->
    <title>ig</title>
    <desc>Created with Sketch.</desc>
    <defs>
        <polygon id="path-1" points="1.58730159e-05 0.00505079365 15.9949524 0.00505079365 15.9949524 16 1.58730159e-05 16"></polygon>
    </defs>
    <g id="Symbols" stroke="none" stroke-width="1" fill="none" fill-rule="evenodd">
        <g id="Artboard-Copy-2" transform="translate(-41.000000, -59.000000)">
            <g id="Group-10" transform="translate(42.000000, 60.000000)">
                <g id="Page-1">
                    <g id="Group-3">
                        <mask id="mask-2" fill="white">
                            <use xlink:href="#path-1"></use>
                        </mask>
                        <g id="Clip-2"></g>
                        <path d="M7.99747619,0.00505079365 C5.82550794,0.00505079365 5.55312698,0.0142571429 4.70014286,0.0531777778 C3.84887302,0.0920031746 3.26753968,0.227209524 2.75880952,0.42492381 C2.23293651,0.629273016 1.78690476,0.902733333 1.34230159,1.34733651 C0.897666667,1.79197143 0.624238095,2.23797143 0.419857143,2.76384444 C0.222142857,3.2725746 0.086968254,3.85390794 0.0481111111,4.70517778 C0.00919047619,5.55819365 1.58730159e-05,5.83051111 1.58730159e-05,8.00251111 C1.58730159e-05,10.1745111 0.00919047619,10.4468603 0.0481111111,11.2998762 C0.086968254,12.1511143 0.222142857,12.7324794 0.419857143,13.2411778 C0.624238095,13.7670508 0.897666667,14.2130825 1.34230159,14.6576857 C1.78690476,15.1023206 2.23293651,15.3757492 2.75880952,15.5801619 C3.26753968,15.7778444 3.84887302,15.9130508 4.70014286,15.9519079 C5.55312698,15.9907968 5.82550794,16.0000032 7.99747619,16.0000032 C10.1694762,16.0000032 10.4417937,15.9907968 11.2948095,15.9519079 C12.1460794,15.9130508 12.7274127,15.7778444 13.2361429,15.5801619 C13.7620476,15.3757492 14.2080476,15.1023206 14.6526508,14.6576857 C15.0972857,14.2130825 15.3707143,13.7670825 15.5750952,13.2411778 C15.7728095,12.7324794 15.9080159,12.1511143 15.9468413,11.2998762 C15.9857619,10.4468603 15.9949683,10.1745111 15.9949683,8.00251111 C15.9949683,5.83054286 15.9857619,5.55819365 15.9468413,4.70517778 C15.9080159,3.85390794 15.7728095,3.2725746 15.5750952,2.76384444 C15.3707143,2.23797143 15.0972857,1.79197143 14.6526508,1.34733651 C14.2080476,0.902733333 13.7620476,0.629273016 13.2361429,0.42492381 C12.7274127,0.227209524 12.1460794,0.0920031746 11.2948095,0.0531777778 C10.4417937,0.0142571429 10.1694762,0.00505079365 7.99747619,0.00505079365 M7.99747619,1.44603492 C10.1329048,1.44603492 10.3858254,1.4541619 11.229127,1.4926381 C12.008873,1.5282254 12.4323333,1.65851111 12.7141429,1.76803492 C13.0874444,1.91311429 13.3538889,2.08641587 13.6337302,2.36625714 C13.9135714,2.64613016 14.086873,2.91254286 14.2319841,3.28584444 C14.3414762,3.56765397 14.4717619,3.99111429 14.5073492,4.77086032 C14.5457937,5.6141619 14.5539524,5.86711429 14.5539524,8.00251111 C14.5539524,10.1379397 14.5457937,10.3908921 14.5073492,11.2341619 C14.4717619,12.0139397 14.3414762,12.4374 14.2319841,12.7192095 C14.086873,13.0924794 13.9135714,13.3589238 13.6337302,13.6387651 C13.3538889,13.9186381 13.0874444,14.0919397 12.7141429,14.237019 C12.4323333,14.3465111 12.008873,14.4768286 11.229127,14.5123841 C10.3859524,14.5508603 10.1330635,14.559019 7.99747619,14.559019 C5.86188889,14.559019 5.609,14.5508603 4.7658254,14.5123841 C3.98607937,14.4768286 3.5625873,14.3465111 3.28077778,14.237019 C2.90750794,14.0919397 2.64106349,13.9186381 2.36122222,13.6387651 C2.08138095,13.3589238 1.90804762,13.0924794 1.76296825,12.7192095 C1.65347619,12.4374 1.52319048,12.0139397 1.48760317,11.2341937 C1.44912698,10.3908921 1.441,10.1379397 1.441,8.00251111 C1.441,5.86711429 1.44912698,5.6141619 1.48760317,4.77086032 C1.52319048,3.99111429 1.65347619,3.56765397 1.76296825,3.28584444 C1.90804762,2.91254286 2.08138095,2.64613016 2.36122222,2.36628889 C2.64106349,2.08641587 2.90750794,1.91311429 3.28077778,1.76803492 C3.5625873,1.65851111 3.98607937,1.5282254 4.76579365,1.4926381 C5.60912698,1.4541619 5.86204762,1.44603492 7.99747619,1.44603492" id="Fill-1" fill="#979797" mask="url(#mask-2)"></path>
                    </g>
                    <path d="M8.00001613,10.7093838 C6.5036739,10.7093838 5.29061615,9.4963261 5.29061615,7.99998387 C5.29061615,6.50364163 6.5036739,5.29061615 8.00001613,5.29061615 C9.49635837,5.29061615 10.7094161,6.50364163 10.7094161,7.99998387 C10.7094161,9.4963261 9.49635837,10.7093838 8.00001613,10.7093838 M8.00001613,3.82608696 C5.69482892,3.82608696 3.82608696,5.69479665 3.82608696,7.99998387 C3.82608696,10.3052033 5.69482892,12.173913 8.00001613,12.173913 C10.3052033,12.173913 12.173913,10.3052033 12.173913,7.99998387 C12.173913,5.69479665 10.3052033,3.82608696 8.00001613,3.82608696" id="Fill-4" fill="#979797"></path>
                    <path d="M13.5652174,3.82608696 C13.5652174,4.402399 13.0980589,4.86956522 12.5217564,4.86956522 C11.9454539,4.86956522 11.4782609,4.402399 11.4782609,3.82608696 C11.4782609,3.24977491 11.9454539,2.7826087 12.5217564,2.7826087 C13.0980589,2.7826087 13.5652174,3.24977491 13.5652174,3.82608696" id="Fill-6" fill="#979797"></path>
                </g>
            </g>
        </g>
    </g>
</svg>