<?xml version="1.0" encoding="UTF-8"?>
<svg width="238px" height="43px" viewBox="0 0 238 43" version="1.1" xmlns="http://www.w3.org/2000/svg" xmlns:xlink="http://www.w3.org/1999/xlink">
    <!-- Generator: Sketch 49.1 (51147) - http://www.bohemiancoding.com/sketch -->
    <title>Page 1</title>
    <desc>Created with Sketch.</desc>
    <defs>
        <polygon id="path-1" points="0 43 237.888793 43 237.888793 0.418079208 0 0.418079208"></polygon>
    </defs>
    <g id="Symbols" stroke="none" stroke-width="1" fill="none" fill-rule="evenodd">
        <g id="Footer-style/withad" transform="translate(-252.000000, -692.000000)">
            <g id="Group-2" transform="translate(0.000000, 662.000000)">
                <g id="Page-1" transform="translate(252.000000, 30.000000)">
                    <polygon id="Fill-1" fill="#FEFEFE" points="60 28 57.9685492 28 57.9685492 20.9846921 50.0314508 20.9846921 50.0314508 28 48 28 48 12 50.0314508 12 50.0314508 18.9264407 57.9685492 18.9264407 57.9685492 12 60 12"></polygon>
                    <polygon id="Fill-2" fill="#FEFEFE" points="75.7110248 12 75.7110248 14.0578179 68.0042092 14.0578179 68.0042092 18.9264407 74.8845718 18.9264407 74.8845718 20.9846921 68.0042092 20.9846921 68.0042092 25.9196402 76 25.9196402 76 28 66 28 66 12"></polygon>
                    <polygon id="Fill-3" fill="#FEFEFE" points="93 12 87.0344339 22.6671002 87.0344339 28 84.8995934 28 84.8995934 22.6671002 79 12 81.6414932 12 86.0219909 20.2321385 90.3809289 12"></polygon>
                    <polygon id="Fill-4" fill="#FEFEFE" points="113 12 113 14.0578179 108.958211 14.0578179 108.958211 28 106.937316 28 106.937316 14.0578179 103 14.0578179 103 12"></polygon>
                    <g id="Group-27">
                        <path d="M124.420376,19.1916663 C124.914911,18.5977554 125.162178,17.9165673 125.162178,17.1485277 C125.162178,16.6848941 125.058132,16.228498 124.85004,15.7793396 C124.642369,15.3301812 124.31296,14.9572307 123.860971,14.6600624 C123.409403,14.3633198 122.839467,14.2143099 122.151583,14.2143099 L119.742939,14.2143099 L119.742939,20.0827455 L122.00078,20.0827455 C123.119169,20.0827455 123.925842,19.786003 124.420376,19.1916663 Z M126.216118,27.9070426 L122.560185,22.1037455 C122.445187,22.1186465 122.273321,22.1258842 122.044167,22.1258842 L119.742939,22.1258842 L119.742939,27.9070426 L117.656964,27.9070426 L117.656964,12.1933099 L121.807431,12.1933099 C122.868111,12.1933099 123.814213,12.3819139 124.645739,12.7582703 C125.477265,13.1350525 126.129764,13.6893693 126.602815,14.420795 C127.075867,15.1526465 127.312603,16.0326564 127.312603,17.0616762 C127.312603,18.032795 127.10072,18.9238743 126.678217,19.7349139 C126.254872,20.546805 125.606164,21.1624287 124.732093,21.5822109 L128.645824,27.9070426 L126.216118,27.9070426 Z" id="Fill-5" fill="#FEFEFE"></path>
                        <path d="M140.258076,21.9520109 L138.043201,16.2138525 L135.742394,21.9520109 L140.258076,21.9520109 Z M140.967863,23.777595 L134.98964,23.777595 L133.33375,27.907298 L131.269258,27.907298 L138.064685,11.540902 L138.194005,11.540902 L144.989432,27.907298 L142.580787,27.907298 L140.967863,23.777595 Z" id="Fill-7" fill="#FEFEFE"></path>
                        <polygon id="Fill-9" fill="#FEFEFE" points="159.139058 12.1932248 152.279182 28.6460465 145.419306 12.1932248 147.891978 12.1932248 152.365115 23.5167 156.687447 12.1932248"></polygon>
                        <polygon id="Fill-11" fill="#FEFEFE" points="173.310421 12.1932248 173.310421 14.2142248 165.289189 14.2142248 165.289189 18.9957396 172.450251 18.9957396 172.450251 21.0171653 165.289189 21.0171653 165.289189 25.8638188 173.611185 25.8638188 173.611185 27.9069574 163.203213 27.9069574 163.203213 12.1932248"></polygon>
                        <polygon id="Fill-13" fill="#FEFEFE" points="180.299617 12.1932248 180.299617 25.8638188 188.213012 25.8638188 188.213012 27.9069574 178.213642 27.9069574 178.213642 12.1932248"></polygon>
                        <mask id="mask-2" fill="white">
                            <use xlink:href="#path-1"></use>
                        </mask>
                        <g id="Clip-16"></g>
                        <polygon id="Fill-15" fill="#FEFEFE" mask="url(#mask-2)" points="192.557165 27.907 194.64314 27.907 194.64314 12.1932673 192.557165 12.1932673"></polygon>
                        <path d="M206.341408,14.2579485 C205.710393,14.0697703 205.115603,13.9752554 204.556198,13.9752554 C203.71035,13.9752554 203.040159,14.1676911 202.545624,14.5512851 C202.05109,14.935305 201.803823,15.4606713 201.803823,16.1273842 C201.803823,16.7787703 202.094056,17.3113743 202.674945,17.7247703 C203.255412,18.1373149 204.083568,18.5468792 205.15857,18.9521861 C205.96103,19.2425426 206.638803,19.5575921 207.191047,19.8977604 C207.742449,20.2387802 208.2016,20.7096515 208.567235,21.3108 C208.93287,21.9119485 209.115267,22.6765822 209.115267,23.6034238 C209.115267,24.4442653 208.907596,25.2050673 208.491833,25.8858297 C208.075649,26.5670178 207.484651,27.102602 206.717575,27.4942851 C205.95092,27.8855426 205.051154,28.0809584 204.019118,28.0809584 C203.058272,28.0809584 202.133232,27.9251366 201.244839,27.6134931 C200.355603,27.3022752 199.574626,26.9071861 198.900644,26.4290772 L199.825263,24.7554832 C200.355603,25.1612158 200.99378,25.5052158 201.739373,25.7879089 C202.484545,26.070602 203.18001,26.2115228 203.825348,26.2115228 C204.656453,26.2115228 205.384354,25.9948198 206.007787,25.5601366 C206.631642,25.1250277 206.943359,24.4804535 206.943359,23.6255624 C206.943359,22.9009485 206.68177,22.3249188 206.158591,21.8974733 C205.634991,21.4704535 204.900771,21.0681267 203.954247,20.6913446 C203.079755,20.3579881 202.352276,20.032295 201.771808,19.7129881 C201.19092,19.3949584 200.692594,18.9564436 200.276832,18.398295 C199.861069,17.8405723 199.653398,17.1410772 199.653398,16.3010871 C199.653398,15.0694139 200.080113,14.0731762 200.933122,13.3123743 C201.785709,12.551998 202.893147,12.1496713 204.255433,12.1062455 C205.932807,12.1062455 207.488021,12.5264535 208.921918,13.3668693 L208.126198,14.9966119 C207.567214,14.6926317 206.972003,14.4465525 206.341408,14.2579485" id="Fill-17" fill="#FEFEFE" mask="url(#mask-2)"></path>
                        <polygon id="Fill-18" fill="#FEFEFE" mask="url(#mask-2)" points="222.641839 12.1932248 222.641839 14.2142248 218.469888 14.2142248 218.469888 27.9069574 216.383913 27.9069574 216.383913 14.2142248 212.3198 14.2142248 212.3198 12.1932248"></polygon>
                        <path d="M233.157353,21.9520109 L230.942479,16.2138525 L228.641672,21.9520109 L233.157353,21.9520109 Z M233.867141,23.777595 L227.888918,23.777595 L226.233027,27.907298 L224.168535,27.907298 L230.963962,11.540902 L231.093282,11.540902 L237.888709,27.907298 L235.480064,27.907298 L233.867141,23.777595 Z" id="Fill-19" fill="#FEFEFE" mask="url(#mask-2)"></path>
                        <path d="M10.2003009,20.7337485 L10.2003009,32.4646594 C9.71166372,33.0449465 9.22302655,33.6256594 8.73438938,34.2059465 L8.73438938,6.81154059 L10.2003009,6.81154059 L10.2003009,18.9720257 L10.2003009,20.7337485 Z" id="Fill-20" fill="#FEFEFE" mask="url(#mask-2)"></path>
                        <path d="M8.91981876,6.99895248 L8.91981876,33.6964178 L10.0146188,32.3957743 L10.0146188,6.99895248 L8.91981876,6.99895248 Z M8.5491285,34.7152198 L8.5491285,6.62429901 L10.385309,6.62429901 L10.385309,32.5332891 L8.5491285,34.7152198 Z" id="Fill-21" fill="#FEFEFE" mask="url(#mask-2)"></path>
                        <path d="M25.2913543,38.1872356 L23.8106995,38.1872356 L23.8106995,14.2732752 L16.98368,14.2732752 L16.98368,12.5928693 L32.1192163,12.5928693 C31.6217331,13.1527208 31.1246712,13.712998 30.627188,14.2732752 L25.2913543,14.2732752 L25.2913543,38.1872356 Z" id="Fill-22" fill="#FEFEFE" mask="url(#mask-2)"></path>
                        <path d="M23.9964237,38.0000366 L25.1059671,38.0000366 L25.1059671,14.0860762 L30.544583,14.0860762 L31.7038326,12.7803238 L17.168983,12.7803238 L17.168983,14.0860762 L23.9964237,14.0860762 L23.9964237,38.0000366 Z M25.4766573,38.3746901 L23.6257335,38.3746901 L23.6257335,14.4607297 L16.7982927,14.4607297 L16.7982927,12.4056703 L32.534937,12.4056703 L30.7097087,14.4607297 L25.4766573,14.4607297 L25.4766573,38.3746901 Z" id="Fill-23" fill="#FEFEFE" mask="url(#mask-2)"></path>
                        <path d="M1.85383044,31.2727931 L18.243395,40.8366743 L34.6329596,31.2727931 L34.6329596,12.1454564 L18.243395,2.58157525 L1.85383044,12.1454564 L1.85383044,31.2727931 Z M18.243395,42.9998723 L-4.21238938e-05,32.354605 L-4.21238938e-05,11.0636446 L18.243395,0.417951485 L36.4868322,11.0636446 L36.4868322,32.354605 L18.243395,42.9998723 Z" id="Fill-24" fill="#FEFEFE" mask="url(#mask-2)"></path>
                        <path d="M20.1339575,22.1377624 C16.8225982,22.1377624 13.5116602,22.1377624 10.2003009,22.1377624 L10.2003009,20.3764653 C14.0053522,20.3764653 17.8099823,20.3760396 21.6150336,20.3760396 C21.1213416,20.9635644 20.6276496,21.5506634 20.1339575,22.1377624" id="Fill-25" fill="#FEFEFE" mask="url(#mask-2)"></path>
                        <path d="M10.3855196,21.9505634 L20.0483196,21.9505634 L21.214309,20.5634941 L10.3855196,20.5634941 L10.3855196,21.9505634 Z M20.2197639,22.3252168 L10.0148294,22.3252168 L10.0148294,20.1888406 L22.0159267,20.1888406 L20.2197639,22.3252168 Z" id="Fill-26" fill="#FEFEFE" mask="url(#mask-2)"></path>
                    </g>
                </g>
            </g>
        </g>
    </g>
</svg>