<?xml version="1.0" encoding="UTF-8"?>
<svg width="56px" height="56px" viewBox="0 0 56 56" version="1.1" xmlns="http://www.w3.org/2000/svg" xmlns:xlink="http://www.w3.org/1999/xlink">
    <!-- Generator: Sketch 49.1 (51147) - http://www.bohemiancoding.com/sketch -->
    <title>Facebook</title>
    <desc>Created with Sketch.</desc>
    <defs></defs>
    <g id="design" stroke="none" stroke-width="1" fill="none" fill-rule="evenodd">
        <g id="110_HT---Booking-Confirmed-email-invoice-Copy" transform="translate(-605.000000, -493.000000)">
            <g id="Group-23">
                <g id="Group-10" transform="translate(605.000000, 493.000000)">
                    <g id="Facebook">
                        <path d="M28.0036876,0 C12.5378638,0 0,12.5378638 0,28.0036876 C0,43.4621362 12.5378638,56 28.0036876,56 C43.4621362,56 56,43.4621362 56,28.0036876 C56,12.5378638 43.4621362,0 28.0036876,0 L28.0036876,0 Z" fill="#43619C"></path>
                        <path d="M41.6257079,39.8409061 C41.6257079,40.6669301 41.2200711,41.2053207 40.4014224,41.2053207 L33.5129725,41.2053207 L33.5129725,30.8800211 L37.0161991,30.8800211 L37.5472145,26.4548927 L33.5129725,26.4548927 L33.5129725,24.1538259 C33.5129725,22.9737917 33.8301067,22.0297643 35.5264059,22.0297643 L37.9381009,22.0297643 L37.9381009,18.5117872 C37.2005795,18.4601607 36.0574213,18.3495325 34.5602529,18.3495325 C31.4479126,18.3495325 29.0878441,20.2523377 29.0878441,23.7481891 L29.0878441,26.4548927 L25.4002371,26.4548927 L25.4002371,30.8800211 L29.0878441,30.8800211 L29.0878441,41.2053207 L16.3139734,41.2053207 C15.4879494,41.2053207 15.0749374,40.6669301 15.0749374,39.8409061 L15.0749374,15.7534571 C15.0749374,14.9274332 15.4879494,13.9170288 16.3139734,13.9170288 L40.4014224,13.9170288 C41.2200711,13.9170288 41.6257079,14.9274332 41.6257079,15.7534571 L41.6257079,39.8409061 L41.6257079,39.8409061 Z" id="Path" fill="#FFFFFF"></path>
                    </g>
                </g>
            </g>
        </g>
    </g>
</svg>