<svg width="40px" height="40px" viewBox="0 0 40 40" version="1.1" xmlns="http://www.w3.org/2000/svg" xmlns:xlink="http://www.w3.org/1999/xlink">
    <desc></desc>
    <defs></defs>
    <g id="design" stroke="none" stroke-width="1" fill="none" fill-rule="evenodd">
        <g id="117_HT---My-Account" transform="translate(-585.000000, -736.000000)">
            <g id="Group-5" transform="translate(529.000000, 704.000000)">
                <g id="Group-35" transform="translate(0.000000, 32.000000)">
                    <g id="Group-34" transform="translate(56.000000, 0.000000)">
                        <path d="M39.9642105,19.9821053 C39.9642105,31.0178947 31.0178947,39.9642105 19.9821053,39.9642105 C8.94631579,39.9642105 0,31.0178947 0,19.9821053 C0,8.94631579 8.94631579,0 19.9821053,0 C31.0178947,0 39.9642105,8.94631579 39.9642105,19.9821053" id="Twitter-Circle" fill="#24A9E6"></path>
                        <path d="M29.6947368,11.8826316 C28.9126316,12.3573684 28.0484211,12.7026316 27.1247368,12.8873684 C26.3889474,12.0821053 25.3373684,11.5789474 24.1731579,11.5789474 C21.9415789,11.5789474 20.1305263,13.4357895 20.1305263,15.7257895 C20.1305263,16.0505263 20.1652632,16.3663158 20.2347368,16.67 C16.8736842,16.4968421 13.8942105,14.8478947 11.8984211,12.3357895 C11.55,12.9505263 11.3510526,13.6636842 11.3510526,14.4226316 C11.3510526,15.8610526 12.0647368,17.1305263 13.1505263,17.8742105 C12.4884211,17.8542105 11.8636842,17.6657895 11.3173684,17.3568421 L11.3173684,17.4078947 C11.3173684,19.4178947 12.7115789,21.0947368 14.5631579,21.4742105 C14.2242105,21.5715789 13.8663158,21.62 13.4973684,21.62 C13.2368421,21.62 12.9826316,21.5952632 12.7363158,21.5468421 C13.2510526,23.1936842 14.7436842,24.3931579 16.5136842,24.4247368 C15.13,25.5378947 13.3852632,26.2010526 11.4910526,26.2010526 C11.1647368,26.2010526 10.8421053,26.1821053 10.5263158,26.1442105 C12.3157895,27.3189474 14.4426316,28.0057895 16.7257895,28.0057895 C24.1652632,28.0057895 28.2321053,21.6878947 28.2321053,16.2073684 C28.2321053,16.0268421 28.2289474,15.8468421 28.2221053,15.67 C29.0121053,15.0847368 29.6984211,14.3552632 30.2384211,13.5236842 C29.5142105,13.8531579 28.7342105,14.0763158 27.9163158,14.1763158 C28.7515789,13.6636842 29.3926316,12.8505263 29.6947368,11.8826316" id="Twitter" fill="#FFFFFF"></path>
                    </g>
                </g>
            </g>
        </g>
    </g>
</svg>
