<svg width="31px" height="11px" viewBox="0 0 31 11" version="1.1" xmlns="http://www.w3.org/2000/svg" xmlns:xlink="http://www.w3.org/1999/xlink">
  <desc></desc>
  <defs></defs>
  <g id="design" stroke="none" stroke-width="1" fill="none" fill-rule="evenodd">
      <g id="120_HT---My-Account-Preference-Copy" transform="translate(-284.000000, -576.000000)">
          <g id="Group" transform="translate(277.000000, 567.000000)">
              <g id="visa-logo-8ea8a4fc" transform="translate(7.000000, 9.000000)">
                  <g id="visa-logo">
                      <g id="Page-1">
                          <g id="visa-logo">
                              <g id="Visa-Copy">
                                  <polyline id="Fill-1" fill="#005B9C" points="12.9969024 9.84125814 10.5516769 9.84125814 12.0799114 0 14.5253882 0 12.9969024 9.84125814"></polyline>
                                  <path d="M8.4883216,0 L6.15690346,6.76862905 L5.88130371,5.31102563 L5.88155494,5.31155212 L5.05852415,0.886355554 C5.05852415,0.886355554 4.95928814,0 3.89859338,0 L0.044970242,0 L0,0.16637265 C0,0.16637265 1.17877305,0.423302564 2.55752549,1.29175726 L4.68192977,9.84125814 L7.22965728,9.84125814 L11.1199601,0 L8.4883216,0" id="Fill-2" fill="#005B9C"></path>
                                  <path d="M25.1175131,6.36006835 L26.4025566,2.67696752 L27.1253465,6.36006835 L25.1175131,6.36006835 L25.1175131,6.36006835 L25.1175131,6.36006835 L25.1175131,6.36006835 L25.1175131,6.36006835 Z M27.8081907,9.84125814 L30.0534369,9.84125814 L28.0958496,0 L26.1299717,0 C25.222025,0 25.0011935,0.733408545 25.0011935,0.733408545 L21.3545842,9.84125814 L23.9030654,9.84125814 L24.4130631,8.37970597 L27.5215369,8.37970597 L27.8081907,9.84125814 L27.8081907,9.84125814 L27.8081907,9.84125814 Z" id="Fill-3" fill="#005B9C"></path>
                                  <path d="M21.5329578,2.54271111 L21.8816656,0.429094017 C21.8816656,0.429094017 20.8048921,0 19.6823946,0 C18.4689518,0 15.5875903,0.555979489 15.5875903,3.25795555 C15.5875903,5.80066667 18.9694027,5.83225641 18.9694027,7.16718632 C18.9694027,8.50211623 15.9360469,8.26361368 14.9351449,7.42148377 L14.5713633,9.63092307 C14.5713633,9.63092307 15.6629594,10.1869026 17.3316318,10.1869026 C19.0000529,10.1869026 21.5176327,9.28106667 21.5176327,6.81759316 C21.5176327,4.25882393 18.1051702,4.02058461 18.1051702,2.90809915 C18.1051702,1.79561368 20.4865831,1.93855726 21.5329578,2.54271111" id="Fill-4" fill="#005B9C"></path>
                                  <path d="M5.88155494,5.31155212 L5.05852415,0.886355554 C5.05852415,0.886355554 4.95928814,0 3.89859338,0 L0.044970242,0 L0,0.16637265 C0,0.16637265 1.85232175,0.568878632 3.62927439,2.0757094 C5.32759191,3.51620171 5.88155494,5.31155212 5.88155494,5.31155212" id="Fill-5" fill="#EF9F3F"></path>
                              </g>
                          </g>
                      </g>
                  </g>
              </g>
          </g>
      </g>
  </g>
</svg>
