<svg width="88px" height="102px" viewBox="0 0 88 102" version="1.1" xmlns="http://www.w3.org/2000/svg" xmlns:xlink="http://www.w3.org/1999/xlink">
    <desc></desc>
    <defs></defs>
    <g id="design" stroke="none" stroke-width="1" fill="none" fill-rule="evenodd">
        <g id="HT-verification-expired" transform="translate(-676.000000, -109.000000)">
            <g id="Group-19" transform="translate(655.000000, 97.000000)">
                <polygon id="Page-1" stroke="#31322F" transform="translate(65.000000, 63.301500) rotate(-30.000000) translate(-65.000000, -63.301500) " points="40 20 15 63.301 40 106.603 89.999 106.603 115 63.301 89.999 20"></polygon>
                <path d="M66.0702703,46 L66.0702703,59.6 C66.0702703,60.3132903 66.0630631,60.9869432 66.0486486,61.620979 C66.0342342,62.2550148 66.0162163,62.9009291 65.9945946,63.5587413 C65.9729729,64.2165534 65.9405408,64.9100197 65.8972973,65.6391608 C65.8540538,66.368302 65.810811,67.1766855 65.7675676,68.0643357 L64.3621622,68.0643357 C64.3189187,67.1766855 64.2756759,66.368302 64.2324324,65.6391608 C64.189189,64.9100197 64.1567569,64.2165534 64.1351351,63.5587413 C64.1135134,62.9009291 64.0954956,62.2550148 64.0810811,61.620979 C64.0666666,60.9869432 64.0594595,60.3132903 64.0594595,59.6 L64.0594595,46 L66.0702703,46 Z M63,77.8125874 C63,77.5114204 63.0504499,77.2261086 63.1513514,76.9566434 C63.2522528,76.6871781 63.3927919,76.4533809 63.572973,76.2552448 C63.7531541,76.0571086 63.962161,75.898602 64.2,75.7797203 C64.437839,75.6608386 64.7008995,75.6013986 64.9891892,75.6013986 C65.2630644,75.6013986 65.5225213,75.6608386 65.7675676,75.7797203 C66.0126138,75.898602 66.2252243,76.0571086 66.4054054,76.2552448 C66.5855865,76.4533809 66.7297292,76.6871781 66.8378378,76.9566434 C66.9459465,77.2261086 67,77.5114204 67,77.8125874 C67,78.1296053 66.9459465,78.4188798 66.8378378,78.6804196 C66.7297292,78.9419593 66.5855865,79.1717939 66.4054054,79.3699301 C66.2252243,79.5680663 66.0126138,79.7226102 65.7675676,79.8335664 C65.5225213,79.9445227 65.2630644,80 64.9891892,80 C64.4270242,80 63.9549569,79.7899788 63.572973,79.3699301 C63.1909891,78.9498813 63,78.4307723 63,77.8125874 Z" id="!" fill="#31322F"></path>
            </g>
        </g>
    </g>
</svg>
