<?xml version="1.0" encoding="UTF-8"?>
<svg width="26px" height="29px" viewBox="0 0 26 29" version="1.1" xmlns="http://www.w3.org/2000/svg" xmlns:xlink="http://www.w3.org/1999/xlink">
    <!-- Generator: Sketch 48.2 (47327) - http://www.bohemiancoding.com/sketch -->
    <title>Page 1</title>
    <desc>Created with Sketch.</desc>
    <defs></defs>
    <g id="tab1/a" stroke="none" stroke-width="1" fill="none" fill-rule="evenodd" transform="translate(-35.000000, 1.000000)">
        <g id="Page-1" transform="translate(36.000000, 0.000000)">
            <path d="M23.7775059,12.0650824 C23.7775059,5.59637647 18.5335059,0.353082353 12.0655059,0.353082353 C5.5968,0.353082353 0.3528,5.59637647 0.3528,12.0650824 C0.3528,17.5194353 4.08127059,22.1020235 9.12762353,23.4050824 L12.0655059,27.6206118 L15.0026824,23.4050824 C20.0490353,22.1020235 23.7775059,17.5194353 23.7775059,12.0650824 Z" id="Stroke-3" stroke="#47AC94"></path>
            <path d="M11.3832,17.4153882 C11.3832,17.3137412 11.4015529,17.2170353 11.4396706,17.1259765 C11.4770824,17.0349176 11.5293176,16.9558588 11.5963765,16.8888 C11.6627294,16.8217412 11.7410824,16.7680941 11.8293176,16.7278588 C11.9175529,16.6876235 12.0156706,16.6678588 12.1229647,16.6678588 C12.2246118,16.6678588 12.3213176,16.6876235 12.4123765,16.7278588 C12.5034353,16.7680941 12.5824941,16.8217412 12.6488471,16.8888 C12.7166118,16.9558588 12.7695529,17.0349176 12.8097882,17.1259765 C12.8507294,17.2170353 12.8704941,17.3137412 12.8704941,17.4153882 C12.8704941,17.5226824 12.8507294,17.6208 12.8097882,17.7090353 C12.7695529,17.7972706 12.7166118,17.8749176 12.6488471,17.9419765 C12.5824941,18.0090353 12.5034353,18.0612706 12.4123765,18.0986824 C12.3213176,18.1360941 12.2246118,18.1551529 12.1229647,18.1551529 C11.9133176,18.1551529 11.7382588,18.0838588 11.5963765,17.9419765 C11.4544941,17.8000941 11.3832,17.6243294 11.3832,17.4153882 Z M9.75967059,7.64809412 C9.90367059,7.50338824 10.0674353,7.36432941 10.2495529,7.23021176 C10.4316706,7.09609412 10.6314353,6.9768 10.8488471,6.87232941 C11.0655529,6.76785882 11.3027294,6.68456471 11.5596706,6.62315294 C11.8173176,6.56174118 12.0961412,6.53068235 12.3961412,6.53068235 C12.7709647,6.53068235 13.1246118,6.58715294 13.4570824,6.69938824 C13.7895529,6.81232941 14.0803765,6.97327059 14.3295529,7.18150588 C14.5787294,7.39115294 14.7770824,7.64738824 14.9246118,7.94950588 C15.0714353,8.25232941 15.1455529,8.59185882 15.1455529,8.96668235 C15.1455529,9.37397647 15.0820235,9.7248 14.9563765,10.0198588 C14.8307294,10.3142118 14.6712,10.5732706 14.4784941,10.7956235 C14.2850824,11.0179765 14.0761412,11.2135059 13.8509647,11.3822118 C13.6257882,11.5509176 13.4154353,11.7090353 13.2199059,11.8565647 C13.0243765,12.0040941 12.8584941,12.1523294 12.7215529,12.3026824 C12.5853176,12.4530353 12.5112,12.6189176 12.5006118,12.8010353 L12.4039059,14.1196235 L11.8815529,14.1196235 L11.8413176,12.7445647 L11.8413176,12.7050353 C11.8413176,12.4848 11.9055529,12.2920941 12.0340235,12.1255059 C12.1624941,11.9596235 12.3227294,11.7986824 12.5126118,11.6433882 C12.7032,11.4880941 12.9093176,11.3299765 13.1316706,11.1690353 C13.3540235,11.0080941 13.5601412,10.8273882 13.7507294,10.6262118 C13.9406118,10.4257412 14.1001412,10.1942118 14.2286118,9.93091765 C14.3577882,9.66832941 14.4220235,9.35774118 14.4220235,8.99844706 C14.4220235,8.70974118 14.3655529,8.45068235 14.2526118,8.22338824 C14.1403765,7.99538824 13.9879059,7.80197647 13.7952,7.64385882 C13.6017882,7.48644706 13.3794353,7.36574118 13.1274353,7.28244706 C12.8754353,7.19915294 12.6128471,7.15750588 12.3396706,7.15750588 C11.9860235,7.15750588 11.6789647,7.2048 11.4192,7.29868235 C11.1594353,7.39256471 10.9413176,7.49703529 10.7641412,7.61209412 C10.5876706,7.72715294 10.4479059,7.83162353 10.3462588,7.92550588 C10.2446118,8.01938824 10.1747294,8.06597647 10.1373176,8.06597647 C10.0568471,8.06597647 9.99755294,8.03421176 9.96014118,7.96997647 L9.75967059,7.64809412 Z" id="Fill-5" fill="#47AC94"></path>
        </g>
    </g>
</svg>