<?xml version="1.0" encoding="UTF-8"?>
<svg width="18px" height="18px" viewBox="0 0 18 18" version="1.1" xmlns="http://www.w3.org/2000/svg" xmlns:xlink="http://www.w3.org/1999/xlink">
    <!-- Generator: Sketch 49.1 (51147) - http://www.bohemiancoding.com/sketch -->
    <title>Group 10 Copy 5</title>
    <desc>Created with Sketch.</desc>
    <defs></defs>
    <g id="Symbols" stroke="none" stroke-width="1" fill="none" fill-rule="evenodd">
        <g id="Artboard-Copy-2" transform="translate(-41.000000, -155.000000)" fill="#979797">
            <g id="Group-5" transform="translate(42.000000, 159.000000)">
                <path d="M14.6865045,1.63958513 C15,2.80935918 15,5.25003087 15,5.25003087 C15,5.25003087 15,7.69070256 14.6865045,8.86035313 C14.5140141,9.50574145 14.0056797,10.0140758 13.3602914,10.1865662 C12.1905173,10.5000617 7.49993826,10.5000617 7.49993826,10.5000617 C7.49993826,10.5000617 2.80935918,10.5000617 1.63958513,10.1865662 C0.994196814,10.0140758 0.485862452,9.50574145 0.313372021,8.86035313 C0,7.69070256 0,5.25003087 0,5.25003087 C0,5.25003087 0,2.80935918 0.313372021,1.63958513 C0.485862452,0.994196814 0.994196814,0.485985924 1.63958513,0.313495493 C2.80935918,0 7.49993826,0 7.49993826,0 C7.49993826,0 12.1905173,0 13.3602914,0.313495493 C14.0056797,0.485985924 14.5140141,0.994196814 14.6865045,1.63958513 Z M5.99993826,7.50003704 L9.89696259,5.25000617 L5.99993826,2.99997531 L5.99993826,7.50003704 Z" id="Combined-Shape"></path>
            </g>
        </g>
    </g>
</svg>