<?xml version="1.0" encoding="UTF-8"?>
<svg width="18px" height="18px" viewBox="0 0 18 18" version="1.1" xmlns="http://www.w3.org/2000/svg" xmlns:xlink="http://www.w3.org/1999/xlink">
    <!-- Generator: Sketch 49.1 (51147) - http://www.bohemiancoding.com/sketch -->
    <title>Group 10 Copy 4</title>
    <desc>Created with Sketch.</desc>
    <defs></defs>
    <g id="Symbols" stroke="none" stroke-width="1" fill="none" fill-rule="evenodd">
        <g id="footer2018" transform="translate(-572.000000, -254.000000)">
            <rect id="Rectangle-8" fill="#31322F" x="0" y="0" width="1440" height="558"></rect>
            <g id="Group-2" transform="translate(572.000000, 182.000000)" fill="#979797">
                <g id="Group-11" transform="translate(1.000000, 75.000000)">
                    <path d="M15.9950896,1.53278658 C15.3952737,1.79956183 14.7954578,1.99950045 14.1288054,2.06633707 C14.7954578,1.66588858 15.3284371,0.999807348 15.5952123,0.266889494 C14.9291311,0.66619548 14.2624786,0.932970724 13.5295608,1.06664397 C12.9297449,0.39999149 12.0625825,0.00011425064 11.1297261,0.00011425064 C9.33027849,0.00011425064 7.86444278,1.46594996 7.86444278,3.26596879 C7.86444278,3.53217278 7.86444278,3.79894802 7.93070815,3.99888664 C5.13156748,3.86521339 2.73230405,2.53247968 1.13279509,0.533093485 C0.799754478,1.06664397 0.666652483,1.59962321 0.666652483,2.19943906 C0.666652483,3.33223416 1.26646834,4.33192725 2.13248819,4.93174311 C1.59950896,4.93174311 1.06652972,4.79864112 0.666652483,4.53186587 L0.666652483,4.5987025 C0.666652483,6.19821145 1.79944758,7.53094517 3.26585454,7.79772041 C2.99907929,7.86398578 2.73230405,7.93082241 2.39926343,7.93082241 C2.19932481,7.93082241 1.99938619,7.93082241 1.79944758,7.86398578 C2.19932481,9.19729075 3.39895653,10.1301472 4.86536349,10.1301472 C3.73199715,10.9961671 2.33242681,11.5297176 0.799754478,11.5297176 C0.532979234,11.5297176 0.266775244,11.5297176 0,11.4634522 C1.46640696,12.3963087 3.19901791,12.9292879 4.99846549,12.9292879 C11.0628894,12.9292879 14.328744,7.93082241 14.328744,3.5990094 L14.328744,3.19913216 C14.9953965,2.7324183 15.5289469,2.13260244 15.9950896,1.53278658" id="Fill-1"></path>
                </g>
            </g>
        </g>
    </g>
</svg>