<?xml version="1.0" encoding="UTF-8"?>
<svg width="18px" height="18px" viewBox="0 0 18 18" version="1.1" xmlns="http://www.w3.org/2000/svg" xmlns:xlink="http://www.w3.org/1999/xlink">
    <!-- Generator: Sketch 49.1 (51147) - http://www.bohemiancoding.com/sketch -->
    <title>Group 10 Copy 3</title>
    <desc>Created with Sketch.</desc>
    <defs>
        <polygon id="path-1" points="0 0.0062826087 10.4940907 0.0062826087 10.4940907 10.7173913 0 10.7173913"></polygon>
        <polygon id="path-3" points="0.0566358696 0.111165217 4.65855435 0.111165217 4.65855435 4.7129913 0.0566358696 4.7129913"></polygon>
    </defs>
    <g id="Symbols" stroke="none" stroke-width="1" fill="none" fill-rule="evenodd">
        <g id="footer2018" transform="translate(-572.000000, -286.000000)">
            <rect id="Rectangle-8" fill="#31322F" x="0" y="0" width="1440" height="558"></rect>
            <g id="Group-2" transform="translate(572.000000, 182.000000)">
                <g id="Group-7" transform="translate(0.000000, 107.000000)">
                    <g id="Page-1">
                        <g id="Group-3" transform="translate(0.000000, 0.178592)">
                            <mask id="mask-2" fill="white">
                                <use xlink:href="#path-1"></use>
                            </mask>
                            <g id="Clip-2"></g>
                            <path d="M0.00327065217,5.36863696 C-0.101501087,2.60761522 2.3169337,0.0559521739 5.08091196,0.0226913043 C6.48950978,-0.0974173913 7.85985761,0.449723913 8.92605326,1.34185435 C8.48885761,1.8226587 8.04408587,2.29810435 7.56845543,2.74287609 C6.63012935,2.17282174 5.5001837,1.73821304 4.40331413,2.12422391 C2.63402065,2.6279413 1.56283587,4.71672391 2.21733587,6.44758261 C2.75948804,8.25512609 4.95803152,9.24703913 6.68131413,8.48776739 C7.57362935,8.16809348 8.16160761,7.34488696 8.41974891,6.46033261 C7.39716196,6.44000652 6.37439022,6.45257174 5.35180326,6.42466957 C5.3492163,5.81618043 5.34662935,5.21027826 5.3492163,4.60178913 C7.054575,4.59901739 8.76233587,4.59402826 10.4702815,4.60936522 C10.5750533,6.09982174 10.355162,7.69523478 9.38616196,8.89170217 C8.05942283,10.5996478 5.60754239,11.1007783 3.61336848,10.4309413 C1.49649891,9.73541957 -0.0427402174,7.60321304 0.00327065217,5.36863696" id="Fill-1" fill="#979797" mask="url(#mask-2)"></path>
                        </g>
                        <g id="Group-6" transform="translate(12.195652, 3.135114)">
                            <mask id="mask-4" fill="white">
                                <use xlink:href="#path-3"></use>
                            </mask>
                            <g id="Clip-5"></g>
                            <path d="M1.59827717,0.111165217 L3.11940761,0.111165217 C3.12199457,0.619871739 3.1269837,1.13135 3.12975543,1.63987174 C3.63846196,1.64523043 4.14994022,1.64763261 4.65864674,1.65021957 L4.65864674,3.17393696 C4.14994022,3.17652391 3.63846196,3.17929565 3.12975543,3.18169783 C3.12458152,3.6929913 3.12199457,4.20188261 3.11940761,4.7129913 C2.61070109,4.71058913 2.10199457,4.7129913 1.59569022,4.7129913 C1.5905163,4.20188261 1.5905163,3.6929913 1.58552717,3.18428478 C1.07682065,3.17929565 0.565342391,3.17652391 0.0566358696,3.17393696 L0.0566358696,1.65021957 C0.565342391,1.64763261 1.07404891,1.64523043 1.58552717,1.63987174 C1.58792935,1.13135 1.59328804,0.619871739 1.59827717,0.111165217" id="Fill-4" fill="#979797" mask="url(#mask-4)"></path>
                        </g>
                    </g>
                </g>
            </g>
        </g>
    </g>
</svg>