<?xml version="1.0" encoding="UTF-8"?>
<svg width="18px" height="18px" viewBox="0 0 18 18" version="1.1" xmlns="http://www.w3.org/2000/svg" xmlns:xlink="http://www.w3.org/1999/xlink">
    <!-- Generator: Sketch 49.1 (51147) - http://www.bohemiancoding.com/sketch -->
    <title>Group 10 Copy 6</title>
    <desc>Created with Sketch.</desc>
    <defs>
        <polygon id="path-1" points="0 0 16 0 16 16 0 16"></polygon>
    </defs>
    <g id="Symbols" stroke="none" stroke-width="1" fill="none" fill-rule="evenodd">
        <g id="footer2018" transform="translate(-572.000000, -350.000000)">
            <rect id="Rectangle-8" fill="#31322F" x="0" y="0" width="1440" height="558"></rect>
            <g id="Group-2" transform="translate(572.000000, 182.000000)">
                <g id="Group-4" transform="translate(1.000000, 169.000000)">
                    <g id="Page-1">
                        <mask id="mask-2" fill="white">
                            <use xlink:href="#path-1"></use>
                        </mask>
                        <g id="Clip-2"></g>
                        <path d="M0,8 C0,11.3892058 2.10858864,14.283953 5.08450929,15.4496033 C5.01460336,14.8166437 4.95145193,13.8457604 5.11231428,13.1547642 C5.25770027,12.5303954 6.05040474,9.1782412 6.05040474,9.1782412 C6.05040474,9.1782412 5.81111134,8.69899666 5.81111134,7.99049118 C5.81111134,6.87809037 6.45587229,6.04760968 7.25867574,6.04760968 C7.9412095,6.04760968 8.27086911,6.56003672 8.27086911,7.17450325 C8.27086911,7.86090891 7.83385864,8.88714014 7.608271,9.83815332 C7.41986598,10.6344023 8.00763981,11.2837563 8.79299957,11.2837563 C10.2148575,11.2837563 11.3077771,9.78451046 11.3077771,7.62036855 C11.3077771,5.70489868 9.93149579,4.36566332 7.96619464,4.36566332 C5.68992356,4.36566332 4.35384142,6.07298839 4.35384142,7.83743196 C4.35384142,8.52501803 4.61871017,9.26231228 4.94922229,9.66312545 C5.01453778,9.74234376 5.02417772,9.81172536 5.00470111,9.89258312 C4.94397606,10.1452554 4.80901695,10.6886353 4.78252352,10.7998557 C4.74757055,10.9462916 4.66651638,10.9773756 4.51496608,10.9068136 C3.51575712,10.4417339 2.89112855,8.98091678 2.89112855,7.80759394 C2.89112855,5.28401862 4.72468389,2.96642403 8.17702728,2.96642403 C10.9521487,2.96642403 13.1088714,4.94399633 13.1088714,7.58685815 C13.1088714,10.343957 11.3704039,12.5628566 8.95759985,12.5628566 C8.14692707,12.5628566 7.38484743,12.1417142 7.12397893,11.644239 C7.12397893,11.644239 6.72283952,13.1716834 6.62558764,13.546003 C6.44492079,14.2408683 5.95741541,15.1118762 5.63129701,15.6432553 C6.37980204,15.8750082 7.17526077,16 7.99996721,16 C12.418206,16 16,12.4182569 16,8 C16,3.58174307 12.418206,0 7.99996721,0 C3.58172838,0 0,3.58174307 0,8 Z" id="Fill-1" fill="#979797" mask="url(#mask-2)"></path>
                    </g>
                </g>
            </g>
        </g>
    </g>
</svg>