<?xml version="1.0" encoding="UTF-8"?>
<svg width="92px" height="59px" viewBox="0 0 92 59" version="1.1" xmlns="http://www.w3.org/2000/svg" xmlns:xlink="http://www.w3.org/1999/xlink">
    <!-- Generator: Sketch 49.1 (51147) - http://www.bohemiancoding.com/sketch -->
    <title>logo2</title>
    <desc>Created with Sketch.</desc>
    <defs>
        <polygon id="path-1" points="0 58.4146341 91.8047097 58.4146341 91.8047097 0.0531707317 0 0.0531707317"></polygon>
    </defs>
    <g id="Symbols" stroke="none" stroke-width="1" fill="none" fill-rule="evenodd">
        <g id="Artboard-Copy" transform="translate(-131.000000, -273.000000)">
            <g id="logo2" transform="translate(131.000000, 273.000000)">
                <polygon id="Fill-1" fill="#FEFEFE" style="mix-blend-mode: luminosity;" points="32.0359943 27.577439 59.6268197 27.577439 59.6268197 0.12195122 32.0359943 0.12195122"></polygon>
                <g id="Group-45" transform="translate(0.000000, 0.068780)">
                    <path d="M54.3157563,13.7375488 C54.3157563,16.6399878 56.6563627,19.0187683 59.6279705,19.2359634 L59.6279705,8.2390122 C56.6563627,8.45632927 54.3157563,10.8349878 54.3157563,13.7375488" id="Fill-2" fill="#BB932D" style="mix-blend-mode: luminosity;"></path>
                    <path d="M50.9178613,15.971378 C50.6094615,14.6905244 50.5121301,13.3028415 50.8021655,12.0096707 C50.9725873,11.2502805 51.2862516,10.5301585 51.6906361,9.86467073 L52.5123826,8.51259756 L48.4822496,8.51259756 L48.4822496,5.14308537 L59.6267585,5.14308537 L59.6267585,0.0532073171 L32.035933,0.0532073171 L32.035933,5.14308537 L43.1641588,5.14308537 L43.1641588,8.57808537 L39.6807958,8.51259756 L39.6807958,22.6251585 L35.9763252,22.6251585 L35.9763252,8.51259756 L32.035933,8.51259756 L32.035933,27.4258902 L34.3144677,27.4258902 L35.9763252,27.4258902 L39.6807958,27.4258902 L41.4606753,27.4258902 L44.0782171,27.5085732 L44.0782171,9.0919878 L47.6513209,9.0919878 L47.6513209,27.5085732 L59.6267585,27.5085732 L59.6267585,22.8734512 C59.6267585,22.8734512 58.1067967,22.6844268 58.1060622,22.6843049 C54.4844763,22.234061 51.7520956,19.4362561 50.9178613,15.971378" id="Fill-4" fill="#BB932D" style="mix-blend-mode: luminosity;"></path>
                    <mask id="mask-2" fill="white">
                        <use xlink:href="#path-1"></use>
                    </mask>
                    <g id="Clip-7" style="mix-blend-mode: luminosity;"></g>
                    <path d="M10.8171325,40.9704878 L14.9210904,40.9704878 L14.9210904,39.7021951 L10.8171325,39.7021951 L10.8171325,40.9704878 Z M10.8171325,39.3996341 L14.9210904,39.3996341 L14.9210904,38.2093902 L10.8171325,38.2093902 L10.8171325,39.3996341 Z M14.9114185,37.9165854 L15.1660717,37.6531707 L15.6166121,37.9459756 C15.6557896,37.9654878 15.6753783,38.0043902 15.6753783,38.0435366 C15.6753783,38.0532927 15.6753783,38.1604878 15.5186686,38.1996341 C15.4501081,38.2191463 15.4011363,38.2678049 15.4011363,38.3167073 L15.4011363,41.7606098 C15.4109307,41.8191463 15.3619589,41.8679268 15.3030703,41.8971951 C15.009362,41.9752439 14.9212128,41.9947561 14.9212128,41.7606098 L14.9212128,41.2630488 L10.8171325,41.2630488 L10.8171325,41.7119512 C10.8171325,41.7606098 10.7780775,41.8093902 10.6998451,41.8387805 C10.3863032,41.9167073 10.3275371,41.9264634 10.3275371,41.6923171 L10.3275371,37.6239024 L10.7584888,37.9165854 L14.9114185,37.9165854 Z M12.6587164,35.0190244 L12.6587164,33.9847561 C11.9142229,34.0921951 10.4549861,34.1310976 9.92596844,34.1310976 C9.4362506,34.1310976 9.37748446,34.1310976 9.37748446,34.0239024 C9.37748446,33.9556098 9.41666188,33.9068293 9.48522238,33.9068293 C11.424505,33.8287805 13.9711602,33.6140244 15.3521645,32.8920732 L15.8516767,33.184878 C15.9202372,33.2237805 15.9496203,33.272561 15.9496203,33.3117073 C15.9496203,33.3603659 15.8908541,33.4385366 15.7831162,33.4385366 C15.7733219,33.4385366 15.5577236,33.4092683 15.5088742,33.4092683 C14.7938862,33.6335366 14.0004209,33.8092683 13.1484342,33.9263415 L13.1484342,35.0190244 L16.1748905,35.0190244 L16.791935,34.5019512 L17.4187738,34.9702439 C17.467868,34.9995122 17.4971286,35.0580488 17.4971286,35.1263415 C17.4971286,35.2531707 17.3991851,35.3117073 17.2718584,35.3117073 L13.3637877,35.3117073 C14.607671,36.7167073 16.3511889,37.282439 17.369802,37.4873171 C17.4187738,37.4970732 17.4482793,37.5360976 17.4482793,37.5752439 C17.4482793,37.6141463 17.3893907,37.6726829 17.2914472,37.7118293 C17.193626,37.7507317 17.1151487,37.8289024 17.09556,37.9165854 C17.0661769,37.984878 17.0269995,38.0336585 16.9879445,38.0336585 C16.9781502,38.0336585 16.9781502,38.0239024 16.9683558,38.0239024 C15.2052492,37.4484146 14.0103376,36.4630488 13.1484342,35.3117073 L13.1484342,37.6629268 C13.1484342,37.7996341 12.795715,37.8386585 12.7761263,37.8386585 C12.6978938,37.8386585 12.6587164,37.78 12.6587164,37.6629268 L12.6587164,35.3117073 L12.6390053,35.3117073 C11.6890751,37.1947561 8.65270206,38.082561 8.51558106,38.082561 C8.45681492,38.082561 8.42730942,38.0435366 8.42730942,37.984878 C8.42730942,37.9459756 8.44702056,37.9165854 8.48607556,37.8873171 C9.71049259,37.4970732 11.4344218,36.5019512 12.1003156,35.3117073 L8.66237398,35.3117073 L8.58414156,35.0190244 L12.6587164,35.0190244 Z" id="Fill-6" fill="#000000" style="mix-blend-mode: luminosity;" mask="url(#mask-2)"></path>
                    <path d="M23.6969565,36.1214634 L25.3913802,36.1214634 L25.3913802,34.5117073 L23.6969565,34.5117073 L23.6969565,36.1214634 Z M23.4618919,39.0092683 L25.5773505,39.0092683 L25.5773505,37.7897561 L23.4618919,37.7897561 L23.4618919,39.0092683 Z M20.7193496,34.3556098 C20.4942018,33.7019512 20.1708656,33.3214634 19.9358011,33.184878 C19.8966236,33.1653659 19.8769125,33.1359756 19.8769125,33.1067073 C19.8769125,33.077561 19.906418,33.0091463 19.9749785,33.0091463 C20.18066,33.0091463 20.9839197,33.6432927 21.1600956,34.1019512 C21.1600956,34.3946341 21.1600956,34.5214634 20.9642085,34.5214634 C20.8662649,34.5214634 20.758527,34.4629268 20.7193496,34.3556098 Z M20.082594,36.6580488 C19.9162123,36.0434146 19.5732874,35.575122 19.3480172,35.4287805 C19.3186341,35.4092683 19.3088398,35.3897561 19.3088398,35.3604878 C19.3088398,35.3409756 19.3186341,35.2726829 19.3871946,35.2726829 C19.4754663,35.2726829 19.7595026,35.4190244 20.1217714,35.8190244 C20.5234625,36.2580488 20.5234625,36.3068293 20.5234625,36.6873171 C20.484285,36.784878 20.4059302,36.8435366 20.3176585,36.8435366 C20.1904543,36.8435366 20.111977,36.7556098 20.082594,36.6580488 Z M23.4618919,39.3215854 L23.4618919,40.8630488 C23.4618919,41.0191463 23.5793018,41.0679268 23.7263396,41.0679268 L26.4883482,41.0679268 C26.6254692,41.0679268 26.7234127,41.0191463 26.7723845,40.9704878 C26.8899168,40.8532927 26.9977771,40.6679268 27.0662152,40.4532927 L27.2426361,39.8484146 C27.2524304,39.7996341 27.2914854,39.789878 27.3502516,39.789878 C27.3992233,39.789878 27.4188121,39.8191463 27.4188121,39.8776829 L27.3208685,40.5508537 C27.3012798,40.6484146 27.2914854,40.7362195 27.2914854,40.8045122 C27.2914854,40.8923171 27.3110741,40.9508537 27.3305404,40.9704878 C27.4188121,41.0093902 27.4579895,41.0776829 27.4579895,41.1654878 C27.4579895,41.3313415 27.3110741,41.5459756 27.0662152,41.5459756 L23.4325088,41.5459756 C23.2366217,41.5459756 22.9819684,41.4680488 22.9819684,41.0776829 L22.9819684,37.5458537 C22.1395313,38.4630488 21.16989,38.785 21.1503013,38.785 C21.0816184,38.785 21.071824,38.7167073 21.071824,38.7069512 C21.071824,38.6776829 21.0914127,38.6385366 21.1209182,38.6287805 C21.2776279,38.5508537 22.5802774,37.877561 23.1581444,36.4239024 L21.4245433,36.4239024 L21.4049546,36.3459756 L20.4255189,39.0386585 L20.3176585,39.5264634 C20.3274529,39.789878 20.4059302,40.1313415 20.5234625,40.5313415 C20.6114892,40.785 20.6507891,41.0093902 20.6507891,41.1947561 C20.6507891,41.380122 20.6114892,41.7313415 20.3470416,41.7313415 C20.0630053,41.7313415 19.9945672,41.3996341 19.9945672,40.989878 C19.9945672,40.8728049 20.0239503,40.3264634 20.0239503,40.1996341 C20.0239503,39.9167073 19.9945672,39.6923171 19.9455954,39.5167073 C19.906418,39.4093902 19.6713534,39.3410976 19.2306074,39.3020732 C19.1718412,39.282561 19.1522525,39.2434146 19.1522525,39.1947561 C19.1522525,39.1459756 19.2012243,39.1263415 19.259868,39.1263415 C19.3382229,39.1263415 19.4167001,39.1360976 19.4852606,39.1360976 C19.7495858,39.1360976 20.0141559,39.1360976 20.1414825,38.7360976 L21.7673458,34.8336585 C21.7869345,34.7946341 21.8161951,34.775122 21.8652893,34.775122 C21.9633553,34.775122 21.9731497,34.8336585 21.9534385,34.9019512 L21.4834319,36.1214634 L23.2072386,36.1214634 L23.2072386,34.5117073 L22.0415878,34.5117073 L21.9633553,34.2190244 L23.2072386,34.2190244 L23.2072386,32.9312195 L23.7165452,33.0286585 C23.8633381,33.0482927 23.932021,33.1067073 23.932021,33.184878 C23.932021,33.2628049 23.8829268,33.3117073 23.8046944,33.3310976 C23.7361339,33.3603659 23.6969565,33.4190244 23.6969565,33.4871951 L23.6969565,34.2190244 L25.3913802,34.2190244 L25.3913802,32.8920732 L25.8908924,32.9896341 C26.0476021,33.0091463 26.1160402,33.0678049 26.1160402,33.1457317 C26.1160402,33.2237805 26.0671908,33.272561 25.988836,33.2921951 C25.9104811,33.3214634 25.8711813,33.379878 25.8711813,33.4482927 L25.8711813,34.2190244 L26.6548522,34.2190244 L27.2229249,33.78 L27.7323539,34.1702439 C27.7813257,34.1995122 27.8104639,34.2580488 27.8104639,34.3263415 C27.8104639,34.4531707 27.7126428,34.5117073 27.5851937,34.5117073 L25.8711813,34.5117073 L25.8711813,36.1214634 L26.9486829,36.1214634 L27.5657274,35.6141463 L28.1925662,36.082439 C28.2416604,36.1117073 28.2710435,36.1604878 28.2710435,36.2289024 C28.2710435,36.3459756 28.1827719,36.4239024 28.0457733,36.4239024 L25.8027432,36.4239024 C26.2632004,36.98 26.9879828,37.682561 28.2906322,37.9459756 C28.3492759,37.9459756 28.3884534,37.9752439 28.3884534,38.0141463 C28.3884534,38.0435366 28.3296872,38.0923171 28.2220717,38.1312195 C28.104417,38.1604878 28.0163902,38.2385366 27.9870072,38.3362195 C27.9674185,38.4142683 27.9183242,38.4532927 27.8791468,38.4532927 C27.8693525,38.4532927 27.8497637,38.4532927 27.8399694,38.4435366 C26.5373199,37.8386585 25.9104811,37.0092683 25.5285012,36.4239024 L23.7165452,36.4239024 L23.2072386,37.2726829 L23.53033,37.4970732 L25.5773505,37.4970732 L25.8027432,37.1653659 L26.1945175,37.4386585 C26.253406,37.4776829 26.2632004,37.5458537 26.2632004,37.6045122 C26.253406,37.6629268 26.2239005,37.7215854 26.1651344,37.7409756 C26.1062458,37.7604878 26.0671908,37.7996341 26.0671908,37.8386585 L26.0671908,39.7703659 C26.0671908,39.887439 26.0280134,39.8971951 25.7047996,39.984878 C25.6263223,39.984878 25.5773505,39.9167073 25.5773505,39.7703659 L25.5773505,39.3215854 L23.4618919,39.3215854 Z" id="Fill-8" fill="#000000" style="mix-blend-mode: luminosity;" mask="url(#mask-2)"></path>
                    <path d="M37.5754376,34.3361098 L38.1828101,33.8190366 L38.7703491,34.257939 C38.8389096,34.3165976 38.8782095,34.3945244 38.8782095,34.4531829 C38.8782095,34.5312317 38.8193209,34.6286707 38.672528,34.6286707 L34.8917838,34.6286707 C34.4609546,35.4483049 33.8338709,36.0141585 33.755516,36.0141585 C33.7263778,36.0141585 33.6772836,35.9751341 33.6772836,35.9263537 C33.6772836,35.8970854 33.6968723,35.8678171 33.716461,35.8385488 C34.0591411,35.4190366 34.3432999,34.9507439 34.5586533,34.4823293 C34.9506724,33.565378 34.9800555,33.3214756 34.9898498,32.9701341 L35.5578001,33.0872073 C35.6753324,33.1067195 35.7342209,33.1652561 35.7342209,33.2335488 C35.7342209,33.2823293 35.7048379,33.360378 35.5969775,33.360378 C35.5185002,33.360378 35.459979,33.3701341 35.459979,33.4091585 C35.3521186,33.7214756 35.2053257,34.0434268 35.0483711,34.3361098 L37.5754376,34.3361098 Z M38.3491918,37.0775732 C38.4178747,37.1263537 38.4570521,37.1751341 38.4570521,37.2240366 C38.4570521,37.3411098 38.3393974,37.3411098 38.1436327,37.3411098 C37.7811191,37.7897683 37.1739914,38.0923293 36.8604495,38.1996463 C36.8604495,38.2483049 37.0857198,38.9411098 37.4580277,39.6141585 C37.8300909,40.2385488 38.2708369,40.7459878 38.9271813,41.0581829 C38.976153,41.0776951 39.0056585,41.1069634 39.0056585,41.1362317 C39.0056585,41.2142805 38.8095265,41.2337927 38.7607996,41.2337927 C38.6235562,41.2435488 38.5156958,41.3118415 38.4766408,41.4094024 C38.4374634,41.4776951 38.398286,41.5167195 38.3589861,41.5167195 C38.3100143,41.5167195 37.6048207,40.8435488 37.0563367,39.6728171 C36.5666188,38.5801341 36.3021712,36.8824512 36.2239388,36.2385488 C35.802659,36.3557439 35.4403902,36.4434268 35.1562315,36.4824512 L35.1562315,40.6776951 C35.4304735,40.6776951 36.4001148,40.2191585 36.723451,40.0533049 C36.7430397,40.0435488 36.7623835,40.0337927 36.7820947,40.0337927 C36.8604495,40.0337927 36.8898326,40.1214756 36.8898326,40.1508659 C36.8898326,40.3167195 35.3030244,41.1752561 34.1865901,41.4191585 C34.1572071,41.4289146 34.1180297,41.4874512 34.1180297,41.5850122 C34.0984409,41.7411098 34.0003749,41.770378 33.9515256,41.770378 C33.8829651,41.770378 33.8142822,41.7020854 33.7751047,41.5557439 L33.5694232,40.9313537 L34.0689354,40.9313537 L34.6665136,40.8045244 L34.6665136,35.8483049 L35.1955313,36.2775732 C36.3707317,36.0044024 37.3207843,35.4190366 37.4874108,35.165378 L37.9183625,35.360378 C37.9967174,35.3995244 38.0455667,35.4483049 38.0455667,35.4970854 C38.0455667,35.6531829 37.9183625,35.6531829 37.712681,35.6531829 C37.3599617,35.8385488 36.9291325,36.0336707 36.4296203,36.1800122 C36.527319,36.8922073 36.6449737,37.5165976 36.8016834,38.0336707 C36.9878986,37.9165976 37.1739914,37.7605 37.3501674,37.5850122 C37.6930923,37.2240366 37.7420641,37.1165976 37.8987738,36.755622 L38.3491918,37.0775732 Z M31.8358221,36.6092805 C31.777056,37.3605 31.5713745,40.0435488 30.1609871,41.5850122 C30.1413984,41.5947683 30.1218097,41.6045244 30.1022209,41.6045244 C30.0532492,41.6045244 30.0237437,41.5655 30.0237437,41.5264756 C30.0237437,41.5167195 30.0237437,41.4972073 30.033538,41.4776951 C30.4843233,40.7947683 30.8367977,39.9069634 31.0718623,38.8337927 C31.2971325,37.7800122 31.4245815,36.462939 31.4441703,34.8628171 L30.1709039,34.8628171 L30.0924266,34.5605 L31.6498517,34.5605 L31.6498517,32.8628171 L32.1493639,32.9507439 C32.3059512,32.9701341 32.3746341,33.0286707 32.3746341,33.1067195 C32.3746341,33.1848902 32.3255399,33.2433049 32.2471851,33.2628171 C32.1689527,33.2823293 32.1297752,33.3408659 32.1297752,33.4091585 L32.1297752,34.5605 L32.9231181,34.5605 L33.4520134,34.0434268 L33.9613199,34.5018415 C34.0101693,34.5409878 34.029758,34.5995244 34.029758,34.658061 C34.029758,34.7555 33.9515256,34.8628171 33.8240765,34.8628171 L31.9338881,34.8628171 L31.8652052,36.3165976 L32.9329125,36.3165976 L33.1973601,36.062939 L33.589012,36.365378 C33.6381062,36.4044024 33.6576949,36.4531829 33.6576949,36.5117195 C33.6479005,36.5605 33.5989287,36.6092805 33.5302458,36.6287927 C33.4226303,36.6678171 33.4226303,36.7167195 33.4226303,37.155622 C33.4226303,37.9362317 33.3932473,38.658061 33.3343587,39.2923293 C33.1287996,41.2533049 32.7760803,41.5069634 31.9436824,41.6142805 C31.9436824,41.4581829 31.8947107,41.0776951 31.4049928,40.9313537 C31.365693,40.9118415 31.3363099,40.8825732 31.3363099,40.8435488 C31.3363099,40.7752561 31.3754873,40.7167195 31.4343759,40.7167195 C31.4539646,40.7167195 31.463759,40.7263537 31.4735533,40.7263537 C31.8849163,40.9118415 32.1689527,41.0094024 32.3157456,41.0094024 C32.4334003,40.9313537 32.5312214,40.7850122 32.6095763,40.5996463 C32.6880536,40.4142805 32.766286,39.9848902 32.8348465,39.3313537 C32.9133238,38.667939 32.9329125,37.7507439 32.9329125,36.6092805 L31.8358221,36.6092805 Z" id="Fill-9" fill="#000000" style="mix-blend-mode: luminosity;" mask="url(#mask-2)"></path>
                    <path d="M48.8487545,35.438561 L49.1916794,35.145878 L49.4953044,35.6336829 C49.5441538,35.6824634 49.5637425,35.740878 49.5637425,35.7995366 C49.5637425,35.8970976 49.4953044,35.9946585 49.3874441,35.9946585 C49.3482667,35.9946585 49.181885,35.936122 49.1523795,35.936122 C49.1034077,35.936122 49.0642303,35.945878 49.0348473,35.9751463 L48.3394479,36.5117317 C48.3786253,36.5312439 48.4080084,36.5702683 48.4080084,36.6190488 C48.4080084,36.7166098 48.3492423,36.7849024 48.2514211,36.8044146 C48.1631495,36.8239268 48.1141777,36.8824634 48.1141777,36.941 L48.1141777,37.6531951 L48.741139,37.6531951 L49.2798286,37.1263659 L49.7890127,37.5947805 C49.8281901,37.6336829 49.8477789,37.6922195 49.8477789,37.741 C49.8477789,37.7897805 49.8183958,37.946 49.6520142,37.946 L48.1141777,37.946 L48.1141777,39.8873415 C48.1141777,40.2972195 47.6342542,40.443561 47.3208348,40.4922195 L47.134742,40.1996585 C47.0660591,40.1117317 46.8702944,40.0044146 46.5469582,39.9167317 C46.4393427,39.8972195 46.3903709,39.848439 46.3903709,39.7899024 C46.3903709,39.7605122 46.4099596,39.6825854 46.5763413,39.7118537 L47.4972557,39.8289268 C47.5656937,39.8289268 47.6146655,39.7996585 47.6244599,39.7312439 L47.6244599,37.946 L46.1846894,37.946 L46.1161289,37.6531951 L47.6244599,37.6531951 L47.6244599,36.3557561 L48.1141777,36.4336829 C48.3492423,36.2190488 48.5745125,35.9847805 48.741139,35.731122 L46.693996,35.731122 L46.6254355,35.438561 L48.8487545,35.438561 Z M48.8585488,34.1019756 L49.3972385,33.5847805 L49.8968731,34.0531951 C49.9458449,34.0824634 49.9654336,34.140878 49.9654336,34.1995366 C49.9654336,34.2970976 49.8771619,34.4044146 49.7695464,34.4044146 L47.0955646,34.4044146 C46.6744073,35.1068537 46.1553064,35.5556341 46.0670347,35.5556341 C46.0278573,35.5556341 45.9889247,35.5263659 45.9889247,35.4775854 C45.9889247,35.4483171 46.0085134,35.4190488 46.0278573,35.3800244 C46.8507057,34.3945366 47.1151533,33.4091707 47.1739195,33.1262439 L47.1935082,32.8823415 L47.7519089,33.0189268 C47.8693188,33.0481951 47.9280849,33.0969756 47.9280849,33.1652683 C47.9280849,33.2140488 47.8987019,33.2920976 47.7810472,33.2920976 C47.7029372,33.2920976 47.6538429,33.3018537 47.6440486,33.340878 L47.2719855,34.1019756 L48.8585488,34.1019756 Z M44.8133571,39.7801463 C45.087599,39.6141707 45.185665,39.0874634 45.2736918,38.3849024 C45.3422523,37.8386829 45.3815522,37.0775854 45.3913465,36.1214878 L44.3334336,36.1214878 C44.3334336,36.8629512 44.1572576,38.2775854 43.6577454,39.2336829 C43.5694737,39.3995366 43.1680275,40.0825854 43.0307841,40.0825854 C42.9819348,40.0825854 42.932963,40.0240488 42.932963,39.9752683 C42.932963,39.946 42.9427573,39.9167317 42.9623461,39.8972195 C43.1189333,39.6630732 43.2659711,39.3800244 43.3735866,39.048439 C43.6282399,38.3556341 43.755689,37.7702683 43.8535101,36.5019756 L43.9026043,34.5116098 L43.0895503,34.5116098 L43.0113178,34.2190488 L44.1768463,34.2190488 L44.1768463,32.8628293 L44.6861528,32.9507561 C44.8427401,32.9701463 44.9114231,33.0286829 44.9114231,33.1067317 C44.9114231,33.1849024 44.8623288,33.2433171 44.783974,33.2628293 C44.7057416,33.2823415 44.6665641,33.340878 44.6665641,33.4091707 L44.6665641,34.2190488 L45.1464876,34.2190488 L45.6851772,33.6922195 L46.1846894,34.1605122 C46.2337836,34.1995366 46.2533724,34.2579512 46.2533724,34.3166098 C46.2533724,34.3847805 46.2042781,34.5116098 46.0572404,34.5116098 L44.3923221,34.5116098 L44.3530223,35.8190488 L45.3815522,35.8190488 L45.6557942,35.5653902 L46.047446,35.8678293 C46.0965402,35.9068537 46.1161289,35.9556341 46.1161289,36.0141707 C46.1063346,36.0727073 46.0572404,36.1214878 45.9889247,36.141 C45.9202418,36.1605122 45.8810644,36.2190488 45.8810644,36.3166098 C45.87127,37.0874634 45.8221758,37.7897805 45.7538602,38.4141707 C45.5479338,40.0142927 45.2641423,40.2972195 44.4412939,40.3850244 C44.4314996,40.2483171 44.3432279,39.8873415 43.8730988,39.7899024 C43.824127,39.7703902 43.794744,39.741 43.794744,39.6923415 C43.794744,39.6336829 43.8339214,39.5752683 43.8928099,39.5752683 C43.9123987,39.5752683 43.922193,39.5850244 43.9319874,39.5850244 C44.3334336,39.7216098 44.6174699,39.7801463 44.7741796,39.7801463 L44.8133571,39.7801463 Z M42.3060017,34.0727073 C42.1787975,33.8092927 41.845667,33.3603902 41.3657435,33.1652683 C41.3363604,33.1457561 41.326566,33.1262439 41.326566,33.0969756 C41.326566,33.038439 41.3559491,33.0189268 41.4049209,33.0189268 C41.5321251,33.0189268 42.8153083,33.4969756 42.8153083,34.043439 C42.8153083,34.2092927 42.6390099,34.2873415 42.5704494,34.2873415 C42.4726282,34.2873415 42.3843566,34.2190488 42.3060017,34.0727073 Z M42.0024991,36.1605122 C41.8358726,35.8678293 41.4540151,35.4092927 40.9545029,35.2239268 C40.9249974,35.2044146 40.9054087,35.1751463 40.9054087,35.145878 C40.9054087,35.1068537 40.9347918,35.0775854 40.983886,35.0775854 C41.1208846,35.0775854 42.5020113,35.5653902 42.5020113,36.141 C42.5020113,36.3068537 42.3353848,36.3849024 42.2667019,36.3849024 C42.1688807,36.3849024 42.0807315,36.3068537 42.0024991,36.1605122 Z M42.1101146,37.8678293 L40.8760256,37.8678293 L40.8171371,37.5752683 L42.1003202,37.5752683 L42.3451791,37.3214878 L42.7859252,37.6239268 C42.8251026,37.643439 42.8446913,37.6824634 42.8446913,37.7312439 C42.8446913,37.7897805 42.7957196,37.8580732 42.7076928,37.9068537 C42.6390099,37.946 42.5998324,38.0044146 42.5998324,38.0630732 L42.5998324,40.0728293 C43.2659711,40.9118537 43.7458946,41.2338049 47.1837138,41.2338049 C48.0652059,41.2338049 48.8781375,41.2045366 49.6029199,41.146 L49.6716029,41.1850244 C49.6716029,41.2240488 49.6225087,41.2728293 49.5246875,41.3313659 C49.4365383,41.3899024 49.3776497,41.4679512 49.3776497,41.546 C49.3776497,41.6240488 49.3482667,41.6825854 49.2992949,41.6825854 C47.9967679,41.741122 46.9879491,41.7703902 46.2825106,41.7703902 C43.9026043,41.7703902 43.0015235,41.1264878 42.3941509,40.2094146 C42.3745622,40.1899024 42.3451791,40.1801463 42.3255904,40.1801463 C42.3157961,40.1801463 42.2962074,40.1899024 42.2862906,40.1996585 C41.9535273,40.6972195 41.6595742,41.0777073 41.4147153,41.3313659 L41.4147153,41.4874634 C41.4245096,41.5069756 41.4245096,41.5264878 41.4245096,41.546 C41.4245096,41.6142927 41.3657435,41.6533171 41.326566,41.6533171 C41.2774718,41.6533171 41.2189505,41.6142927 41.160062,41.5362439 L40.8564369,41.1068537 C41.3363604,40.8531951 41.7282571,40.4728293 42.1101146,40.0923415 L42.1101146,37.8678293 Z" id="Fill-10" fill="#000000" style="mix-blend-mode: luminosity;" mask="url(#mask-2)"></path>
                    <path d="M54.5685119,36.0727317 C54.4608964,35.7702927 54.2749261,35.4776098 54.0983828,35.3896829 C54.0689997,35.3799268 54.049411,35.3507805 54.049411,35.3215122 C54.049411,35.3117561 54.049411,35.2335854 54.1375602,35.2335854 C54.2062431,35.2335854 54.4315133,35.3117561 54.6567835,35.4678537 C54.9506143,35.6532195 55.0095028,35.7506585 55.0095028,36.0337073 C55.0095028,36.0824878 54.9506143,36.199561 54.8035765,36.199561 C54.6567835,36.199561 54.5881006,36.1116341 54.5685119,36.0727317 Z M53.5304325,34.199561 C53.4422833,33.9262683 53.1581245,33.4189512 52.7860614,33.2140732 C52.7566783,33.2043171 52.746884,33.1750488 52.746884,33.1457805 C52.746884,33.1165122 52.7664727,33.0677317 52.815322,33.0677317 C52.9329768,33.0677317 54.0398615,33.6628537 54.0398615,34.2190732 C54.0398615,34.4238293 53.8339352,34.4629756 53.7852082,34.4629756 C53.6773479,34.4629756 53.5890762,34.3848049 53.5304325,34.199561 Z M51.8750638,34.9702927 L51.7965865,34.6776098 L54.9506143,34.6776098 L54.9506143,32.7848049 L55.4599208,32.8726098 C55.6166305,32.892122 55.685191,32.9506585 55.685191,33.0287073 C55.685191,33.1067561 55.6362192,33.1652927 55.5577419,33.1848049 C55.4795095,33.2140732 55.4403321,33.2726098 55.4403321,33.3311463 L55.4403321,34.6776098 L56.5567663,34.6776098 L56.5567663,32.7457805 L57.0660729,32.8433415 C57.2230275,32.8628537 57.2915879,32.9116341 57.2915879,32.9896829 C57.2915879,33.0677317 57.2426162,33.1262683 57.1641389,33.1457805 C57.085784,33.1750488 57.046729,33.2335854 57.046729,33.292122 L57.046729,34.6776098 L57.90851,34.6776098 C58.0457534,34.4727317 58.1729576,34.199561 58.2906123,33.9165122 L58.5158825,33.2530976 L58.5549375,32.9409024 L59.1230102,33.1165122 C59.2308706,33.1555366 59.2897592,33.2043171 59.2897592,33.2628537 C59.2897592,33.3116341 59.2406649,33.3896829 59.1425989,33.3896829 C59.0642441,33.3896829 59.0153947,33.4189512 58.995806,33.4482195 L58.5745263,34.1799268 L58.1926688,34.6776098 L59.1916932,34.6776098 L59.8086152,34.1604146 L60.4355765,34.6287073 C60.4845483,34.6579756 60.5140538,34.7166341 60.5140538,34.7848049 C60.5140538,34.9215122 60.396399,34.9702927 60.2887835,34.9702927 L51.8750638,34.9702927 Z M56.948663,36.2384634 C57.1445502,35.9361463 57.3011374,35.5946829 57.3992034,35.2530976 L57.8203608,35.399439 C57.90851,35.4288293 57.9576042,35.4776098 57.9576042,35.5361463 C57.9576042,35.5849268 57.9183044,35.6629756 57.8203608,35.6629756 L57.6832398,35.7117561 L57.2033163,36.2384634 L59.0153947,36.2384634 L59.583345,35.799561 L60.0926516,36.1898049 C60.1416233,36.2190732 60.1711288,36.2776098 60.1711288,36.3459024 C60.1711288,36.4727317 60.0730628,36.5312683 59.9458586,36.5312683 L56.2827692,36.5312683 L56.2827692,37.4580976 L58.1729576,37.4580976 L58.7411527,37.0190732 L59.2504593,37.4093171 C59.2995535,37.4385854 59.3286917,37.497122 59.3286917,37.5654146 C59.3286917,37.6922439 59.2308706,37.7507805 59.1034215,37.7507805 L56.2827692,37.7507805 L56.2827692,38.6776098 L59.1523933,38.6776098 L59.779477,38.1605366 L60.396399,38.6288293 C60.4453708,38.6580976 60.4747539,38.7167561 60.4747539,38.7849268 C60.4747539,38.9117561 60.3766879,38.9704146 60.2494837,38.9704146 L56.5080394,38.9704146 C57.1837276,39.6629756 58.2612293,40.5899268 60.259278,40.9411463 C60.3179218,40.9411463 60.3668935,40.9606585 60.3668935,40.9898049 C60.3668935,41.0191951 60.3179218,41.0679756 60.2103063,41.1166341 C60.0926516,41.1752927 60.0243359,41.2630976 60.0046248,41.3605366 C59.9850361,41.4289512 59.9458586,41.4776098 59.8869701,41.4776098 C59.8771757,41.4776098 59.8673813,41.4679756 59.857587,41.4679756 C58.3100786,40.9509024 57.2230275,40.1410244 56.2827692,39.0288293 L56.2827692,41.7801707 C56.2827692,41.9167561 55.9300499,41.9557805 55.9104612,41.9557805 C55.8319839,41.9557805 55.7930514,41.8972439 55.7930514,41.7801707 L55.7930514,39.1459024 C54.7646439,40.7459024 51.9044469,41.5460244 51.7184765,41.5460244 C51.6693823,41.5460244 51.6302049,41.5167561 51.6302049,41.4484634 C51.6302049,41.4191951 51.6497936,41.3899268 51.688971,41.3605366 C53.0113316,40.9606585 54.7155497,40.0239512 55.3324717,38.9704146 L51.7965865,38.9704146 L51.7184765,38.6776098 L55.7930514,38.6776098 L55.7930514,37.7507805 L52.8349108,37.7507805 L52.7566783,37.4580976 L55.7930514,37.4580976 L55.7930514,36.5312683 L52.2179887,36.5312683 L52.1395114,36.2384634 L56.948663,36.2384634 Z" id="Fill-11" fill="#000000" style="mix-blend-mode: luminosity;" mask="url(#mask-2)"></path>
                    <path d="M70.0828587,37.6922683 C69.9654489,37.3020244 69.7695617,37.0776341 69.651907,37.0092195 C69.622524,36.9994634 69.6127296,36.9703171 69.6127296,36.9410488 C69.6127296,36.9312927 69.622524,36.8823902 69.6814125,36.8823902 C69.7695617,36.8823902 69.9948319,36.9994634 70.161336,37.1459268 C70.4453724,37.3701951 70.4453724,37.3995854 70.4453724,37.6922683 C70.4061949,37.7995854 70.3864838,37.7995854 70.1711304,37.7995854 L70.0828587,37.6922683 Z M67.3404388,33.858122 C67.1347573,33.858122 67.0758688,33.858122 67.0271418,33.7214146 C66.9290758,33.3994634 66.7136,33.0775122 66.5080409,32.9506829 C66.4786579,32.9409268 66.4687411,32.9116585 66.4687411,32.8823902 C66.4687411,32.8238537 66.4982466,32.7848293 66.5472184,32.7848293 C66.6646282,32.7848293 67.4776823,33.1848293 67.4776823,33.6238537 C67.4776823,33.7409268 67.4187937,33.8482439 67.3404388,33.858122 Z M65.4403336,36.463 L65.3618563,36.160439 L67.8301567,36.160439 L67.8301567,35.3508049 L66.0183231,35.3508049 L65.9398458,35.058 L67.8301567,35.058 L67.8301567,34.2872683 L65.5969209,34.2872683 L65.5188109,33.9945854 L68.6823881,33.9945854 L68.8977416,33.5262927 L69.0153963,33.0969024 L69.0546961,32.8043415 L69.6323183,32.9603171 C69.7401787,32.9994634 69.7892729,33.0482439 69.7892729,33.1066585 C69.7892729,33.1653171 69.749973,33.2433659 69.651907,33.2433659 L69.5051141,33.2823902 L69.201489,33.7506829 L68.9860132,33.9945854 L69.9458602,33.9945854 L70.5139329,33.555561 L71.0135675,33.9458049 C71.0625393,33.9751951 71.0916775,34.0336098 71.0916775,34.0921463 C71.0916775,34.1994634 71.0135675,34.2872683 70.8762016,34.2872683 L68.3201194,34.2872683 L68.3201194,35.058 L69.4070481,35.058 L69.9752432,34.6189756 L70.4845498,35.0092195 C70.533644,35.0384878 70.5630271,35.0971463 70.5630271,35.1653171 C70.5630271,35.2921463 70.4649611,35.3508049 70.337512,35.3508049 L68.3201194,35.3508049 L68.3201194,36.160439 L70.1024474,36.160439 L70.6608482,35.7215366 L71.1701548,36.1214146 C71.2191265,36.1409268 71.2485096,36.1995854 71.2485096,36.2677561 C71.2485096,36.3945854 71.150566,36.463 71.0233618,36.463 L65.4403336,36.463 Z M66.7235168,38.1800732 L66.7235168,37.4970244 C66.3512088,37.5751951 65.9594345,37.6140976 65.6851925,37.6140976 C65.548194,37.6140976 65.4599223,37.6140976 65.4599223,37.5264146 C65.4599223,37.467878 65.4893054,37.4288537 65.5383996,37.4288537 C66.165116,37.3898293 67.0955799,37.058122 67.399205,36.755561 L67.7911017,36.9994634 C67.8595397,37.0386098 67.8987172,37.0971463 67.8987172,37.1459268 C67.8987172,37.2239756 67.839951,37.2922683 67.7519242,37.2922683 C67.7029525,37.2922683 67.6146808,37.262878 67.5560371,37.262878 L67.2132346,37.3701951 L67.2132346,38.1800732 L68.7313599,38.1800732 L68.5941165,36.8239756 L69.1132174,36.8726341 C69.2700495,36.8921463 69.348282,36.9410488 69.348282,37.0092195 C69.348282,37.0873902 69.3286933,37.1556829 69.2504608,37.1751951 C69.172106,37.1947073 69.1426005,37.2433659 69.1426005,37.3117805 L69.201489,38.1800732 L70.2494852,38.1800732 L70.7882973,37.663 L71.2976038,38.1312927 C71.3463308,38.160561 71.3659195,38.2190976 71.3659195,38.2776341 C71.3659195,38.3751951 71.2878095,38.4823902 71.1603604,38.4823902 L69.2406665,38.4823902 L69.3874594,39.2044634 L69.622524,39.8484878 L69.7010012,39.7703171 L70.1024474,39.1264146 L70.2396909,38.8044634 L70.7294087,39.1556829 C70.8176803,39.2142195 70.8566129,39.2727561 70.8566129,39.3215366 C70.8566129,39.3898293 70.7687086,39.4288537 70.7000256,39.4288537 C70.6804369,39.4288537 70.5921653,39.4093415 70.5728214,39.4093415 C70.533644,39.4093415 70.4943441,39.4190976 70.4845498,39.4386098 C70.2592796,39.7508049 70.0341318,40.0142195 69.818656,40.2192195 C70.0439262,40.570439 70.4551667,41.0484878 70.6706426,41.0484878 C70.70982,41.0484878 70.7785029,40.970439 70.8566129,40.8045854 L71.1210605,40.1800732 C71.1309773,40.1410488 71.1701548,40.1215366 71.2093322,40.1215366 C71.2289209,40.1215366 71.3365364,40.1410488 71.3171925,40.2386098 L71.1309773,41.0484878 C71.1112662,41.1264146 71.1112662,41.2045854 71.1112662,41.263 C71.1112662,41.3509268 71.1210605,41.4192195 71.150566,41.4582439 C71.1995378,41.5264146 71.2191265,41.6044634 71.2191265,41.663122 C71.2191265,41.8289756 71.0723336,41.858122 71.0036507,41.858122 C70.8274747,41.858122 70.2592796,41.663122 69.4855254,40.5801951 L69.1034231,40.8922683 C68.3201194,41.4093415 67.8595397,41.5460488 67.800896,41.5460488 C67.7617186,41.5460488 67.7225412,41.5264146 67.7127468,41.4971463 C67.7127468,41.4484878 67.7225412,41.4093415 67.7813073,41.3800732 C68.1435761,41.2045854 68.5256784,40.9606829 68.8781528,40.6483659 L69.299555,40.2386098 L69.034985,39.6239756 C68.9370414,39.3509268 68.8487698,38.960561 68.7803317,38.4823902 L67.2132346,38.4823902 L67.2132346,39.3215366 L68.1729592,39.0093415 C68.2612308,38.9898293 68.3201194,39.0190976 68.3201194,39.1264146 C68.3201194,39.1849512 68.2808195,39.2434878 68.212259,39.2727561 C67.9085115,39.4386098 67.5755034,39.5948293 67.2132346,39.7312927 L67.2132346,41.1850732 C67.2132346,41.4192195 67.0565249,41.7216585 66.4687411,41.760561 C66.4197693,41.4582439 66.0575005,41.3314146 65.5188109,41.2337317 C65.4599223,41.2240976 65.4305393,41.1850732 65.4305393,41.1361707 C65.4305393,41.0777561 65.450128,41.0484878 65.5188109,41.0484878 L65.548194,41.0484878 C66.0085287,41.1069024 66.3314977,41.1361707 66.5080409,41.1361707 C66.6450395,41.1361707 66.7235168,41.1361707 66.7235168,40.9117805 L66.7235168,39.8873902 L65.9300515,40.1800732 C65.9006684,40.1898293 65.8810797,40.2192195 65.8810797,40.258122 C65.8810797,40.2776341 65.9006684,40.365439 65.9006684,40.3849512 C65.9006684,40.4922683 65.7538755,40.5020244 65.7341643,40.5020244 C65.6460151,40.5020244 65.5675378,40.4337317 65.5188109,40.3069024 L65.2641576,39.7898293 C65.8810797,39.7216585 66.5960677,39.5069024 66.7235168,39.468 L66.7235168,38.4823902 L65.2150634,38.4823902 L65.1367086,38.1800732 L66.7235168,38.1800732 Z M63.1189486,40.970439 L64.2356277,40.970439 L64.2356277,39.1264146 L63.1189486,39.1264146 L63.1189486,40.970439 Z M63.8633198,37.3799512 L64.4315149,36.9410488 L64.9310271,37.3410488 C64.9799989,37.360439 65.0095044,37.4190976 65.0095044,37.4872683 C65.0095044,37.6140976 64.9114384,37.6825122 64.7940285,37.6825122 L62.7664742,37.6825122 L62.6881194,37.3799512 L63.8633198,37.3799512 Z M63.9026196,35.9751951 L64.4608979,35.5360488 L64.9702045,35.9264146 C65.0192987,35.9556829 65.0486818,36.0140976 65.0486818,36.0727561 C65.0486818,36.1800732 64.9702045,36.2677561 64.8329611,36.2677561 L62.7664742,36.2677561 L62.6881194,35.9751951 L63.9026196,35.9751951 Z M63.9809745,33.3799512 L64.5393752,32.9409268 L65.0486818,33.3310488 C65.0974087,33.360439 65.1269142,33.4189756 65.1269142,33.4872683 C65.1269142,33.6140976 65.0290931,33.6823902 64.901644,33.6823902 L62.7664742,33.6823902 L62.6881194,33.3799512 L63.9809745,33.3799512 Z M62.6292308,38.5703171 L63.0015388,38.8337317 L64.2258334,38.8337317 L64.4804867,38.5703171 L64.9310271,38.863 C64.9702045,38.8825122 64.9897932,38.9215366 64.9897932,38.9508049 C64.9897932,38.9898293 64.9506158,39.0873902 64.8427554,39.1166585 C64.7646454,39.1361707 64.7155512,39.1849512 64.7155512,39.2337317 L64.7155512,41.6826341 C64.7253456,41.7410488 64.6763738,41.7997073 64.6174852,41.8192195 C64.3138602,41.8971463 64.2356277,41.9167805 64.2356277,41.6826341 L64.2356277,41.263 L63.1189486,41.263 L63.1189486,41.7119024 C63.1189486,41.760561 63.0797712,41.8094634 63.0015388,41.8387317 C62.6881194,41.9167805 62.6292308,41.9265366 62.6292308,41.6923902 L62.6292308,38.5703171 Z M64.2454221,34.6775122 L64.8136172,34.2384878 L65.3131294,34.6287317 C65.3618563,34.658 65.3913618,34.7166585 65.3913618,34.7848293 C65.3913618,34.9214146 65.273952,34.9703171 65.175886,34.9703171 L62.4530548,34.9703171 L62.3843719,34.6775122 L64.2454221,34.6775122 Z" id="Fill-12" fill="#000000" style="mix-blend-mode: luminosity;" mask="url(#mask-2)"></path>
                    <path d="M79.1328321,36.5214756 L79.5836174,36.765378 C79.6617274,36.8044024 79.7010273,36.8533049 79.7010273,36.9019634 C79.7010273,36.9995244 79.62255,36.9995244 79.4168685,36.9995244 L79.0545997,37.4484268 L78.6431143,37.8386707 C78.6235256,37.858061 78.5844706,37.8775732 78.5550875,37.8775732 C78.5061157,37.8775732 78.4669383,37.8484268 78.4669383,37.7897683 C78.4669383,37.7800122 78.4767327,37.7605 78.486527,37.7409878 C78.6137312,37.5850122 78.7411803,37.3995244 78.8487958,37.2045244 L79.0448054,36.765378 L79.1328321,36.5214756 Z M77.8303051,37.9557439 L80.2102114,37.9557439 L80.2102114,36.1898902 L77.8303051,36.1898902 L77.8303051,37.9557439 Z M77.9281263,34.9409878 L78.486527,34.5018415 L78.9958336,34.9019634 C79.0448054,34.9214756 79.0741884,34.9800122 79.0741884,35.0483049 C79.0741884,35.1751341 78.9762449,35.2434268 78.8585901,35.2434268 L76.2532912,35.2434268 L76.1749364,34.9409878 L77.9281263,34.9409878 Z M76.2434969,37.7605 L76.1553477,37.6336707 C76.1258422,37.4484268 76.0084323,36.8533049 75.7048073,36.6190366 C75.6852186,36.6092805 75.6656298,36.5800122 75.6656298,36.5605 C75.6656298,36.5312317 75.6950129,36.4922073 75.7341903,36.4922073 C75.9006944,36.4922073 76.5570387,37.1947683 76.5570387,37.4776951 C76.5570387,37.5165976 76.53745,37.7995244 76.4002066,37.7995244 L76.2434969,37.7605 Z M75.5776031,41.2728171 L79.6029613,41.2728171 L79.6029613,40.3459878 L75.5776031,40.3459878 L75.5776031,41.2728171 Z M75.5776031,40.0533049 L79.6029613,40.0533049 L79.6029613,39.0874512 L75.5776031,39.0874512 L75.5776031,40.0533049 Z M79.6029613,38.7947683 L79.818682,38.463061 L80.2103338,38.7361098 C80.2691,38.7751341 80.2886887,38.8435488 80.2886887,38.9020854 C80.2788943,38.960622 80.2397169,39.0092805 80.1809507,39.0289146 C80.1220622,39.0581829 80.092924,39.0972073 80.092924,39.1361098 L80.092924,41.8191585 C80.092924,41.9459878 80.0536241,41.9558659 79.720616,42.0435488 C79.6029613,42.0435488 79.6029613,41.9264756 79.6029613,41.5655 L75.5776031,41.5655 C75.5776031,41.7898902 75.5776031,41.8191585 75.4599484,41.8776951 C75.1366121,41.9558659 75.0876404,41.965622 75.0876404,41.7313537 L75.0876404,38.5411098 L75.4599484,38.7947683 L79.6029613,38.7947683 Z M74.9604362,37.9557439 L77.3405873,37.9557439 L77.3405873,36.1898902 L74.9604362,36.1898902 L74.9604362,37.9557439 Z M80.2103338,35.8970854 L80.3767154,35.6239146 L80.8177064,35.9263537 C80.8762276,35.955622 80.9056107,36.0141585 80.9056107,36.062939 C80.9056107,36.1312317 80.8470894,36.1897683 80.7882009,36.2092805 C80.7294347,36.2289146 80.7000516,36.2775732 80.7000516,36.3165976 L80.7000516,38.5508659 C80.7000516,38.6190366 80.6607518,38.6776951 80.5924362,38.6972073 C80.2788943,38.7751341 80.2103338,38.7850122 80.2103338,38.5508659 L80.2103338,38.2483049 L74.9604362,38.2483049 L74.9604362,38.5117195 C74.9604362,38.560622 74.9212587,38.5996463 74.8427814,38.6385488 C74.5294845,38.7167195 74.4707183,38.7264756 74.4707183,38.4922073 L74.4707183,35.7019634 C73.8146188,35.9752561 73.2856011,36.1507439 73.226835,36.1507439 C73.1875352,36.1507439 73.1581521,36.1312317 73.1581521,36.0922073 C73.1581521,36.062939 73.1777408,36.0336707 73.1974519,36.0141585 C73.8633458,35.7507439 74.460924,35.458061 74.9996136,35.155622 C76.3904122,34.355622 77.1445777,33.3214756 77.3698479,32.8433049 L77.8889488,33.0189146 C77.9870148,33.0483049 78.0359866,33.1067195 78.0359866,33.1652561 C78.0359866,33.1946463 78.0261923,33.1946463 77.9379206,33.2725732 C78.2416681,33.6237927 78.6137312,33.9458659 79.0154223,34.2190366 C80.0340354,34.8922073 81.25833,35.2044024 82.0811784,35.3312317 C82.120111,35.3312317 82.1496165,35.360378 82.1496165,35.3995244 C82.1496165,35.4385488 82.0909727,35.4873293 81.9635237,35.5458659 C81.8363195,35.5946463 81.7578422,35.6824512 81.7578422,35.7800122 C81.7382535,35.8873293 81.7088704,35.9361098 81.6598986,35.9361098 C81.4836002,35.9361098 80.5728474,35.555622 80.2397169,35.3897683 C79.2406925,34.9214756 78.3982554,34.1995244 77.7224448,33.3311098 L77.7224448,33.350622 C76.6646542,34.5312317 75.8418058,35.0873293 74.9702305,35.4775732 L74.55899,35.662939 L74.9015476,35.8970854 L80.2103338,35.8970854 Z" id="Fill-13" fill="#000000" style="mix-blend-mode: luminosity;" mask="url(#mask-2)"></path>
                    <path d="M3.69231334,45.8234634 L3.74165242,46.8649268 L3.61665194,46.8649268 C3.59253333,46.6815122 3.55972224,46.5505366 3.51809622,46.471878 C3.45002544,46.3452927 3.3596725,46.252 3.24679254,46.191878 C3.13391258,46.131878 2.98540564,46.101878 2.80127174,46.101878 L2.17333104,46.101878 L2.17333104,49.4948049 C2.17333104,49.7677317 2.20283654,49.9379756 2.2620924,50.0057805 C2.34534443,50.0974878 2.47352807,50.1432195 2.64676576,50.1432195 L2.80127174,50.1432195 L2.80127174,50.264439 L0.910716021,50.264439 L0.910716021,50.1432195 L1.06852759,50.1432195 C1.25706896,50.1432195 1.39076193,50.0865122 1.46972893,49.9728537 C1.51784371,49.9030976 1.54208474,49.7437073 1.54208474,49.4948049 L1.54208474,46.101878 L1.00608857,46.101878 C0.797836059,46.101878 0.649818843,46.117122 0.562281779,46.1476098 C0.448177523,46.1891951 0.350723673,46.2688293 0.269552941,46.3867561 C0.188504639,46.5046829 0.140267432,46.6640732 0.124963749,46.8649268 L-3.67288379e-05,46.8649268 L0.0526079388,45.8234634 L3.69231334,45.8234634 Z" id="Fill-14" fill="#000000" style="mix-blend-mode: luminosity;" mask="url(#mask-2)"></path>
                    <path d="M5.29351927,47.9816707 C5.33514529,47.9816707 5.37126198,47.9822805 5.40199177,47.983378 C5.43272157,47.9844756 5.45794204,47.9849634 5.47765318,47.9849634 C5.90285069,47.9849634 6.22349345,47.8932561 6.43933659,47.7098415 C6.65530215,47.5265488 6.76316251,47.2928902 6.76316251,47.0089878 C6.76316251,46.7317927 6.67599273,46.5063049 6.50189804,46.3327683 C6.32755849,46.1592317 6.09690139,46.0724024 5.80968187,46.0724024 C5.6826001,46.0724024 5.51046428,46.0931341 5.29351927,46.1345976 L5.29351927,47.9816707 Z M8.45978996,50.2644756 L7.26953075,50.2644756 L5.7603428,48.1880122 C5.64856471,48.1925244 5.55759962,48.1945976 5.48744754,48.1945976 C5.4590439,48.1945976 5.42831411,48.1941098 5.39550301,48.1928902 C5.36256949,48.1919146 5.3285341,48.1902073 5.29351927,48.1880122 L5.29351927,49.478378 C5.29351927,49.7578902 5.32412664,49.9314268 5.38558623,49.9991098 C5.46883826,50.0952073 5.59383874,50.1432561 5.7603428,50.1432561 L5.93468235,50.1432561 L5.93468235,50.2644756 L4.02441549,50.2644756 L4.02441549,50.1432561 L4.19202143,50.1432561 C4.38056279,50.1432561 4.51535763,50.0821585 4.59652836,49.9598415 C4.64256184,49.8921585 4.66557857,49.7317927 4.66557857,49.478378 L4.66557857,46.6094756 C4.66557857,46.3299634 4.63484878,46.1564268 4.57351162,46.0888659 C4.48793343,45.9926463 4.36085165,45.9447195 4.19202143,45.9447195 L4.02441549,45.9447195 L4.02441549,45.8235 L5.64856471,45.8235 C6.12212186,45.8235 6.47116824,45.8578902 6.6958263,45.9265488 C6.92048436,45.9954512 7.11122946,46.1220366 7.26781674,46.3065488 C7.42464888,46.491061 7.50300373,46.710939 7.50300373,46.9665488 C7.50300373,47.2393537 7.41363022,47.4761829 7.23500564,47.6771585 C7.05638106,47.8780122 6.77969048,48.0198415 6.40481148,48.1028902 L7.32548101,49.3769146 C7.53581483,49.6694756 7.71664314,49.8638659 7.86796595,49.9598415 C8.01916633,50.055939 8.21652262,50.1170366 8.45978996,50.1432561 L8.45978996,50.2644756 Z" id="Fill-15" fill="#000000" style="mix-blend-mode: luminosity;" mask="url(#mask-2)"></path>
                    <path d="M11.3892821,48.5352195 L10.6330353,46.7404634 L9.85707738,48.5352195 L11.3892821,48.5352195 Z M11.481349,48.7775366 L9.75521607,48.7775366 L9.45269287,49.4783902 C9.37813333,49.6508293 9.34091478,49.7797317 9.34091478,49.8648537 C9.34091478,49.9325366 9.37323615,49.9920488 9.43787891,50.0433902 C9.50252166,50.0947317 9.64221368,50.1280244 9.85707738,50.1432683 L9.85707738,50.2644878 L8.45317877,50.2644878 L8.45317877,50.1432683 C8.6395164,50.1105854 8.75998699,50.0679024 8.81483539,50.0155854 C8.92661349,49.9107073 9.05038967,49.6977805 9.1864088,49.3769268 L10.7547302,45.7220488 L10.8698139,45.7220488 L12.4217297,49.4163171 C12.5466077,49.7131463 12.6600999,49.9058293 12.7619612,49.9942439 C12.8638225,50.0826585 13.0058407,50.1324146 13.1877708,50.1432683 L13.1877708,50.2644878 L11.4287044,50.2644878 L11.4287044,50.1432683 C11.6062271,50.1344878 11.7263304,50.1050976 11.7887694,50.0548537 C11.851086,50.0046098 11.8824279,49.9435122 11.8824279,49.871439 C11.8824279,49.7753415 11.8385982,49.6236341 11.7509387,49.4163171 L11.481349,48.7775366 Z" id="Fill-16" fill="#000000" style="mix-blend-mode: luminosity;" mask="url(#mask-2)"></path>
                    <path d="M17.1759962,45.8234634 L17.1759962,45.9446829 C17.0181846,45.9730976 16.8986934,46.0233415 16.8176451,46.0952927 C16.7014596,46.2022439 16.598374,46.3660244 16.5085108,46.5866341 L14.9534118,50.3659024 L14.8318393,50.3659024 L13.1615342,46.5373659 C13.075956,46.3409024 13.0157207,46.2209024 12.9805835,46.177122 C12.9257351,46.109561 12.8583989,46.0565122 12.7784524,46.0183415 C12.6983835,45.9801707 12.5905232,45.9555366 12.4546265,45.9446829 L12.4546265,45.8234634 L14.2760096,45.8234634 L14.2760096,45.9446829 C14.0699608,45.9641951 13.9362678,45.9991951 13.8749307,46.049561 C13.8135935,46.0996829 13.7828637,46.1640732 13.7828637,46.2427317 C13.7828637,46.351878 13.8331822,46.522122 13.9341865,46.7535854 L15.0684955,49.3572439 L16.1206542,46.7863902 C16.2236174,46.5329756 16.2751602,46.3572439 16.2751602,46.2590732 C16.2751602,46.1957805 16.2433286,46.1351707 16.1796652,46.0772439 C16.1161243,46.019439 16.0087537,45.9784634 15.8575533,45.954439 C15.8466571,45.9523659 15.8279254,45.9489512 15.8016031,45.9446829 L15.8016031,45.8234634 L17.1759962,45.8234634 Z" id="Fill-17" fill="#000000" style="mix-blend-mode: luminosity;" mask="url(#mask-2)"></path>
                    <path d="M18.6653505,46.0658171 L18.6653505,47.8213049 L19.6452759,47.8213049 C19.8994395,47.8213049 20.0693716,47.7830122 20.1548274,47.7065488 C20.2688092,47.6061829 20.3323501,47.4293537 20.3455725,47.176061 L20.4671449,47.176061 L20.4671449,48.7219146 L20.3455725,48.7219146 C20.3148427,48.5056951 20.2842353,48.3670366 20.2535055,48.305939 C20.2139608,48.2294756 20.149318,48.1694756 20.0594548,48.1258171 C19.9694692,48.0821585 19.8314912,48.0602073 19.6452759,48.0602073 L18.6653505,48.0602073 L18.6653505,49.5242317 C18.6653505,49.7208171 18.6741655,49.8403293 18.6916729,49.8828902 C18.7091803,49.9254512 18.7399101,49.9593537 18.7837398,49.9844756 C18.8275696,50.0095976 18.910944,50.0220366 19.0336184,50.0220366 L19.7899876,50.0220366 C20.0419474,50.0220366 20.224857,50.0045976 20.3389613,49.9697195 C20.4529431,49.9348415 20.5625175,49.865939 20.6676844,49.7632561 C20.8035811,49.6280122 20.9427834,49.4238659 21.0852912,49.150939 L21.2167805,49.150939 L20.8321071,50.2644756 L17.3963692,50.2644756 L17.3963692,50.1432561 L17.5541808,50.1432561 C17.6593477,50.1432561 17.7591277,50.1181341 17.8532759,50.0678902 C17.9233056,50.0330122 17.9711755,49.9806951 17.9962736,49.9106951 C18.021494,49.8408171 18.0341043,49.6977683 18.0341043,49.4817927 L18.0341043,46.5964268 C18.0341043,46.3147195 18.0055782,46.1411829 17.9486485,46.0756951 C17.8698039,45.9882561 17.7383147,45.9447195 17.5541808,45.9447195 L17.3963692,45.9447195 L17.3963692,45.8235 L20.8321071,45.8235 L20.8815686,46.7961829 L20.7532626,46.7961829 C20.7072291,46.5625244 20.6562984,46.4020366 20.6003482,46.3147195 C20.5443979,46.2274024 20.4616356,46.1606951 20.3520612,46.1149634 C20.2644017,46.0821585 20.1098957,46.0658171 19.8884209,46.0658171 L18.6653505,46.0658171 Z" id="Fill-18" fill="#000000" style="mix-blend-mode: luminosity;" mask="url(#mask-2)"></path>
                    <path d="M25.2313527,49.0363537 L25.3399476,49.0591585 L24.9584574,50.2644024 L21.5060691,50.2644024 L21.5060691,50.1431829 L21.6737974,50.1431829 C21.8623388,50.1431829 21.9971336,50.0820854 22.0783044,49.9597683 C22.1242154,49.8900122 22.1473546,49.7284268 22.1473546,49.4751341 L22.1473546,46.6095244 C22.1473546,46.3322073 22.1166248,46.1585488 22.0552876,46.0887927 C21.9697094,45.9926951 21.8425052,45.9446463 21.6737974,45.9446463 L21.5060691,45.9446463 L21.5060691,45.8234268 L23.5249308,45.8234268 L23.5249308,45.9446463 C23.2882747,45.9424512 23.1221379,45.9642805 23.0267654,46.0102561 C22.9315153,46.0559878 22.8662604,46.1137927 22.8312455,46.1836707 C22.7961083,46.2536707 22.7786009,46.420622 22.7786009,46.6847683 L22.7786009,49.4751341 C22.7786009,49.6563537 22.7961083,49.7807439 22.8312455,49.8485488 C22.8574454,49.8942805 22.8979696,49.9281829 22.952818,49.9500122 C23.007544,49.9718415 23.1784555,49.9828171 23.465675,49.9828171 L23.7912149,49.9828171 C24.1331604,49.9828171 24.3731221,49.9576951 24.511345,49.9074512 C24.649323,49.8572073 24.7753029,49.7683049 24.8894072,49.6405 C25.003389,49.5128171 25.1172484,49.3114756 25.2313527,49.0363537" id="Fill-19" fill="#000000" style="mix-blend-mode: luminosity;" mask="url(#mask-2)"></path>
                    <path d="M28.9960585,50.1432073 L28.9960585,50.2644268 L27.0856692,50.2644268 L27.0856692,50.1432073 L27.2436033,50.1432073 C27.4276147,50.1432073 27.5613077,50.0897927 27.6446822,49.9828415 C27.6973268,49.9128415 27.7235267,49.7447927 27.7235267,49.4784512 L27.7235267,46.6094268 C27.7235267,46.3846707 27.7093249,46.2361341 27.6809213,46.164061 C27.658884,46.1095488 27.6139524,46.0625976 27.546004,46.0233293 C27.4495296,45.9708902 27.3487702,45.9446707 27.2436033,45.9446707 L27.0856692,45.9446707 L27.0856692,45.8234512 L28.9960585,45.8234512 L28.9960585,45.9446707 L28.8349414,45.9446707 C28.6528888,45.9446707 28.5202977,45.9982073 28.4370456,46.1051585 C28.3821972,46.1750366 28.3548955,46.3430854 28.3548955,46.6094268 L28.3548955,49.4784512 C28.3548955,49.7033293 28.3690973,49.8517439 28.3975009,49.9238171 C28.4195382,49.9783293 28.4654493,50.0252805 28.5357238,50.0645488 C28.6299945,50.1169878 28.729652,50.1432073 28.8349414,50.1432073 L28.9960585,50.1432073 Z" id="Fill-20" fill="#000000" style="mix-blend-mode: luminosity;" mask="url(#mask-2)"></path>
                    <path d="M29.071622,45.8234634 L30.2815923,45.8234634 L33.0072394,49.1541951 L33.0072394,46.5930976 C33.0072394,46.3201707 32.9765096,46.1499268 32.9152949,46.082122 C32.8340017,45.9904146 32.7058181,45.9446829 32.5304991,45.9446829 L32.3759931,45.9446829 L32.3759931,45.8234634 L33.9279089,45.8234634 L33.9279089,45.9446829 L33.7700974,45.9446829 C33.5814336,45.9446829 33.4477406,46.0013902 33.368896,46.1150488 C33.3206588,46.1848049 33.2966626,46.3441951 33.2966626,46.5930976 L33.2966626,50.3365122 L33.1782734,50.3365122 L30.238742,46.7601707 L30.238742,49.4948049 C30.238742,49.7677317 30.26837,49.9379756 30.3276258,50.0057805 C30.4108779,50.0974878 30.5390615,50.1432195 30.7121768,50.1432195 L30.8699883,50.1432195 L30.8699883,50.264439 L29.3181949,50.264439 L29.3181949,50.1432195 L29.4727009,50.1432195 C29.663446,50.1432195 29.7983633,50.0865122 29.8772078,49.9728537 C29.9253226,49.9030976 29.9494412,49.7437073 29.9494412,49.4948049 L29.9494412,46.4063902 C29.8200333,46.2557805 29.7219673,46.1563902 29.6553657,46.1083415 C29.5883967,46.0602927 29.4903308,46.0155366 29.3609228,45.9740732 C29.2973819,45.954439 29.2010299,45.9446829 29.071622,45.9446829 L29.071622,45.8234634 Z" id="Fill-21" fill="#000000" style="mix-blend-mode: luminosity;" mask="url(#mask-2)"></path>
                    <path d="M35.4106889,49.9434878 C35.688971,50.0045854 35.922444,50.0351951 36.1111078,50.0351951 C36.6194349,50.0351951 37.0414493,49.8572683 37.376906,49.5012927 C37.7122403,49.145439 37.8798462,48.662878 37.8798462,48.0538537 C37.8798462,47.4403171 37.7122403,46.9566585 37.376906,46.602878 C37.0414493,46.2492195 36.6108648,46.0723902 36.0847855,46.0723902 C35.8875516,46.0723902 35.6627711,46.1040976 35.4106889,46.1673902 L35.4106889,49.9434878 Z M34.1382795,50.2644634 L34.1382795,50.1432439 L34.3060078,50.1432439 C34.4944268,50.1432439 34.6281198,50.0832439 34.7070868,49.963122 C34.7552015,49.8910488 34.7794426,49.7294634 34.7794426,49.4784878 L34.7794426,46.6094634 C34.7794426,46.3322683 34.7487128,46.1586098 34.6873756,46.0888537 C34.6019198,45.9927561 34.4747156,45.9447073 34.3060078,45.9447073 L34.1382795,45.9447073 L34.1382795,45.8234878 L35.9532962,45.8234878 C36.6194349,45.8234878 37.1264153,45.8987317 37.4738701,46.0494634 C37.8212025,46.2000732 38.1008314,46.4511707 38.312267,46.8026341 C38.5238252,47.1542195 38.6294818,47.5603171 38.6294818,48.0209268 C38.6294818,48.6389756 38.4410628,49.1553171 38.0639801,49.5700732 C37.6409863,50.033 36.9965176,50.2644634 36.1306965,50.2644634 L34.1382795,50.2644634 Z" id="Fill-22" fill="#000000" style="mix-blend-mode: luminosity;" mask="url(#mask-2)"></path>
                    <path d="M42.0982757,45.9447073 L42.0982757,45.8234878 L43.6765138,45.8234878 L43.6765138,45.9447073 L43.5087855,45.9447073 C43.3334665,45.9447073 43.1985492,46.017878 43.104401,46.1640976 C43.0583675,46.2317805 43.0352283,46.3889756 43.0352283,46.6356829 L43.0352283,48.4370244 C43.0352283,48.8823902 42.9910313,49.227878 42.9020251,49.4736098 C42.8133861,49.7190976 42.6390466,49.9299512 42.3793737,50.105561 C42.1197008,50.2814146 41.766247,50.3692195 41.3191346,50.3692195 C40.8324775,50.3692195 40.4631078,50.2851951 40.2110255,50.1170244 C39.9589433,49.9489756 39.7803187,49.722878 39.6751518,49.4390976 C39.6048773,49.2448293 39.5699849,48.8801951 39.5699849,48.3453171 L39.5699849,46.6094634 C39.5699849,46.3365366 39.5321542,46.1575122 39.4563703,46.0723902 C39.3808314,45.9872683 39.2586468,45.9447073 39.0898165,45.9447073 L38.9222106,45.9447073 L38.9222106,45.8234878 L40.848883,45.8234878 L40.848883,45.9447073 L40.6778491,45.9447073 C40.4938376,45.9447073 40.3622259,46.0025122 40.2833813,46.1182439 C40.228533,46.1967805 40.2012312,46.360561 40.2012312,46.6094634 L40.2012312,48.5449512 C40.2012312,48.7175122 40.2170246,48.9150732 40.2488562,49.137878 C40.2805655,49.360561 40.3381073,49.5342195 40.4214818,49.6584878 C40.5046114,49.783122 40.6247147,49.885561 40.7815468,49.9665366 C40.9381341,50.0472683 41.1304708,50.0876341 41.3585569,50.0876341 C41.6500614,50.0876341 41.9109586,50.0242195 42.1410035,49.8976341 C42.3711709,49.7710488 42.5284928,49.6089756 42.6127242,49.4112927 C42.6972006,49.2137317 42.7394387,48.8790976 42.7394387,48.4075122 L42.7394387,46.6094634 C42.7394387,46.3322683 42.7085865,46.1586098 42.6473718,46.0888537 C42.5617936,45.9927561 42.4347118,45.9447073 42.266004,45.9447073 L42.0982757,45.9447073 Z" id="Fill-23" fill="#000000" style="mix-blend-mode: luminosity;" mask="url(#mask-2)"></path>
                    <path d="M46.8360876,45.722 L46.8360876,47.2579756 L46.7143927,47.2579756 C46.6749704,46.9632195 46.6043286,46.7284634 46.5023449,46.5537073 C46.4004836,46.3791951 46.2552823,46.2405366 46.0668633,46.1378537 C45.8781995,46.0351707 45.6831694,45.9839512 45.4815281,45.9839512 C45.2535644,45.9839512 45.0650231,46.0533415 44.915904,46.192 C44.7670297,46.3305366 44.6923478,46.4882195 44.6923478,46.6651707 C44.6923478,46.8005366 44.7394831,46.9238293 44.8338762,47.0352927 C44.9697729,47.1989512 45.2929867,47.4172439 45.8037624,47.6902927 C46.220145,47.9129756 46.5046711,48.0838293 46.6569733,48.2028537 C46.8092756,48.3217561 46.9264406,48.462122 47.0087132,48.6235854 C47.0909857,48.7851707 47.132122,48.954439 47.132122,49.1312683 C47.132122,49.4674878 47.0011225,49.7573659 46.7390011,50.0007805 C46.4771244,50.2443171 46.1401986,50.3659024 45.728101,50.3659024 C45.5988155,50.3659024 45.4771206,50.3561463 45.3631388,50.3365122 C45.2951904,50.3255366 45.1543966,50.2857805 44.9407571,50.216878 C44.7268729,50.1482195 44.5915883,50.1138293 44.5345362,50.1138293 C44.4798102,50.1138293 44.4364702,50.1300488 44.404761,50.1629756 C44.3729293,50.1956585 44.3493004,50.2633415 44.3339967,50.3659024 L44.2124243,50.3659024 L44.2124243,48.8430976 L44.3339967,48.8430976 C44.3910489,49.161878 44.4676897,49.4004146 44.5641641,49.5587073 C44.6605161,49.717 44.808166,49.8485854 45.0065018,49.9533415 C45.2048375,50.0582195 45.4223946,50.1105366 45.6591732,50.1105366 C45.9330479,50.1105366 46.1496256,50.0384634 46.3084166,49.8943171 C46.4673301,49.7501707 46.5467868,49.5799268 46.5467868,49.3833415 C46.5467868,49.2743171 46.5166692,49.1640732 46.4563114,49.0527317 C46.3960761,48.9412683 46.3024176,48.8376098 46.1753358,48.7415122 C46.0897576,48.6760244 45.8564071,48.536878 45.4750393,48.3239512 C45.0936715,48.1111463 44.8223679,47.9412683 44.6611283,47.8146829 C44.5001335,47.6880976 44.3779489,47.5483415 44.2945745,47.3955366 C44.2113224,47.2427317 44.1696964,47.074561 44.1696964,46.8911463 C44.1696964,46.5723659 44.2923707,46.2978537 44.5379642,46.0674878 C44.7833129,45.837122 45.0957528,45.722 45.4750393,45.722 C45.7116955,45.722 45.9625534,45.7798049 46.2278581,45.8955366 C46.3506548,45.9500488 46.4372124,45.9773659 46.4876534,45.9773659 C46.5445831,45.9773659 46.5912287,45.9605366 46.6273454,45.9266341 C46.6634621,45.8927317 46.6926003,45.824561 46.7143927,45.722 L46.8360876,45.722 Z" id="Fill-24" fill="#000000" style="mix-blend-mode: luminosity;" mask="url(#mask-2)"></path>
                    <path d="M51.3898881,45.8234634 L51.4391047,46.8649268 L51.3143491,46.8649268 C51.2902305,46.6815122 51.2571746,46.5505366 51.2155485,46.471878 C51.1476002,46.3452927 51.0572473,46.252 50.9443673,46.191878 C50.8314873,46.131878 50.6831028,46.101878 50.4989689,46.101878 L49.8707834,46.101878 L49.8707834,49.4948049 C49.8707834,49.7677317 49.9004113,49.9379756 49.9596671,50.0057805 C50.0429192,50.0974878 50.1711028,50.1432195 50.3442181,50.1432195 L50.4989689,50.1432195 L50.4989689,50.264439 L48.6081683,50.264439 L48.6081683,50.1432195 L48.7659799,50.1432195 C48.9546437,50.1432195 49.0883367,50.0865122 49.1673037,49.9728537 C49.215296,49.9030976 49.2395371,49.7437073 49.2395371,49.4948049 L49.2395371,46.101878 L48.7036633,46.101878 C48.4952884,46.101878 48.3472712,46.117122 48.2598565,46.1476098 C48.1457523,46.1891951 48.048176,46.2688293 47.9671277,46.3867561 C47.8860794,46.5046829 47.8377198,46.6640732 47.8224161,46.8649268 L47.6976604,46.8649268 L47.7501827,45.8234634 L51.3898881,45.8234634 Z" id="Fill-25" fill="#000000" style="mix-blend-mode: luminosity;" mask="url(#mask-2)"></path>
                    <path d="M52.9910328,47.9816707 C53.0326588,47.9816707 53.0687755,47.9822805 53.0996277,47.983378 C53.1302351,47.9844756 53.155578,47.9849634 53.1751667,47.9849634 C53.6003642,47.9849634 53.921007,47.8932561 54.1368501,47.7098415 C54.3528157,47.5265488 54.460676,47.2928902 54.460676,47.0089878 C54.460676,46.7317927 54.3736287,46.5063049 54.1992891,46.3327683 C54.0249496,46.1592317 53.7944149,46.0724024 53.5073178,46.0724024 C53.3801136,46.0724024 53.2081002,46.0931341 52.9910328,46.1345976 L52.9910328,47.9816707 Z M56.1571811,50.2644756 L54.9671667,50.2644756 L53.4579788,48.1880122 C53.3460782,48.1925244 53.2552356,48.1945976 53.1849611,48.1945976 C53.1565574,48.1945976 53.1259501,48.1941098 53.0928941,48.1928902 C53.060083,48.1919146 53.0261701,48.1902073 52.9910328,48.1880122 L52.9910328,49.478378 C52.9910328,49.7578902 53.0216402,49.9314268 53.0830998,49.9991098 C53.1663518,50.0952073 53.2913523,50.1432561 53.4579788,50.1432561 L53.6320735,50.1432561 L53.6320735,50.2644756 L51.7220515,50.2644756 L51.7220515,50.1432561 L51.8896574,50.1432561 C52.0780763,50.1432561 52.2129936,50.0821585 52.2940419,49.9598415 C52.3401978,49.8921585 52.3630921,49.7317927 52.3630921,49.478378 L52.3630921,46.6094756 C52.3630921,46.3299634 52.3322399,46.1564268 52.2710252,46.0888659 C52.185447,45.9926463 52.0584876,45.9447195 51.8896574,45.9447195 L51.7220515,45.9447195 L51.7220515,45.8235 L53.3460782,45.8235 C53.8196354,45.8235 54.1686818,45.8578902 54.3932174,45.9265488 C54.6179979,45.9954512 54.8088654,46.1220366 54.9654527,46.3065488 C55.12204,46.491061 55.2005173,46.710939 55.2005173,46.9665488 C55.2005173,47.2393537 55.1112662,47.4761829 54.9323967,47.6771585 C54.7537722,47.8780122 54.477204,48.0198415 54.1024474,48.1028902 L55.023117,49.3769146 C55.2334508,49.6694756 55.4142791,49.8638659 55.5653571,49.9598415 C55.7168023,50.055939 55.9140362,50.1170366 56.1571811,50.1432561 L56.1571811,50.2644756 Z" id="Fill-26" fill="#000000" style="mix-blend-mode: luminosity;" mask="url(#mask-2)"></path>
                    <path d="M58.9355585,45.8234634 L60.4907799,45.8234634 L60.4907799,45.9446829 L60.4052017,45.9446829 C60.348272,45.9446829 60.26502,45.9696829 60.1553232,46.0199268 C60.0457488,46.0701707 59.9460912,46.1422439 59.856228,46.2361463 C59.7662424,46.3299268 59.6555661,46.4828537 59.5240769,46.6946829 L58.4489014,48.3813902 L58.4489014,49.4948049 C58.4489014,49.7677317 58.4795088,49.9379756 58.5409683,50.0057805 C58.6242204,50.0974878 58.7557096,50.1432195 58.9355585,50.1432195 L59.0802701,50.1432195 L59.0802701,50.264439 L57.1864088,50.264439 L57.1864088,50.1432195 L57.3442204,50.1432195 C57.5326393,50.1432195 57.6665771,50.0865122 57.7454217,49.9728537 C57.7935365,49.9030976 57.8176551,49.7437073 57.8176551,49.4948049 L57.8176551,48.4434634 L56.5945848,46.5832195 C56.4498732,46.3649268 56.3518072,46.2284634 56.3005092,46.1738293 C56.248844,46.1193171 56.1419631,46.0538293 55.979744,45.9773659 C55.9357919,45.9555366 55.8723734,45.9446829 55.7889989,45.9446829 L55.7889989,45.8234634 L57.6959602,45.8234634 L57.6959602,45.9446829 L57.5974045,45.9446829 C57.4944413,45.9446829 57.3996809,45.9685854 57.3131233,46.0166341 C57.2263208,46.0648049 57.1831032,46.1367561 57.1831032,46.2328537 C57.1831032,46.3115122 57.2499497,46.4533415 57.3836427,46.6585854 L58.3141066,48.0898049 L59.1887426,46.7207805 C59.3203543,46.5156585 59.3860989,46.3627317 59.3860989,46.2623659 C59.3860989,46.2012683 59.3700606,46.1465122 59.3384738,46.0985854 C59.3066422,46.0505366 59.260976,46.0129756 59.201965,45.9855366 C59.1425867,45.9582195 59.0539478,45.9446829 58.9355585,45.9446829 L58.9355585,45.8234634 Z" id="Fill-27" fill="#000000" style="mix-blend-mode: luminosity;" mask="url(#mask-2)"></path>
                    <path d="M66.0771137,45.722 L66.178975,47.2317561 L66.0771137,47.2317561 C65.9410946,46.7798049 65.7471663,46.454439 65.4950841,46.2557805 C65.2428794,46.057122 64.9403562,45.9578537 64.5873921,45.9578537 C64.2916025,45.9578537 64.0239717,46.0326098 63.7851118,46.182 C63.5462519,46.3316341 63.3583227,46.5701707 63.2213242,46.8977317 C63.0843256,47.2251707 63.0158875,47.6323659 63.0158875,48.1193171 C63.0158875,48.5210244 63.0804078,48.8693171 63.2098158,49.1640732 C63.3392237,49.4588293 63.5336417,49.6846829 63.7935594,49.841878 C64.0532323,49.9990732 64.3497565,50.0777317 64.6827646,50.0777317 C64.9721879,50.0777317 65.2275757,50.0161463 65.4489282,49.8927317 C65.6704031,49.7693171 65.9137928,49.5243171 66.178975,49.1574878 L66.2808363,49.2229756 C66.0572802,49.6180976 65.796383,49.9073659 65.4983897,50.0907805 C65.2000291,50.2741951 64.8460855,50.3659024 64.4363141,50.3659024 C63.6975747,50.3659024 63.1254619,50.0930976 62.7198531,49.5472439 C62.4173299,49.1411463 62.2662519,48.6628537 62.2662519,48.1127317 C62.2662519,47.669561 62.3660319,47.2623659 62.5653471,46.8911463 C62.7647847,46.5199268 63.039394,46.2323659 63.3889301,46.0282195 C63.738711,45.8240732 64.120691,45.722 64.5347474,45.722 C64.8571042,45.722 65.174931,45.8006585 65.4883505,45.9578537 C65.5804174,46.0057805 65.646162,46.0296829 65.6857067,46.0296829 C65.7449626,46.0296829 65.796383,46.0090732 65.8403352,45.9676098 C65.8972648,45.9085854 65.9376666,45.8267561 65.9619076,45.722 L66.0771137,45.722 Z" id="Fill-28" fill="#000000" style="mix-blend-mode: luminosity;" mask="url(#mask-2)"></path>
                    <path d="M68.9142695,45.9610244 C68.5153944,45.9610244 68.1954862,46.1083415 67.9541777,46.4032195 C67.6538582,46.7700488 67.5038822,47.307122 67.5038822,48.014561 C67.5038822,48.7393171 67.6593676,49.297122 67.9707057,49.6880976 C68.2095656,49.9849268 68.5251887,50.1334634 68.9175751,50.1334634 C69.3362839,50.1334634 69.6820247,49.9707805 69.9549199,49.6454146 C70.2278152,49.3201707 70.3643241,48.807 70.3643241,48.1062683 C70.3643241,47.3463902 70.2141031,46.7798049 69.9137836,46.4063902 C69.67272,46.109561 69.3397119,45.9610244 68.9142695,45.9610244 M68.9769534,45.722 C69.555555,45.722 70.0567813,45.9409024 70.4809993,46.3785854 C70.9052174,46.8163902 71.1172652,47.3627317 71.1172652,48.0177317 C71.1172652,48.6923659 70.9035034,49.2523659 70.4762246,49.6978537 C70.0487009,50.1432195 69.5314364,50.3659024 68.9243088,50.3659024 C68.3104474,50.3659024 67.7946521,50.1487073 67.3771677,49.7141951 C66.9596832,49.2798049 66.750941,48.7176098 66.750941,48.0276098 C66.750941,47.3223659 66.9920046,46.747 67.4742542,46.3016341 C67.892963,45.9151707 68.3936995,45.722 68.9769534,45.722" id="Fill-29" fill="#000000" style="mix-blend-mode: luminosity;" mask="url(#mask-2)"></path>
                    <path d="M74.5893157,45.9447073 L74.5893157,45.8234878 L76.1675539,45.8234878 L76.1675539,45.9447073 L75.9998255,45.9447073 C75.8243841,45.9447073 75.6897117,46.017878 75.5953186,46.1640976 C75.5494076,46.2317805 75.5263908,46.3889756 75.5263908,46.6356829 L75.5263908,48.4370244 C75.5263908,48.8823902 75.4819489,49.227878 75.3931876,49.4736098 C75.3045486,49.7190976 75.1302091,49.9299512 74.8705362,50.105561 C74.6106185,50.2814146 74.2571646,50.3692195 73.8100522,50.3692195 C73.3233951,50.3692195 72.9542703,50.2851951 72.7019432,50.1170244 C72.4498609,49.9489756 72.2712363,49.722878 72.1660694,49.4390976 C72.0960398,49.2448293 72.0609025,48.8801951 72.0609025,48.3453171 L72.0609025,46.6094634 C72.0609025,46.3365366 72.0230718,46.1575122 71.9475329,46.0723902 C71.8719939,45.9872683 71.7498093,45.9447073 71.5809791,45.9447073 L71.4131283,45.9447073 L71.4131283,45.8234878 L73.3399231,45.8234878 L73.3399231,45.9447073 L73.1688891,45.9447073 C72.9848777,45.9447073 72.853266,46.0025122 72.7744214,46.1182439 C72.7196955,46.1967805 72.6921488,46.360561 72.6921488,46.6094634 L72.6921488,48.5449512 C72.6921488,48.7175122 72.7081871,48.9150732 72.7400187,49.137878 C72.7714831,49.360561 72.8291474,49.5342195 72.9123994,49.6584878 C72.9957739,49.783122 73.1158772,49.885561 73.2724645,49.9665366 C73.4290517,50.0472683 73.6216333,50.0876341 73.8494745,50.0876341 C74.1409791,50.0876341 74.4018762,50.0242195 74.632166,49.8976341 C74.862211,49.7710488 75.0195329,49.6089756 75.1038868,49.4112927 C75.1883631,49.2137317 75.2303564,48.8790976 75.2303564,48.4075122 L75.2303564,46.6094634 C75.2303564,46.3322683 75.199749,46.1586098 75.1382894,46.0888537 C75.0529561,45.9927561 74.9257519,45.9447073 74.7569217,45.9447073 L74.5893157,45.9447073 Z" id="Fill-30" fill="#000000" style="mix-blend-mode: luminosity;" mask="url(#mask-2)"></path>
                    <path d="M76.1512463,45.8234634 L77.3612166,45.8234634 L80.0867413,49.1541951 L80.0867413,46.5930976 C80.0867413,46.3201707 80.0561339,46.1499268 79.9946743,46.082122 C79.9135036,45.9904146 79.7854424,45.9446829 79.6101234,45.9446829 L79.4553725,45.9446829 L79.4553725,45.8234634 L81.0072884,45.8234634 L81.0072884,45.9446829 L80.8494768,45.9446829 C80.6610579,45.9446829 80.5273649,46.0013902 80.4485203,46.1150488 C80.4001607,46.1848049 80.3760421,46.3441951 80.3760421,46.5930976 L80.3760421,50.3365122 L80.2576528,50.3365122 L77.3183663,46.7601707 L77.3183663,49.4948049 C77.3183663,49.7677317 77.3479943,49.9379756 77.4071277,50.0057805 C77.4903797,50.0974878 77.6186858,50.1432195 77.7918011,50.1432195 L77.9496126,50.1432195 L77.9496126,50.264439 L76.3978192,50.264439 L76.3978192,50.1432195 L76.5522028,50.1432195 C76.7430703,50.1432195 76.8777427,50.0865122 76.9565873,49.9728537 C77.0049469,49.9030976 77.0290655,49.7437073 77.0290655,49.4948049 L77.0290655,46.4063902 C76.8996576,46.2557805 76.8015916,46.1563902 76.7347451,46.1083415 C76.6677762,46.0602927 76.5697102,46.0155366 76.4405471,45.9740732 C76.3770062,45.954439 76.2804094,45.9446829 76.1512463,45.9446829 L76.1512463,45.8234634 Z" id="Fill-31" fill="#000000" style="mix-blend-mode: luminosity;" mask="url(#mask-2)"></path>
                    <path d="M85.1567411,45.722 L85.2586024,47.2317561 L85.1567411,47.2317561 C85.020722,46.7798049 84.8267937,46.454439 84.5747114,46.2557805 C84.3227516,46.057122 84.0202284,45.9578537 83.6672643,45.9578537 C83.3712298,45.9578537 83.1038439,46.0326098 82.864984,46.182 C82.6261242,46.3316341 82.4379501,46.5701707 82.3011964,46.8977317 C82.1641978,47.2251707 82.0955149,47.6323659 82.0955149,48.1193171 C82.0955149,48.5210244 82.1602801,48.8693171 82.289688,49.1640732 C82.4188511,49.4588293 82.6135139,49.6846829 82.8731868,49.841878 C83.1328597,49.9990732 83.4293838,50.0777317 83.7626368,50.0777317 C84.0520601,50.0777317 84.3072031,50.0161463 84.5285555,49.8927317 C84.7500304,49.7693171 84.9934202,49.5243171 85.2586024,49.1574878 L85.3604637,49.2229756 C85.1369075,49.6180976 84.8760103,49.9073659 84.578017,50.0907805 C84.2799013,50.2741951 83.9257129,50.3659024 83.5159415,50.3659024 C82.7772021,50.3659024 82.2053341,50.0930976 81.7997253,49.5472439 C81.4972021,49.1411463 81.3458793,48.6628537 81.3458793,48.1127317 C81.3458793,47.669561 81.4456593,47.2623659 81.6452193,46.8911463 C81.8446569,46.5199268 82.1191438,46.2323659 82.4688023,46.0282195 C82.8183384,45.8240732 83.2003183,45.722 83.6146196,45.722 C83.9367315,45.722 84.2545584,45.8006585 84.5679778,45.9578537 C84.6600448,46.0057805 84.7257894,46.0296829 84.7653341,46.0296829 C84.82459,46.0296829 84.8760103,46.0090732 84.9199625,45.9676098 C84.9768922,45.9085854 85.0172939,45.8267561 85.041535,45.722 L85.1567411,45.722 Z" id="Fill-32" fill="#000000" style="mix-blend-mode: luminosity;" mask="url(#mask-2)"></path>
                    <path d="M87.6718095,50.1432073 L87.6718095,50.2644268 L85.7614202,50.2644268 L85.7614202,50.1432073 L85.9193542,50.1432073 C86.1033657,50.1432073 86.2373035,50.0897927 86.3205555,49.9828415 C86.3732002,49.9128415 86.3994001,49.7447927 86.3994001,49.4784512 L86.3994001,46.6094268 C86.3994001,46.3846707 86.3850758,46.2361341 86.3566722,46.164061 C86.3348798,46.1095488 86.2899482,46.0625976 86.2217549,46.0233293 C86.125403,45.9708902 86.0245211,45.9446707 85.9193542,45.9446707 L85.7614202,45.9446707 L85.7614202,45.8234512 L87.6718095,45.8234512 L87.6718095,45.9446707 L87.5106923,45.9446707 C87.3288846,45.9446707 87.196171,45.9982073 87.1130414,46.1051585 C87.058193,46.1750366 87.0307688,46.3430854 87.0307688,46.6094268 L87.0307688,49.4784512 C87.0307688,49.7033293 87.0450931,49.8517439 87.0734967,49.9238171 C87.0952891,49.9783293 87.1414451,50.0252805 87.2114747,50.0645488 C87.3057454,50.1169878 87.405403,50.1432073 87.5106923,50.1432073 L87.6718095,50.1432073 Z" id="Fill-33" fill="#000000" style="mix-blend-mode: luminosity;" mask="url(#mask-2)"></path>
                    <path d="M91.6962005,49.0363537 L91.8047954,49.0591585 L91.4233052,50.2644024 L87.9711617,50.2644024 L87.9711617,50.1431829 L88.1387677,50.1431829 C88.3271866,50.1431829 88.4621039,50.0820854 88.5431522,49.9597683 C88.5893081,49.8900122 88.6123248,49.7284268 88.6123248,49.4751341 L88.6123248,46.6095244 C88.6123248,46.3322073 88.5814726,46.1585488 88.5202579,46.0887927 C88.4345572,45.9926951 88.3075979,45.9446463 88.1387677,45.9446463 L87.9711617,45.9446463 L87.9711617,45.8234268 L89.9897787,45.8234268 L89.9897787,45.9446463 C89.7531225,45.9424512 89.5871082,45.9642805 89.4917356,46.0102561 C89.3963631,46.0559878 89.3311082,46.1137927 89.2960934,46.1836707 C89.2609561,46.2536707 89.2435711,46.420622 89.2435711,46.6847683 L89.2435711,49.4751341 C89.2435711,49.6563537 89.2609561,49.7807439 89.2960934,49.8485488 C89.3224157,49.8942805 89.3628174,49.9281829 89.4179107,49.9500122 C89.4726366,49.9718415 89.6435482,49.9828171 89.9307677,49.9828171 L90.2561852,49.9828171 C90.5981307,49.9828171 90.8382148,49.9576951 90.9761928,49.9074512 C91.1144157,49.8572073 91.2403956,49.7683049 91.354255,49.6405 C91.4683593,49.5128171 91.5823411,49.3114756 91.6962005,49.0363537" id="Fill-34" fill="#000000" style="mix-blend-mode: luminosity;" mask="url(#mask-2)"></path>
                    <path d="M21.8678848,54.0098049 C21.4687648,54.0098049 21.1488566,54.157122 20.907793,54.452 C20.6074736,54.8188293 20.457375,55.3559024 20.457375,56.0633415 C20.457375,56.7880976 20.6129829,57.3459024 20.9241986,57.736878 C21.1630584,58.0337073 21.4786816,58.1822439 21.871068,58.1822439 C22.2896543,58.1822439 22.6355176,58.019561 22.9085352,57.6941951 C23.1814305,57.3689512 23.3178169,56.8557805 23.3178169,56.1550488 C23.3178169,55.3951707 23.167596,54.8285854 22.8673989,54.4551707 C22.6260905,54.1583415 22.2930824,54.0098049 21.8678848,54.0098049 M21.9303239,53.7707805 C22.5089255,53.7707805 23.0103966,53.9896829 23.4346146,54.4273659 C23.8585879,54.8651707 24.0706357,55.4115122 24.0706357,56.0665122 C24.0706357,56.7411463 23.8569963,57.3011463 23.429595,57.7466341 C23.0021938,58.192 22.4848069,58.4146829 21.8776792,58.4146829 C21.2638179,58.4146829 20.7482674,58.1974878 20.330783,57.7629756 C19.9130537,57.3285854 19.7043114,56.7663902 19.7043114,56.0763902 C19.7043114,55.3711463 19.9454975,54.7957805 20.4276247,54.3504146 C20.8463334,53.9639512 21.3471923,53.7707805 21.9303239,53.7707805" id="Fill-35" fill="#000000" style="mix-blend-mode: luminosity;" mask="url(#mask-2)"></path>
                    <path d="M25.7081542,54.1145976 L25.7081542,55.8600854 L26.5202288,55.8600854 C26.706444,55.8600854 26.8430753,55.8193537 26.9296329,55.7374024 C27.0161905,55.6555732 27.0736099,55.493378 27.1022584,55.251061 L27.2238309,55.251061 L27.2238309,56.7543537 L27.1022584,56.7543537 C27.0999323,56.5817927 27.0775277,56.4550854 27.0347998,56.3743537 C26.9919495,56.293622 26.9328161,56.2330122 26.8572771,56.1926463 C26.7816157,56.1522805 26.6692254,56.1320366 26.5202288,56.1320366 L25.7081542,56.1320366 L25.7081542,57.5271585 C25.7081542,57.7520366 25.7222336,57.9005732 25.7508821,57.9726463 C25.7726745,58.0271585 25.818708,58.0741098 25.8889825,58.113378 C25.9853345,58.1658171 26.0862164,58.1920366 26.1913833,58.1920366 L26.3526229,58.1920366 L26.3526229,58.3132561 L24.438928,58.3132561 L24.438928,58.1920366 L24.5967396,58.1920366 C24.7808735,58.1920366 24.9145664,58.1385 24.9979409,58.0315488 C25.0505856,57.9616707 25.0769079,57.793622 25.0769079,57.5271585 L25.0769079,54.6582561 C25.0769079,54.433378 25.0625836,54.2848415 25.0340576,54.2128902 C25.0120203,54.1582561 24.9670887,54.1114268 24.8992627,54.0720366 C24.8049921,54.0197195 24.7041102,53.9935 24.5967396,53.9935 L24.438928,53.9935 L24.438928,53.8722805 L27.756399,53.8722805 L27.7992494,54.8482561 L27.6841657,54.8482561 C27.6271135,54.6406951 27.5608792,54.4885 27.4852178,54.3914268 C27.4095564,54.2942317 27.31651,54.2238659 27.2057113,54.1800854 C27.0950351,54.1364268 26.9235114,54.1145976 26.6911403,54.1145976 L25.7081542,54.1145976 Z" id="Fill-36" fill="#000000" style="mix-blend-mode: luminosity;" mask="url(#mask-2)"></path>
                    <path d="M31.1429938,55.9323171 L33.2143778,55.9323171 L33.2143778,54.6615854 C33.2143778,54.4345122 33.2000536,54.284878 33.1715275,54.2128049 C33.1497351,54.1582927 33.1037016,54.1113415 33.0335495,54.0720732 C32.9392788,54.0196341 32.8394988,53.9935366 32.7343319,53.9935366 L32.5765203,53.9935366 L32.5765203,53.8721951 L34.4834816,53.8721951 L34.4834816,53.9935366 L34.32567,53.9935366 C34.2205031,53.9935366 34.1206007,54.0185366 34.0264524,54.0687805 C33.9563003,54.1036585 33.9086753,54.1565854 33.8834548,54.227561 C33.8583568,54.2986585 33.8456241,54.4431707 33.8456241,54.6615854 L33.8456241,57.5271951 C33.8456241,57.7520732 33.8598259,57.9006098 33.8884744,57.972561 C33.9102669,58.0271951 33.9551985,58.0740244 34.0231468,58.1134146 C34.1196212,58.1657317 34.2205031,58.1919512 34.32567,58.1919512 L34.4834816,58.1919512 L34.4834816,58.3131707 L32.5765203,58.3131707 L32.5765203,58.1919512 L32.7343319,58.1919512 C32.9161396,58.1919512 33.0488532,58.1385366 33.1321052,58.0315854 C33.1868312,57.9617073 33.2143778,57.7936585 33.2143778,57.5271951 L33.2143778,56.1745122 L31.1429938,56.1745122 L31.1429938,57.5271951 C31.1429938,57.7520732 31.1571956,57.9006098 31.1857217,57.972561 C31.2076365,58.0271951 31.2535476,58.0740244 31.3239445,58.1134146 C31.4180928,58.1657317 31.5178728,58.1919512 31.6230397,58.1919512 L31.7841569,58.1919512 L31.7841569,58.3131707 L29.87389,58.3131707 L29.87389,58.1919512 L30.0317016,58.1919512 C30.2158355,58.1919512 30.3495285,58.1385366 30.4327805,58.0315854 C30.4854252,57.9617073 30.5117475,57.7936585 30.5117475,57.5271951 L30.5117475,54.6615854 C30.5117475,54.4345122 30.4975457,54.284878 30.4690196,54.2128049 C30.4469823,54.1582927 30.4020507,54.1113415 30.3342248,54.0720732 C30.2376279,54.0196341 30.1368685,53.9935366 30.0317016,53.9935366 L29.87389,53.9935366 L29.87389,53.8721951 L31.7841569,53.8721951 L31.7841569,53.9935366 L31.6230397,53.9935366 C31.5178728,53.9935366 31.4180928,54.0185366 31.3239445,54.0687805 C31.2558737,54.1036585 31.2087384,54.1565854 31.1824161,54.227561 C31.1560937,54.2986585 31.1429938,54.4431707 31.1429938,54.6615854 L31.1429938,55.9323171 Z" id="Fill-37" fill="#000000" style="mix-blend-mode: luminosity;" mask="url(#mask-2)"></path>
                    <path d="M37.0217626,54.0098049 C36.622765,54.0098049 36.3028568,54.157122 36.0616708,54.452 C35.7613513,54.8188293 35.6112528,55.3559024 35.6112528,56.0633415 C35.6112528,56.7880976 35.7668606,57.3459024 36.0780763,57.736878 C36.3169362,58.0337073 36.6325593,58.1822439 37.0249458,58.1822439 C37.4436545,58.1822439 37.7895177,58.019561 38.062413,57.6941951 C38.3353083,57.3689512 38.4716947,56.8557805 38.4716947,56.1550488 C38.4716947,55.3951707 38.3214737,54.8285854 38.0212767,54.4551707 C37.7800907,54.1583415 37.4470825,54.0098049 37.0217626,54.0098049 M37.0843241,53.7707805 C37.6629257,53.7707805 38.1642743,53.9896829 38.5884924,54.4273659 C39.012588,54.8651707 39.2246359,55.4115122 39.2246359,56.0665122 C39.2246359,56.7411463 39.010874,57.3011463 38.5835952,57.7466341 C38.1560715,58.192 37.6388071,58.4146829 37.0316794,58.4146829 C36.4178181,58.4146829 35.9021452,58.1974878 35.4846607,57.7629756 C35.0670538,57.3285854 34.8583116,56.7663902 34.8583116,56.0763902 C34.8583116,55.3711463 35.0993752,54.7957805 35.5816249,54.3504146 C36.0003336,53.9639512 36.5010701,53.7707805 37.0843241,53.7707805" id="Fill-38" fill="#000000" style="mix-blend-mode: luminosity;" mask="url(#mask-2)"></path>
                    <path d="M39.3956209,53.8722439 L40.6055912,53.8722439 L43.3312383,57.2029756 L43.3312383,54.641878 C43.3312383,54.3689512 43.3005085,54.1987073 43.2392937,54.1309024 C43.1580006,54.0391951 43.0298169,53.9934634 42.8544979,53.9934634 L42.699992,53.9934634 L42.699992,53.8722439 L44.2519078,53.8722439 L44.2519078,53.9934634 L44.0940962,53.9934634 C43.9054324,53.9934634 43.7717395,54.0501707 43.6928949,54.1638293 C43.6446577,54.2335854 43.6206615,54.3929756 43.6206615,54.641878 L43.6206615,58.3852927 L43.5022722,58.3852927 L40.5627409,54.8089512 L40.5627409,57.5435854 C40.5627409,57.8165122 40.5923688,57.9867561 40.6516247,58.054561 C40.7348767,58.1462683 40.8630604,58.192 41.0361756,58.192 L41.1939872,58.192 L41.1939872,58.3132195 L39.6421938,58.3132195 L39.6421938,58.192 L39.7966998,58.192 C39.9874449,58.192 40.1223621,58.1352927 40.2012067,58.0216341 C40.2493215,57.951878 40.2734401,57.7924878 40.2734401,57.5435854 L40.2734401,54.4551707 C40.1440321,54.304561 40.0459661,54.2051707 39.9793645,54.157122 C39.9123956,54.1090732 39.8143296,54.0643171 39.6849217,54.0228537 C39.6213808,54.0032195 39.5250288,53.9934634 39.3956209,53.9934634 L39.3956209,53.8722439 Z" id="Fill-39" fill="#000000" style="mix-blend-mode: luminosity;" mask="url(#mask-2)"></path>
                    <path d="M48.4800337,53.7707805 L48.5949949,55.1724878 L48.4800337,55.1724878 C48.3638481,54.8230976 48.2136272,54.5600488 48.0294933,54.3830976 C47.764311,54.1277317 47.4235899,53.9999268 47.0070848,53.9999268 C46.4393794,53.9999268 46.0075707,54.2238293 45.7117812,54.6713902 C45.4639839,55.0490732 45.3402077,55.4988293 45.3402077,56.0206585 C45.3402077,56.4443171 45.4223579,56.8307805 45.5866582,57.1800488 C45.7512034,57.5293171 45.9665569,57.7854146 46.2328409,57.9480976 C46.499125,58.1107805 46.77251,58.192 47.0532407,58.192 C47.2174187,58.192 47.3764545,58.1712683 47.5297362,58.1298049 C47.6832627,58.0883415 47.83128,58.027122 47.9737879,57.9463902 L47.9737879,56.6626098 C47.9737879,56.4399268 47.9568926,56.2940732 47.9226123,56.2254146 C47.8886994,56.1565122 47.8360547,56.1041951 47.7648008,56.0682195 C47.6937917,56.032122 47.5683015,56.0141951 47.3884526,56.0141951 L47.3884526,55.8896829 L49.114708,55.8896829 L49.114708,56.0141951 L49.0324354,56.0141951 C48.8614014,56.0141951 48.7442364,56.0709024 48.6806956,56.184439 C48.6366209,56.2651707 48.6149509,56.4246829 48.6149509,56.6626098 L48.6149509,58.0216341 C48.3628687,58.157122 48.1139696,58.2563902 47.8686209,58.3198049 C47.6230275,58.3830976 47.3501322,58.4146829 47.0498127,58.4146829 C46.188399,58.4146829 45.534136,58.139561 45.0869012,57.5893171 C44.7516893,57.176878 44.583961,56.7007805 44.583961,56.1615122 C44.583961,55.7706585 44.6781092,55.3962683 44.8666506,55.0382195 C45.0903292,54.6123659 45.397015,54.2849268 45.7873201,54.0556585 C46.1139619,53.8656585 46.4996147,53.7707805 46.9446458,53.7707805 C47.1067424,53.7707805 47.2542699,53.7838293 47.3867386,53.8100488 C47.5194521,53.8362683 47.7073813,53.8940732 47.9506487,53.9835854 C48.0735679,54.029439 48.1555956,54.0523659 48.197344,54.0523659 C48.2389701,54.0523659 48.274597,54.0332195 48.3041025,53.9950488 C48.3337305,53.956878 48.35185,53.882 48.3583388,53.7707805 L48.4800337,53.7707805 Z" id="Fill-40" fill="#000000" style="mix-blend-mode: luminosity;" mask="url(#mask-2)"></path>
                    <path d="M52.9056627,55.850378 L54.5496455,57.4781829 C54.8191128,57.7465976 55.0494026,57.9295244 55.2399028,58.0267195 C55.4307703,58.1239146 55.621393,58.1789146 55.8121381,58.1919634 L55.8121381,58.3131829 L53.691415,58.3131829 L53.691415,58.1919634 C53.8183744,58.1919634 53.9099516,58.1707439 53.9659019,58.1281829 C54.0218521,58.085622 54.0498885,58.038061 54.0498885,57.9857439 C54.0498885,57.9333049 54.0393595,57.8863537 54.0185465,57.8448902 C53.9977335,57.8034268 53.9290506,57.7258659 53.8131099,57.6123293 L52.2744165,56.0959878 L52.2744165,57.5272073 C52.2744165,57.7520854 52.2884958,57.900622 52.3168995,57.9725732 C52.3389368,58.0272073 52.3848478,58.0740366 52.4551223,58.1134268 C52.549393,58.1657439 52.6490506,58.1919634 52.7543399,58.1919634 L52.9056627,58.1919634 L52.9056627,58.3131829 L51.0051902,58.3131829 L51.0051902,58.1919634 L51.1630018,58.1919634 C51.3471357,58.1919634 51.4807063,58.1385488 51.5642032,58.0315976 C51.6168478,57.9615976 51.6430477,57.7936707 51.6430477,57.5272073 L51.6430477,54.6583049 C51.6430477,54.4334268 51.6287235,54.2837927 51.6003198,54.2095244 C51.5782825,54.1570854 51.5333509,54.1113537 51.4654026,54.0720854 C51.3690506,54.0196463 51.2681687,53.9934268 51.1630018,53.9934268 L51.0051902,53.9934268 L51.0051902,53.8722073 L52.9056627,53.8722073 L52.9056627,53.9934268 L52.7543399,53.9934268 C52.6512543,53.9934268 52.5514743,54.0185488 52.4551223,54.0687927 C52.3872964,54.1036707 52.3401611,54.1559878 52.3138387,54.2259878 C52.2875164,54.2958659 52.2744165,54.4400122 52.2744165,54.6583049 L52.2744165,56.0173293 C52.3181238,55.9758659 52.4683447,55.8373293 52.7245896,55.6014756 C53.3757919,55.0075732 53.7691577,54.6113537 53.9051769,54.4126951 C53.9641879,54.3252561 53.9939382,54.2487927 53.9939382,54.1833049 C53.9939382,54.1331829 53.9709215,54.0890366 53.9247656,54.0507439 C53.8788545,54.0125732 53.800867,53.9934268 53.691415,53.9934268 L53.5895537,53.9934268 L53.5895537,53.8722073 L55.2268029,53.8722073 L55.2268029,53.9934268 C55.1304509,53.995622 55.042669,54.0086707 54.9638244,54.0328171 C54.8848574,54.0567195 54.7885054,54.1031829 54.6744011,54.1718415 C54.5604193,54.2407439 54.4202376,54.3514756 54.2536111,54.5044024 C54.2052515,54.547939 53.9829196,54.7717195 53.5862481,55.1757439 L52.9056627,55.850378 Z" id="Fill-41" fill="#000000" style="mix-blend-mode: luminosity;" mask="url(#mask-2)"></path>
                    <path d="M58.1562705,54.0098049 C57.7573953,54.0098049 57.4374871,54.157122 57.1961787,54.452 C56.8958592,54.8188293 56.7458831,55.3559024 56.7458831,56.0633415 C56.7458831,56.7880976 56.9013685,57.3459024 57.2127066,57.736878 C57.4515665,58.0337073 57.7671897,58.1822439 58.1595761,58.1822439 C58.5782848,58.1822439 58.9240256,58.019561 59.1969209,57.6941951 C59.4698162,57.3689512 59.606325,56.8557805 59.606325,56.1550488 C59.606325,55.3951707 59.4561041,54.8285854 59.1557846,54.4551707 C58.914721,54.1583415 58.5817129,54.0098049 58.1562705,54.0098049 M58.2189544,53.7707805 C58.797556,53.7707805 59.2987822,53.9896829 59.7230003,54.4273659 C60.1472184,54.8651707 60.3592662,55.4115122 60.3592662,56.0665122 C60.3592662,56.7411463 60.1455044,57.3011463 59.7182255,57.7466341 C59.2907019,58.192 58.7734374,58.4146829 58.1663097,58.4146829 C57.5524484,58.4146829 57.0366531,58.1974878 56.6191686,57.7629756 C56.2016842,57.3285854 55.9929419,56.7663902 55.9929419,56.0763902 C55.9929419,55.3711463 56.2340055,54.7957805 56.7162552,54.3504146 C57.1349639,53.9639512 57.6357004,53.7707805 58.2189544,53.7707805" id="Fill-42" fill="#000000" style="mix-blend-mode: luminosity;" mask="url(#mask-2)"></path>
                    <path d="M60.5302512,53.8722439 L61.7402215,53.8722439 L64.4658686,57.2029756 L64.4658686,54.641878 C64.4658686,54.3689512 64.4351388,54.1987073 64.3739241,54.1309024 C64.2925085,54.0391951 64.1644473,53.9934634 63.9891283,53.9934634 L63.8346223,53.9934634 L63.8346223,53.8722439 L65.3865381,53.8722439 L65.3865381,53.9934634 L65.2287265,53.9934634 C65.0400627,53.9934634 64.9063698,54.0501707 64.8275252,54.1638293 C64.7791656,54.2335854 64.7552918,54.3929756 64.7552918,54.641878 L64.7552918,58.3852927 L64.6369025,58.3852927 L61.6973712,54.8089512 L61.6973712,57.5435854 C61.6973712,57.8165122 61.7269991,57.9867561 61.7861326,58.054561 C61.869507,58.1462683 61.9976907,58.192 62.1708059,58.192 L62.3286175,58.192 L62.3286175,58.3132195 L60.7768241,58.3132195 L60.7768241,58.192 L60.9312077,58.192 C61.1220752,58.192 61.2569924,58.1352927 61.335837,58.0216341 C61.3839518,57.951878 61.4080704,57.7924878 61.4080704,57.5435854 L61.4080704,54.4551707 C61.2786625,54.304561 61.1805965,54.2051707 61.1139948,54.157122 C61.0470259,54.1090732 60.9489599,54.0643171 60.819552,54.0228537 C60.7560111,54.0032195 60.6596591,53.9934634 60.5302512,53.9934634 L60.5302512,53.8722439 Z" id="Fill-43" fill="#000000" style="mix-blend-mode: luminosity;" mask="url(#mask-2)"></path>
                    <path d="M69.6148966,53.7707805 L69.7298579,55.1724878 L69.6148966,55.1724878 C69.498711,54.8230976 69.3484901,54.5600488 69.1643562,54.3830976 C68.899174,54.1277317 68.5582079,53.9999268 68.1419478,53.9999268 C67.5739975,53.9999268 67.1424337,54.2238293 66.8463992,54.6713902 C66.598602,55.0490732 66.4748258,55.4988293 66.4748258,56.0206585 C66.4748258,56.4443171 66.556976,56.8307805 66.7215212,57.1800488 C66.8858215,57.5293171 67.1012974,57.7854146 67.367459,57.9480976 C67.6337431,58.1107805 67.9073729,58.192 68.1878588,58.192 C68.3522816,58.192 68.5110726,58.1712683 68.6645991,58.1298049 C68.8178808,58.0883415 68.965898,58.027122 69.1084059,57.9463902 L69.1084059,56.6626098 C69.1084059,56.4399268 69.0915107,56.2940732 69.0574753,56.2254146 C69.0235623,56.1565122 68.9709176,56.1041951 68.8996637,56.0682195 C68.8284098,56.032122 68.7029196,56.0141951 68.5233155,56.0141951 L68.5233155,55.8896829 L70.2493261,55.8896829 L70.2493261,56.0141951 L70.1672983,56.0141951 C69.9962644,56.0141951 69.8788545,56.0709024 69.8153136,56.184439 C69.7714839,56.2651707 69.749569,56.4246829 69.749569,56.6626098 L69.749569,58.0216341 C69.4974868,58.157122 69.2488325,58.2563902 69.003239,58.3198049 C68.7576455,58.3830976 68.4848727,58.4146829 68.1844308,58.4146829 C67.3231396,58.4146829 66.6689989,58.139561 66.2217641,57.5893171 C65.8863074,57.176878 65.7187015,56.7007805 65.7187015,56.1615122 C65.7187015,55.7706585 65.8128497,55.3962683 66.0012687,55.0382195 C66.2249473,54.6123659 66.531878,54.2849268 66.9219382,54.0556585 C67.24858,53.8656585 67.6342328,53.7707805 68.0792639,53.7707805 C68.2416054,53.7707805 68.388888,53.7838293 68.5216015,53.8100488 C68.6540702,53.8362683 68.8421219,53.8940732 69.0855116,53.9835854 C69.2081859,54.029439 69.2904585,54.0523659 69.3319621,54.0523659 C69.3735881,54.0523659 69.4092151,54.0332195 69.4389655,53.9950488 C69.4685934,53.956878 69.4864681,53.882 69.4932017,53.7707805 L69.6148966,53.7707805 Z" id="Fill-44" fill="#000000" style="mix-blend-mode: luminosity;" mask="url(#mask-2)"></path>
                </g>
            </g>
        </g>
    </g>
</svg>