<svg id="Layer_1" data-name="Layer 1" xmlns="http://www.w3.org/2000/svg" xmlns:xlink="http://www.w3.org/1999/xlink" viewBox="0 0 184.19 46.68"><defs><style>.cls-1,.cls-3,.cls-4{fill:#9a9a9a;}.cls-1{clip-rule:evenodd;}.cls-2{fill:none;}.cls-4,.cls-78{fill-rule:evenodd;}.cls-5{clip-path:url(#clip-path);}.cls-6{clip-path:url(#clip-path-2);}.cls-7{clip-path:url(#clip-path-3);}.cls-8{clip-path:url(#clip-path-5);}.cls-9{clip-path:url(#clip-path-7);}.cls-10{clip-path:url(#clip-path-9);}.cls-11{clip-path:url(#clip-path-11);}.cls-12{clip-path:url(#clip-path-13);}.cls-13{clip-path:url(#clip-path-15);}.cls-14{clip-path:url(#clip-path-17);}.cls-15{clip-path:url(#clip-path-19);}.cls-16{clip-path:url(#clip-path-21);}.cls-17{clip-path:url(#clip-path-23);}.cls-18{clip-path:url(#clip-path-25);}.cls-19{clip-path:url(#clip-path-27);}.cls-20{clip-path:url(#clip-path-29);}.cls-21{clip-path:url(#clip-path-31);}.cls-22{clip-path:url(#clip-path-33);}.cls-23{clip-path:url(#clip-path-35);}.cls-24{clip-path:url(#clip-path-37);}.cls-25{clip-path:url(#clip-path-39);}.cls-26{clip-path:url(#clip-path-41);}.cls-27{clip-path:url(#clip-path-43);}.cls-28{clip-path:url(#clip-path-45);}.cls-29{clip-path:url(#clip-path-47);}.cls-30{clip-path:url(#clip-path-49);}.cls-31{clip-path:url(#clip-path-51);}.cls-32{clip-path:url(#clip-path-53);}.cls-33{clip-path:url(#clip-path-55);}.cls-34{clip-path:url(#clip-path-57);}.cls-35{clip-path:url(#clip-path-59);}.cls-36{clip-path:url(#clip-path-61);}.cls-37{clip-path:url(#clip-path-63);}.cls-38{clip-path:url(#clip-path-65);}.cls-39{clip-path:url(#clip-path-67);}.cls-40{clip-path:url(#clip-path-69);}.cls-41{clip-path:url(#clip-path-71);}.cls-42{clip-path:url(#clip-path-73);}.cls-43{clip-path:url(#clip-path-75);}.cls-44{clip-path:url(#clip-path-77);}.cls-45{clip-path:url(#clip-path-79);}.cls-46{clip-path:url(#clip-path-81);}.cls-47{clip-path:url(#clip-path-83);}.cls-48{clip-path:url(#clip-path-85);}.cls-49{clip-path:url(#clip-path-87);}.cls-50{clip-path:url(#clip-path-89);}.cls-51{clip-path:url(#clip-path-91);}.cls-52{clip-path:url(#clip-path-93);}.cls-53{clip-path:url(#clip-path-95);}.cls-54{clip-path:url(#clip-path-97);}.cls-55{clip-path:url(#clip-path-99);}.cls-56{clip-path:url(#clip-path-101);}.cls-57{clip-path:url(#clip-path-103);}.cls-58{clip-path:url(#clip-path-105);}.cls-59{clip-path:url(#clip-path-107);}.cls-60{clip-path:url(#clip-path-109);}.cls-61{clip-path:url(#clip-path-111);}.cls-62{clip-path:url(#clip-path-113);}.cls-63{clip-path:url(#clip-path-115);}.cls-64{clip-path:url(#clip-path-117);}.cls-65{clip-path:url(#clip-path-119);}.cls-66{clip-path:url(#clip-path-121);}.cls-67{clip-path:url(#clip-path-123);}.cls-68{clip-path:url(#clip-path-125);}.cls-69{clip-path:url(#clip-path-127);}.cls-70{clip-path:url(#clip-path-129);}.cls-71{clip-path:url(#clip-path-131);}.cls-72{clip-path:url(#clip-path-133);}.cls-73{clip-path:url(#clip-path-135);}.cls-74{clip-path:url(#clip-path-137);}.cls-75{clip-path:url(#clip-path-139);}.cls-76{clip-path:url(#clip-path-141);}.cls-77{clip-path:url(#clip-path-143);}.cls-78{fill:#fff;}</style><clipPath id="clip-path" transform="translate(-0.1 -0.54)"><polygon class="cls-1" points="54.5 9.69 54.5 11.18 51.99 11.18 51.99 18.14 50.23 18.14 50.23 11.18 47.71 11.18 47.71 9.69 54.5 9.69"/></clipPath><clipPath id="clip-path-2" transform="translate(-0.1 -0.54)"><rect class="cls-2" x="-41" y="-348.98" width="469" height="543"/></clipPath><clipPath id="clip-path-3" transform="translate(-0.1 -0.54)"><path class="cls-1" d="M58.5,11.74h.13v1.68l-.27,0h-.19a1.36,1.36,0,0,0-1.32.64,2.6,2.6,0,0,0-.18,1.11v3H55V11.89h1.55V13a3.46,3.46,0,0,1,.66-.86,1.78,1.78,0,0,1,1.18-.38h.08"/></clipPath><clipPath id="clip-path-5" transform="translate(-0.1 -0.54)"><path class="cls-1" d="M62.33,14.34A3.13,3.13,0,0,0,63,14.2a.5.5,0,0,0,.35-.47.55.55,0,0,0-.27-.53,1.65,1.65,0,0,0-.79-.15,1,1,0,0,0-.82.29,1.14,1.14,0,0,0-.23.57H59.65a2.44,2.44,0,0,1,.46-1.34,2.66,2.66,0,0,1,2.22-.83,4,4,0,0,1,1.82.41,1.57,1.57,0,0,1,.79,1.53v2.87c0,.2,0,.44,0,.73a.79.79,0,0,0,.1.43.52.52,0,0,0,.24.19v.24H63.52a1.69,1.69,0,0,1-.1-.35c0-.11,0-.24-.05-.38a3.33,3.33,0,0,1-.77.62,2.27,2.27,0,0,1-1.19.31,2,2,0,0,1-1.4-.49,1.72,1.72,0,0,1-.56-1.37,1.78,1.78,0,0,1,.89-1.67,4,4,0,0,1,1.44-.4Zm1,.76a1.3,1.3,0,0,1-.31.16,2.33,2.33,0,0,1-.44.11l-.37.07a2.64,2.64,0,0,0-.74.22.74.74,0,0,0-.38.7.7.7,0,0,0,.23.6.87.87,0,0,0,.57.19,1.68,1.68,0,0,0,1-.31,1.31,1.31,0,0,0,.46-1.13Z"/></clipPath><clipPath id="clip-path-7" transform="translate(-0.1 -0.54)"><polygon class="cls-1" points="70.47 11.89 72.21 11.89 69.97 18.14 68.26 18.14 66.04 11.89 67.86 11.89 69.15 16.5 70.47 11.89"/></clipPath><clipPath id="clip-path-9" transform="translate(-0.1 -0.54)"><path class="cls-1" d="M77.46,12a2.49,2.49,0,0,1,1.07.92,3.06,3.06,0,0,1,.5,1.29,8.37,8.37,0,0,1,0,1.24H74.56a1.5,1.5,0,0,0,.65,1.32,1.62,1.62,0,0,0,.89.24,1.37,1.37,0,0,0,.9-.29,1.27,1.27,0,0,0,.34-.43H79a2,2,0,0,1-.6,1.13,3,3,0,0,1-2.33.91,3.35,3.35,0,0,1-2.18-.76,3,3,0,0,1-.95-2.51,3.4,3.4,0,0,1,.85-2.49A3,3,0,0,1,76,11.72a3.43,3.43,0,0,1,1.46.3M75,13.43a1.71,1.71,0,0,0-.43,1h2.8a1.36,1.36,0,0,0-.44-1,1.38,1.38,0,0,0-1-.34,1.29,1.29,0,0,0-1,.36"/></clipPath><clipPath id="clip-path-11" transform="translate(-0.1 -0.54)"><rect class="cls-3" x="80.22" y="9.69" width="1.62" height="8.46"/></clipPath><clipPath id="clip-path-13" transform="translate(-0.1 -0.54)"><path class="cls-1" d="M89.35,9.69h2l3,8.45H92.4l-.55-1.74H88.76l-.57,1.74H86.36ZM89.23,15h2.15l-1.06-3.33Z"/></clipPath><clipPath id="clip-path-15" transform="translate(-0.1 -0.54)"><path class="cls-1" d="M98.59,11.88a2,2,0,0,1,1,.91v-.9h1.58v5.93a3.36,3.36,0,0,1-.4,1.83,3,3,0,0,1-2.67,1.05,3.64,3.64,0,0,1-1.94-.47,1.75,1.75,0,0,1-.83-1.4h1.77a.73.73,0,0,0,.22.41,1.35,1.35,0,0,0,.88.22,1.18,1.18,0,0,0,1.17-.59,3,3,0,0,0,.2-1.27v-.4a2.41,2.41,0,0,1-.5.6,2,2,0,0,1-1.26.37,2.36,2.36,0,0,1-1.91-.85A3.39,3.39,0,0,1,95.15,15a3.86,3.86,0,0,1,.68-2.34,2.28,2.28,0,0,1,2-.95,2.21,2.21,0,0,1,.81.14m.56,4.49A2,2,0,0,0,99.54,15a2.18,2.18,0,0,0-.37-1.36,1.21,1.21,0,0,0-1-.46A1.17,1.17,0,0,0,97,14,2.94,2.94,0,0,0,96.83,15,2.47,2.47,0,0,0,97,16a1.18,1.18,0,0,0,1.18.79,1.23,1.23,0,0,0,1-.43"/></clipPath><clipPath id="clip-path-17" transform="translate(-0.1 -0.54)"><path class="cls-1" d="M107,12a2.49,2.49,0,0,1,1.07.92,3,3,0,0,1,.49,1.29,8.11,8.11,0,0,1,.06,1.24h-4.52a1.48,1.48,0,0,0,.65,1.32,1.58,1.58,0,0,0,.89.24,1.37,1.37,0,0,0,.9-.29,1.27,1.27,0,0,0,.34-.43h1.65a2,2,0,0,1-.6,1.13,3,3,0,0,1-2.33.91,3.37,3.37,0,0,1-2.19-.76,3.06,3.06,0,0,1-.94-2.51,3.4,3.4,0,0,1,.85-2.49,3,3,0,0,1,2.22-.87A3.47,3.47,0,0,1,107,12m-2.43,1.41a1.71,1.71,0,0,0-.43,1h2.79a1.35,1.35,0,0,0-.43-1,1.39,1.39,0,0,0-1-.34,1.28,1.28,0,0,0-1,.36"/></clipPath><clipPath id="clip-path-19" transform="translate(-0.1 -0.54)"><path class="cls-1" d="M114.71,12.25a2.1,2.1,0,0,1,.61,1.68v4.21h-1.67v-3.8a1.73,1.73,0,0,0-.13-.76.89.89,0,0,0-.9-.48,1.12,1.12,0,0,0-1.12.71,2.32,2.32,0,0,0-.16.95v3.38h-1.62V11.9h1.57v.91a2.68,2.68,0,0,1,.59-.69,2,2,0,0,1,1.26-.38,2.37,2.37,0,0,1,1.57.51"/></clipPath><clipPath id="clip-path-21" transform="translate(-0.1 -0.54)"><path class="cls-1" d="M116.48,13.11V12h.86V10.2H119V12h1v1.16h-1v3.31a.77.77,0,0,0,.09.47c.07.07.27.1.6.1H120V18.2l-.76,0a2,2,0,0,1-1.57-.4,1.18,1.18,0,0,1-.28-.87V13.11Z"/></clipPath><clipPath id="clip-path-23" transform="translate(-0.1 -0.54)"><path class="cls-1" d="M122.54,16.15a1.12,1.12,0,0,0,.23.62,1.53,1.53,0,0,0,1.12.32,1.78,1.78,0,0,0,.76-.14.46.46,0,0,0,.28-.43.47.47,0,0,0-.22-.42,9,9,0,0,0-1.7-.49,3.59,3.59,0,0,1-1.49-.66,1.44,1.44,0,0,1-.43-1.13,2,2,0,0,1,.67-1.49,2.73,2.73,0,0,1,1.9-.62,3.49,3.49,0,0,1,1.9.47,2,2,0,0,1,.84,1.61h-1.62a.93.93,0,0,0-.18-.5,1.11,1.11,0,0,0-.91-.33,1.33,1.33,0,0,0-.76.17.47.47,0,0,0-.22.39.43.43,0,0,0,.24.41,10.83,10.83,0,0,0,1.69.45,3,3,0,0,1,1.45.69,1.6,1.6,0,0,1,.48,1.18,1.92,1.92,0,0,1-.69,1.52,3.2,3.2,0,0,1-2.12.58,3.13,3.13,0,0,1-2.16-.62,2,2,0,0,1-.7-1.58Z"/></clipPath><clipPath id="clip-path-25" transform="translate(-0.1 -0.54)"><path class="cls-1" d="M137.09,9.9a2.22,2.22,0,0,1,.79.6,3,3,0,0,1,.42.71,2.44,2.44,0,0,1,.15.89,2.55,2.55,0,0,1-.3,1.18,1.67,1.67,0,0,1-1,.82,1.6,1.6,0,0,1,.82.67,2.82,2.82,0,0,1,.24,1.32v.57a4.33,4.33,0,0,0,.05.79.67.67,0,0,0,.32.48v.21h-1.93a3.46,3.46,0,0,1-.12-.45,4.4,4.4,0,0,1-.07-.73v-.79a1.6,1.6,0,0,0-.28-1.07,1.41,1.41,0,0,0-1-.27h-1.71v3.31h-1.71V9.69h4A3.7,3.7,0,0,1,137.09,9.9Zm-3.62,1.25v2.28h1.89a2,2,0,0,0,.84-.14,1,1,0,0,0,.5-.95,1.07,1.07,0,0,0-.49-1,1.71,1.71,0,0,0-.81-.15Z"/></clipPath><clipPath id="clip-path-27" transform="translate(-0.1 -0.54)"><path class="cls-1" d="M144.33,12a2.43,2.43,0,0,1,1.07.92,3.06,3.06,0,0,1,.5,1.29,8.37,8.37,0,0,1,0,1.24h-4.51a1.5,1.5,0,0,0,.64,1.32,1.63,1.63,0,0,0,.9.24,1.37,1.37,0,0,0,.9-.29,1.25,1.25,0,0,0,.33-.43h1.66a2.13,2.13,0,0,1-.6,1.13,3,3,0,0,1-2.34.91,3.37,3.37,0,0,1-2.18-.76,3.07,3.07,0,0,1-.95-2.51,3.41,3.41,0,0,1,.86-2.49,3,3,0,0,1,2.21-.87,3.43,3.43,0,0,1,1.46.3m-2.42,1.41a1.65,1.65,0,0,0-.43,1h2.79a1.35,1.35,0,0,0-.43-1,1.39,1.39,0,0,0-1-.34,1.28,1.28,0,0,0-1,.36"/></clipPath><clipPath id="clip-path-29" transform="translate(-0.1 -0.54)"><path class="cls-1" d="M150.13,11.88a2,2,0,0,1,1,.91v-.9h1.58v5.93a3.35,3.35,0,0,1-.41,1.83,3,3,0,0,1-2.66,1.05,3.64,3.64,0,0,1-1.94-.47,1.72,1.72,0,0,1-.83-1.4h1.76a.74.74,0,0,0,.23.41,1.33,1.33,0,0,0,.88.22,1.19,1.19,0,0,0,1.17-.59,3,3,0,0,0,.19-1.27v-.4a2,2,0,0,1-.5.6,2,2,0,0,1-1.25.37,2.35,2.35,0,0,1-1.91-.85,3.4,3.4,0,0,1-.72-2.29,3.86,3.86,0,0,1,.69-2.34,2.28,2.28,0,0,1,1.95-.95,2.21,2.21,0,0,1,.81.14m.55,4.49a2,2,0,0,0,.4-1.38,2.12,2.12,0,0,0-.38-1.36,1.19,1.19,0,0,0-1-.46,1.16,1.16,0,0,0-1.17.81,2.74,2.74,0,0,0-.17,1.06,2.47,2.47,0,0,0,.18,1,1.18,1.18,0,0,0,1.18.79,1.23,1.23,0,0,0,1-.43"/></clipPath><clipPath id="clip-path-31" transform="translate(-0.1 -0.54)"><path class="cls-1" d="M154.5,11.14h1.64V9.63H154.5Zm0,7h1.64V11.89H154.5Z"/></clipPath><clipPath id="clip-path-33" transform="translate(-0.1 -0.54)"><path class="cls-1" d="M159.26,16.15a1.12,1.12,0,0,0,.22.62,1.54,1.54,0,0,0,1.12.32,1.75,1.75,0,0,0,.76-.14.47.47,0,0,0,.29-.43.48.48,0,0,0-.23-.42,8.72,8.72,0,0,0-1.7-.49,3.66,3.66,0,0,1-1.49-.66,1.48,1.48,0,0,1-.43-1.13,2,2,0,0,1,.68-1.49,2.72,2.72,0,0,1,1.9-.62,3.46,3.46,0,0,1,1.89.47,2,2,0,0,1,.85,1.61h-1.63a1,1,0,0,0-.17-.5,1.13,1.13,0,0,0-.92-.33,1.3,1.3,0,0,0-.75.17.48.48,0,0,0-.23.39.43.43,0,0,0,.24.41,11.12,11.12,0,0,0,1.7.45,3.07,3.07,0,0,1,1.45.69,1.6,1.6,0,0,1,.48,1.18,1.92,1.92,0,0,1-.69,1.52,3.23,3.23,0,0,1-2.12.58,3.18,3.18,0,0,1-2.17-.62,2,2,0,0,1-.7-1.58Z"/></clipPath><clipPath id="clip-path-35" transform="translate(-0.1 -0.54)"><path class="cls-1" d="M164.14,13.11V12H165V10.2h1.6V12h1v1.16h-1v3.31a.75.75,0,0,0,.1.47c.07.07.26.1.59.1h.32V18.2l-.77,0a2.06,2.06,0,0,1-1.57-.4A1.23,1.23,0,0,1,165,17V13.11Z"/></clipPath><clipPath id="clip-path-37" transform="translate(-0.1 -0.54)"><path class="cls-1" d="M172.39,11.74h.14v1.68l-.28,0h-.19a1.33,1.33,0,0,0-1.31.64,2.43,2.43,0,0,0-.19,1.11v3h-1.63V11.89h1.54V13a3.46,3.46,0,0,1,.66-.86,1.8,1.8,0,0,1,1.18-.38h.08"/></clipPath><clipPath id="clip-path-39" transform="translate(-0.1 -0.54)"><path class="cls-1" d="M174,19.34h.21a3.3,3.3,0,0,0,.45,0,.82.82,0,0,0,.37-.14.89.89,0,0,0,.26-.4,1.17,1.17,0,0,0,.11-.38l-2.28-6.53h1.8l1.36,4.61,1.28-4.61h1.72L177.16,18a8.61,8.61,0,0,1-1,2.2,1.83,1.83,0,0,1-1.44.43h-.34l-.4,0Z"/></clipPath><clipPath id="clip-path-41" transform="translate(-0.1 -0.54)"><polygon class="cls-1" points="50.05 30.46 50.05 25.16 48.09 25.16 48.09 24.45 52.81 24.45 52.81 25.16 50.84 25.16 50.84 30.46 50.05 30.46"/></clipPath><clipPath id="clip-path-43" transform="translate(-0.1 -0.54)"><path class="cls-1" d="M53.53,30.46v-6h.73v2.16a1.62,1.62,0,0,1,1.29-.6,1.67,1.67,0,0,1,.83.19,1.09,1.09,0,0,1,.51.53,2.43,2.43,0,0,1,.15,1v2.76h-.73V27.7a1.11,1.11,0,0,0-.24-.8.87.87,0,0,0-.67-.26,1.19,1.19,0,0,0-.61.17,1,1,0,0,0-.41.46,2.23,2.23,0,0,0-.12.81v2.38Z"/></clipPath><clipPath id="clip-path-45" transform="translate(-0.1 -0.54)"><path class="cls-1" d="M61.11,29.06l.76.09a1.84,1.84,0,0,1-.67,1,2,2,0,0,1-1.23.37,2,2,0,0,1-1.5-.59,2.3,2.3,0,0,1-.56-1.65,2.46,2.46,0,0,1,.56-1.71,1.92,1.92,0,0,1,1.46-.6,1.85,1.85,0,0,1,1.41.59,2.37,2.37,0,0,1,.55,1.67v.2H58.67a1.64,1.64,0,0,0,.4,1.1A1.2,1.2,0,0,0,60,30a1.13,1.13,0,0,0,.69-.21,1.4,1.4,0,0,0,.45-.68m-2.4-1.2h2.41a1.47,1.47,0,0,0-.28-.82,1.12,1.12,0,0,0-.91-.43,1.15,1.15,0,0,0-.84.35,1.31,1.31,0,0,0-.38.9"/></clipPath><clipPath id="clip-path-47" transform="translate(-0.1 -0.54)"><path class="cls-1" d="M68,28.1v-.7H70.5v2.23a4.67,4.67,0,0,1-1.2.71,3.66,3.66,0,0,1-1.27.23,3.39,3.39,0,0,1-1.59-.38,2.47,2.47,0,0,1-1.08-1.09A3.44,3.44,0,0,1,65,27.48a3.74,3.74,0,0,1,.36-1.63,2.46,2.46,0,0,1,1.05-1.13A3.22,3.22,0,0,1,68,24.35a3.13,3.13,0,0,1,1.17.21,2,2,0,0,1,.82.59,2.54,2.54,0,0,1,.45,1l-.71.2a2.2,2.2,0,0,0-.33-.72,1.37,1.37,0,0,0-.57-.42A2,2,0,0,0,68,25a2.47,2.47,0,0,0-.94.16,1.87,1.87,0,0,0-.63.44,2.1,2.1,0,0,0-.38.6,3.17,3.17,0,0,0-.23,1.2,2.87,2.87,0,0,0,.28,1.35,1.72,1.72,0,0,0,.8.8,2.38,2.38,0,0,0,1.11.26,2.69,2.69,0,0,0,1-.19,2.89,2.89,0,0,0,.74-.43V28.1Z"/></clipPath><clipPath id="clip-path-49" transform="translate(-0.1 -0.54)"><path class="cls-1" d="M71.3,28.28A2.27,2.27,0,0,1,72,26.49,2,2,0,0,1,73.32,26a1.92,1.92,0,0,1,1.46.59,2.26,2.26,0,0,1,.56,1.62,2.85,2.85,0,0,1-.25,1.32,1.82,1.82,0,0,1-.73.75,2.07,2.07,0,0,1-1,.27A1.93,1.93,0,0,1,71.86,30a2.32,2.32,0,0,1-.56-1.69m.75,0a1.85,1.85,0,0,0,.36,1.25,1.2,1.2,0,0,0,1.82,0,1.91,1.91,0,0,0,.36-1.27A1.84,1.84,0,0,0,74.23,27a1.19,1.19,0,0,0-.91-.41,1.18,1.18,0,0,0-.91.41,1.88,1.88,0,0,0-.36,1.25"/></clipPath><clipPath id="clip-path-51" transform="translate(-0.1 -0.54)"><path class="cls-1" d="M77.4,30.46l-1.64-4.35h.77l.92,2.6c.1.28.2.58.28.88.07-.23.16-.51.27-.83l1-2.65h.75l-1.63,4.35Z"/></clipPath><clipPath id="clip-path-53" transform="translate(-0.1 -0.54)"><path class="cls-1" d="M83.31,29.06l.76.09a1.88,1.88,0,0,1-.66,1,2.05,2.05,0,0,1-1.24.37,2,2,0,0,1-1.5-.59,2.3,2.3,0,0,1-.55-1.65,2.42,2.42,0,0,1,.56-1.71,1.89,1.89,0,0,1,1.45-.6,1.87,1.87,0,0,1,1.42.59,2.41,2.41,0,0,1,.54,1.67v.2H80.87a1.69,1.69,0,0,0,.4,1.1,1.24,1.24,0,0,0,.91.38,1.12,1.12,0,0,0,.68-.21,1.4,1.4,0,0,0,.45-.68m-2.4-1.2h2.41a1.47,1.47,0,0,0-.27-.82A1.19,1.19,0,0,0,81.29,27a1.35,1.35,0,0,0-.38.9"/></clipPath><clipPath id="clip-path-55" transform="translate(-0.1 -0.54)"><path class="cls-1" d="M85,30.46V26.11h.66v.66a1.75,1.75,0,0,1,.46-.61.82.82,0,0,1,.47-.15,1.44,1.44,0,0,1,.76.24l-.26.68a1,1,0,0,0-.53-.16.66.66,0,0,0-.43.15.79.79,0,0,0-.28.4,2.93,2.93,0,0,0-.12.86v2.28Z"/></clipPath><clipPath id="clip-path-57" transform="translate(-0.1 -0.54)"><path class="cls-1" d="M87.76,30.46V26.11h.66v.62A1.54,1.54,0,0,1,89.79,26a1.89,1.89,0,0,1,.72.14,1.12,1.12,0,0,1,.49.37,1.52,1.52,0,0,1,.23.55,5.05,5.05,0,0,1,0,.71v2.68h-.73V27.81a1.89,1.89,0,0,0-.09-.67.75.75,0,0,0-.3-.36,1,1,0,0,0-.51-.13,1.2,1.2,0,0,0-.81.3,1.45,1.45,0,0,0-.34,1.13v2.38Z"/></clipPath><clipPath id="clip-path-59" transform="translate(-0.1 -0.54)"><path class="cls-1" d="M92.39,30.46V26.11H93v.61a1.58,1.58,0,0,1,.54-.52,1.52,1.52,0,0,1,.77-.19,1.47,1.47,0,0,1,.79.2,1.05,1.05,0,0,1,.43.56A1.54,1.54,0,0,1,96.9,26a1.31,1.31,0,0,1,1,.36,1.53,1.53,0,0,1,.35,1.1v3h-.73V27.72a2,2,0,0,0-.07-.64.65.65,0,0,0-.26-.31.78.78,0,0,0-.44-.12A1,1,0,0,0,96,27a1.33,1.33,0,0,0-.31,1v2.53H95V27.63a1.26,1.26,0,0,0-.18-.74.67.67,0,0,0-.58-.24,1,1,0,0,0-.57.16.92.92,0,0,0-.38.48,2.66,2.66,0,0,0-.12.91v2.26Z"/></clipPath><clipPath id="clip-path-61" transform="translate(-0.1 -0.54)"><path class="cls-1" d="M102.28,29.06l.75.09a1.88,1.88,0,0,1-.66,1,2,2,0,0,1-1.24.37,2,2,0,0,1-1.5-.59,2.3,2.3,0,0,1-.55-1.65,2.42,2.42,0,0,1,.56-1.71,1.89,1.89,0,0,1,1.45-.6,1.87,1.87,0,0,1,1.42.59,2.42,2.42,0,0,1,.55,1.67c0,.05,0,.11,0,.2H99.83a1.65,1.65,0,0,0,.41,1.1,1.2,1.2,0,0,0,.9.38,1.08,1.08,0,0,0,.68-.21,1.48,1.48,0,0,0,.46-.68m-2.41-1.2h2.41A1.47,1.47,0,0,0,102,27a1.15,1.15,0,0,0-.91-.43,1.17,1.17,0,0,0-.85.35,1.4,1.4,0,0,0-.38.9"/></clipPath><clipPath id="clip-path-63" transform="translate(-0.1 -0.54)"><path class="cls-1" d="M104,30.46V26.11h.66v.62A1.54,1.54,0,0,1,106,26a1.89,1.89,0,0,1,.72.14,1.12,1.12,0,0,1,.49.37,1.52,1.52,0,0,1,.23.55,5.05,5.05,0,0,1,0,.71v2.68h-.73V27.81a1.89,1.89,0,0,0-.09-.67.75.75,0,0,0-.3-.36,1,1,0,0,0-.51-.13,1.2,1.2,0,0,0-.81.3,1.45,1.45,0,0,0-.34,1.13v2.38Z"/></clipPath><clipPath id="clip-path-65" transform="translate(-0.1 -0.54)"><path class="cls-1" d="M110.18,29.8l.1.65a3,3,0,0,1-.55.07,1.3,1.3,0,0,1-.62-.13.72.72,0,0,1-.31-.34,2.58,2.58,0,0,1-.09-.87v-2.5h-.53v-.57h.53V25l.73-.44v1.52h.74v.57h-.74v2.55a1.12,1.12,0,0,0,0,.4.28.28,0,0,0,.12.14.46.46,0,0,0,.25.06l.33,0"/></clipPath><clipPath id="clip-path-67" transform="translate(-0.1 -0.54)"><path class="cls-1" d="M112.93,28.28a2.25,2.25,0,0,1,.67-1.79A2,2,0,0,1,115,26a1.91,1.91,0,0,1,1.46.59,2.22,2.22,0,0,1,.56,1.62,2.85,2.85,0,0,1-.25,1.32,1.74,1.74,0,0,1-.72.75,2.11,2.11,0,0,1-1,.27,1.93,1.93,0,0,1-1.46-.59,2.36,2.36,0,0,1-.56-1.69m.75,0a1.85,1.85,0,0,0,.36,1.25A1.17,1.17,0,0,0,115,30a1.14,1.14,0,0,0,.91-.42,1.91,1.91,0,0,0,.36-1.27,1.84,1.84,0,0,0-.36-1.23,1.18,1.18,0,0,0-.91-.41A1.19,1.19,0,0,0,114,27a1.88,1.88,0,0,0-.36,1.25"/></clipPath><clipPath id="clip-path-69" transform="translate(-0.1 -0.54)"><path class="cls-1" d="M118,30.46V26.68h-.65v-.57H118v-.47a2.12,2.12,0,0,1,.07-.65.94.94,0,0,1,.38-.46,1.28,1.28,0,0,1,.74-.18,3.34,3.34,0,0,1,.68.07l-.11.65a2.15,2.15,0,0,0-.43,0,.62.62,0,0,0-.47.14.78.78,0,0,0-.14.54v.4h.85v.57h-.85v3.78Z"/></clipPath><clipPath id="clip-path-71" transform="translate(-0.1 -0.54)"><path class="cls-1" d="M124.05,29.8l.11.65a3.06,3.06,0,0,1-.55.07,1.3,1.3,0,0,1-.62-.13.72.72,0,0,1-.31-.34,2.58,2.58,0,0,1-.09-.87v-2.5h-.54v-.57h.54V25l.73-.44v1.52h.73v.57h-.73v2.55a1.12,1.12,0,0,0,0,.4.24.24,0,0,0,.12.14.44.44,0,0,0,.25.06l.32,0"/></clipPath><clipPath id="clip-path-73" transform="translate(-0.1 -0.54)"><path class="cls-1" d="M124.77,30.46v-6h.73v2.16a1.62,1.62,0,0,1,1.29-.6,1.74,1.74,0,0,1,.84.19,1.11,1.11,0,0,1,.5.53,2.43,2.43,0,0,1,.15,1v2.76h-.73V27.7a1.11,1.11,0,0,0-.24-.8.86.86,0,0,0-.67-.26,1.22,1.22,0,0,0-.61.17,1,1,0,0,0-.41.46,2.23,2.23,0,0,0-.12.81v2.38Z"/></clipPath><clipPath id="clip-path-75" transform="translate(-0.1 -0.54)"><path class="cls-1" d="M132.35,29.06l.76.09a1.88,1.88,0,0,1-.66,1,2.05,2.05,0,0,1-1.24.37,2,2,0,0,1-1.5-.59,2.3,2.3,0,0,1-.56-1.65,2.46,2.46,0,0,1,.56-1.71,1.92,1.92,0,0,1,1.46-.6,1.83,1.83,0,0,1,1.41.59,2.37,2.37,0,0,1,.55,1.67v.2h-3.22a1.69,1.69,0,0,0,.4,1.1,1.2,1.2,0,0,0,.9.38,1.13,1.13,0,0,0,.69-.21,1.4,1.4,0,0,0,.45-.68m-2.4-1.2h2.41a1.4,1.4,0,0,0-.28-.82,1.12,1.12,0,0,0-.9-.43,1.15,1.15,0,0,0-.85.35,1.31,1.31,0,0,0-.38.9"/></clipPath><clipPath id="clip-path-77" transform="translate(-0.1 -0.54)"><polygon class="cls-1" points="136.46 30.46 136.46 24.45 137.25 24.45 137.25 26.92 140.34 26.92 140.34 24.45 141.13 24.45 141.13 30.46 140.34 30.46 140.34 27.63 137.25 27.63 137.25 30.46 136.46 30.46"/></clipPath><clipPath id="clip-path-79" transform="translate(-0.1 -0.54)"><path class="cls-1" d="M142.08,28.28a2.27,2.27,0,0,1,.66-1.79A2,2,0,0,1,144.1,26a1.92,1.92,0,0,1,1.46.59,2.26,2.26,0,0,1,.56,1.62,2.85,2.85,0,0,1-.25,1.32,1.82,1.82,0,0,1-.73.75,2.07,2.07,0,0,1-1,.27,1.93,1.93,0,0,1-1.46-.59,2.32,2.32,0,0,1-.56-1.69m.75,0a1.85,1.85,0,0,0,.36,1.25,1.14,1.14,0,0,0,.91.42,1.16,1.16,0,0,0,.91-.42,1.91,1.91,0,0,0,.36-1.27A1.79,1.79,0,0,0,145,27a1.2,1.2,0,0,0-1.81,0,1.88,1.88,0,0,0-.36,1.25"/></clipPath><clipPath id="clip-path-81" transform="translate(-0.1 -0.54)"><path class="cls-1" d="M147,30.46V26.11h.66v.62A1.53,1.53,0,0,1,149,26a1.89,1.89,0,0,1,.72.14,1.18,1.18,0,0,1,.49.37,1.35,1.35,0,0,1,.22.55,3.85,3.85,0,0,1,0,.71v2.68h-.73V27.81a2.21,2.21,0,0,0-.08-.67.75.75,0,0,0-.3-.36,1,1,0,0,0-.52-.13,1.15,1.15,0,0,0-.8.3,1.45,1.45,0,0,0-.34,1.13v2.38Z"/></clipPath><clipPath id="clip-path-83" transform="translate(-0.1 -0.54)"><path class="cls-1" d="M151.47,30.82l.71.11a.7.7,0,0,0,.25.48,1.18,1.18,0,0,0,.74.2,1.28,1.28,0,0,0,.79-.2,1,1,0,0,0,.37-.57,4.66,4.66,0,0,0,.06-.95,1.51,1.51,0,0,1-1.2.57,1.64,1.64,0,0,1-1.38-.65,2.53,2.53,0,0,1-.48-1.55,2.88,2.88,0,0,1,.22-1.15,1.76,1.76,0,0,1,.65-.81,1.66,1.66,0,0,1,1-.29,1.55,1.55,0,0,1,1.25.62v-.52h.68v3.76a3.5,3.5,0,0,1-.21,1.44,1.45,1.45,0,0,1-.65.67,2.25,2.25,0,0,1-1.09.24,2,2,0,0,1-1.25-.35,1.17,1.17,0,0,1-.46-1.05m.61-2.62a1.9,1.9,0,0,0,.34,1.26,1.05,1.05,0,0,0,.84.39,1.09,1.09,0,0,0,.85-.39,1.88,1.88,0,0,0,.34-1.23A1.86,1.86,0,0,0,154.1,27a1.09,1.09,0,0,0-.85-.4,1,1,0,0,0-.83.4,1.77,1.77,0,0,0-.34,1.18"/></clipPath><clipPath id="clip-path-85" transform="translate(-0.1 -0.54)"><polygon class="cls-1" points="158.61 30.46 158.61 24.45 159.4 24.45 159.4 27.43 162.35 24.45 163.42 24.45 160.92 26.89 163.53 30.46 162.49 30.46 160.37 27.42 159.4 28.38 159.4 30.46 158.61 30.46"/></clipPath><clipPath id="clip-path-87" transform="translate(-0.1 -0.54)"><path class="cls-1" d="M163.83,28.28a2.27,2.27,0,0,1,.66-1.79,2,2,0,0,1,1.36-.48,1.89,1.89,0,0,1,1.45.59,2.22,2.22,0,0,1,.57,1.62,2.85,2.85,0,0,1-.25,1.32,1.82,1.82,0,0,1-.73.75,2.07,2.07,0,0,1-1,.27,2,2,0,0,1-1.47-.59,2.36,2.36,0,0,1-.55-1.69m.75,0a1.85,1.85,0,0,0,.36,1.25,1.14,1.14,0,0,0,.91.42,1.16,1.16,0,0,0,.91-.42,1.91,1.91,0,0,0,.36-1.27,1.79,1.79,0,0,0-.37-1.23,1.2,1.2,0,0,0-1.81,0,1.88,1.88,0,0,0-.36,1.25"/></clipPath><clipPath id="clip-path-89" transform="translate(-0.1 -0.54)"><path class="cls-1" d="M168.73,30.46V26.11h.66v.62a1.53,1.53,0,0,1,1.37-.72,1.89,1.89,0,0,1,.72.14,1.18,1.18,0,0,1,.49.37,1.51,1.51,0,0,1,.22.55,3.85,3.85,0,0,1,0,.71v2.68h-.73V27.81a2.21,2.21,0,0,0-.08-.67.72.72,0,0,0-.31-.36.92.92,0,0,0-.51-.13,1.15,1.15,0,0,0-.8.3,1.45,1.45,0,0,0-.34,1.13v2.38Z"/></clipPath><clipPath id="clip-path-91" transform="translate(-0.1 -0.54)"><path class="cls-1" d="M173.22,30.82l.71.11a.7.7,0,0,0,.25.48,1.18,1.18,0,0,0,.74.2,1.3,1.3,0,0,0,.79-.2,1,1,0,0,0,.37-.57,4.66,4.66,0,0,0,.06-.95,1.51,1.51,0,0,1-1.2.57,1.64,1.64,0,0,1-1.38-.65,2.53,2.53,0,0,1-.48-1.55,2.88,2.88,0,0,1,.22-1.15,1.76,1.76,0,0,1,.65-.81,1.65,1.65,0,0,1,1-.29,1.55,1.55,0,0,1,1.26.62v-.52h.68v3.76a3.5,3.5,0,0,1-.21,1.44A1.45,1.45,0,0,1,176,32a2.25,2.25,0,0,1-1.09.24,2,2,0,0,1-1.25-.35,1.17,1.17,0,0,1-.46-1.05m.61-2.62a2,2,0,0,0,.33,1.26,1.09,1.09,0,0,0,.85.39,1.05,1.05,0,0,0,.84-.39,1.82,1.82,0,0,0,.35-1.23,1.8,1.8,0,0,0-.36-1.21,1.06,1.06,0,0,0-.84-.4,1,1,0,0,0-.83.4,1.77,1.77,0,0,0-.34,1.18"/></clipPath><clipPath id="clip-path-93" transform="translate(-0.1 -0.54)"><path class="cls-1" d="M48.12,38.53l.75-.07a1.58,1.58,0,0,0,.24.74,1.32,1.32,0,0,0,.6.47,2.25,2.25,0,0,0,.92.18,2.14,2.14,0,0,0,.79-.14,1.14,1.14,0,0,0,.52-.37.88.88,0,0,0,.16-.51.79.79,0,0,0-.16-.5,1.29,1.29,0,0,0-.53-.35,11,11,0,0,0-1.07-.29,5.8,5.8,0,0,1-1.15-.38,1.65,1.65,0,0,1-.63-.56,1.37,1.37,0,0,1-.21-.75,1.49,1.49,0,0,1,.26-.85,1.65,1.65,0,0,1,.74-.6,3.22,3.22,0,0,1,2.26,0,1.72,1.72,0,0,1,.78.64,1.9,1.9,0,0,1,.3.94l-.76.06a1.24,1.24,0,0,0-.41-.86,1.63,1.63,0,0,0-1-.29,1.67,1.67,0,0,0-1,.26.8.8,0,0,0-.33.64.69.69,0,0,0,.23.53,3,3,0,0,0,1.19.43,8,8,0,0,1,1.32.39,1.79,1.79,0,0,1,.77.61,1.53,1.53,0,0,1,.24.85,1.69,1.69,0,0,1-.27.91,1.82,1.82,0,0,1-.78.66,2.81,2.81,0,0,1-1.15.23,3.33,3.33,0,0,1-1.35-.24,1.82,1.82,0,0,1-.86-.71,2,2,0,0,1-.33-1.08"/></clipPath><clipPath id="clip-path-95" transform="translate(-0.1 -0.54)"><path class="cls-1" d="M53.85,42.13v-6h.66v.56a1.81,1.81,0,0,1,.54-.5,1.42,1.42,0,0,1,.72-.16,1.63,1.63,0,0,1,1,.29,1.76,1.76,0,0,1,.64.8,3.06,3.06,0,0,1,.21,1.15,2.86,2.86,0,0,1-.23,1.2,1.82,1.82,0,0,1-1.65,1.11,1.28,1.28,0,0,1-.65-.16,1.33,1.33,0,0,1-.48-.39v2.12Zm.66-3.82a1.87,1.87,0,0,0,.34,1.24,1,1,0,0,0,.81.4,1.05,1.05,0,0,0,.84-.42,2,2,0,0,0,.35-1.28A2,2,0,0,0,56.51,37a1,1,0,0,0-.81-.41,1,1,0,0,0-.83.44A2,2,0,0,0,54.51,38.31Z"/></clipPath><clipPath id="clip-path-97" transform="translate(-0.1 -0.54)"><path class="cls-1" d="M61.43,39.06l.76.09a1.84,1.84,0,0,1-.67,1,2,2,0,0,1-1.23.37,2,2,0,0,1-1.5-.59,2.3,2.3,0,0,1-.56-1.65,2.46,2.46,0,0,1,.56-1.71,1.92,1.92,0,0,1,1.46-.6,1.83,1.83,0,0,1,1.41.59,2.37,2.37,0,0,1,.55,1.67v.2H59a1.69,1.69,0,0,0,.4,1.1,1.2,1.2,0,0,0,.9.38,1.13,1.13,0,0,0,.69-.21,1.4,1.4,0,0,0,.45-.68M59,37.86h2.41a1.47,1.47,0,0,0-.28-.82,1.12,1.12,0,0,0-.9-.43,1.15,1.15,0,0,0-.85.35,1.31,1.31,0,0,0-.38.9"/></clipPath><clipPath id="clip-path-99" transform="translate(-0.1 -0.54)"><path class="cls-1" d="M65.92,38.86l.72.1a1.89,1.89,0,0,1-.6,1.17,1.73,1.73,0,0,1-1.2.43A1.84,1.84,0,0,1,63.42,40a2.36,2.36,0,0,1-.54-1.67,3.1,3.1,0,0,1,.23-1.23,1.64,1.64,0,0,1,.71-.8,2.13,2.13,0,0,1,1-.26,1.78,1.78,0,0,1,1.15.36,1.62,1.62,0,0,1,.57,1l-.71.11a1.17,1.17,0,0,0-.36-.66.91.91,0,0,0-.62-.22A1.14,1.14,0,0,0,64,37a2.51,2.51,0,0,0,0,2.54,1.06,1.06,0,0,0,.87.4,1,1,0,0,0,.72-.27,1.31,1.31,0,0,0,.36-.82"/></clipPath><clipPath id="clip-path-101" transform="translate(-0.1 -0.54)"><path class="cls-1" d="M67.27,35.3H68v-.85h-.73Zm0,5.16H68V36.11h-.73Z"/></clipPath><clipPath id="clip-path-103" transform="translate(-0.1 -0.54)"><path class="cls-1" d="M71.93,39.92a2.63,2.63,0,0,1-.78.49,2.16,2.16,0,0,1-.81.15,1.57,1.57,0,0,1-1.09-.35,1.17,1.17,0,0,1-.38-.9,1.24,1.24,0,0,1,.14-.58,1.22,1.22,0,0,1,.38-.43,2.14,2.14,0,0,1,.53-.24,5.63,5.63,0,0,1,.65-.11,7.27,7.27,0,0,0,1.3-.25v-.2a.8.8,0,0,0-.2-.63,1.22,1.22,0,0,0-.84-.25,1.31,1.31,0,0,0-.76.18,1.15,1.15,0,0,0-.36.65l-.72-.1a2,2,0,0,1,.32-.75,1.42,1.42,0,0,1,.65-.44,2.93,2.93,0,0,1,1-.15,2.52,2.52,0,0,1,.9.13,1.25,1.25,0,0,1,.51.33,1.21,1.21,0,0,1,.22.5,3.54,3.54,0,0,1,0,.68v1a10.65,10.65,0,0,0,0,1.3,1.69,1.69,0,0,0,.18.52h-.76A1.43,1.43,0,0,1,71.93,39.92Zm-.06-1.65a4.84,4.84,0,0,1-1.19.28,3.37,3.37,0,0,0-.64.15.7.7,0,0,0-.29.24.62.62,0,0,0-.1.35.61.61,0,0,0,.22.49,1,1,0,0,0,.65.2,1.44,1.44,0,0,0,.75-.19,1.08,1.08,0,0,0,.48-.51,1.72,1.72,0,0,0,.12-.73Z"/></clipPath><clipPath id="clip-path-105" transform="translate(-0.1 -0.54)"><rect class="cls-3" x="73.73" y="34.45" width="0.73" height="6.01"/></clipPath><clipPath id="clip-path-107" transform="translate(-0.1 -0.54)"><path class="cls-1" d="M76.89,40.46l2.28-6H80l2.44,6h-.9l-.69-1.82H78.38l-.66,1.82ZM78.6,38h2L80,36.33c-.19-.51-.33-.92-.42-1.25a7.86,7.86,0,0,1-.32,1.15Z"/></clipPath><clipPath id="clip-path-109" transform="translate(-0.1 -0.54)"><path class="cls-1" d="M85.8,40.46v-.55a1.36,1.36,0,0,1-1.21.65,1.71,1.71,0,0,1-1-.29,1.89,1.89,0,0,1-.67-.8,2.76,2.76,0,0,1-.24-1.18A3.23,3.23,0,0,1,83,37.1a1.7,1.7,0,0,1,.65-.81,1.67,1.67,0,0,1,1-.28,1.41,1.41,0,0,1,.69.16,1.42,1.42,0,0,1,.5.44V34.45h.73v6Zm-2.31-2.17a1.94,1.94,0,0,0,.34,1.25,1.08,1.08,0,0,0,.83.41,1,1,0,0,0,.81-.4,1.77,1.77,0,0,0,.34-1.2A2,2,0,0,0,85.47,37a1.05,1.05,0,0,0-.84-.42,1,1,0,0,0-.82.4A2,2,0,0,0,83.49,38.29Z"/></clipPath><clipPath id="clip-path-111" transform="translate(-0.1 -0.54)"><path class="cls-1" d="M87.63,40.46V36.11h.65v.61a1.58,1.58,0,0,1,.54-.52,1.52,1.52,0,0,1,.77-.19,1.47,1.47,0,0,1,.79.2,1.11,1.11,0,0,1,.43.56A1.53,1.53,0,0,1,92.14,36a1.31,1.31,0,0,1,1,.36,1.53,1.53,0,0,1,.34,1.1v3h-.72V37.72a2.3,2.3,0,0,0-.07-.64.65.65,0,0,0-.26-.31.81.81,0,0,0-.44-.12,1,1,0,0,0-.76.3,1.37,1.37,0,0,0-.3,1v2.53h-.73V37.63a1.26,1.26,0,0,0-.18-.74.67.67,0,0,0-.58-.24,1,1,0,0,0-.57.16.87.87,0,0,0-.38.48,2.66,2.66,0,0,0-.12.91v2.26Z"/></clipPath><clipPath id="clip-path-113" transform="translate(-0.1 -0.54)"><path class="cls-1" d="M94.56,35.3h.73v-.85h-.73Zm0,5.16h.73V36.11h-.73Z"/></clipPath><clipPath id="clip-path-115" transform="translate(-0.1 -0.54)"><path class="cls-1" d="M96.41,40.46V36.11h.66v.62A1.53,1.53,0,0,1,98.44,36a1.89,1.89,0,0,1,.72.14,1.12,1.12,0,0,1,.49.37,1.35,1.35,0,0,1,.22.55,3.61,3.61,0,0,1,0,.71v2.68h-.74V37.81a1.93,1.93,0,0,0-.08-.67.75.75,0,0,0-.3-.36,1,1,0,0,0-.51-.13,1.18,1.18,0,0,0-.81.3,1.45,1.45,0,0,0-.34,1.13v2.38Z"/></clipPath><clipPath id="clip-path-117" transform="translate(-0.1 -0.54)"><path class="cls-1" d="M100.74,39.16l.73-.11a1,1,0,0,0,.34.67,1.19,1.19,0,0,0,.78.23,1.11,1.11,0,0,0,.74-.21.59.59,0,0,0,.25-.48.47.47,0,0,0-.22-.4,4,4,0,0,0-.75-.25,6.42,6.42,0,0,1-1.11-.35,1.06,1.06,0,0,1-.47-.41,1.09,1.09,0,0,1-.16-.59,1.13,1.13,0,0,1,.13-.54,1.29,1.29,0,0,1,.36-.41,1.65,1.65,0,0,1,.46-.21,2.18,2.18,0,0,1,.63-.09,2.5,2.5,0,0,1,.9.15,1.14,1.14,0,0,1,.56.4,1.47,1.47,0,0,1,.26.67l-.72.1a.81.81,0,0,0-.28-.53,1.08,1.08,0,0,0-.66-.18,1.2,1.2,0,0,0-.72.16.53.53,0,0,0-.22.4.38.38,0,0,0,.09.25.67.67,0,0,0,.28.2l.65.19a8.44,8.44,0,0,1,1.08.34,1,1,0,0,1,.48.39,1.07,1.07,0,0,1,.18.63,1.22,1.22,0,0,1-.21.69,1.43,1.43,0,0,1-.62.51,2.21,2.21,0,0,1-.91.18,2,2,0,0,1-1.28-.36,1.64,1.64,0,0,1-.57-1"/></clipPath><clipPath id="clip-path-119" transform="translate(-0.1 -0.54)"><path class="cls-1" d="M106.8,39.8l.1.65a3.06,3.06,0,0,1-.55.07,1.3,1.3,0,0,1-.62-.13.72.72,0,0,1-.31-.34,2.58,2.58,0,0,1-.09-.87v-2.5h-.53v-.57h.53V35l.73-.44v1.52h.74v.57h-.74v2.55a1.12,1.12,0,0,0,0,.4.28.28,0,0,0,.12.14.46.46,0,0,0,.25.06l.33,0"/></clipPath><clipPath id="clip-path-121" transform="translate(-0.1 -0.54)"><path class="cls-1" d="M107.5,40.46V36.11h.66v.66a1.64,1.64,0,0,1,.47-.61.78.78,0,0,1,.47-.15,1.43,1.43,0,0,1,.75.24l-.26.68a1,1,0,0,0-.53-.16.68.68,0,0,0-.43.15.72.72,0,0,0-.27.4,2.63,2.63,0,0,0-.13.86v2.28Z"/></clipPath><clipPath id="clip-path-123" transform="translate(-0.1 -0.54)"><path class="cls-1" d="M113.1,39.92a2.63,2.63,0,0,1-.78.49,2.16,2.16,0,0,1-.81.15,1.55,1.55,0,0,1-1.09-.35,1.17,1.17,0,0,1-.39-.9,1.26,1.26,0,0,1,.53-1,2.07,2.07,0,0,1,.52-.24,6.05,6.05,0,0,1,.65-.11A7.42,7.42,0,0,0,113,37.7v-.2a.8.8,0,0,0-.21-.63,1.18,1.18,0,0,0-.83-.25,1.29,1.29,0,0,0-.76.18,1.09,1.09,0,0,0-.36.65l-.72-.1a1.72,1.72,0,0,1,.32-.75,1.42,1.42,0,0,1,.65-.44,2.93,2.93,0,0,1,1-.15,2.5,2.5,0,0,1,.89.13,1.19,1.19,0,0,1,.51.33,1.1,1.1,0,0,1,.23.5,4.65,4.65,0,0,1,0,.68v1a11.53,11.53,0,0,0,0,1.3,1.72,1.72,0,0,0,.19.52h-.77A1.64,1.64,0,0,1,113.1,39.92ZM113,38.27a5.07,5.07,0,0,1-1.2.28,3.59,3.59,0,0,0-.64.15.67.67,0,0,0-.28.24.63.63,0,0,0-.11.35.62.62,0,0,0,.23.49.93.93,0,0,0,.64.2,1.45,1.45,0,0,0,.76-.19,1.08,1.08,0,0,0,.48-.51,1.72,1.72,0,0,0,.12-.73Z"/></clipPath><clipPath id="clip-path-125" transform="translate(-0.1 -0.54)"><path class="cls-1" d="M116.51,39.8l.1.65a3,3,0,0,1-.55.07,1.33,1.33,0,0,1-.62-.13.78.78,0,0,1-.31-.34,2.58,2.58,0,0,1-.09-.87v-2.5h-.53v-.57H115V35l.73-.44v1.52h.74v.57h-.74v2.55a1.44,1.44,0,0,0,0,.4.29.29,0,0,0,.13.14.42.42,0,0,0,.25.06l.32,0"/></clipPath><clipPath id="clip-path-127" transform="translate(-0.1 -0.54)"><path class="cls-1" d="M117.23,35.3H118v-.85h-.73Zm0,5.16H118V36.11h-.73Z"/></clipPath><clipPath id="clip-path-129" transform="translate(-0.1 -0.54)"><path class="cls-1" d="M120.27,40.46l-1.64-4.35h.77l.93,2.6c.1.28.19.58.27.88.07-.23.16-.51.28-.83l1-2.65h.75L121,40.46Z"/></clipPath><clipPath id="clip-path-131" transform="translate(-0.1 -0.54)"><path class="cls-1" d="M126.19,39.06l.75.09a1.88,1.88,0,0,1-.66,1,2.23,2.23,0,0,1-2.74-.22,2.3,2.3,0,0,1-.55-1.65,2.46,2.46,0,0,1,.56-1.71A1.9,1.9,0,0,1,125,36a1.86,1.86,0,0,1,1.41.59,2.42,2.42,0,0,1,.55,1.67,1.64,1.64,0,0,1,0,.2h-3.21a1.64,1.64,0,0,0,.4,1.1,1.2,1.2,0,0,0,.9.38,1.13,1.13,0,0,0,.69-.21,1.4,1.4,0,0,0,.45-.68m-2.4-1.2h2.41a1.55,1.55,0,0,0-.28-.82,1.18,1.18,0,0,0-1.75-.08,1.31,1.31,0,0,0-.38.9"/></clipPath><clipPath id="clip-path-133" transform="translate(-0.1 -0.54)"><path class="cls-1" d="M130.28,40.46v-6h2.64a3.67,3.67,0,0,1,1.21.16,1.31,1.31,0,0,1,.66.57,1.71,1.71,0,0,1,.25.91,1.49,1.49,0,0,1-.41,1.08,2.06,2.06,0,0,1-1.27.56,2.4,2.4,0,0,1,.48.29,4.11,4.11,0,0,1,.65.8l1,1.64h-1l-.79-1.25c-.23-.36-.42-.64-.57-.83a1.86,1.86,0,0,0-.4-.4,1.14,1.14,0,0,0-.36-.16,2.22,2.22,0,0,0-.44,0h-.91v2.67Zm.79-3.36h1.69a2.47,2.47,0,0,0,.85-.11.93.93,0,0,0,.46-.36,1,1,0,0,0,.16-.54.88.88,0,0,0-.31-.7,1.42,1.42,0,0,0-1-.27h-1.88Z"/></clipPath><clipPath id="clip-path-135" transform="translate(-0.1 -0.54)"><path class="cls-1" d="M139.14,39.06l.75.09a1.83,1.83,0,0,1-.66,1,2,2,0,0,1-1.23.37,2,2,0,0,1-1.5-.59,2.3,2.3,0,0,1-.56-1.65,2.46,2.46,0,0,1,.56-1.71A1.92,1.92,0,0,1,138,36a1.86,1.86,0,0,1,1.41.59,2.37,2.37,0,0,1,.55,1.67v.2H136.7a1.64,1.64,0,0,0,.4,1.1,1.2,1.2,0,0,0,.9.38,1.13,1.13,0,0,0,.69-.21,1.4,1.4,0,0,0,.45-.68m-2.4-1.2h2.41a1.55,1.55,0,0,0-.28-.82,1.12,1.12,0,0,0-.91-.43,1.15,1.15,0,0,0-.84.35,1.31,1.31,0,0,0-.38.9"/></clipPath><clipPath id="clip-path-137" transform="translate(-0.1 -0.54)"><path class="cls-1" d="M140.68,40.82l.71.11a.66.66,0,0,0,.25.48,1.18,1.18,0,0,0,.74.2,1.3,1.3,0,0,0,.79-.2,1,1,0,0,0,.37-.57,4.2,4.2,0,0,0,.05-1,1.5,1.5,0,0,1-1.19.57,1.63,1.63,0,0,1-1.38-.65,2.54,2.54,0,0,1-.49-1.55,2.88,2.88,0,0,1,.23-1.15,1.8,1.8,0,0,1,.64-.81,1.7,1.7,0,0,1,1-.29,1.55,1.55,0,0,1,1.26.62v-.52h.68v3.76a3.5,3.5,0,0,1-.21,1.44,1.5,1.5,0,0,1-.65.67,2.28,2.28,0,0,1-1.09.24,2,2,0,0,1-1.25-.35,1.17,1.17,0,0,1-.46-1m.6-2.62a1.91,1.91,0,0,0,.34,1.25,1.06,1.06,0,0,0,.85.4,1.08,1.08,0,0,0,.84-.39,1.83,1.83,0,0,0,.34-1.23A1.8,1.8,0,0,0,143.3,37a1.06,1.06,0,0,0-.84-.4,1,1,0,0,0-.83.4,1.77,1.77,0,0,0-.35,1.18"/></clipPath><clipPath id="clip-path-139" transform="translate(-0.1 -0.54)"><path class="cls-1" d="M145.45,35.3h.73v-.85h-.73Zm0,5.16h.73V36.11h-.73Z"/></clipPath><clipPath id="clip-path-141" transform="translate(-0.1 -0.54)"><path class="cls-1" d="M147,38.28a2.25,2.25,0,0,1,.67-1.79A2,2,0,0,1,149,36a1.91,1.91,0,0,1,1.46.59,2.26,2.26,0,0,1,.56,1.62,2.85,2.85,0,0,1-.25,1.32,1.76,1.76,0,0,1-.73.75,2,2,0,0,1-1,.27,1.93,1.93,0,0,1-1.46-.59,2.32,2.32,0,0,1-.56-1.69m.75,0a1.85,1.85,0,0,0,.36,1.25A1.16,1.16,0,0,0,149,40a1.14,1.14,0,0,0,.91-.42,1.91,1.91,0,0,0,.36-1.27A1.84,1.84,0,0,0,150,37a1.19,1.19,0,0,0-.91-.41,1.18,1.18,0,0,0-.91.41,1.88,1.88,0,0,0-.36,1.25"/></clipPath><clipPath id="clip-path-143" transform="translate(-0.1 -0.54)"><path class="cls-1" d="M151.92,40.46V36.11h.66v.62A1.53,1.53,0,0,1,154,36a1.89,1.89,0,0,1,.72.14,1.12,1.12,0,0,1,.49.37,1.52,1.52,0,0,1,.23.55,5.05,5.05,0,0,1,0,.71v2.68h-.73V37.81a1.89,1.89,0,0,0-.09-.67.75.75,0,0,0-.3-.36,1,1,0,0,0-.51-.13,1.2,1.2,0,0,0-.81.3,1.45,1.45,0,0,0-.34,1.13v2.38Z"/></clipPath></defs><title>logo_tar_white.8fb969ba</title><polygon class="cls-4" points="54.4 9.14 54.4 10.64 51.89 10.64 51.89 17.6 50.13 17.6 50.13 10.64 47.61 10.64 47.61 9.14 54.4 9.14"/><g class="cls-5"><g class="cls-6"><rect class="cls-3" x="42.61" y="4.14" width="16.79" height="18.46"/></g></g><path class="cls-4" d="M58.5,11.74h.13v1.68l-.27,0h-.19a1.36,1.36,0,0,0-1.32.64,2.6,2.6,0,0,0-.18,1.11v3H55V11.89h1.55V13a3.46,3.46,0,0,1,.66-.86,1.78,1.78,0,0,1,1.18-.38h.08" transform="translate(-0.1 -0.54)"/><g class="cls-7"><g class="cls-6"><rect class="cls-3" x="49.93" y="6.2" width="13.6" height="16.4"/></g></g><path class="cls-4" d="M62.33,14.34A3.13,3.13,0,0,0,63,14.2a.5.5,0,0,0,.35-.47.55.55,0,0,0-.27-.53,1.65,1.65,0,0,0-.79-.15,1,1,0,0,0-.82.29,1.14,1.14,0,0,0-.23.57H59.65a2.44,2.44,0,0,1,.46-1.34,2.66,2.66,0,0,1,2.22-.83,4,4,0,0,1,1.82.41,1.57,1.57,0,0,1,.79,1.53v2.87c0,.2,0,.44,0,.73a.79.79,0,0,0,.1.43.52.52,0,0,0,.24.19v.24H63.52a1.69,1.69,0,0,1-.1-.35c0-.11,0-.24-.05-.38a3.33,3.33,0,0,1-.77.62,2.27,2.27,0,0,1-1.19.31,2,2,0,0,1-1.4-.49,1.72,1.72,0,0,1-.56-1.37,1.78,1.78,0,0,1,.89-1.67,4,4,0,0,1,1.44-.4Zm1,.76a1.3,1.3,0,0,1-.31.16,2.33,2.33,0,0,1-.44.11l-.37.07a2.64,2.64,0,0,0-.74.22.74.74,0,0,0-.38.7.7.7,0,0,0,.23.6.87.87,0,0,0,.57.19,1.68,1.68,0,0,0,1-.31,1.31,1.31,0,0,0,.46-1.13Z" transform="translate(-0.1 -0.54)"/><g class="cls-8"><g class="cls-6"><rect class="cls-3" x="54.35" y="6.2" width="15.83" height="16.6"/></g></g><polygon class="cls-4" points="70.37 11.35 72.11 11.35 69.87 17.6 68.16 17.6 65.94 11.35 67.76 11.35 69.05 15.96 70.37 11.35"/><g class="cls-9"><g class="cls-6"><rect class="cls-3" x="60.94" y="6.34" width="16.17" height="16.25"/></g></g><path class="cls-4" d="M77.46,12a2.49,2.49,0,0,1,1.07.92,3.06,3.06,0,0,1,.5,1.29,8.37,8.37,0,0,1,0,1.24H74.56a1.5,1.5,0,0,0,.65,1.32,1.62,1.62,0,0,0,.89.24,1.37,1.37,0,0,0,.9-.29,1.27,1.27,0,0,0,.34-.43H79a2,2,0,0,1-.6,1.13,3,3,0,0,1-2.33.91,3.35,3.35,0,0,1-2.18-.76,3,3,0,0,1-.95-2.51,3.4,3.4,0,0,1,.85-2.49A3,3,0,0,1,76,11.72a3.43,3.43,0,0,1,1.46.3M75,13.43a1.71,1.71,0,0,0-.43,1h2.8a1.36,1.36,0,0,0-.44-1,1.38,1.38,0,0,0-1-.34,1.29,1.29,0,0,0-1,.36" transform="translate(-0.1 -0.54)"/><g class="cls-10"><g class="cls-6"><rect class="cls-3" x="67.83" y="6.18" width="16.15" height="16.63"/></g></g><rect class="cls-3" x="80.12" y="9.14" width="1.62" height="8.46"/><g class="cls-11"><g class="cls-6"><rect class="cls-3" x="75.12" y="4.14" width="11.62" height="18.46"/></g></g><path class="cls-4" d="M89.35,9.69h2l3,8.45H92.4l-.55-1.74H88.76l-.57,1.74H86.36ZM89.23,15h2.15l-1.06-3.33Z" transform="translate(-0.1 -0.54)"/><g class="cls-12"><g class="cls-6"><rect class="cls-3" x="81.26" y="4.14" width="17.94" height="18.46"/></g></g><path class="cls-4" d="M98.59,11.88a2,2,0,0,1,1,.91v-.9h1.58v5.93a3.36,3.36,0,0,1-.4,1.83,3,3,0,0,1-2.67,1.05,3.64,3.64,0,0,1-1.94-.47,1.75,1.75,0,0,1-.83-1.4h1.77a.73.73,0,0,0,.22.41,1.35,1.35,0,0,0,.88.22,1.18,1.18,0,0,0,1.17-.59,3,3,0,0,0,.2-1.27v-.4a2.41,2.41,0,0,1-.5.6,2,2,0,0,1-1.26.37,2.36,2.36,0,0,1-1.91-.85A3.39,3.39,0,0,1,95.15,15a3.86,3.86,0,0,1,.68-2.34,2.28,2.28,0,0,1,2-.95,2.21,2.21,0,0,1,.81.14m.56,4.49A2,2,0,0,0,99.54,15a2.18,2.18,0,0,0-.37-1.36,1.21,1.21,0,0,0-1-.46A1.17,1.17,0,0,0,97,14,2.94,2.94,0,0,0,96.83,15,2.47,2.47,0,0,0,97,16a1.18,1.18,0,0,0,1.18.79,1.23,1.23,0,0,0,1-.43" transform="translate(-0.1 -0.54)"/><g class="cls-13"><g class="cls-6"><rect class="cls-3" x="90.05" y="6.2" width="15.99" height="18.96"/></g></g><path class="cls-4" d="M107,12a2.49,2.49,0,0,1,1.07.92,3,3,0,0,1,.49,1.29,8.11,8.11,0,0,1,.06,1.24h-4.52a1.48,1.48,0,0,0,.65,1.32,1.58,1.58,0,0,0,.89.24,1.37,1.37,0,0,0,.9-.29,1.27,1.27,0,0,0,.34-.43h1.65a2,2,0,0,1-.6,1.13,3,3,0,0,1-2.33.91,3.37,3.37,0,0,1-2.19-.76,3.06,3.06,0,0,1-.94-2.51,3.4,3.4,0,0,1,.85-2.49,3,3,0,0,1,2.22-.87A3.47,3.47,0,0,1,107,12m-2.43,1.41a1.71,1.71,0,0,0-.43,1h2.79a1.35,1.35,0,0,0-.43-1,1.39,1.39,0,0,0-1-.34,1.28,1.28,0,0,0-1,.36" transform="translate(-0.1 -0.54)"/><g class="cls-14"><g class="cls-6"><rect class="cls-3" x="97.35" y="6.18" width="16.15" height="16.63"/></g></g><path class="cls-4" d="M114.71,12.25a2.1,2.1,0,0,1,.61,1.68v4.21h-1.67v-3.8a1.73,1.73,0,0,0-.13-.76.89.89,0,0,0-.9-.48,1.12,1.12,0,0,0-1.12.71,2.32,2.32,0,0,0-.16.95v3.38h-1.62V11.9h1.57v.91a2.68,2.68,0,0,1,.59-.69,2,2,0,0,1,1.26-.38,2.37,2.37,0,0,1,1.57.51" transform="translate(-0.1 -0.54)"/><g class="cls-15"><g class="cls-6"><rect class="cls-3" x="104.62" y="6.2" width="15.6" height="16.4"/></g></g><path class="cls-4" d="M116.48,13.11V12h.86V10.2H119V12h1v1.16h-1v3.31a.77.77,0,0,0,.09.47c.07.07.27.1.6.1H120V18.2l-.76,0a2,2,0,0,1-1.57-.4,1.18,1.18,0,0,1-.28-.87V13.11Z" transform="translate(-0.1 -0.54)"/><g class="cls-16"><g class="cls-6"><rect class="cls-3" x="111.38" y="4.66" width="13.48" height="18.03"/></g></g><path class="cls-4" d="M122.54,16.15a1.12,1.12,0,0,0,.23.62,1.53,1.53,0,0,0,1.12.32,1.78,1.78,0,0,0,.76-.14.46.46,0,0,0,.28-.43.47.47,0,0,0-.22-.42,9,9,0,0,0-1.7-.49,3.59,3.59,0,0,1-1.49-.66,1.44,1.44,0,0,1-.43-1.13,2,2,0,0,1,.67-1.49,2.73,2.73,0,0,1,1.9-.62,3.49,3.49,0,0,1,1.9.47,2,2,0,0,1,.84,1.61h-1.62a.93.93,0,0,0-.18-.5,1.11,1.11,0,0,0-.91-.33,1.33,1.33,0,0,0-.76.17.47.47,0,0,0-.22.39.43.43,0,0,0,.24.41,10.83,10.83,0,0,0,1.69.45,3,3,0,0,1,1.45.69,1.6,1.6,0,0,1,.48,1.18,1.92,1.92,0,0,1-.69,1.52,3.2,3.2,0,0,1-2.12.58,3.13,3.13,0,0,1-2.16-.62,2,2,0,0,1-.7-1.58Z" transform="translate(-0.1 -0.54)"/><g class="cls-17"><g class="cls-6"><rect class="cls-3" x="115.8" y="6.17" width="15.67" height="16.64"/></g></g><path class="cls-4" d="M137.09,9.9a2.22,2.22,0,0,1,.79.6,3,3,0,0,1,.42.71,2.44,2.44,0,0,1,.15.89,2.55,2.55,0,0,1-.3,1.18,1.67,1.67,0,0,1-1,.82,1.6,1.6,0,0,1,.82.67,2.82,2.82,0,0,1,.24,1.32v.57a4.33,4.33,0,0,0,.05.79.67.67,0,0,0,.32.48v.21h-1.93a3.46,3.46,0,0,1-.12-.45,4.4,4.4,0,0,1-.07-.73v-.79a1.6,1.6,0,0,0-.28-1.07,1.41,1.41,0,0,0-1-.27h-1.71v3.31h-1.71V9.69h4A3.7,3.7,0,0,1,137.09,9.9Zm-3.62,1.25v2.28h1.89a2,2,0,0,0,.84-.14,1,1,0,0,0,.5-.95,1.07,1.07,0,0,0-.49-1,1.71,1.71,0,0,0-.81-.15Z" transform="translate(-0.1 -0.54)"/><g class="cls-18"><g class="cls-6"><rect class="cls-3" x="126.66" y="4.14" width="16.83" height="18.46"/></g></g><path class="cls-4" d="M144.33,12a2.43,2.43,0,0,1,1.07.92,3.06,3.06,0,0,1,.5,1.29,8.37,8.37,0,0,1,0,1.24h-4.51a1.5,1.5,0,0,0,.64,1.32,1.63,1.63,0,0,0,.9.24,1.37,1.37,0,0,0,.9-.29,1.25,1.25,0,0,0,.33-.43h1.66a2.13,2.13,0,0,1-.6,1.13,3,3,0,0,1-2.34.91,3.37,3.37,0,0,1-2.18-.76,3.07,3.07,0,0,1-.95-2.51,3.41,3.41,0,0,1,.86-2.49,3,3,0,0,1,2.21-.87,3.43,3.43,0,0,1,1.46.3m-2.42,1.41a1.65,1.65,0,0,0-.43,1h2.79a1.35,1.35,0,0,0-.43-1,1.39,1.39,0,0,0-1-.34,1.28,1.28,0,0,0-1,.36" transform="translate(-0.1 -0.54)"/><g class="cls-19"><g class="cls-6"><rect class="cls-3" x="134.7" y="6.18" width="16.15" height="16.63"/></g></g><path class="cls-4" d="M150.13,11.88a2,2,0,0,1,1,.91v-.9h1.58v5.93a3.35,3.35,0,0,1-.41,1.83,3,3,0,0,1-2.66,1.05,3.64,3.64,0,0,1-1.94-.47,1.72,1.72,0,0,1-.83-1.4h1.76a.74.74,0,0,0,.23.41,1.33,1.33,0,0,0,.88.22,1.19,1.19,0,0,0,1.17-.59,3,3,0,0,0,.19-1.27v-.4a2,2,0,0,1-.5.6,2,2,0,0,1-1.25.37,2.35,2.35,0,0,1-1.91-.85,3.4,3.4,0,0,1-.72-2.29,3.86,3.86,0,0,1,.69-2.34,2.28,2.28,0,0,1,1.95-.95,2.21,2.21,0,0,1,.81.14m.55,4.49a2,2,0,0,0,.4-1.38,2.12,2.12,0,0,0-.38-1.36,1.19,1.19,0,0,0-1-.46,1.16,1.16,0,0,0-1.17.81,2.74,2.74,0,0,0-.17,1.06,2.47,2.47,0,0,0,.18,1,1.18,1.18,0,0,0,1.18.79,1.23,1.23,0,0,0,1-.43" transform="translate(-0.1 -0.54)"/><g class="cls-20"><g class="cls-6"><rect class="cls-3" x="141.58" y="6.2" width="15.99" height="18.96"/></g></g><path class="cls-4" d="M154.5,11.14h1.64V9.63H154.5Zm0,7h1.64V11.89H154.5Z" transform="translate(-0.1 -0.54)"/><g class="cls-21"><g class="cls-6"><rect class="cls-3" x="149.4" y="4.09" width="11.64" height="18.51"/></g></g><path class="cls-4" d="M159.26,16.15a1.12,1.12,0,0,0,.22.62,1.54,1.54,0,0,0,1.12.32,1.75,1.75,0,0,0,.76-.14.47.47,0,0,0,.29-.43.48.48,0,0,0-.23-.42,8.72,8.72,0,0,0-1.7-.49,3.66,3.66,0,0,1-1.49-.66,1.48,1.48,0,0,1-.43-1.13,2,2,0,0,1,.68-1.49,2.72,2.72,0,0,1,1.9-.62,3.46,3.46,0,0,1,1.89.47,2,2,0,0,1,.85,1.61h-1.63a1,1,0,0,0-.17-.5,1.13,1.13,0,0,0-.92-.33,1.3,1.3,0,0,0-.75.17.48.48,0,0,0-.23.39.43.43,0,0,0,.24.41,11.12,11.12,0,0,0,1.7.45,3.07,3.07,0,0,1,1.45.69,1.6,1.6,0,0,1,.48,1.18,1.92,1.92,0,0,1-.69,1.52,3.23,3.23,0,0,1-2.12.58,3.18,3.18,0,0,1-2.17-.62,2,2,0,0,1-.7-1.58Z" transform="translate(-0.1 -0.54)"/><g class="cls-22"><g class="cls-6"><rect class="cls-3" x="152.51" y="6.17" width="15.67" height="16.64"/></g></g><path class="cls-4" d="M164.14,13.11V12H165V10.2h1.6V12h1v1.16h-1v3.31a.75.75,0,0,0,.1.47c.07.07.26.1.59.1h.32V18.2l-.77,0a2.06,2.06,0,0,1-1.57-.4A1.23,1.23,0,0,1,165,17V13.11Z" transform="translate(-0.1 -0.54)"/><g class="cls-23"><g class="cls-6"><rect class="cls-3" x="159.04" y="4.66" width="13.48" height="18.03"/></g></g><path class="cls-4" d="M172.39,11.74h.14v1.68l-.28,0h-.19a1.33,1.33,0,0,0-1.31.64,2.43,2.43,0,0,0-.19,1.11v3h-1.63V11.89h1.54V13a3.46,3.46,0,0,1,.66-.86,1.8,1.8,0,0,1,1.18-.38h.08" transform="translate(-0.1 -0.54)"/><g class="cls-24"><g class="cls-6"><rect class="cls-3" x="163.83" y="6.2" width="13.6" height="16.4"/></g></g><path class="cls-4" d="M174,19.34h.21a3.3,3.3,0,0,0,.45,0,.82.82,0,0,0,.37-.14.89.89,0,0,0,.26-.4,1.17,1.17,0,0,0,.11-.38l-2.28-6.53h1.8l1.36,4.61,1.28-4.61h1.72L177.16,18a8.61,8.61,0,0,1-1,2.2,1.83,1.83,0,0,1-1.44.43h-.34l-.4,0Z" transform="translate(-0.1 -0.54)"/><g class="cls-25"><g class="cls-6"><rect class="cls-3" x="168.03" y="6.34" width="16.16" height="18.78"/></g></g><polygon class="cls-4" points="49.95 29.91 49.95 24.62 47.99 24.62 47.99 23.91 52.71 23.91 52.71 24.62 50.74 24.62 50.74 29.91 49.95 29.91"/><g class="cls-26"><g class="cls-6"><rect class="cls-3" x="42.99" y="18.91" width="14.72" height="16.01"/></g></g><path class="cls-4" d="M53.53,30.46v-6h.73v2.16a1.62,1.62,0,0,1,1.29-.6,1.67,1.67,0,0,1,.83.19,1.09,1.09,0,0,1,.51.53,2.43,2.43,0,0,1,.15,1v2.76h-.73V27.7a1.11,1.11,0,0,0-.24-.8.87.87,0,0,0-.67-.26,1.19,1.19,0,0,0-.61.17,1,1,0,0,0-.41.46,2.23,2.23,0,0,0-.12.81v2.38Z" transform="translate(-0.1 -0.54)"/><g class="cls-27"><g class="cls-6"><rect class="cls-3" x="48.43" y="18.91" width="13.52" height="16.01"/></g></g><path class="cls-4" d="M61.11,29.06l.76.09a1.84,1.84,0,0,1-.67,1,2,2,0,0,1-1.23.37,2,2,0,0,1-1.5-.59,2.3,2.3,0,0,1-.56-1.65,2.46,2.46,0,0,1,.56-1.71,1.92,1.92,0,0,1,1.46-.6,1.85,1.85,0,0,1,1.41.59,2.37,2.37,0,0,1,.55,1.67v.2H58.67a1.64,1.64,0,0,0,.4,1.1A1.2,1.2,0,0,0,60,30a1.13,1.13,0,0,0,.69-.21,1.4,1.4,0,0,0,.45-.68m-2.4-1.2h2.41a1.47,1.47,0,0,0-.28-.82,1.12,1.12,0,0,0-.91-.43,1.15,1.15,0,0,0-.84.35,1.31,1.31,0,0,0-.38.9" transform="translate(-0.1 -0.54)"/><g class="cls-28"><g class="cls-6"><rect class="cls-3" x="52.81" y="20.46" width="13.98" height="14.55"/></g></g><path class="cls-4" d="M68,28.1v-.7H70.5v2.23a4.67,4.67,0,0,1-1.2.71,3.66,3.66,0,0,1-1.27.23,3.39,3.39,0,0,1-1.59-.38,2.47,2.47,0,0,1-1.08-1.09A3.44,3.44,0,0,1,65,27.48a3.74,3.74,0,0,1,.36-1.63,2.46,2.46,0,0,1,1.05-1.13A3.22,3.22,0,0,1,68,24.35a3.13,3.13,0,0,1,1.17.21,2,2,0,0,1,.82.59,2.54,2.54,0,0,1,.45,1l-.71.2a2.2,2.2,0,0,0-.33-.72,1.37,1.37,0,0,0-.57-.42A2,2,0,0,0,68,25a2.47,2.47,0,0,0-.94.16,1.87,1.87,0,0,0-.63.44,2.1,2.1,0,0,0-.38.6,3.17,3.17,0,0,0-.23,1.2,2.87,2.87,0,0,0,.28,1.35,1.72,1.72,0,0,0,.8.8,2.38,2.38,0,0,0,1.11.26,2.69,2.69,0,0,0,1-.19,2.89,2.89,0,0,0,.74-.43V28.1Z" transform="translate(-0.1 -0.54)"/><g class="cls-29"><g class="cls-6"><rect class="cls-3" x="59.89" y="18.8" width="15.51" height="16.21"/></g></g><path class="cls-4" d="M71.3,28.28A2.27,2.27,0,0,1,72,26.49,2,2,0,0,1,73.32,26a1.92,1.92,0,0,1,1.46.59,2.26,2.26,0,0,1,.56,1.62,2.85,2.85,0,0,1-.25,1.32,1.82,1.82,0,0,1-.73.75,2.07,2.07,0,0,1-1,.27A1.93,1.93,0,0,1,71.86,30a2.32,2.32,0,0,1-.56-1.69m.75,0a1.85,1.85,0,0,0,.36,1.25,1.2,1.2,0,0,0,1.82,0,1.91,1.91,0,0,0,.36-1.27A1.84,1.84,0,0,0,74.23,27a1.19,1.19,0,0,0-.91-.41,1.18,1.18,0,0,0-.91.41,1.88,1.88,0,0,0-.36,1.25" transform="translate(-0.1 -0.54)"/><g class="cls-30"><g class="cls-6"><rect class="cls-3" x="66.2" y="20.46" width="14.04" height="14.55"/></g></g><path class="cls-4" d="M77.4,30.46l-1.64-4.35h.77l.92,2.6c.1.28.2.58.28.88.07-.23.16-.51.27-.83l1-2.65h.75l-1.63,4.35Z" transform="translate(-0.1 -0.54)"/><g class="cls-31"><g class="cls-6"><rect class="cls-3" x="70.66" y="20.56" width="13.96" height="14.35"/></g></g><path class="cls-4" d="M83.31,29.06l.76.09a1.88,1.88,0,0,1-.66,1,2.05,2.05,0,0,1-1.24.37,2,2,0,0,1-1.5-.59,2.3,2.3,0,0,1-.55-1.65,2.42,2.42,0,0,1,.56-1.71,1.89,1.89,0,0,1,1.45-.6,1.87,1.87,0,0,1,1.42.59,2.41,2.41,0,0,1,.54,1.67v.2H80.87a1.69,1.69,0,0,0,.4,1.1,1.24,1.24,0,0,0,.91.38,1.12,1.12,0,0,0,.68-.21,1.4,1.4,0,0,0,.45-.68m-2.4-1.2h2.41a1.47,1.47,0,0,0-.27-.82A1.19,1.19,0,0,0,81.29,27a1.35,1.35,0,0,0-.38.9" transform="translate(-0.1 -0.54)"/><g class="cls-32"><g class="cls-6"><rect class="cls-3" x="75.02" y="20.46" width="13.98" height="14.55"/></g></g><path class="cls-4" d="M85,30.46V26.11h.66v.66a1.75,1.75,0,0,1,.46-.61.82.82,0,0,1,.47-.15,1.44,1.44,0,0,1,.76.24l-.26.68a1,1,0,0,0-.53-.16.66.66,0,0,0-.43.15.79.79,0,0,0-.28.4,2.93,2.93,0,0,0-.12.86v2.28Z" transform="translate(-0.1 -0.54)"/><g class="cls-33"><g class="cls-6"><rect class="cls-3" x="79.88" y="20.46" width="12.34" height="14.45"/></g></g><path class="cls-4" d="M87.76,30.46V26.11h.66v.62A1.54,1.54,0,0,1,89.79,26a1.89,1.89,0,0,1,.72.14,1.12,1.12,0,0,1,.49.37,1.52,1.52,0,0,1,.23.55,5.05,5.05,0,0,1,0,.71v2.68h-.73V27.81a1.89,1.89,0,0,0-.09-.67.75.75,0,0,0-.3-.36,1,1,0,0,0-.51-.13,1.2,1.2,0,0,0-.81.3,1.45,1.45,0,0,0-.34,1.13v2.38Z" transform="translate(-0.1 -0.54)"/><g class="cls-34"><g class="cls-6"><rect class="cls-3" x="82.66" y="20.46" width="13.51" height="14.45"/></g></g><path class="cls-4" d="M92.39,30.46V26.11H93v.61a1.58,1.58,0,0,1,.54-.52,1.52,1.52,0,0,1,.77-.19,1.47,1.47,0,0,1,.79.2,1.05,1.05,0,0,1,.43.56A1.54,1.54,0,0,1,96.9,26a1.31,1.31,0,0,1,1,.36,1.53,1.53,0,0,1,.35,1.1v3h-.73V27.72a2,2,0,0,0-.07-.64.65.65,0,0,0-.26-.31.78.78,0,0,0-.44-.12A1,1,0,0,0,96,27a1.33,1.33,0,0,0-.31,1v2.53H95V27.63a1.26,1.26,0,0,0-.18-.74.67.67,0,0,0-.58-.24,1,1,0,0,0-.57.16.92.92,0,0,0-.38.48,2.66,2.66,0,0,0-.12.91v2.26Z" transform="translate(-0.1 -0.54)"/><g class="cls-35"><g class="cls-6"><rect class="cls-3" x="87.29" y="20.46" width="15.85" height="14.45"/></g></g><path class="cls-4" d="M102.28,29.06l.75.09a1.88,1.88,0,0,1-.66,1,2,2,0,0,1-1.24.37,2,2,0,0,1-1.5-.59,2.3,2.3,0,0,1-.55-1.65,2.42,2.42,0,0,1,.56-1.71,1.89,1.89,0,0,1,1.45-.6,1.87,1.87,0,0,1,1.42.59,2.42,2.42,0,0,1,.55,1.67c0,.05,0,.11,0,.2H99.83a1.65,1.65,0,0,0,.41,1.1,1.2,1.2,0,0,0,.9.38,1.08,1.08,0,0,0,.68-.21,1.48,1.48,0,0,0,.46-.68m-2.41-1.2h2.41A1.47,1.47,0,0,0,102,27a1.15,1.15,0,0,0-.91-.43,1.17,1.17,0,0,0-.85.35,1.4,1.4,0,0,0-.38.9" transform="translate(-0.1 -0.54)"/><g class="cls-36"><g class="cls-6"><rect class="cls-3" x="93.98" y="20.46" width="13.98" height="14.55"/></g></g><path class="cls-4" d="M104,30.46V26.11h.66v.62A1.54,1.54,0,0,1,106,26a1.89,1.89,0,0,1,.72.14,1.12,1.12,0,0,1,.49.37,1.52,1.52,0,0,1,.23.55,5.05,5.05,0,0,1,0,.71v2.68h-.73V27.81a1.89,1.89,0,0,0-.09-.67.75.75,0,0,0-.3-.36,1,1,0,0,0-.51-.13,1.2,1.2,0,0,0-.81.3,1.45,1.45,0,0,0-.34,1.13v2.38Z" transform="translate(-0.1 -0.54)"/><g class="cls-37"><g class="cls-6"><rect class="cls-3" x="98.85" y="20.46" width="13.51" height="14.45"/></g></g><path class="cls-4" d="M110.18,29.8l.1.65a3,3,0,0,1-.55.07,1.3,1.3,0,0,1-.62-.13.72.72,0,0,1-.31-.34,2.58,2.58,0,0,1-.09-.87v-2.5h-.53v-.57h.53V25l.73-.44v1.52h.74v.57h-.74v2.55a1.12,1.12,0,0,0,0,.4.28.28,0,0,0,.12.14.46.46,0,0,0,.25.06l.33,0" transform="translate(-0.1 -0.54)"/><g class="cls-38"><g class="cls-6"><rect class="cls-3" x="103.08" y="19.04" width="12.11" height="15.93"/></g></g><path class="cls-4" d="M112.93,28.28a2.25,2.25,0,0,1,.67-1.79A2,2,0,0,1,115,26a1.91,1.91,0,0,1,1.46.59,2.22,2.22,0,0,1,.56,1.62,2.85,2.85,0,0,1-.25,1.32,1.74,1.74,0,0,1-.72.75,2.11,2.11,0,0,1-1,.27,1.93,1.93,0,0,1-1.46-.59,2.36,2.36,0,0,1-.56-1.69m.75,0a1.85,1.85,0,0,0,.36,1.25A1.17,1.17,0,0,0,115,30a1.14,1.14,0,0,0,.91-.42,1.91,1.91,0,0,0,.36-1.27,1.84,1.84,0,0,0-.36-1.23,1.18,1.18,0,0,0-.91-.41A1.19,1.19,0,0,0,114,27a1.88,1.88,0,0,0-.36,1.25" transform="translate(-0.1 -0.54)"/><g class="cls-39"><g class="cls-6"><rect class="cls-3" x="107.83" y="20.46" width="14.04" height="14.55"/></g></g><path class="cls-4" d="M118,30.46V26.68h-.65v-.57H118v-.47a2.12,2.12,0,0,1,.07-.65.94.94,0,0,1,.38-.46,1.28,1.28,0,0,1,.74-.18,3.34,3.34,0,0,1,.68.07l-.11.65a2.15,2.15,0,0,0-.43,0,.62.62,0,0,0-.47.14.78.78,0,0,0-.14.54v.4h.85v.57h-.85v3.78Z" transform="translate(-0.1 -0.54)"/><g class="cls-40"><g class="cls-6"><rect class="cls-3" x="112.26" y="18.8" width="12.52" height="16.11"/></g></g><path class="cls-4" d="M124.05,29.8l.11.65a3.06,3.06,0,0,1-.55.07,1.3,1.3,0,0,1-.62-.13.72.72,0,0,1-.31-.34,2.58,2.58,0,0,1-.09-.87v-2.5h-.54v-.57h.54V25l.73-.44v1.52h.73v.57h-.73v2.55a1.12,1.12,0,0,0,0,.4.24.24,0,0,0,.12.14.44.44,0,0,0,.25.06l.32,0" transform="translate(-0.1 -0.54)"/><g class="cls-41"><g class="cls-6"><rect class="cls-3" x="116.95" y="19.04" width="12.11" height="15.93"/></g></g><path class="cls-4" d="M124.77,30.46v-6h.73v2.16a1.62,1.62,0,0,1,1.29-.6,1.74,1.74,0,0,1,.84.19,1.11,1.11,0,0,1,.5.53,2.43,2.43,0,0,1,.15,1v2.76h-.73V27.7a1.11,1.11,0,0,0-.24-.8.86.86,0,0,0-.67-.26,1.22,1.22,0,0,0-.61.17,1,1,0,0,0-.41.46,2.23,2.23,0,0,0-.12.81v2.38Z" transform="translate(-0.1 -0.54)"/><g class="cls-42"><g class="cls-6"><rect class="cls-3" x="119.67" y="18.91" width="13.52" height="16.01"/></g></g><path class="cls-4" d="M132.35,29.06l.76.09a1.88,1.88,0,0,1-.66,1,2.05,2.05,0,0,1-1.24.37,2,2,0,0,1-1.5-.59,2.3,2.3,0,0,1-.56-1.65,2.46,2.46,0,0,1,.56-1.71,1.92,1.92,0,0,1,1.46-.6,1.83,1.83,0,0,1,1.41.59,2.37,2.37,0,0,1,.55,1.67v.2h-3.22a1.69,1.69,0,0,0,.4,1.1,1.2,1.2,0,0,0,.9.38,1.13,1.13,0,0,0,.69-.21,1.4,1.4,0,0,0,.45-.68m-2.4-1.2h2.41a1.4,1.4,0,0,0-.28-.82,1.12,1.12,0,0,0-.9-.43,1.15,1.15,0,0,0-.85.35,1.31,1.31,0,0,0-.38.9" transform="translate(-0.1 -0.54)"/><g class="cls-43"><g class="cls-6"><rect class="cls-3" x="124.05" y="20.46" width="13.98" height="14.55"/></g></g><polygon class="cls-4" points="136.36 29.91 136.36 23.91 137.15 23.91 137.15 26.37 140.24 26.37 140.24 23.91 141.03 23.91 141.03 29.91 140.24 29.91 140.24 27.08 137.15 27.08 137.15 29.91 136.36 29.91"/><g class="cls-44"><g class="cls-6"><rect class="cls-3" x="131.36" y="18.91" width="14.67" height="16.01"/></g></g><path class="cls-4" d="M142.08,28.28a2.27,2.27,0,0,1,.66-1.79A2,2,0,0,1,144.1,26a1.92,1.92,0,0,1,1.46.59,2.26,2.26,0,0,1,.56,1.62,2.85,2.85,0,0,1-.25,1.32,1.82,1.82,0,0,1-.73.75,2.07,2.07,0,0,1-1,.27,1.93,1.93,0,0,1-1.46-.59,2.32,2.32,0,0,1-.56-1.69m.75,0a1.85,1.85,0,0,0,.36,1.25,1.14,1.14,0,0,0,.91.42,1.16,1.16,0,0,0,.91-.42,1.91,1.91,0,0,0,.36-1.27A1.79,1.79,0,0,0,145,27a1.2,1.2,0,0,0-1.81,0,1.88,1.88,0,0,0-.36,1.25" transform="translate(-0.1 -0.54)"/><g class="cls-45"><g class="cls-6"><rect class="cls-3" x="136.98" y="20.46" width="14.04" height="14.55"/></g></g><path class="cls-4" d="M147,30.46V26.11h.66v.62A1.53,1.53,0,0,1,149,26a1.89,1.89,0,0,1,.72.14,1.18,1.18,0,0,1,.49.37,1.35,1.35,0,0,1,.22.55,3.85,3.85,0,0,1,0,.71v2.68h-.73V27.81a2.21,2.21,0,0,0-.08-.67.75.75,0,0,0-.3-.36,1,1,0,0,0-.52-.13,1.15,1.15,0,0,0-.8.3,1.45,1.45,0,0,0-.34,1.13v2.38Z" transform="translate(-0.1 -0.54)"/><g class="cls-46"><g class="cls-6"><rect class="cls-3" x="141.88" y="20.46" width="13.51" height="14.45"/></g></g><path class="cls-4" d="M151.47,30.82l.71.11a.7.7,0,0,0,.25.48,1.18,1.18,0,0,0,.74.2,1.28,1.28,0,0,0,.79-.2,1,1,0,0,0,.37-.57,4.66,4.66,0,0,0,.06-.95,1.51,1.51,0,0,1-1.2.57,1.64,1.64,0,0,1-1.38-.65,2.53,2.53,0,0,1-.48-1.55,2.88,2.88,0,0,1,.22-1.15,1.76,1.76,0,0,1,.65-.81,1.66,1.66,0,0,1,1-.29,1.55,1.55,0,0,1,1.25.62v-.52h.68v3.76a3.5,3.5,0,0,1-.21,1.44,1.45,1.45,0,0,1-.65.67,2.25,2.25,0,0,1-1.09.24,2,2,0,0,1-1.25-.35,1.17,1.17,0,0,1-.46-1.05m.61-2.62a1.9,1.9,0,0,0,.34,1.26,1.05,1.05,0,0,0,.84.39,1.09,1.09,0,0,0,.85-.39,1.88,1.88,0,0,0,.34-1.23A1.86,1.86,0,0,0,154.1,27a1.09,1.09,0,0,0-.85-.4,1,1,0,0,0-.83.4,1.77,1.77,0,0,0-.34,1.18" transform="translate(-0.1 -0.54)"/><g class="cls-47"><g class="cls-6"><rect class="cls-3" x="146.23" y="20.46" width="13.8" height="16.22"/></g></g><polygon class="cls-4" points="158.51 29.91 158.51 23.91 159.3 23.91 159.3 26.89 162.25 23.91 163.32 23.91 160.82 26.34 163.43 29.91 162.39 29.91 160.27 26.87 159.3 27.83 159.3 29.91 158.51 29.91"/><g class="cls-48"><g class="cls-6"><rect class="cls-3" x="153.51" y="18.91" width="14.93" height="16.01"/></g></g><path class="cls-4" d="M163.83,28.28a2.27,2.27,0,0,1,.66-1.79,2,2,0,0,1,1.36-.48,1.89,1.89,0,0,1,1.45.59,2.22,2.22,0,0,1,.57,1.62,2.85,2.85,0,0,1-.25,1.32,1.82,1.82,0,0,1-.73.75,2.07,2.07,0,0,1-1,.27,2,2,0,0,1-1.47-.59,2.36,2.36,0,0,1-.55-1.69m.75,0a1.85,1.85,0,0,0,.36,1.25,1.14,1.14,0,0,0,.91.42,1.16,1.16,0,0,0,.91-.42,1.91,1.91,0,0,0,.36-1.27,1.79,1.79,0,0,0-.37-1.23,1.2,1.2,0,0,0-1.81,0,1.88,1.88,0,0,0-.36,1.25" transform="translate(-0.1 -0.54)"/><g class="cls-49"><g class="cls-6"><rect class="cls-3" x="158.73" y="20.46" width="14.04" height="14.55"/></g></g><path class="cls-4" d="M168.73,30.46V26.11h.66v.62a1.53,1.53,0,0,1,1.37-.72,1.89,1.89,0,0,1,.72.14,1.18,1.18,0,0,1,.49.37,1.51,1.51,0,0,1,.22.55,3.85,3.85,0,0,1,0,.71v2.68h-.73V27.81a2.21,2.21,0,0,0-.08-.67.72.72,0,0,0-.31-.36.92.92,0,0,0-.51-.13,1.15,1.15,0,0,0-.8.3,1.45,1.45,0,0,0-.34,1.13v2.38Z" transform="translate(-0.1 -0.54)"/><g class="cls-50"><g class="cls-6"><rect class="cls-3" x="163.63" y="20.46" width="13.51" height="14.45"/></g></g><path class="cls-4" d="M173.22,30.82l.71.11a.7.7,0,0,0,.25.48,1.18,1.18,0,0,0,.74.2,1.3,1.3,0,0,0,.79-.2,1,1,0,0,0,.37-.57,4.66,4.66,0,0,0,.06-.95,1.51,1.51,0,0,1-1.2.57,1.64,1.64,0,0,1-1.38-.65,2.53,2.53,0,0,1-.48-1.55,2.88,2.88,0,0,1,.22-1.15,1.76,1.76,0,0,1,.65-.81,1.65,1.65,0,0,1,1-.29,1.55,1.55,0,0,1,1.26.62v-.52h.68v3.76a3.5,3.5,0,0,1-.21,1.44A1.45,1.45,0,0,1,176,32a2.25,2.25,0,0,1-1.09.24,2,2,0,0,1-1.25-.35,1.17,1.17,0,0,1-.46-1.05m.61-2.62a2,2,0,0,0,.33,1.26,1.09,1.09,0,0,0,.85.39,1.05,1.05,0,0,0,.84-.39,1.82,1.82,0,0,0,.35-1.23,1.8,1.8,0,0,0-.36-1.21,1.06,1.06,0,0,0-.84-.4,1,1,0,0,0-.83.4,1.77,1.77,0,0,0-.34,1.18" transform="translate(-0.1 -0.54)"/><g class="cls-51"><g class="cls-6"><rect class="cls-3" x="167.98" y="20.46" width="13.8" height="16.22"/></g></g><path class="cls-4" d="M48.12,38.53l.75-.07a1.58,1.58,0,0,0,.24.74,1.32,1.32,0,0,0,.6.47,2.25,2.25,0,0,0,.92.18,2.14,2.14,0,0,0,.79-.14,1.14,1.14,0,0,0,.52-.37.88.88,0,0,0,.16-.51.79.79,0,0,0-.16-.5,1.29,1.29,0,0,0-.53-.35,11,11,0,0,0-1.07-.29,5.8,5.8,0,0,1-1.15-.38,1.65,1.65,0,0,1-.63-.56,1.37,1.37,0,0,1-.21-.75,1.49,1.49,0,0,1,.26-.85,1.65,1.65,0,0,1,.74-.6,3.22,3.22,0,0,1,2.26,0,1.72,1.72,0,0,1,.78.64,1.9,1.9,0,0,1,.3.94l-.76.06a1.24,1.24,0,0,0-.41-.86,1.63,1.63,0,0,0-1-.29,1.67,1.67,0,0,0-1,.26.8.8,0,0,0-.33.64.69.69,0,0,0,.23.53,3,3,0,0,0,1.19.43,8,8,0,0,1,1.32.39,1.79,1.79,0,0,1,.77.61,1.53,1.53,0,0,1,.24.85,1.69,1.69,0,0,1-.27.91,1.82,1.82,0,0,1-.78.66,2.81,2.81,0,0,1-1.15.23,3.33,3.33,0,0,1-1.35-.24,1.82,1.82,0,0,1-.86-.71,2,2,0,0,1-.33-1.08" transform="translate(-0.1 -0.54)"/><g class="cls-52"><g class="cls-6"><rect class="cls-3" x="43.02" y="28.8" width="14.74" height="16.21"/></g></g><path class="cls-4" d="M53.85,42.13v-6h.66v.56a1.81,1.81,0,0,1,.54-.5,1.42,1.42,0,0,1,.72-.16,1.63,1.63,0,0,1,1,.29,1.76,1.76,0,0,1,.64.8,3.06,3.06,0,0,1,.21,1.15,2.86,2.86,0,0,1-.23,1.2,1.82,1.82,0,0,1-1.65,1.11,1.28,1.28,0,0,1-.65-.16,1.33,1.33,0,0,1-.48-.39v2.12Zm.66-3.82a1.87,1.87,0,0,0,.34,1.24,1,1,0,0,0,.81.4,1.05,1.05,0,0,0,.84-.42,2,2,0,0,0,.35-1.28A2,2,0,0,0,56.51,37a1,1,0,0,0-.81-.41,1,1,0,0,0-.83.44A2,2,0,0,0,54.51,38.31Z" transform="translate(-0.1 -0.54)"/><g class="cls-53"><g class="cls-6"><rect class="cls-3" x="48.75" y="30.46" width="13.75" height="16.12"/></g></g><path class="cls-4" d="M61.43,39.06l.76.09a1.84,1.84,0,0,1-.67,1,2,2,0,0,1-1.23.37,2,2,0,0,1-1.5-.59,2.3,2.3,0,0,1-.56-1.65,2.46,2.46,0,0,1,.56-1.71,1.92,1.92,0,0,1,1.46-.6,1.83,1.83,0,0,1,1.41.59,2.37,2.37,0,0,1,.55,1.67v.2H59a1.69,1.69,0,0,0,.4,1.1,1.2,1.2,0,0,0,.9.38,1.13,1.13,0,0,0,.69-.21,1.4,1.4,0,0,0,.45-.68M59,37.86h2.41a1.47,1.47,0,0,0-.28-.82,1.12,1.12,0,0,0-.9-.43,1.15,1.15,0,0,0-.85.35,1.31,1.31,0,0,0-.38.9" transform="translate(-0.1 -0.54)"/><g class="cls-54"><g class="cls-6"><rect class="cls-3" x="53.13" y="30.46" width="13.98" height="14.55"/></g></g><path class="cls-4" d="M65.92,38.86l.72.1a1.89,1.89,0,0,1-.6,1.17,1.73,1.73,0,0,1-1.2.43A1.84,1.84,0,0,1,63.42,40a2.36,2.36,0,0,1-.54-1.67,3.1,3.1,0,0,1,.23-1.23,1.64,1.64,0,0,1,.71-.8,2.13,2.13,0,0,1,1-.26,1.78,1.78,0,0,1,1.15.36,1.62,1.62,0,0,1,.57,1l-.71.11a1.17,1.17,0,0,0-.36-.66.91.91,0,0,0-.62-.22A1.14,1.14,0,0,0,64,37a2.51,2.51,0,0,0,0,2.54,1.06,1.06,0,0,0,.87.4,1,1,0,0,0,.72-.27,1.31,1.31,0,0,0,.36-.82" transform="translate(-0.1 -0.54)"/><g class="cls-55"><g class="cls-6"><rect class="cls-3" x="57.78" y="30.46" width="13.76" height="14.55"/></g></g><path class="cls-4" d="M67.27,35.3H68v-.85h-.73Zm0,5.16H68V36.11h-.73Z" transform="translate(-0.1 -0.54)"/><g class="cls-56"><g class="cls-6"><rect class="cls-3" x="62.17" y="28.91" width="10.73" height="16.01"/></g></g><path class="cls-4" d="M71.93,39.92a2.63,2.63,0,0,1-.78.49,2.16,2.16,0,0,1-.81.15,1.57,1.57,0,0,1-1.09-.35,1.17,1.17,0,0,1-.38-.9,1.24,1.24,0,0,1,.14-.58,1.22,1.22,0,0,1,.38-.43,2.14,2.14,0,0,1,.53-.24,5.63,5.63,0,0,1,.65-.11,7.27,7.27,0,0,0,1.3-.25v-.2a.8.8,0,0,0-.2-.63,1.22,1.22,0,0,0-.84-.25,1.31,1.31,0,0,0-.76.18,1.15,1.15,0,0,0-.36.65l-.72-.1a2,2,0,0,1,.32-.75,1.42,1.42,0,0,1,.65-.44,2.93,2.93,0,0,1,1-.15,2.52,2.52,0,0,1,.9.13,1.25,1.25,0,0,1,.51.33,1.21,1.21,0,0,1,.22.5,3.54,3.54,0,0,1,0,.68v1a10.65,10.65,0,0,0,0,1.3,1.69,1.69,0,0,0,.18.52h-.76A1.43,1.43,0,0,1,71.93,39.92Zm-.06-1.65a4.84,4.84,0,0,1-1.19.28,3.37,3.37,0,0,0-.64.15.7.7,0,0,0-.29.24.62.62,0,0,0-.1.35.61.61,0,0,0,.22.49,1,1,0,0,0,.65.2,1.44,1.44,0,0,0,.75-.19,1.08,1.08,0,0,0,.48-.51,1.72,1.72,0,0,0,.12-.73Z" transform="translate(-0.1 -0.54)"/><g class="cls-57"><g class="cls-6"><rect class="cls-3" x="63.77" y="30.46" width="13.97" height="14.55"/></g></g><rect class="cls-3" x="73.63" y="33.91" width="0.73" height="6.01"/><g class="cls-58"><g class="cls-6"><rect class="cls-3" x="68.63" y="28.91" width="10.73" height="16.01"/></g></g><path class="cls-4" d="M76.89,40.46l2.28-6H80l2.44,6h-.9l-.69-1.82H78.38l-.66,1.82ZM78.6,38h2L80,36.33c-.19-.51-.33-.92-.42-1.25a7.86,7.86,0,0,1-.32,1.15Z" transform="translate(-0.1 -0.54)"/><g class="cls-59"><g class="cls-6"><rect class="cls-3" x="71.79" y="28.91" width="15.58" height="16.01"/></g></g><path class="cls-4" d="M85.8,40.46v-.55a1.36,1.36,0,0,1-1.21.65,1.71,1.71,0,0,1-1-.29,1.89,1.89,0,0,1-.67-.8,2.76,2.76,0,0,1-.24-1.18A3.23,3.23,0,0,1,83,37.1a1.7,1.7,0,0,1,.65-.81,1.67,1.67,0,0,1,1-.28,1.41,1.41,0,0,1,.69.16,1.42,1.42,0,0,1,.5.44V34.45h.73v6Zm-2.31-2.17a1.94,1.94,0,0,0,.34,1.25,1.08,1.08,0,0,0,.83.41,1,1,0,0,0,.81-.4,1.77,1.77,0,0,0,.34-1.2A2,2,0,0,0,85.47,37a1.05,1.05,0,0,0-.84-.42,1,1,0,0,0-.82.4A2,2,0,0,0,83.49,38.29Z" transform="translate(-0.1 -0.54)"/><g class="cls-60"><g class="cls-6"><rect class="cls-3" x="77.63" y="28.91" width="13.74" height="16.11"/></g></g><path class="cls-4" d="M87.63,40.46V36.11h.65v.61a1.58,1.58,0,0,1,.54-.52,1.52,1.52,0,0,1,.77-.19,1.47,1.47,0,0,1,.79.2,1.11,1.11,0,0,1,.43.56A1.53,1.53,0,0,1,92.14,36a1.31,1.31,0,0,1,1,.36,1.53,1.53,0,0,1,.34,1.1v3h-.72V37.72a2.3,2.3,0,0,0-.07-.64.65.65,0,0,0-.26-.31.81.81,0,0,0-.44-.12,1,1,0,0,0-.76.3,1.37,1.37,0,0,0-.3,1v2.53h-.73V37.63a1.26,1.26,0,0,0-.18-.74.67.67,0,0,0-.58-.24,1,1,0,0,0-.57.16.87.87,0,0,0-.38.48,2.66,2.66,0,0,0-.12.91v2.26Z" transform="translate(-0.1 -0.54)"/><g class="cls-61"><g class="cls-6"><rect class="cls-3" x="82.53" y="30.46" width="15.85" height="14.45"/></g></g><path class="cls-4" d="M94.56,35.3h.73v-.85h-.73Zm0,5.16h.73V36.11h-.73Z" transform="translate(-0.1 -0.54)"/><g class="cls-62"><g class="cls-6"><rect class="cls-3" x="89.46" y="28.91" width="10.73" height="16.01"/></g></g><path class="cls-4" d="M96.41,40.46V36.11h.66v.62A1.53,1.53,0,0,1,98.44,36a1.89,1.89,0,0,1,.72.14,1.12,1.12,0,0,1,.49.37,1.35,1.35,0,0,1,.22.55,3.61,3.61,0,0,1,0,.71v2.68h-.74V37.81a1.93,1.93,0,0,0-.08-.67.75.75,0,0,0-.3-.36,1,1,0,0,0-.51-.13,1.18,1.18,0,0,0-.81.3,1.45,1.45,0,0,0-.34,1.13v2.38Z" transform="translate(-0.1 -0.54)"/><g class="cls-63"><g class="cls-6"><rect class="cls-3" x="91.31" y="30.46" width="13.51" height="14.45"/></g></g><path class="cls-4" d="M100.74,39.16l.73-.11a1,1,0,0,0,.34.67,1.19,1.19,0,0,0,.78.23,1.11,1.11,0,0,0,.74-.21.59.59,0,0,0,.25-.48.47.47,0,0,0-.22-.4,4,4,0,0,0-.75-.25,6.42,6.42,0,0,1-1.11-.35,1.06,1.06,0,0,1-.47-.41,1.09,1.09,0,0,1-.16-.59,1.13,1.13,0,0,1,.13-.54,1.29,1.29,0,0,1,.36-.41,1.65,1.65,0,0,1,.46-.21,2.18,2.18,0,0,1,.63-.09,2.5,2.5,0,0,1,.9.15,1.14,1.14,0,0,1,.56.4,1.47,1.47,0,0,1,.26.67l-.72.1a.81.81,0,0,0-.28-.53,1.08,1.08,0,0,0-.66-.18,1.2,1.2,0,0,0-.72.16.53.53,0,0,0-.22.4.38.38,0,0,0,.09.25.67.67,0,0,0,.28.2l.65.19a8.44,8.44,0,0,1,1.08.34,1,1,0,0,1,.48.39,1.07,1.07,0,0,1,.18.63,1.22,1.22,0,0,1-.21.69,1.43,1.43,0,0,1-.62.51,2.21,2.21,0,0,1-.91.18,2,2,0,0,1-1.28-.36,1.64,1.64,0,0,1-.57-1" transform="translate(-0.1 -0.54)"/><g class="cls-64"><g class="cls-6"><rect class="cls-3" x="95.64" y="30.46" width="13.58" height="14.55"/></g></g><path class="cls-4" d="M106.8,39.8l.1.65a3.06,3.06,0,0,1-.55.07,1.3,1.3,0,0,1-.62-.13.72.72,0,0,1-.31-.34,2.58,2.58,0,0,1-.09-.87v-2.5h-.53v-.57h.53V35l.73-.44v1.52h.74v.57h-.74v2.55a1.12,1.12,0,0,0,0,.4.28.28,0,0,0,.12.14.46.46,0,0,0,.25.06l.33,0" transform="translate(-0.1 -0.54)"/><g class="cls-65"><g class="cls-6"><rect class="cls-3" x="99.7" y="29.04" width="12.11" height="15.93"/></g></g><path class="cls-4" d="M107.5,40.46V36.11h.66v.66a1.64,1.64,0,0,1,.47-.61.78.78,0,0,1,.47-.15,1.43,1.43,0,0,1,.75.24l-.26.68a1,1,0,0,0-.53-.16.68.68,0,0,0-.43.15.72.72,0,0,0-.27.4,2.63,2.63,0,0,0-.13.86v2.28Z" transform="translate(-0.1 -0.54)"/><g class="cls-66"><g class="cls-6"><rect class="cls-3" x="102.4" y="30.46" width="12.34" height="14.45"/></g></g><path class="cls-4" d="M113.1,39.92a2.63,2.63,0,0,1-.78.49,2.16,2.16,0,0,1-.81.15,1.55,1.55,0,0,1-1.09-.35,1.17,1.17,0,0,1-.39-.9,1.26,1.26,0,0,1,.53-1,2.07,2.07,0,0,1,.52-.24,6.05,6.05,0,0,1,.65-.11A7.42,7.42,0,0,0,113,37.7v-.2a.8.8,0,0,0-.21-.63,1.18,1.18,0,0,0-.83-.25,1.29,1.29,0,0,0-.76.18,1.09,1.09,0,0,0-.36.65l-.72-.1a1.72,1.72,0,0,1,.32-.75,1.42,1.42,0,0,1,.65-.44,2.93,2.93,0,0,1,1-.15,2.5,2.5,0,0,1,.89.13,1.19,1.19,0,0,1,.51.33,1.1,1.1,0,0,1,.23.5,4.65,4.65,0,0,1,0,.68v1a11.53,11.53,0,0,0,0,1.3,1.72,1.72,0,0,0,.19.52h-.77A1.64,1.64,0,0,1,113.1,39.92ZM113,38.27a5.07,5.07,0,0,1-1.2.28,3.59,3.59,0,0,0-.64.15.67.67,0,0,0-.28.24.63.63,0,0,0-.11.35.62.62,0,0,0,.23.49.93.93,0,0,0,.64.2,1.45,1.45,0,0,0,.76-.19,1.08,1.08,0,0,0,.48-.51,1.72,1.72,0,0,0,.12-.73Z" transform="translate(-0.1 -0.54)"/><g class="cls-67"><g class="cls-6"><rect class="cls-3" x="104.93" y="30.46" width="13.97" height="14.55"/></g></g><path class="cls-4" d="M116.51,39.8l.1.65a3,3,0,0,1-.55.07,1.33,1.33,0,0,1-.62-.13.78.78,0,0,1-.31-.34,2.58,2.58,0,0,1-.09-.87v-2.5h-.53v-.57H115V35l.73-.44v1.52h.74v.57h-.74v2.55a1.44,1.44,0,0,0,0,.4.29.29,0,0,0,.13.14.42.42,0,0,0,.25.06l.32,0" transform="translate(-0.1 -0.54)"/><g class="cls-68"><g class="cls-6"><rect class="cls-3" x="109.41" y="29.04" width="12.11" height="15.93"/></g></g><path class="cls-4" d="M117.23,35.3H118v-.85h-.73Zm0,5.16H118V36.11h-.73Z" transform="translate(-0.1 -0.54)"/><g class="cls-69"><g class="cls-6"><rect class="cls-3" x="112.13" y="28.91" width="10.73" height="16.01"/></g></g><path class="cls-4" d="M120.27,40.46l-1.64-4.35h.77l.93,2.6c.1.28.19.58.27.88.07-.23.16-.51.28-.83l1-2.65h.75L121,40.46Z" transform="translate(-0.1 -0.54)"/><g class="cls-70"><g class="cls-6"><rect class="cls-3" x="113.53" y="30.56" width="13.96" height="14.35"/></g></g><path class="cls-4" d="M126.19,39.06l.75.09a1.88,1.88,0,0,1-.66,1,2.23,2.23,0,0,1-2.74-.22,2.3,2.3,0,0,1-.55-1.65,2.46,2.46,0,0,1,.56-1.71A1.9,1.9,0,0,1,125,36a1.86,1.86,0,0,1,1.41.59,2.42,2.42,0,0,1,.55,1.67,1.64,1.64,0,0,1,0,.2h-3.21a1.64,1.64,0,0,0,.4,1.1,1.2,1.2,0,0,0,.9.38,1.13,1.13,0,0,0,.69-.21,1.4,1.4,0,0,0,.45-.68m-2.4-1.2h2.41a1.55,1.55,0,0,0-.28-.82,1.18,1.18,0,0,0-1.75-.08,1.31,1.31,0,0,0-.38.9" transform="translate(-0.1 -0.54)"/><g class="cls-71"><g class="cls-6"><rect class="cls-3" x="117.89" y="30.46" width="13.98" height="14.55"/></g></g><path class="cls-4" d="M130.28,40.46v-6h2.64a3.67,3.67,0,0,1,1.21.16,1.31,1.31,0,0,1,.66.57,1.71,1.71,0,0,1,.25.91,1.49,1.49,0,0,1-.41,1.08,2.06,2.06,0,0,1-1.27.56,2.4,2.4,0,0,1,.48.29,4.11,4.11,0,0,1,.65.8l1,1.64h-1l-.79-1.25c-.23-.36-.42-.64-.57-.83a1.86,1.86,0,0,0-.4-.4,1.14,1.14,0,0,0-.36-.16,2.22,2.22,0,0,0-.44,0h-.91v2.67Zm.79-3.36h1.69a2.47,2.47,0,0,0,.85-.11.93.93,0,0,0,.46-.36,1,1,0,0,0,.16-.54.88.88,0,0,0-.31-.7,1.42,1.42,0,0,0-1-.27h-1.88Z" transform="translate(-0.1 -0.54)"/><g class="cls-72"><g class="cls-6"><rect class="cls-3" x="125.18" y="28.91" width="15.25" height="16.01"/></g></g><path class="cls-4" d="M139.14,39.06l.75.09a1.83,1.83,0,0,1-.66,1,2,2,0,0,1-1.23.37,2,2,0,0,1-1.5-.59,2.3,2.3,0,0,1-.56-1.65,2.46,2.46,0,0,1,.56-1.71A1.92,1.92,0,0,1,138,36a1.86,1.86,0,0,1,1.41.59,2.37,2.37,0,0,1,.55,1.67v.2H136.7a1.64,1.64,0,0,0,.4,1.1,1.2,1.2,0,0,0,.9.38,1.13,1.13,0,0,0,.69-.21,1.4,1.4,0,0,0,.45-.68m-2.4-1.2h2.41a1.55,1.55,0,0,0-.28-.82,1.12,1.12,0,0,0-.91-.43,1.15,1.15,0,0,0-.84.35,1.31,1.31,0,0,0-.38.9" transform="translate(-0.1 -0.54)"/><g class="cls-73"><g class="cls-6"><rect class="cls-3" x="130.84" y="30.46" width="13.98" height="14.55"/></g></g><path class="cls-4" d="M140.68,40.82l.71.11a.66.66,0,0,0,.25.48,1.18,1.18,0,0,0,.74.2,1.3,1.3,0,0,0,.79-.2,1,1,0,0,0,.37-.57,4.2,4.2,0,0,0,.05-1,1.5,1.5,0,0,1-1.19.57,1.63,1.63,0,0,1-1.38-.65,2.54,2.54,0,0,1-.49-1.55,2.88,2.88,0,0,1,.23-1.15,1.8,1.8,0,0,1,.64-.81,1.7,1.7,0,0,1,1-.29,1.55,1.55,0,0,1,1.26.62v-.52h.68v3.76a3.5,3.5,0,0,1-.21,1.44,1.5,1.5,0,0,1-.65.67,2.28,2.28,0,0,1-1.09.24,2,2,0,0,1-1.25-.35,1.17,1.17,0,0,1-.46-1m.6-2.62a1.91,1.91,0,0,0,.34,1.25,1.06,1.06,0,0,0,.85.4,1.08,1.08,0,0,0,.84-.39,1.83,1.83,0,0,0,.34-1.23A1.8,1.8,0,0,0,143.3,37a1.06,1.06,0,0,0-.84-.4,1,1,0,0,0-.83.4,1.77,1.77,0,0,0-.35,1.18" transform="translate(-0.1 -0.54)"/><g class="cls-74"><g class="cls-6"><rect class="cls-3" x="135.43" y="30.46" width="13.8" height="16.22"/></g></g><path class="cls-4" d="M145.45,35.3h.73v-.85h-.73Zm0,5.16h.73V36.11h-.73Z" transform="translate(-0.1 -0.54)"/><g class="cls-75"><g class="cls-6"><rect class="cls-3" x="140.35" y="28.91" width="10.73" height="16.01"/></g></g><path class="cls-4" d="M147,38.28a2.25,2.25,0,0,1,.67-1.79A2,2,0,0,1,149,36a1.91,1.91,0,0,1,1.46.59,2.26,2.26,0,0,1,.56,1.62,2.85,2.85,0,0,1-.25,1.32,1.76,1.76,0,0,1-.73.75,2,2,0,0,1-1,.27,1.93,1.93,0,0,1-1.46-.59,2.32,2.32,0,0,1-.56-1.69m.75,0a1.85,1.85,0,0,0,.36,1.25A1.16,1.16,0,0,0,149,40a1.14,1.14,0,0,0,.91-.42,1.91,1.91,0,0,0,.36-1.27A1.84,1.84,0,0,0,150,37a1.19,1.19,0,0,0-.91-.41,1.18,1.18,0,0,0-.91.41,1.88,1.88,0,0,0-.36,1.25" transform="translate(-0.1 -0.54)"/><g class="cls-76"><g class="cls-6"><rect class="cls-3" x="141.92" y="30.46" width="14.04" height="14.55"/></g></g><path class="cls-4" d="M151.92,40.46V36.11h.66v.62A1.53,1.53,0,0,1,154,36a1.89,1.89,0,0,1,.72.14,1.12,1.12,0,0,1,.49.37,1.52,1.52,0,0,1,.23.55,5.05,5.05,0,0,1,0,.71v2.68h-.73V37.81a1.89,1.89,0,0,0-.09-.67.75.75,0,0,0-.3-.36,1,1,0,0,0-.51-.13,1.2,1.2,0,0,0-.81.3,1.45,1.45,0,0,0-.34,1.13v2.38Z" transform="translate(-0.1 -0.54)"/><g class="cls-77"><g class="cls-6"><rect class="cls-3" x="146.82" y="30.46" width="13.51" height="14.45"/></g></g><path class="cls-4" d="M19.1.54a19,19,0,1,0,19,19,19,19,0,0,0-19-19Z" transform="translate(-0.1 -0.54)"/><path class="cls-78" d="M19.1,38.33A18.78,18.78,0,1,1,37.88,19.55,18.77,18.77,0,0,1,19.1,38.33Z" transform="translate(-0.1 -0.54)"/><path class="cls-4" d="M19.1,34.65A15.1,15.1,0,1,0,4,19.55,15.09,15.09,0,0,0,19.1,34.65Z" transform="translate(-0.1 -0.54)"/><path class="cls-78" d="M19.1,19.55C12.42,16.73,15.38,8,21.77,8.46A2,2,0,0,0,21,11.52a3,3,0,0,1-1.19,3.85,2.43,2.43,0,0,0-.74,4.18Z" transform="translate(-0.1 -0.54)"/><path class="cls-78" d="M19.1,19.55c-4.75,5.48-12.11,0-9.72-6a2,2,0,0,0,2.68,1.65,3,3,0,0,1,3.3,2.32,2.42,2.42,0,0,0,3.74,2Z" transform="translate(-0.1 -0.54)"/><path class="cls-78" d="M19.1,19.55c3.74,6.21-3.76,11.52-8.67,7.4a2,2,0,0,0,2.39-2,3,3,0,0,1,3.23-2.42,2.43,2.43,0,0,0,3.05-2.95Z" transform="translate(-0.1 -0.54)"/><path class="cls-78" d="M19.1,19.55c7.06-1.64,9.79,7.14,4.35,10.54a2,2,0,0,0-1.19-2.9A3,3,0,0,1,21,23.36a2.43,2.43,0,0,0-1.86-3.81Z" transform="translate(-0.1 -0.54)"/><path class="cls-78" d="M19.1,19.55c.62-7.23,9.81-7.09,11.37-.88a2,2,0,0,0-3.13.23,3,3,0,0,1-4,.06,2.43,2.43,0,0,0-4.2.59Z" transform="translate(-0.1 -0.54)"/><polygon class="cls-4" points="18.64 12.73 18.26 13.32 18.12 12.62 17.45 12.45 18.06 12.11 18.02 11.41 18.53 11.88 19.18 11.63 18.89 12.27 19.33 12.8 18.64 12.73 18.64 12.73"/><polygon class="cls-4" points="12.91 17.41 13.35 17.95 12.66 17.87 12.29 18.45 12.15 17.77 11.47 17.6 12.08 17.25 12.04 16.56 12.56 17.03 13.2 16.77 12.91 17.41 12.91 17.41"/><polygon class="cls-4" points="15.6 24.3 16.25 24.05 15.96 24.68 16.4 25.22 15.71 25.14 15.33 25.73 15.19 25.04 14.52 24.87 15.13 24.52 15.09 23.83 15.6 24.3 15.6 24.3"/><polygon class="cls-4" points="22.99 23.88 22.94 23.18 23.46 23.65 24.11 23.4 23.81 24.04 24.26 24.57 23.57 24.49 23.19 25.08 23.05 24.39 22.38 24.22 22.99 23.88 22.99 23.88"/><polygon class="cls-4" points="24.86 16.72 24.19 16.55 24.8 16.2 24.76 15.51 25.27 15.98 25.92 15.72 25.63 16.36 26.07 16.9 25.38 16.82 25 17.41 24.86 16.72 24.86 16.72"/><path class="cls-4" d="M19.14,19.47a3.62,3.62,0,0,1-1.74-2.3,4.39,4.39,0,0,1,.51-3.5l-.15-.09a4.58,4.58,0,0,0-.52,3.63,3.78,3.78,0,0,0,1.82,2.41l.08-.15Z" transform="translate(-0.1 -0.54)"/><path class="cls-4" d="M19,19.49a3.68,3.68,0,0,1-2.74,1,4.38,4.38,0,0,1-3.16-1.58L13,19a4.58,4.58,0,0,0,3.28,1.62,3.82,3.82,0,0,0,2.87-1L19,19.49Z" transform="translate(-0.1 -0.54)"/><path class="cls-4" d="M19,19.59a3.74,3.74,0,0,1,0,2.89A4.39,4.39,0,0,1,16.61,25l.06.15a4.54,4.54,0,0,0,2.57-2.62,3.82,3.82,0,0,0-.07-3l-.14.08Z" transform="translate(-0.1 -0.54)"/><path class="cls-4" d="M19.11,19.63a3.68,3.68,0,0,1,2.77.85,4.4,4.4,0,0,1,1.64,3.13h.17A4.56,4.56,0,0,0,22,20.35a3.76,3.76,0,0,0-2.89-.88l0,.16Z" transform="translate(-0.1 -0.54)"/><path class="cls-4" d="M24.36,16.44a4.52,4.52,0,0,0-3.61.62A3.75,3.75,0,0,0,19,19.54l.16,0a3.68,3.68,0,0,1,1.66-2.37,4.33,4.33,0,0,1,3.48-.6l0-.16Z" transform="translate(-0.1 -0.54)"/><polygon class="cls-4" points="5.55 28.82 5.93 29.4 5.25 29.24 4.82 29.79 4.75 29.09 4.09 28.84 4.74 28.57 4.77 27.87 5.23 28.39 5.9 28.21 5.55 28.82 5.55 28.82"/><polygon class="cls-4" points="32.52 28.82 32.12 29.4 32.81 29.25 33.24 29.8 33.31 29.11 33.97 28.86 33.32 28.58 33.3 27.88 32.84 28.4 32.16 28.21 32.52 28.82 32.52 28.82"/><path class="cls-4" d="M7.9,33.72c.24.15.3.1.44-.11l.86-1.23c.15-.21.13-.26-.07-.43l0-.05.78.55,0,0c-.22-.13-.28-.12-.42.08l-.38.55.85.6.38-.55c.15-.2.13-.26-.06-.43l0,0,.79.55,0,.06c-.23-.14-.29-.13-.43.07l-.88,1.26c-.13.18-.14.26.08.43l0,0L9,34.57l0-.06c.24.16.3.11.45-.1l.38-.55L9,33.26l-.4.58c-.13.19-.14.26.06.43l0,0-.78-.55,0-.05Z" transform="translate(-0.1 -0.54)"/><path class="cls-4" d="M10.92,34.47a1.12,1.12,0,0,1,1.53-.61,1.19,1.19,0,0,1-1,2.16,1.12,1.12,0,0,1-.53-1.55Zm1.7.78c.33-.72.1-1.13-.22-1.28s-.78,0-1.11.66-.13,1.11.21,1.28.8,0,1.12-.66Z" transform="translate(-0.1 -0.54)"/><path class="cls-4" d="M16.07,35.17c-.22,0-.33-.05-.42.34l-.47,1.76-.06,0-1-2.21h0l-.35,1.3c-.08.34,0,.43.21.51l0,.06-.79-.2,0-.07c.26,0,.35,0,.44-.34L14,34.82c-.1-.19-.14-.23-.28-.26V34.5l.57.15.87,1.94h0l.29-1.12c.1-.38,0-.43-.21-.51V34.9l.79.21,0,.06Z" transform="translate(-0.1 -0.54)"/><path class="cls-4" d="M18.65,36.46c-.14,0-.23,0-.25.25l0,.69a1.58,1.58,0,0,1-.87.18,1.34,1.34,0,0,1-.93-.44,1.09,1.09,0,0,1-.22-.88A1.16,1.16,0,0,1,17.6,35.2a3.4,3.4,0,0,1,.61.16s.14,0,.16-.1h.08l0,.74h-.07a.79.79,0,0,0-.72-.65c-.32,0-.85.15-.91,1a.91.91,0,0,0,.81,1.09c.23,0,.48-.05.49-.17l0-.56c0-.28,0-.29-.28-.33v-.06l.88.07v.06Z" transform="translate(-0.1 -0.54)"/><path class="cls-4" d="M21.48,35.14l.9-.11v.07c-.2,0-.27,0-.48.32l-.57.73.9.75c.26.23.39.34.59.31v.07l-1,.13v-.07c.17,0,.23,0,.22-.12s-.38-.41-.51-.51l-.42-.32-.07.08.07.65c0,.23.09.28.35.26v.07l-1,.12V37.5c.27,0,.3-.1.27-.38l-.18-1.48c0-.27-.11-.28-.36-.27V35.3l1-.12v.07c-.27,0-.31.09-.27.34l.08.71c.69-.79.78-.9.76-1s-.08-.09-.24-.07v-.07Z" transform="translate(-0.1 -0.54)"/><path class="cls-4" d="M22.94,36.08a1.1,1.1,0,0,1,.74-1.46,1.19,1.19,0,1,1-.74,1.46Zm1.79-.53c-.23-.75-.68-.91-1-.81s-.63.48-.41,1.23.65.93,1,.81.62-.5.41-1.23Z" transform="translate(-0.1 -0.54)"/><path class="cls-4" d="M27.26,33.21c-.18.11-.27.18-.1.55L28,35.38l-.05,0-2.21-1h0l.61,1.21c.16.32.26.35.49.25l0,.06-.73.36,0-.06c.22-.13.26-.21.09-.54l-.68-1.36c-.2-.1-.26-.09-.39,0l0-.07.54-.26,1.92.89h0l-.52-1c-.18-.35-.28-.34-.49-.24l0-.07.72-.36,0,.06Z" transform="translate(-0.1 -0.54)"/><path class="cls-4" d="M30.06,32.47c-.11.1-.19.16,0,.36l.41.55a1.46,1.46,0,0,1-.51.7,1.31,1.31,0,0,1-1,.29,1.08,1.08,0,0,1-.74-.51,1.14,1.14,0,0,1,.25-1.63A2.07,2.07,0,0,1,29,32s.1-.11.06-.19l.06-.05.46.57-.06,0a.78.78,0,0,0-1,0c-.26.2-.54.68,0,1.38a.89.89,0,0,0,1.32.27c.2-.14.34-.34.27-.44l-.34-.45c-.17-.22-.23-.19-.43-.06l0,0,.71-.52,0,0Z" transform="translate(-0.1 -0.54)"/><path class="cls-4" d="M4.18,24.21a.35.35,0,0,0-.1-.15C4,24,4,24,4,23.94a.11.11,0,0,0-.08,0l-.35.13L3,24.22H3l-.15-.51h0l.15,0s.07,0,0-.1a.64.64,0,0,0-.1-.16c-.06-.06-.11-.09-.15-.07l-.35.12-.31.08a.2.2,0,0,1-.19,0H2l0,0-.12.29a.08.08,0,0,0,0,0l0,0,.24.12h0l.13.47h0l-.36.11a.12.12,0,0,1-.15-.06h0s0,0,0,0V25l.27-.1.4-.12h0l.13.43h0l-.06.46.34-.14.54-.16.38-.09s0,0,0,0,0,0,0,0l-.08-.14A.59.59,0,0,0,3.46,25s0,0-.08,0l-.09,0h0l-.14-.47h0l.54-.16s.46-.12.46-.11l0,0v0Zm-1.92.23h0l-.14-.5h0l.69-.21h0l.15.5H3l-.7.21Zm1,.61v0h0l-.69.2h0l-.14-.47h0l.68-.21h0l.14.46Z" transform="translate(-0.1 -0.54)"/><path class="cls-78" d="M1.32,20.84h0v0Z" transform="translate(-0.1 -0.54)"/><path class="cls-4" d="M2.58,20.74h0v0Z" transform="translate(-0.1 -0.54)"/><path class="cls-78" d="M2.94,20.84h0Z" transform="translate(-0.1 -0.54)"/><path class="cls-78" d="M2.15,21Z" transform="translate(-0.1 -0.54)"/><path class="cls-4" d="M1.73,20.74h0v0Z" transform="translate(-0.1 -0.54)"/><polygon class="cls-4" points="0.81 19.25 0.81 19.25 0.82 19.25 0.81 19.25 0.81 19.25"/><polygon class="cls-4" points="0.87 19.23 0.87 19.23 0.87 19.23 0.87 19.23 0.87 19.23"/><polygon class="cls-4" points="1.13 17.82 1.13 17.82 1.13 17.82 1.13 17.82 1.13 17.82"/><path class="cls-4" d="M1.54,19.48a0,0,0,0,0,0,0,.5.5,0,0,0,0-.16.4.4,0,0,0,0-.12.07.07,0,0,0-.06,0H1.27v-.78H1.22l-.2.27a0,0,0,0,0,0,0,0,0,0,0,0,0,0l.19.15h0v.27H1L1,19h0l0,0-.14.44h.45v.38H1c0-.07-.05-.08-.05-.09h0l0,0-.12.43h.43v.72l.09-.08a.81.81,0,0,1,0-.2v-.44h.29s0,0,0-.06a.56.56,0,0,0,0-.15c0-.09,0-.11,0-.12H1.27v-.38h.27Z" transform="translate(-0.1 -0.54)"/><polygon class="cls-4" points="0.81 18.51 0.81 18.51 0.81 18.5 0.81 18.51 0.81 18.51"/><polygon class="cls-4" points="1.97 17.79 1.97 17.79 1.97 17.79 1.97 17.79 1.97 17.79"/><path class="cls-4" d="M3.49,19.61c0-.05,0-.12-.09-.12H2.89V18.34s0,0,0,0a0,0,0,0,0,0,0l-.23.26,0,0s0,0,0,0l.21.18h0v.64H2.55v-1h0l0,0-.21.25s0,0,0,0,0,0,0,0l.18.13H2.11v-.61s0,0,0,0h0l-.22.26s0,0,0,0,0,0,0,0l.19.15h0V19H1.69v-.48s0,0,0,0,0,0,0,0l-.23.25a.05.05,0,0,0,0,0s0,0,0,0l.21.16h0v1.88l.08-.08a.33.33,0,0,1,0-.19v-.12h.36V21L2.15,21a.77.77,0,0,1,0-.25v-.26h.38v.39l.09-.08a1.39,1.39,0,0,1,0-.27v-.62h.29v1.07l.08-.09a1.15,1.15,0,0,1,0-.22v-.76h.63s0,0,0,0a.68.68,0,0,0,0-.21Zm-1.8-.12V19.3h.37v.19H1.69Zm.36.6H1.69v-.23h.37v.23Zm.06-.6V19.3h.38v.19H2.11Zm.36.6H2.11v-.23h.38v.23Z" transform="translate(-0.1 -0.54)"/><path class="cls-4" d="M2.59,14.79v0h0a3,3,0,0,0,.94,0,1.9,1.9,0,0,0,.84-.4A.47.47,0,0,1,4.23,14l0-.06,0-.05-.32.34a2.2,2.2,0,0,1-.37.23,1.94,1.94,0,0,1-.5.16,2.18,2.18,0,0,1-.52,0A4.41,4.41,0,0,1,2,14.54a.23.23,0,0,1-.13-.14.14.14,0,0,0,0-.1h0l-.3.46.14,0a5.66,5.66,0,0,1,.78.31,2.29,2.29,0,0,1,.81.6,1.76,1.76,0,0,1,.45.85h.06a2.52,2.52,0,0,0-.29-1.1,1.78,1.78,0,0,0-.84-.65h0Z" transform="translate(-0.1 -0.54)"/><polygon class="cls-4" points="4.94 11.43 4.94 11.43 4.94 11.43 4.94 11.43 4.94 11.43"/><polygon class="cls-4" points="5.42 8.87 5.42 8.87 5.43 8.87 5.42 8.87 5.42 8.87"/><path class="cls-4" d="M6.62,10.08a.1.1,0,0,0,0-.05s0,0-.09,0A1.19,1.19,0,0,1,6,9.8a.83.83,0,0,1-.16-.12l0,0a1.91,1.91,0,0,1,.29.43h0v0a.58.58,0,0,1-.26.15,1.13,1.13,0,0,1-.4.05,1,1,0,0,1-.35-.08H5l.51-.81s0,0,0,0h0l-.35.08s0,0,0,0v0h0l.1.29h0L5,10.28H5a1.67,1.67,0,0,1-.41-.16h0l.2-.31h0l.11.08s0,0,.08,0A1.36,1.36,0,0,0,5,9.66c0-.08,0-.14,0-.17l-.24-.13-.15-.09a.24.24,0,0,1-.08-.15h0v0h0l-.25.1,0,0a.09.09,0,0,0,0,.05l0,.26h0l-.57.88h0l-.37.27a3,3,0,0,1,.35.2L5,11.75a.09.09,0,0,1,0,.13A.08.08,0,0,0,5,12a0,0,0,0,0,0,0l.39,0a0,0,0,0,0,0,0,.07.07,0,0,0,0,0,1.71,1.71,0,0,1-.09-.54l0-.49H5.29c0,.15-.08.32-.14.49v0h0l-.58-.36h0l.27-.43h0a1.71,1.71,0,0,0,.36.1,1.88,1.88,0,0,0,.41,0,1.1,1.1,0,0,0,.4-.08,1.13,1.13,0,0,0,.37-.23,1.26,1.26,0,0,0,.2-.19l0,0a.15.15,0,0,0,0-.11Zm-2.57.65h0l-.39-.25h0v0l.62-1h0l.37.25h0l-.62,1Zm.71-.13L4.5,11h0l-.37-.24h0v0l.23-.35h0l.41.19h0v0Z" transform="translate(-0.1 -0.54)"/><polygon class="cls-4" points="7.58 4.99 7.58 4.99 7.59 4.99 7.58 4.99 7.58 4.99"/><path class="cls-4" d="M9.19,6.23s0,0,0,0h0l-.36,0,0,0,0,0,0,.31h0l-.19.16h0l-.48-.55h0l.53-.45,0,0h0s0,0,0,0l-.35,0h0a.06.06,0,0,0,0,0h0l0,.3h0L8,6.07H8l-.27-.31a.14.14,0,0,1,0-.15.08.08,0,0,0,0-.07s0,0,0,0l-.45.21A1.63,1.63,0,0,1,7.45,6l.31.36h0l-.26.21h0L7.2,6.23a.21.21,0,0,1,0-.19.1.1,0,0,0,0,0s0,0,0,0l-.45.21a1.72,1.72,0,0,1,.2.2l.33.38h0l-.48.42h.13A.74.74,0,0,1,7,7.05l.24-.22h0l.48.56h0l-.6.53h.13a.6.6,0,0,1,.15-.18L9.19,6.23Zm-1.66.38h0l.25-.23h0l.48.56h0L8,7.16H8l-.49-.55Z" transform="translate(-0.1 -0.54)"/><path class="cls-4" d="M8.36,7.36l-.42,0A2.86,2.86,0,0,1,7.79,8.7l.06,0A2.89,2.89,0,0,0,8.32,7.5h0l.07-.08s0,0,0,0Z" transform="translate(-0.1 -0.54)"/><path class="cls-4" d="M9.61,7.16A.35.35,0,0,0,9.53,7a.55.55,0,0,0-.46-.16,1.91,1.91,0,0,0-.75.26l0,.06a1.58,1.58,0,0,1,1,.14.17.17,0,0,0,.2,0,.13.13,0,0,0,0-.13Z" transform="translate(-0.1 -0.54)"/><polygon class="cls-4" points="10.68 3.94 10.67 3.94 10.67 3.94 10.68 3.94 10.68 3.94"/><polygon class="cls-4" points="11.84 5.19 11.84 5.19 11.84 5.19 11.84 5.19 11.84 5.19"/><path class="cls-4" d="M13.45,4.55l-.19-.42-.4-.85a.11.11,0,0,1,0-.11.09.09,0,0,0,0-.08l0,0L12.61,3h-.07a.08.08,0,0,0,0,0h0l-.08.21h0l-.25.12h-.42a2.51,2.51,0,0,1,.11.23l.08.19,0,0h0l-.22-.08,0,0a.11.11,0,0,0,0,0L11.61,4h0l0,0h0l-.19-.42v0h0l.24-.17s.05,0,.07,0l.08,0a.06.06,0,0,0,.06,0v0l0,0-.39-.18a4.2,4.2,0,0,1-.84,1l0,0,.47-.27h0l.17.36v0h0l-.55.26.1,0L11,4.35l.14-.06h0v0a3.93,3.93,0,0,1,0,1.33h0a2.41,2.41,0,0,0,.28-.86h0l.28.61s.13.32.14.32v0s0,0,.07,0,.09,0,.14-.11a.38.38,0,0,0,.09-.11.25.25,0,0,0,0-.07l0-.06L12,5l-.29-.62h0l.1.06a.56.56,0,0,1,.16.15q.08.11.15.06a.14.14,0,0,0,.06-.07.12.12,0,0,0,0-.1v0h0l.18.39.16.37a.15.15,0,0,0,0,.06h0l.11-.09a.5.5,0,0,0,.1-.13.1.1,0,0,0,0-.09l-.11-.24h0l.28-.13h0l.12.29s0,0,0,0h0s.09-.06.16-.14.07-.14,0-.18Zm-1.28-.29h0v0c-.07-.09-.23-.1-.49,0h0v0l-.07-.13v0h0L12,3.9h0l.16.36Zm.86.25-.29.13h0l-.53-1.18h0l.29-.14h0L13,4.49v0Z" transform="translate(-0.1 -0.54)"/><polygon class="cls-4" points="11.59 3.18 11.59 3.18 11.59 3.18 11.59 3.18 11.59 3.18"/><path class="cls-4" d="M17.89,3.58l-.26-1.8h0l.09-.08s0,0,0-.05,0,0,0,0l-.26-.16h0a.05.05,0,0,0,0,0l-.15.22h0l-1.42.2h0l-.43-.13c0,.13,0,.24.05.3l.27,1.87,0,.4a.05.05,0,0,0,0,0h0l.15-.07c.08,0,.11-.06.11-.07a.07.07,0,0,0,0-.06L16,4h0l1.53-.21h0v.08l0,.18a0,0,0,0,0,0,0h0L17.84,4c.08,0,.11-.08.1-.14l-.05-.28Zm-.54-1.37h0l0,.21v0h0L17,2.34a3,3,0,0,1,0,.42h0c0-.08-.05-.23-.09-.47v0h0l.46-.07ZM17,1.76l.26,0h0l0,.33v0h0L17.23,2h0a.25.25,0,0,0,0-.08.13.13,0,0,0-.08-.1A.25.25,0,0,0,17,1.79h0v0Zm-.33.06h0l.2,0h0l0,0,0,0A.2.2,0,0,1,17,2c0,.07,0,.11.07.12h0L17,2.19h0l-.15,0h0l0-.22h0c0-.05.05-.07,0-.09a0,0,0,0,0,0,0l-.19,0h0l0,0Zm-.89.54L15.73,2h0l.73-.1h0l0,.16,0,.25h0l-.74.11h0v0ZM17.56,3.7,16,3.93h0v0L16,3.52h0l.08.11a.18.18,0,0,1,.06.1l0,0s.05,0,.06-.06a.42.42,0,0,1,.11-.13l.39-.31v0a6.51,6.51,0,0,1-.74.21h0v0l-.14-1v0l0,0,.06,0a.52.52,0,0,1,.18-.06l.5-.07h0l0,.2v0l0,0-.15-.11h0s0,0,0,0h0l-.09.12h-.11l-.28-.08a1,1,0,0,1,0,.2L16,3l0,.23a.08.08,0,0,0,0,.06h0l.1,0c.08,0,.1,0,.1-.06V3.1h.09v.12s0,0,0,0h0l.14-.06c.05,0,.08-.07.07-.11l0-.13,0-.26h0l0,0,0,0v0a2,2,0,0,0,.17.56h0a2.54,2.54,0,0,1-.51.59l0,0a1.86,1.86,0,0,0,.62-.43h0v0a.74.74,0,0,0,.25.22.33.33,0,0,0,.21.05q.11,0,.09-.09l0-.12a.74.74,0,0,1-.05-.19q0-.1,0-.36h0a2.37,2.37,0,0,1,0,.32,0,0,0,0,1,0,0h-.06a.43.43,0,0,1-.09-.11h0a2.34,2.34,0,0,0,.18-.5h0l.06-.06h0v0l.17,1.14h0ZM16.35,3h-.09V3l-.06-.35v0h.09v0l.06.35Z" transform="translate(-0.1 -0.54)"/><polygon class="cls-4" points="16.33 1.89 16.33 1.89 16.33 1.89 16.33 1.89 16.33 1.89"/><polygon class="cls-4" points="15.79 1.91 15.78 1.91 15.78 1.91 15.79 1.91 15.79 1.91"/><polygon class="cls-4" points="16.33 1.89 16.33 1.89 16.33 1.89 16.33 1.89 16.33 1.89"/><polygon class="cls-4" points="22.42 1.43 22.42 1.43 22.42 1.43 22.42 1.43 22.42 1.43"/><path class="cls-4" d="M21.9,2.45l0,0h0l.89.12h0a.11.11,0,0,0,0,0l-.22-.28h0s0,0,0,0l-.23.2h0l-.54-.08h0l0-.3h.32a1.29,1.29,0,0,1,.29,0h.11s0,0,0,0,0,0,0,0l-.25-.32a8.56,8.56,0,0,1-1.69.19v0c.23,0,.51.07.86.1h0V2l0,.28h0l-1.13-.16.06.1a.78.78,0,0,1,.3,0L21,2.3h0v0a3,3,0,0,1-1,.75l0,0a2.3,2.3,0,0,0,.64-.21h0l0,.31-.09.57,0,.24v0a.11.11,0,0,0,.09,0h.19c.08,0,.09,0,.1,0V3.88h0L21.7,4h0l0,.21s0,0,.06,0a.42.42,0,0,0,.19,0c.09,0,.1,0,.1-.06l0-.25.08-.58a.06.06,0,0,1,.05-.06l0,0v0h0a.68.68,0,0,0,.21.15c.07-.09.12-.16.17-.18a.24.24,0,0,1,.17,0h0V3.12a2.5,2.5,0,0,1-.94-.67Zm-.13,1.12-.05.33v0h0L21,3.82h0v0l.05-.33v0h0l.7.09h0v0Zm.05-.4,0,.32h0l-.7-.1h0v0l.05-.31v0h0l.69.09h0v0ZM22,3h0L22,3h0l-.14.1h0L21.15,3h0l-.2-.16h0a1.14,1.14,0,0,0,.4-.35h0l0,.17L21.29,3h0l.05,0a.72.72,0,0,0,.2,0c.1,0,.12,0,.12-.06l0-.25,0-.22h0A1.23,1.23,0,0,0,22,3h0Z" transform="translate(-0.1 -0.54)"/><path class="cls-78" d="M26.79,5.56h0v0Z" transform="translate(-0.1 -0.54)"/><polygon class="cls-4" points="27.38 3.47 27.38 3.47 27.38 3.47 27.38 3.47 27.38 3.47"/><polygon class="cls-4" points="27.29 3.97 27.29 3.97 27.29 3.97 27.29 3.97 27.29 3.97"/><path class="cls-4" d="M27.38,3.78s0,0,0,0h-.05l-.2.09h0l-.05,0h0l.11-.25a.1.1,0,0,1,.09,0l.06,0s0,0-.05-.06L27,3.2l-.09.2-.12.26h0l-.17-.08h0l.11-.25a.12.12,0,0,1,.08,0l.06,0s0,0-.06-.06l-.29-.25-.09.23-.12.26v0h0l-.29-.13,0,.11a.53.53,0,0,1,.19.05l.05,0h0L26,3.87v0h0l-.32-.15h0v0l.22-.23,0,0c-.18.16-.36.3-.52.42a1,1,0,0,1-.35.18.35.35,0,0,1-.17,0l-.09,0,0,0c.09.08.14.13.15.18a.17.17,0,0,1,0,.14,1.31,1.31,0,0,1-.12.19.52.52,0,0,0-.12.16.37.37,0,0,0,0,.21c0,.1.07.15.13.17s.15,0,.21-.13A.85.85,0,0,0,25,4.68a.84.84,0,0,1,.05-.18h0a1.29,1.29,0,0,0,.56-.08h0v0L25.43,5a.21.21,0,0,0,0,.19.33.33,0,0,0,.18.21,2.85,2.85,0,0,0,.3.16,2.39,2.39,0,0,0,.55.19.37.37,0,0,0,.32-.16.37.37,0,0,1-.11-.24,1.77,1.77,0,0,1,0-.2l0,0-.08.11a.38.38,0,0,1-.12.13.22.22,0,0,1-.16,0,1.15,1.15,0,0,1-.27-.1c-.14-.07-.23-.11-.25-.15a.12.12,0,0,1,0-.13l.1-.22h0l.31.14h0l0,.09h0a.08.08,0,0,0,0,0,.54.54,0,0,0,.19,0c.11,0,.14,0,.14,0l.07-.15v0a.86.86,0,0,0,.21.27.39.39,0,0,1,.36-.11l0,0a1.17,1.17,0,0,1-.55-.74v0h0l.62.29h0v0s0,0,0,0-.14-.29-.14-.29,0,0,0,0h0L27,4.31h0l-.11,0h0L27,3.88v0h0l.39.18h.06V4s-.1-.23-.1-.23Zm-2.2.6h0l0,0a3.28,3.28,0,0,1,.48-.59v0l0,0a.3.3,0,0,1,.14,0l.1,0h0v0a1.75,1.75,0,0,1-.76.45Zm1.22.18-.14.28h0l-.31-.15h0v0l.13-.28h0l.31.14h0Zm.19-.34a1,1,0,0,0,0,.23h0l-.15,0h0l-.3-.14h0L26,4.26h0l.25-.16h0l.28.13h0v0Zm.11-.48-.16.37h0L26.35,4h0V4l.17-.36h0l.17.08h0Z" transform="translate(-0.1 -0.54)"/><path class="cls-4" d="M25.62,3.07q0,.17.06.21a.14.14,0,0,0,.15,0,.34.34,0,0,0,.13-.1c0-.12-.08-.3-.37-.54l0,0,.06.13a.58.58,0,0,1,0,.3Z" transform="translate(-0.1 -0.54)"/><path class="cls-4" d="M25.19,3.41a1.28,1.28,0,0,0,0,.26.1.1,0,0,0,.05.06.15.15,0,0,0,.14,0,.29.29,0,0,0,.13-.14.3.3,0,0,0,0-.19,1.38,1.38,0,0,0-.31-.32h0a.71.71,0,0,1,0,.34Z" transform="translate(-0.1 -0.54)"/><polygon class="cls-78" points="31.25 6.98 31.25 6.98 31.25 6.98 31.25 6.98 31.25 6.98"/><path class="cls-4" d="M31,7.84h0Z" transform="translate(-0.1 -0.54)"/><polygon class="cls-78" points="31.34 5.76 31.34 5.76 31.34 5.77 31.34 5.76 31.34 5.76"/><polygon class="cls-78" points="31.43 6.49 31.43 6.49 31.43 6.49 31.43 6.49 31.43 6.49"/><path class="cls-4" d="M31.49,6.72a0,0,0,0,0,0,0s0,0,0,0h0l-.23,0h0l-.13-.11h0l.21-.24h0l.09,0s0,0,0,0,0,0,0-.05l-.25-.38L31,6.2l-.15.17v0h0l-.38-.33v.13a.35.35,0,0,1,.15.09l.18.15h0l-.27.31h0l-.41-.36v.12a1,1,0,0,1,.17.1l.42.36h0l-.11.17-.12.13h0l-.65-.55v.11a1,1,0,0,1,.16.1l.44.39h0l-.45.52,0,0a.1.1,0,0,1-.08,0,1,1,0,0,1-.22-.25l0,0a.51.51,0,0,1,.09.18.34.34,0,0,1,0,.15,1,1,0,0,1-.1.16l.18.08.16,0a.24.24,0,0,0,.21-.09l.5-.59h0l.36.31h0a0,0,0,0,1,0,0l0-.31s0,0,0,0h0l-.21.08h0l-.05,0h0l.1-.13h0a.33.33,0,0,0,.12,0v0L30.67,7h0l.62.54h0s0-.34,0-.34l0,0h0L31,7.2h0L30.76,7h0L31,6.66h0l.44.38s0,0,0,0,0,0,0,0,0-.31,0-.31Z" transform="translate(-0.1 -0.54)"/><polygon class="cls-4" points="30.58 5.14 30.58 5.14 30.58 5.14 30.58 5.14 30.58 5.14"/><polygon class="cls-4" points="30.03 6.14 30.02 6.14 30.02 6.15 30.03 6.14 30.03 6.14"/><path class="cls-4" d="M29.75,6.63h0l.38,0v0l-.28-.11h0l.24-.27h0l.23.21s0,0,0,0,0,0,0,0V6.16s0,0,0,0,0,0,0,0h0l-.16.07h0l.38-.43h0l.1,0h0a0,0,0,0,0,0,0l-.25-.4-.16.21-.1.11h0L30,5.32a3.57,3.57,0,0,1-.93.74v0a2.67,2.67,0,0,0,.64-.19h0l.09.08h0l-.33.37h0L29,6.18l-.12.35s0,0,0,0,0,0,.07,0h.13l.23,0h0l0,0L29,7l-.22.25a.05.05,0,0,0,0,0,.05.05,0,0,0,0,0,.43.43,0,0,0,.17.09c.08,0,.14,0,.17,0l.21-.26.44-.51Zm.05-.74,0,0h0l.2-.16h.08l0,0-.18.2h0l-.06-.05Z" transform="translate(-0.1 -0.54)"/><path class="cls-4" d="M29.68,7.55a.16.16,0,0,0,.15,0A.21.21,0,0,0,30,7.52.22.22,0,0,0,30,7.35.84.84,0,0,0,29.9,7h0a.53.53,0,0,1-.16.35c-.07.07-.07.14,0,.19Z" transform="translate(-0.1 -0.54)"/><polygon class="cls-78" points="34.32 10.01 34.32 10.01 34.32 10.02 34.32 10.01 34.32 10.01"/><path class="cls-4" d="M34.85,10.41a1.45,1.45,0,0,1-.24.2l-1.59,1c-.05,0-.08,0-.12,0a2.28,2.28,0,0,1-.15-.33l0,0a.82.82,0,0,1,0,.27c0,.07-.07.14-.19.23.22.21.4.26.56.16l1.65-1.06a.12.12,0,0,1,.15,0h0s0,0,0,0l-.13-.46Z" transform="translate(-0.1 -0.54)"/><path class="cls-4" d="M34.23,10.09h0Z" transform="translate(-0.1 -0.54)"/><path class="cls-4" d="M33.15,10.7h0l.11,0h0s0,0,0,0l0-.29a.08.08,0,0,0,0,0l-.05,0-.21-.06h0L33,10.12h0l.16-.08h0l.09.05h0s0,0,0,0l-.09-.34h0l0,0h0l.24.39h0l-.15.09,0,0a.08.08,0,0,0,0,0l.11.1.12.09h0l.18-.13.25-.16a.18.18,0,0,1,.17,0h.05l0,0s0-.3,0-.3,0,0,0,0a.05.05,0,0,0,0,0l-.23,0h0l-.18-.3h0l-.08-.44-.23.17-.39.25-.28.17,0,0v0l.14.15h0l-.17.11a1.61,1.61,0,0,1-.6.24,1.89,1.89,0,0,1-.67,0l0,.05a1.85,1.85,0,0,0,1.38.06h0l.15.22h0a4.76,4.76,0,0,1-.45.24,1.08,1.08,0,0,1-.27.11.08.08,0,0,1-.07,0,2.33,2.33,0,0,1-.12-.33h0a.51.51,0,0,1,0,.27.36.36,0,0,1-.14.13,1.53,1.53,0,0,1,.13.16l.15.1a.23.23,0,0,0,.15,0,1.23,1.23,0,0,0,.3-.1l.49-.26Zm.15-1.09.44-.28h0l.24.38h0l-.44.28h0l-.25-.38h0Z" transform="translate(-0.1 -0.54)"/><path class="cls-4" d="M34.29,10.05Z" transform="translate(-0.1 -0.54)"/><path class="cls-4" d="M34.4,10.59s0,0,0,0l-.12-.42-.12.09-.12.09-.84.54-.31.18,0,0a.06.06,0,0,0,0,0l.13.1c.08.06.14.08.18,0l.24-.16.77-.5a.11.11,0,0,1,.15,0h0Z" transform="translate(-0.1 -0.54)"/><path class="cls-4" d="M35.14,14.39a.14.14,0,0,1,.16,0s0,0,0,0v0l0-.15v0h0a1,1,0,0,0,.2.07h0a.27.27,0,0,1,.15.15s0,0,0,0a.05.05,0,0,0,0,0l.13-.43v0h0q.29.14.33.24s0,0,0,0,0,0,0-.05l.12-.4a2.33,2.33,0,0,1-1.08-.35l0,.05a2.74,2.74,0,0,0,.54.44h0a3.28,3.28,0,0,1-1.37-.37l0,.05a2.31,2.31,0,0,0,.45.35l0,0h0l-.75.22-.33.08h0a.14.14,0,0,0,0,.09.44.44,0,0,0,.1.17c.06.07.08.07.09.07l.3-.1.83-.24Z" transform="translate(-0.1 -0.54)"/><path class="cls-4" d="M36.73,15.31s0,0,0,0l-.25-.11h0l-.24-.83-.07.1a.68.68,0,0,1,.11.21l.28.95a.31.31,0,0,0,0,.07h0s0,0,0,0l.14-.26a.11.11,0,0,0,0,0Z" transform="translate(-0.1 -0.54)"/><path class="cls-4" d="M36.12,15.7l-.25-.13h0l-.34-1.16-.07.1a1,1,0,0,1,.11.23l.14.46h0l-1,.31a.08.08,0,0,1-.08,0,.1.1,0,0,1,0,0s0-.17-.06-.4h0a.52.52,0,0,1-.28.51c.14.25.29.36.45.32l1.2-.36h0l.14.49s0,0,0,0h0s0,0,0,0l.15-.27a.08.08,0,0,0,0,0l0,0Z" transform="translate(-0.1 -0.54)"/><polygon class="cls-4" points="37.11 19.73 37.11 19.73 37.11 19.73 37.11 19.73 37.11 19.73"/><path class="cls-4" d="M36.25,19.62h0l.13-.11a.08.08,0,0,0,0,0h0l-.17-.12,0,0h.68v.37h0l.27-.25a0,0,0,0,0,0,0l0,0-.23-.19h0v-.85l-.08.08c0,.09,0,.15,0,.18V19H35.42l0-.1v0h.85a.1.1,0,0,1,.09,0s0,0,.05,0a0,0,0,0,0,0,0l.14-.4H35.35l0-.25-.36.16c-.06,0-.06,0-.06,0s0,0,0,.05l.07,0s0,0,.08.17.1.22.16.38l.27.7.07,0-.1-.49h.67v.29h0l-.48-.19v0a1.74,1.74,0,0,0,.44.35h0a2.59,2.59,0,0,0-.6.1h0a2.61,2.61,0,0,1-.76-1l0,0a2.42,2.42,0,0,0,.55,1.16h0a3.14,3.14,0,0,0-.46.44A.54.54,0,0,1,35,21h0a1.47,1.47,0,0,1,.4-.71h0a2.23,2.23,0,0,0,.79.25h0a.22.22,0,0,1,.14.13h0s0,0,0,0h0l0-.13h0V21s0,0,0,0h0l.26-.29a0,0,0,0,0,0,0s0,0,0,0h0l-.23-.19h0v-.35h0l.22.07.25.06a.09.09,0,0,1,.06.07s0,0,0,0,0,0,0,0l.17-.45a6.41,6.41,0,0,1-1.13-.21Zm.28.63a3.47,3.47,0,0,1-.78-.09h0l0,0a1.35,1.35,0,0,1,.48-.22h0l.29.14h0v.18Z" transform="translate(-0.1 -0.54)"/><polygon class="cls-4" points="35.85 25.3 35.85 25.3 35.85 25.3 35.85 25.3 35.85 25.3"/><polygon class="cls-4" points="33.79 24.84 33.79 24.84 33.79 24.84 33.79 24.84 33.79 24.84"/><path class="cls-4" d="M36.46,23.62l-1.68-.49a.18.18,0,0,1-.11-.16s0,0,0,0h0l-.28.17a.05.05,0,0,0,0,0s0,0,0,.06h0l.1.19h0l-.58,1.94s0,0,0,0h0l.29-.18s0,0,0,0a0,0,0,0,0,0,0L34,24.93h0l.44-1.51h0l2,.57h0v0l-.54,1.85s0,0,0,0h0l.32-.19s0,0,0,0a.08.08,0,0,0,0,0l-.17-.24h0l.38-1.28h0l.29-.35-.33-.08Z" transform="translate(-0.1 -0.54)"/><polygon class="cls-4" points="35.68 24.89 35.68 24.89 35.68 24.89 35.68 24.89 35.68 24.89"/><path class="cls-4" d="M36,25.24a0,0,0,0,0,0,0l-.11-.2h0l.11-.4h0l.26-.33-.24-.05-.25-.08L35.57,24h0v0a1.09,1.09,0,0,0,0,.17c0,.07,0,.15,0,.15h.05l-.14.49h0l-.1,0h0l0,0a.46.46,0,0,0,0,.15c0,.1,0,.13,0,.14s0,0,0,0l.12,0,.21.06h0l0,.1h0a0,0,0,0,0,0,0l.22-.16a0,0,0,0,0,0,0ZM35.84,25h0l-.32-.09h0v0l.15-.48v0h0l.32.1h0l-.14.48Z" transform="translate(-0.1 -0.54)"/><polygon class="cls-4" points="34.87 24.94 34.87 24.94 34.86 24.94 34.87 24.94 34.87 24.94"/><path class="cls-4" d="M35.1,25.1h0l0-.1h0l.23-.26-.11,0h0l0,0,.22-.17a0,0,0,0,0,0,0s0,0,0,0h0l-.13-.16h0l0-.13h0l.28-.28-.26-.07-.46-.14-.33-.1h0l0,0a.62.62,0,0,0,0,.18c0,.08,0,.13,0,.14l.17.05h0l0,.14h0l-.09,0-.13,0h0a.08.08,0,0,1,0,0,.57.57,0,0,0,0,.15.66.66,0,0,0,0,.14s0,0,0,0h0l.26.06.38.11h0l0,.1v0h0l-.49-.14-.29-.1h0s0,0,0,0a.51.51,0,0,0,0,.13.33.33,0,0,0,0,.12,0,0,0,0,0,0,0l.13.05h0l0,.13h0l-.09,0s0,0,0,0a.46.46,0,0,0,0,.15c0,.1,0,.13,0,.14l0,0,.19.05.33.09h0l0,.09s0,0,0,0h0l.24-.18,0,0s0,0,0,0l-.12-.16Zm-.32-1h0l0-.13h0l.49.14h0l0,.13h0l-.48-.15Zm.28.85,0,.12v0h0l-.49-.14h0v0l0-.12h0l.47.14h0Z" transform="translate(-0.1 -0.54)"/></svg>