<?xml version="1.0" encoding="utf-8"?>
<!-- Generator: Adobe Illustrator 22.1.0, SVG Export Plug-In . SVG Version: 6.00 Build 0)  -->
<svg version="1.1" id="Layer_1" xmlns="http://www.w3.org/2000/svg" xmlns:xlink="http://www.w3.org/1999/xlink" x="0px" y="0px"
	 viewBox="0 0 180 43" style="enable-background:new 0 0 180 43;" xml:space="preserve">
<style type="text/css">
	.st0{fill:#9A9A9A;}
	.st1{fill:#FEFEFE;}
	.st2{fill:#FFFFFF;}
</style>
<title>logo1</title>
<desc>Created with Sketch.</desc>
<g id="Symbols">
	<g id="Artboard-Copy-2" transform="translate(-41.000000, -349.000000)">
		<g id="Group-264" transform="translate(0.000000, 0.344506)">
			<path id="Fill-2" class="st0" d="M60.1,349.2c-10.5,0-19,8.6-19,19.1s8.5,19.1,19,19.1c10.5,0,18.9-8.6,18.9-19.1
				S70.6,349.2,60.1,349.2"/>
			<path id="Fill-4" class="st1" d="M60.1,387.2c-10.3,0-18.7-8.5-18.7-18.9c0-10.4,8.4-18.9,18.7-18.9c10.3,0,18.7,8.5,18.7,18.9
				C78.8,378.8,70.4,387.2,60.1,387.2"/>
			<path id="Fill-6" class="st0" d="M60.1,383.5c8.3,0,15-6.8,15-15.2c0-8.4-6.7-15.2-15-15.2c-8.3,0-15.1,6.8-15.1,15.2
				C45.1,376.7,51.8,383.5,60.1,383.5"/>
			<path id="Fill-8" class="st2" d="M60.1,368.3c-6.7-2.8-3.7-11.6,2.7-11.2c-1.3,0.7-1.5,1.9-0.7,3.1c0.8,1.3-0.1,3.4-1.2,3.9
				C59,365,58.6,367.2,60.1,368.3"/>
			<path id="Fill-10" class="st2" d="M60.1,368.3c-4.7,5.5-12.1,0-9.7-6c0.2,1.4,1.4,2,2.7,1.7c1.5-0.4,3.2,1.1,3.3,2.3
				C56.6,368.4,58.6,369.4,60.1,368.3"/>
			<path id="Fill-12" class="st2" d="M60.1,368.3c3.7,6.2-3.8,11.6-8.7,7.4c1.4,0.2,2.3-0.7,2.4-2c0.1-1.5,2-2.7,3.2-2.4
				C59,371.7,60.6,370.1,60.1,368.3"/>
			<path id="Fill-14" class="st2" d="M60.1,368.3c7-1.6,9.8,7.2,4.3,10.6c0.7-1.3,0.1-2.4-1.2-2.9c-1.4-0.6-1.9-2.8-1.3-3.8
				C63,370.4,62,368.4,60.1,368.3"/>
			<path id="Fill-16" class="st2" d="M60.1,368.3c0.6-7.3,9.8-7.1,11.3-0.9c-1-1-2.3-0.8-3.1,0.2c-1,1.2-3.2,1-4,0.1
				C62.9,366.2,60.7,366.6,60.1,368.3"/>
			<polygon id="Fill-18" class="st0" points="59.7,362 59.4,362.6 59.2,361.9 58.6,361.8 59.2,361.4 59.1,360.7 59.6,361.2 
				60.3,360.9 60,361.6 60.4,362.1 			"/>
			<polygon id="Fill-20" class="st0" points="54,366.7 54.5,367.3 53.8,367.2 53.4,367.8 53.3,367.1 52.6,366.9 53.2,366.6 
				53.2,365.9 53.7,366.4 54.3,366.1 			"/>
			<polygon id="Fill-22" class="st0" points="56.7,373.7 57.4,373.4 57.1,374.1 57.5,374.6 56.8,374.5 56.4,375.1 56.3,374.4 
				55.6,374.2 56.2,373.9 56.2,373.2 			"/>
			<polygon id="Fill-24" class="st0" points="64.1,373.2 64,372.5 64.5,373 65.2,372.8 64.9,373.4 65.4,373.9 64.7,373.9 
				64.3,374.4 64.1,373.8 63.5,373.6 			"/>
			<polygon id="Fill-26" class="st0" points="66,366 65.3,365.9 65.9,365.5 65.8,364.8 66.4,365.3 67,365 66.7,365.7 67.2,366.2 
				66.5,366.1 66.1,366.7 			"/>
			<path id="Fill-28" class="st0" d="M60.1,368.3c-0.8-0.4-1.5-1.3-1.7-2.3c-0.3-1.2-0.1-2.5,0.5-3.5l-0.1-0.1
				c-0.7,1.1-0.9,2.4-0.5,3.6c0.3,1.1,1,2,1.8,2.4L60.1,368.3z"/>
			<path id="Fill-30" class="st0" d="M60,368.3c-0.6,0.6-1.7,1-2.7,1c-1.2-0.1-2.4-0.6-3.2-1.6l-0.1,0.1c0.8,1,2,1.6,3.3,1.6
				c1.1,0.1,2.2-0.3,2.9-1L60,368.3z"/>
			<path id="Fill-32" class="st0" d="M60,368.4c0.4,0.8,0.4,1.9,0,2.9c-0.4,1.2-1.3,2.1-2.5,2.5l0.1,0.2c1.2-0.5,2.1-1.4,2.6-2.6
				c0.4-1.1,0.4-2.2-0.1-3L60,368.4z"/>
			<path id="Fill-34" class="st0" d="M60.1,368.4c0.9-0.1,1.9,0.2,2.8,0.8c1,0.8,1.6,1.9,1.6,3.1l0.2,0c-0.1-1.3-0.7-2.5-1.7-3.3
				c-0.9-0.7-1.9-1-2.9-0.9L60.1,368.4z"/>
			<path id="Fill-36" class="st0" d="M65.4,365.2c-1.2-0.3-2.5-0.1-3.6,0.6c-0.9,0.6-1.6,1.5-1.7,2.5l0.2,0c0.1-0.9,0.8-1.8,1.7-2.4
				c1-0.7,2.3-0.9,3.5-0.6L65.4,365.2z"/>
			<polygon id="Fill-38" class="st0" points="46.7,378.2 47.1,378.8 46.4,378.6 46,379.2 45.9,378.5 45.2,378.2 45.9,378 
				45.9,377.3 46.4,377.8 47,377.6 			"/>
			<polygon id="Fill-40" class="st0" points="73.6,378.2 73.2,378.8 73.9,378.6 74.3,379.2 74.4,378.5 75,378.3 74.4,378 
				74.4,377.3 73.9,377.8 73.2,377.6 			"/>
			<path id="Fill-42" class="st0" d="M48.9,382.6c0.2,0.2,0.3,0.1,0.4-0.1l0.9-1.2c0.1-0.2,0.1-0.3-0.1-0.4l0,0l0.8,0.6l0,0
				c-0.2-0.1-0.3-0.1-0.4,0.1l-0.4,0.5l0.9,0.6l0.4-0.5c0.1-0.2,0.1-0.3-0.1-0.4l0-0.1l0.8,0.6l0,0.1c-0.2-0.1-0.3-0.1-0.4,0.1
				l-0.9,1.3c-0.1,0.2-0.1,0.3,0.1,0.4l0,0.1l-0.8-0.6l0-0.1c0.2,0.2,0.3,0.1,0.4-0.1l0.4-0.6l-0.9-0.6l-0.4,0.6
				c-0.1,0.2-0.1,0.3,0.1,0.4l0,0L48.9,382.6L48.9,382.6z"/>
			<path id="Fill-44" class="st0" d="M53.6,384.1c0.3-0.7,0.1-1.1-0.2-1.3c-0.3-0.2-0.8-0.1-1.1,0.7c-0.3,0.7-0.1,1.1,0.2,1.3
				C52.9,385,53.3,384.8,53.6,384.1 M51.9,383.3c0.3-0.7,1-0.8,1.5-0.6c0.5,0.2,0.9,0.8,0.5,1.6c-0.3,0.7-1,0.9-1.5,0.6
				C51.9,384.6,51.6,384,51.9,383.3"/>
			<path id="Fill-46" class="st0" d="M57.1,384.1c-0.2,0-0.3,0-0.4,0.3l-0.5,1.8l-0.1,0l-1-2.2h0l-0.3,1.3c-0.1,0.3,0,0.4,0.2,0.5
				l0,0.1l-0.8-0.2l0-0.1c0.3,0,0.3,0,0.4-0.3l0.4-1.5c-0.1-0.2-0.1-0.2-0.3-0.3l0-0.1l0.6,0.2l0.9,2h0l0.3-1.1
				c0.1-0.4,0-0.4-0.2-0.5l0-0.1L57.1,384.1L57.1,384.1z"/>
			<path id="Fill-48" class="st0" d="M59.7,385.4c-0.1,0-0.2,0-0.3,0.2l-0.1,0.7c0,0-0.5,0.2-0.9,0.2c-0.3,0-0.7-0.2-0.9-0.4
				c-0.2-0.2-0.3-0.4-0.2-0.9c0-0.6,0.5-1.1,1.3-1.1c0.3,0,0.5,0.2,0.6,0.2c0,0,0.1,0,0.2-0.1l0.1,0l0,0.7l-0.1,0
				c-0.1-0.3-0.2-0.6-0.7-0.6c-0.3,0-0.9,0.2-0.9,1c0,0.6,0.3,1,0.8,1.1c0.2,0,0.5,0,0.5-0.2l0-0.6c0-0.3,0-0.3-0.3-0.3v-0.1
				L59.7,385.4L59.7,385.4z"/>
			<path id="Fill-50" class="st0" d="M62.5,384l0.9-0.1l0,0.1c-0.2,0-0.3,0.1-0.5,0.3l-0.6,0.7l0.9,0.8c0.3,0.2,0.4,0.3,0.6,0.3
				l0,0.1l-1,0.1v-0.1c0.2,0,0.2,0,0.2-0.1c0-0.1-0.4-0.4-0.5-0.5l-0.4-0.3l-0.1,0.1l0.1,0.7c0,0.2,0.1,0.3,0.3,0.3l0,0.1l-1,0.1
				l0-0.1c0.3,0,0.3-0.1,0.3-0.4l-0.2-1.5c0-0.3-0.1-0.3-0.4-0.3v-0.1l1-0.1l0,0.1c-0.3,0.1-0.3,0.1-0.3,0.3l0.1,0.7
				c0.7-0.8,0.8-0.9,0.8-1C62.7,384.1,62.7,384.1,62.5,384L62.5,384z"/>
			<path id="Fill-52" class="st0" d="M65.7,384.4c-0.2-0.8-0.7-0.9-1-0.8c-0.3,0.1-0.6,0.5-0.4,1.2c0.2,0.7,0.6,0.9,1,0.8
				C65.7,385.6,65.9,385.2,65.7,384.4 M63.9,385c-0.2-0.8,0.2-1.3,0.7-1.5c0.5-0.2,1.2,0.1,1.4,0.8c0.2,0.7-0.1,1.3-0.7,1.5
				C64.8,386,64.1,385.7,63.9,385"/>
			<path id="Fill-54" class="st0" d="M68.2,382.1c-0.2,0.1-0.3,0.2-0.1,0.5l0.8,1.6l0,0l-2.2-1h0l0.6,1.2c0.2,0.3,0.3,0.3,0.5,0.2
				l0,0.1l-0.7,0.4l0-0.1c0.2-0.1,0.3-0.2,0.1-0.5l-0.7-1.4c-0.2-0.1-0.3-0.1-0.4,0l0-0.1l0.5-0.3l1.9,0.9h0l-0.5-1
				c-0.2-0.4-0.3-0.3-0.5-0.2l0-0.1L68.2,382.1L68.2,382.1z"/>
			<path id="Fill-56" class="st0" d="M71,381.3c-0.1,0.1-0.2,0.2,0,0.4l0.4,0.6c0,0-0.2,0.5-0.5,0.7c-0.3,0.2-0.6,0.4-1,0.3
				c-0.3-0.1-0.5-0.2-0.7-0.5c-0.3-0.5-0.3-1.2,0.3-1.6c0.3-0.2,0.5-0.2,0.6-0.3c0,0,0.1-0.1,0.1-0.2l0.1,0l0.5,0.6l-0.1,0
				c-0.2-0.1-0.6-0.3-1,0c-0.3,0.2-0.5,0.7,0,1.4c0.4,0.5,0.9,0.6,1.3,0.3c0.2-0.1,0.3-0.3,0.3-0.4l-0.3-0.5
				c-0.2-0.2-0.2-0.2-0.4-0.1l0,0L71,381.3L71,381.3z"/>
			<path id="Fill-58" class="st0" d="M44.3,373.9L44.3,373.9L44.3,373.9l-0.7,0.2h0v0l-0.1-0.5v0h0l0.7-0.2h0v0L44.3,373.9z
				 M43.3,373.3L43.3,373.3L43.3,373.3l-0.2-0.5l0,0h0l0.7-0.2h0l0,0L44,373v0h0L43.3,373.3z M45.2,373c0,0,0-0.1-0.1-0.2
				c-0.1-0.1-0.1-0.1-0.1-0.1c0,0,0,0-0.1,0l-0.4,0.1l-0.5,0.2h0v0l-0.1-0.5v0l0,0l0.1,0c0,0,0.1,0,0-0.1c0,0,0-0.1-0.1-0.2
				c-0.1-0.1-0.1-0.1-0.1-0.1l-0.3,0.1l-0.3,0.1c-0.1,0-0.1,0-0.2,0c0,0,0,0,0,0c0,0,0,0,0,0l-0.1,0.3c0,0,0,0,0,0c0,0,0,0,0,0
				l0.2,0.1l0,0l0.1,0.5l0,0h0l-0.4,0.1c-0.1,0-0.1,0-0.2-0.1c0,0,0,0,0,0c0,0,0,0,0,0l0,0.5c0.1,0,0.2-0.1,0.3-0.1l0.4-0.1h0v0
				l0.1,0.4v0l-0.1,0.5c0.1,0,0.2-0.1,0.3-0.1l0.5-0.2l0.4-0.1c0,0,0,0,0,0c0,0,0,0,0,0c0,0,0-0.1-0.1-0.1c-0.1-0.1-0.1-0.1-0.1-0.1
				c0,0,0,0-0.1,0l-0.1,0h0v0l-0.1-0.5v0l0,0l0.5-0.2C44.7,373.2,45.2,373.1,45.2,373C45.2,373.1,45.2,373.1,45.2,373L45.2,373z"/>
			<path id="Fill-76" class="st0" d="M42.6,368.3C42.6,368.3,42.6,368.3,42.6,368.3c0-0.1,0-0.1,0-0.2c0-0.1,0-0.1,0-0.1
				c0,0,0,0-0.1,0l-0.2,0h0v0v-0.7v0h0c0,0,0,0,0,0c0,0-0.2,0.3-0.2,0.3c0,0,0,0,0,0c0,0,0,0,0,0l0.2,0.2v0v0.2v0h0h-0.2h0v0
				l-0.1-0.1c0,0,0,0,0,0s0,0,0,0l-0.1,0.4c0.1,0,0.3,0,0.3,0h0.2h0v0v0.4v0h0h-0.2h0v0c0-0.1,0-0.1,0-0.1h0c0,0,0,0,0,0l-0.1,0.4
				c0.1,0,0.2,0,0.2,0h0.2h0v0l0,0.7l0.1-0.1c0-0.1,0-0.2,0-0.2l0-0.4v0h0h0.1l0.1,0c0,0,0,0,0,0c0,0,0,0,0-0.1c0,0,0-0.1,0-0.2
				c0-0.1,0-0.1,0-0.1c0,0,0,0,0,0h-0.2h0v0v-0.4v0h0H42.6z"/>
			<path id="Fill-82" class="st0" d="M43.5,368.9h-0.3h0v0v-0.2v0h0h0.3h0v0L43.5,368.9L43.5,368.9L43.5,368.9z M43.2,368.3v-0.2v0
				h0h0.3h0v0v0.2v0h0L43.2,368.3L43.2,368.3L43.2,368.3z M43.1,368.9h-0.3h0v0v-0.2v0h0h0.3h0v0L43.1,368.9L43.1,368.9L43.1,368.9z
				 M42.7,368.3v-0.2v0h0h0.3h0v0v0.2v0h0L42.7,368.3L42.7,368.3L42.7,368.3z M44.5,368.4c0-0.1,0-0.1-0.1-0.1l-0.2,0H44h0v0v-1.2
				c0,0,0,0,0,0c0,0,0,0,0,0l-0.2,0.3c0,0,0,0,0,0c0,0,0,0,0,0l0.2,0.2v0v0.7v0h0h-0.3h0v0l0-1v0c0,0,0,0,0,0c0,0,0,0,0,0l-0.2,0.2
				c0,0,0,0,0,0c0,0,0,0,0,0l0.2,0.1v0v0v0h0l-0.3,0h0v0v-0.6c0,0,0,0,0,0c0,0,0,0,0,0c0,0-0.2,0.3-0.2,0.3c0,0,0,0,0,0c0,0,0,0,0,0
				l0.2,0.2h0v0v0.1v0h0h-0.3h0v0v-0.5c0,0,0,0,0,0c0,0,0,0,0,0l-0.2,0.2c0,0,0,0,0,0c0,0,0,0,0,0l0.2,0.2v0l0,1.9l0.1-0.1
				c0-0.1,0-0.1,0-0.2v-0.1v0h0h0.3h0v0v0.6l0.1-0.1c0-0.1,0-0.2,0-0.3v-0.3v0h0h0.3h0v0v0.4l0.1-0.1c0-0.1,0-0.2,0-0.3v-0.6v0h0
				h0.3h0v0l0,1.1l0.1-0.1c0-0.1,0-0.2,0-0.2v-0.7v0h0h0.3l0.3,0c0,0,0.1,0,0.1,0c0,0,0,0,0,0C44.6,368.6,44.6,368.5,44.5,368.4z"/>
			<path id="Fill-84" class="st0" d="M43.6,363.6L43.6,363.6L43.6,363.6c0.3,0,0.7,0.1,1,0c0.3,0,0.6-0.2,0.8-0.4
				c-0.1-0.2-0.2-0.3-0.2-0.4c0,0,0,0,0-0.1l0,0c-0.1,0.2-0.3,0.3-0.3,0.3c-0.1,0.1-0.2,0.2-0.4,0.2c-0.2,0.1-0.3,0.1-0.5,0.2
				c-0.2,0-0.3,0-0.5,0c-0.2,0-0.4,0-0.5-0.1c-0.1,0-0.1-0.1-0.1-0.1c0-0.1,0-0.1,0-0.1c0,0,0,0,0,0l-0.3,0.5c0,0,0.1,0,0.1,0
				c0.2,0.1,0.5,0.2,0.8,0.3c0.3,0.1,0.6,0.3,0.8,0.6c0.2,0.2,0.4,0.5,0.4,0.9l0.1,0c0-0.5-0.1-0.8-0.3-1.1
				C44.3,364,44,363.7,43.6,363.6L43.6,363.6L43.6,363.6z"/>
			<path id="Fill-90" class="st0" d="M45.8,359.3l-0.3,0.4l0,0h0l-0.4-0.2h0l0,0l0.2-0.3l0,0h0C45.5,359.2,45.6,359.3,45.8,359.3
				L45.8,359.3L45.8,359.3z M45.1,359.5L45.1,359.5l-0.4-0.3h0l0,0l0.6-1v0l0,0l0.4,0.2l0,0v0L45.1,359.5L45.1,359.5z M47.7,358.8
				C47.6,358.8,47.6,358.8,47.7,358.8c-0.1-0.1-0.1-0.1-0.1-0.1c-0.1,0-0.3-0.1-0.5-0.2c-0.1,0-0.1-0.1-0.2-0.1l0,0
				c0.1,0.1,0.2,0.3,0.3,0.4l0,0h0l0,0c0,0.1-0.1,0.1-0.3,0.2c-0.1,0-0.3,0.1-0.4,0.1c-0.1,0-0.3,0-0.4-0.1l0,0l0,0l0.5-0.8
				c0,0,0,0,0,0c0,0,0,0,0,0c0,0-0.3,0.1-0.3,0.1c0,0,0,0,0,0v0v0l0.1,0.3l0,0h0L46,359v0l0,0c-0.2,0-0.3-0.1-0.4-0.2l0,0l0,0
				l0.2-0.3l0,0l0,0l0.1,0.1c0,0,0,0,0.1,0c0,0,0-0.1,0.1-0.2c0-0.1,0-0.1,0-0.2l-0.2-0.1l-0.1-0.1c0,0-0.1-0.1-0.1-0.2v0
				c0,0,0,0,0,0c0,0,0,0,0,0l-0.3,0.1c0,0,0,0,0,0c0,0,0,0,0,0l0,0.3v0l-0.6,0.9l-0.4,0.3c0.1,0,0.2,0.1,0.4,0.2l1.4,0.9
				c0,0,0,0.1,0,0.1c0,0,0,0.1,0,0.1c0,0,0,0,0,0c0,0,0.4,0.1,0.4,0.1c0,0,0,0,0,0c0,0,0,0,0-0.1c0-0.1-0.1-0.2-0.1-0.5l0-0.5
				l-0.1,0c0,0.2-0.1,0.3-0.1,0.5l0,0l0,0l-0.6-0.4l0,0l0,0l0.3-0.4l0,0h0c0.1,0,0.2,0.1,0.4,0.1c0.1,0,0.3,0,0.4,0
				c0.1,0,0.3,0,0.4-0.1c0.1,0,0.2-0.1,0.4-0.2c0.1-0.1,0.2-0.2,0.2-0.2l0,0C47.7,358.9,47.7,358.8,47.7,358.8z"/>
			<path id="Fill-94" class="st0" d="M48.6,355.3L48.6,355.3L48.6,355.3l0.3-0.2l0,0l0,0l0.5,0.6l0,0l0,0l-0.3,0.2l0,0v0L48.6,355.3
				z M50.2,354.9C50.2,354.9,50.2,354.9,50.2,354.9C50.2,354.9,50.2,354.9,50.2,354.9C50.2,354.9,50.2,354.9,50.2,354.9
				c0,0-0.4-0.1-0.4-0.1c0,0,0,0,0,0c0,0,0,0,0,0l0,0.3l0,0l-0.2,0.2l0,0l0,0l-0.5-0.6l0,0l0,0l0.5-0.5c0,0,0,0,0,0h0c0,0,0,0,0,0
				l-0.4,0c0,0,0,0,0,0c0,0,0,0,0,0l0,0.3v0l-0.1,0.1l0,0l0,0l-0.3-0.3c0,0,0-0.1,0-0.2c0,0,0-0.1,0-0.1c0,0,0,0,0,0l-0.4,0.2
				c0,0,0.1,0.1,0.2,0.2l0.3,0.4l0,0l0,0l-0.3,0.2l0,0l0,0l-0.3-0.3c0-0.1,0-0.1,0-0.2c0,0,0,0,0,0c0,0,0,0,0,0l-0.4,0.2
				c0,0,0.1,0.1,0.2,0.2l0.3,0.4v0l0,0l-0.5,0.4l0.1,0c0.1-0.1,0.1-0.1,0.1-0.2l0.2-0.2l0,0l0,0l0.5,0.6l0,0l0,0l-0.6,0.5l0.1,0
				c0-0.1,0.1-0.1,0.1-0.2L50.2,354.9z"/>
			<path id="Fill-96" class="st0" d="M49.4,356.1l-0.4,0c0.1,0.4,0,0.8-0.1,1.3l0.1,0c0.3-0.5,0.4-0.9,0.5-1.2v0L49.4,356.1
				C49.4,356.1,49.4,356.1,49.4,356.1C49.4,356.1,49.4,356.1,49.4,356.1"/>
			<path id="Fill-104" class="st0" d="M54.1,353.2l-0.3,0.1l0,0l0,0l-0.5-1.2l0,0h0l0.3-0.1h0l0,0L54.1,353.2L54.1,353.2L54.1,353.2
				z M53.2,353L53.2,353L53.2,353L53.2,353c-0.1-0.1-0.3-0.1-0.5,0l0,0l0,0l-0.1-0.1v0h0l0.4-0.2l0,0v0L53.2,353L53.2,353L53.2,353z
				 M54.5,353.3l-0.2-0.4l-0.4-0.9c0,0,0-0.1,0-0.1c0,0,0-0.1,0-0.1c0,0,0,0,0,0l-0.2-0.1c0,0,0,0-0.1,0c0,0,0,0,0,0l-0.1,0.2v0h0
				l-0.3,0.1h0h-0.4c0,0.1,0.1,0.1,0.1,0.2l0.1,0.2l0,0l0,0l-0.2-0.1c0,0,0,0,0,0s0,0,0,0l-0.1,0.2v0h0l0,0l0,0v0l-0.2-0.4v0h0
				c0.1-0.1,0.2-0.2,0.2-0.2c0,0,0,0,0.1-0.1c0,0,0,0,0.1,0c0,0,0,0,0.1,0c0,0,0,0,0,0c0,0,0,0,0,0l-0.4-0.2c-0.2,0.3-0.5,0.7-0.8,1
				l0,0c0.2-0.1,0.3-0.2,0.5-0.3l0,0l0,0l0.2,0.4l0,0h0l-0.6,0.3l0.1,0c0.1-0.1,0.2-0.1,0.2-0.1l0.1-0.1l0,0v0
				c0.1,0.4,0.1,0.8,0,1.3l0,0c0.2-0.3,0.3-0.6,0.3-0.9v0h0h0l0,0l0,0l0.3,0.6c0,0,0.1,0.3,0.1,0.3l0,0c0,0,0,0,0.1,0
				c0,0,0.1-0.1,0.1-0.1c0.1-0.1,0.1-0.1,0.1-0.1c0,0,0,0,0-0.1c0,0,0-0.1,0-0.1l-0.2-0.4l-0.3-0.6v0l0,0h0h0h0c0,0,0,0,0.1,0.1
				c0.1,0,0.1,0.1,0.2,0.2c0,0.1,0.1,0.1,0.1,0.1c0,0,0,0,0.1-0.1c0,0,0-0.1,0-0.1l0,0h0h0l0,0v0l0.2,0.4l0.2,0.4c0,0,0,0,0,0.1
				c0,0,0,0,0,0c0,0,0.1,0,0.1-0.1c0-0.1,0.1-0.1,0.1-0.1c0,0,0-0.1,0-0.1l-0.1-0.2l0,0l0,0l0.3-0.1l0,0l0,0l0.1,0.3c0,0,0,0,0,0
				c0,0,0,0,0,0c0,0,0.1-0.1,0.2-0.1C54.5,353.4,54.5,353.3,54.5,353.3z"/>
			<path id="Fill-108" class="st0" d="M57.4,351.7L57.4,351.7L57.4,351.7L57.4,351.7L57.4,351.7l-0.1-0.3v0h0l0.1,0h0v0L57.4,351.7
				L57.4,351.7z M58.6,352.4l-1.5,0.2h0v0l-0.1-0.4l0,0h0h0h0v0c0,0,0,0.1,0.1,0.1c0,0,0.1,0.1,0.1,0.1c0,0,0,0,0,0c0,0,0,0,0.1-0.1
				c0,0,0.1-0.1,0.1-0.1l0.4-0.3l0,0c-0.3,0.1-0.5,0.2-0.7,0.2l0,0v0l-0.1-1l0,0l0,0l0.1,0c0.1,0,0.1-0.1,0.2-0.1l0.5-0.1h0v0l0,0.2
				l0,0l0,0l-0.1-0.1h0c0,0,0,0,0,0v0l-0.1,0.1l0,0l-0.1,0h0l-0.3-0.1c0,0.1,0,0.1,0,0.2l0,0.3l0,0.2c0,0,0,0,0,0.1c0,0,0,0,0,0
				c0,0,0,0,0.1,0c0.1,0,0.1-0.1,0.1-0.1c0,0,0,0,0,0l0-0.1v0l0,0l0.1,0h0v0l0,0.1c0,0,0,0,0,0c0,0,0,0,0,0c0,0,0.1,0,0.1-0.1
				c0.1,0,0.1-0.1,0.1-0.1l0-0.1l0-0.3v0l0,0l0,0l0,0l0,0c0,0.2,0.1,0.4,0.2,0.6v0c-0.1,0.2-0.3,0.4-0.5,0.6l0,0
				c0.2-0.1,0.4-0.2,0.6-0.4l0,0l0,0c0.1,0.1,0.2,0.2,0.3,0.2c0.1,0,0.2,0.1,0.2,0.1c0.1,0,0.1,0,0.1-0.1c0,0,0-0.1,0-0.1
				c0,0,0-0.1,0-0.2c0-0.1,0-0.2,0-0.4h0c0,0.3,0,0.3,0,0.3c0,0,0,0,0,0c0,0,0,0-0.1,0c0,0,0,0-0.1-0.1v0v0c0.1-0.1,0.1-0.3,0.2-0.5
				h0v0l0.1-0.1l0,0v0L58.6,352.4L58.6,352.4L58.6,352.4z M56.8,351.1l-0.1-0.4l0,0l0,0l0.7-0.1h0v0l0,0.2l0,0.3v0h0L56.8,351.1
				L56.8,351.1L56.8,351.1z M57.7,350.5L57.7,350.5L57.7,350.5l0.2,0l0,0l0,0l0,0c0.1,0,0.1,0.1,0.1,0.2c0,0.1,0,0.1,0.1,0.1l0,0
				l0,0l-0.1,0.1v0h0l-0.1,0h0v0l0-0.2l0,0c0,0,0.1-0.1,0-0.1c0,0,0,0,0,0L57.7,350.5L57.7,350.5L57.7,350.5z M58,350.5l0.3,0h0v0
				l0,0.3v0l0,0l-0.1-0.1h0l0,0c0,0,0-0.1,0-0.1c0,0,0-0.1-0.1-0.1C58.1,350.5,58.1,350.5,58,350.5L58,350.5L58,350.5L58,350.5
				L58,350.5z M58.4,350.9L58.4,350.9l0,0.2v0l0,0l-0.3-0.1c0,0.2,0,0.3,0,0.4v0h0l0,0h0l0,0c0-0.1,0-0.2-0.1-0.5v0h0L58.4,350.9
				L58.4,350.9z M58.9,352.3l-0.3-1.8v0l0.1-0.1c0,0,0,0,0,0c0,0,0,0,0,0l-0.3-0.2c0,0,0,0,0,0c0,0,0,0,0,0l-0.1,0.2v0h0l-1.4,0.2h0
				l-0.4-0.1c0,0.1,0,0.2,0.1,0.3l0.3,1.9l0,0.4c0,0,0,0,0,0c0,0,0,0,0,0c0,0,0.1,0,0.1-0.1c0.1,0,0.1-0.1,0.1-0.1c0,0,0,0,0-0.1
				l0-0.2v0l0,0l1.5-0.2h0v0l0,0.1l0,0.2c0,0,0,0,0,0c0,0,0,0,0,0c0,0,0.1,0,0.2-0.1c0.1,0,0.1-0.1,0.1-0.1L58.9,352.3z"/>
			<path id="Fill-118" class="st0" d="M63,351.7L63,351.7L63,351.7L63,351.7C63,351.7,63,351.7,63,351.7l-0.2,0.1h0l-0.7-0.1h0
				l-0.2-0.2l0,0l0,0c0.2-0.1,0.3-0.2,0.4-0.4l0,0h0l0,0v0l0,0.2l-0.1,0.3c0,0,0,0,0,0c0.1,0,0.1,0,0.2,0c0.1,0,0.1,0,0.1-0.1l0-0.3
				l0-0.2v0h0h0v0C62.8,351.3,62.9,351.5,63,351.7L63,351.7L63,351.7z M62.8,351.9l0,0.3v0h0l-0.7-0.1h0v0l0-0.3v0l0,0L62.8,351.9
				L62.8,351.9L62.8,351.9z M62.8,352.3l0,0.3v0l0,0l-0.7-0.1h0v0l0.1-0.3v0l0,0L62.8,352.3L62.8,352.3L62.8,352.3z M62.9,351.1
				L62.9,351.1L62.9,351.1l0.9,0.1h0v0c0,0,0,0,0,0l-0.2-0.3c0,0,0,0,0,0c0,0,0,0,0,0l-0.2,0.2l0,0v0l-0.5-0.1h0v0l0-0.3l0,0h0h0.3
				c0.1,0,0.2,0,0.3,0c0,0,0,0,0.1,0h0c0,0,0,0,0,0c0,0,0,0,0,0l-0.2-0.3c-0.3,0.1-0.9,0.2-1.7,0.2v0c0.2,0,0.5,0.1,0.9,0.1h0v0
				l0,0.3l0,0h0l-1.1-0.2l0.1,0.1c0.1,0,0.1,0,0.3,0L62,351l0,0l0,0c-0.2,0.3-0.6,0.5-1,0.8l0,0c0.3-0.1,0.5-0.2,0.6-0.2l0,0v0
				l0,0.3l-0.1,0.6c0,0,0,0.3,0,0.2v0c0,0,0,0,0.1,0c0.1,0,0.1,0,0.2,0c0.1,0,0.1,0,0.1,0l0-0.2v0h0l0.7,0.1l0,0v0l0,0.2
				c0,0,0,0,0.1,0c0.1,0,0.1,0,0.2,0c0.1,0,0.1,0,0.1-0.1l0-0.3l0.1-0.6c0,0,0,0,0-0.1c0,0,0,0,0,0l0,0l0,0c0.1,0.1,0.2,0.1,0.2,0.2
				c0.1-0.1,0.1-0.2,0.2-0.2c0,0,0.1,0,0.2,0c0,0,0,0,0,0l0-0.1C63.5,351.7,63.2,351.4,62.9,351.1z"/>
			<path id="Fill-126" class="st0" d="M67.7,352.4l-0.2,0.4v0h0l-0.2-0.1h0v0l0.2-0.4l0,0h0L67.7,352.4L67.7,352.4L67.7,352.4z
				 M67.6,352.9c0,0.1,0,0.2,0,0.2v0h0l-0.2,0l-0.3-0.1L67,353l0,0l0,0c0,0,0.1,0,0.3-0.2v0h0L67.6,352.9L67.6,352.9L67.6,352.9z
				 M67.4,353.3l-0.1,0.3v0h0l-0.3-0.2h0v0l0.1-0.3l0,0l0,0L67.4,353.3L67.4,353.3L67.4,353.3z M66.2,353.1L66.2,353.1L66.2,353.1
				c0.1-0.2,0.3-0.4,0.5-0.6l0,0l0,0l0,0c0,0,0.1,0,0.1,0l0.1,0l0,0l0,0C66.8,352.8,66.5,353,66.2,353.1z M68.4,352.5
				C68.4,352.4,68.3,352.4,68.4,352.5C68.3,352.4,68.3,352.4,68.4,352.5l-0.3,0.1h0l0,0l0,0v0l0.1-0.2c0,0,0,0,0.1,0
				c0,0,0.1,0,0.1,0s0,0,0-0.1l-0.3-0.2c0,0-0.1,0.2-0.1,0.2l-0.1,0.3l0,0h0l-0.2-0.1l0,0l0,0l0.1-0.3c0,0,0,0,0.1,0
				c0,0,0.1,0,0.1,0s0,0-0.1-0.1l-0.3-0.2c0,0.1-0.1,0.2-0.1,0.2l-0.1,0.3v0l0,0l-0.3-0.1l0,0.1c0.1,0,0.1,0,0.2,0l0,0l0,0v0
				l-0.2,0.4l0,0l0,0l-0.3-0.2h0l0,0l0.2-0.2l0,0c-0.2,0.2-0.4,0.3-0.5,0.4c-0.2,0.1-0.3,0.2-0.3,0.2c-0.1,0-0.1,0-0.2,0
				c0,0-0.1,0-0.1,0l0,0c0.1,0.1,0.1,0.1,0.1,0.2c0,0,0,0.1,0,0.1c0,0-0.1,0.1-0.1,0.2c-0.1,0.1-0.1,0.1-0.1,0.2c0,0.1,0,0.1,0,0.2
				c0,0.1,0.1,0.2,0.1,0.2c0.1,0,0.1,0,0.2-0.1c0-0.1,0.1-0.2,0.1-0.2c0-0.1,0-0.1,0.1-0.2v0h0c0.2,0,0.4,0,0.6-0.1l0,0l0,0
				l-0.2,0.5c0,0,0,0.1,0,0.2c0,0.1,0.1,0.2,0.2,0.2c0.1,0.1,0.2,0.1,0.3,0.2c0.2,0.1,0.4,0.2,0.6,0.2c0.1,0,0.2,0,0.3-0.2
				c-0.1-0.1-0.1-0.2-0.1-0.2c0-0.1,0-0.1,0-0.2l0,0c0,0,0,0.1-0.1,0.1c0,0.1-0.1,0.1-0.1,0.1c0,0-0.1,0-0.2,0c-0.1,0-0.2,0-0.3-0.1
				c-0.1-0.1-0.2-0.1-0.3-0.2c0,0,0-0.1,0-0.1l0.1-0.2v0l0,0l0.3,0.1l0,0l0,0l0,0.1c0,0,0,0,0,0c0,0,0,0,0,0c0.1,0,0.1,0,0.2,0
				c0.1,0,0.1,0,0.1,0l0.1-0.2l0,0l0,0c0,0.1,0.1,0.2,0.2,0.3c0.1-0.1,0.2-0.1,0.4-0.1l0,0c-0.3-0.2-0.5-0.5-0.5-0.7v0l0,0l0.6,0.3
				c0,0,0,0,0,0c0,0,0,0,0,0c0,0,0,0,0,0c0,0-0.1-0.3-0.1-0.3c0,0,0,0,0,0c0,0,0,0,0,0L68,353h0l-0.1,0l0,0l0,0l0.2-0.4v0l0,0
				l0.4,0.2c0,0,0,0,0,0c0,0,0,0,0,0v0C68.5,352.7,68.4,352.5,68.4,352.5z"/>
			<path id="Fill-140" class="st0" d="M72.5,355.4C72.5,355.4,72.5,355.4,72.5,355.4C72.4,355.4,72.4,355.4,72.5,355.4l-0.3,0h0
				l-0.1-0.1l0,0l0,0l0.2-0.2l0,0h0l0.1,0c0,0,0,0,0,0c0,0,0,0,0-0.1l-0.2-0.4c0,0.1-0.2,0.3-0.2,0.3l-0.1,0.2l0,0l0,0l-0.4-0.3
				l0,0.1c0.1,0,0.1,0.1,0.1,0.1l0.2,0.2l0,0l0,0l-0.3,0.3l0,0l0,0l-0.4-0.4v0.1c0.1,0,0.1,0.1,0.2,0.1l0.4,0.4l0,0l0,0l-0.1,0.2
				l-0.1,0.1l0,0l0,0l-0.6-0.6l0,0.1c0,0,0.1,0.1,0.2,0.1l0.4,0.4l0,0l0,0l-0.4,0.5c0,0,0,0,0,0c0,0-0.1,0-0.1,0
				c0,0-0.1-0.1-0.2-0.3l0,0c0,0.1,0.1,0.1,0.1,0.2c0,0.1,0,0.1,0,0.2c0,0,0,0.1-0.1,0.2c0,0,0.2,0.1,0.2,0.1c0,0,0.1,0,0.2,0
				c0.1,0,0.1,0,0.2-0.1l0.5-0.6l0,0l0,0l0.4,0.3c0,0,0,0,0,0h0c0,0,0,0,0,0c0,0,0-0.3,0-0.3c0,0,0,0,0,0c0,0,0,0,0,0l-0.2,0.1h0v0
				l0,0l0,0l0,0l0.1-0.1v0l0,0c0.1,0,0.1,0,0.1,0c0,0,0,0,0,0l-0.2-0.3v0v0l0,0l0,0l0,0l0.6,0.5c0,0,0,0,0,0l0,0c0,0,0,0,0,0
				c0,0,0-0.3,0-0.3c0,0,0,0,0,0c0,0,0,0,0,0l-0.2,0l0,0v0l-0.2-0.2l0,0l0,0l0.3-0.3l0,0l0,0l0.4,0.4c0,0,0,0,0,0c0,0,0,0,0,0
				C72.5,355.7,72.5,355.4,72.5,355.4"/>
			<path id="Fill-146" class="st0" d="M70.8,354.6L70.8,354.6L70.8,354.6c0,0,0,0,0.2-0.2h0l0,0h0l0,0L70.8,354.6L70.8,354.6
				L70.8,354.6L70.8,354.6z M70.7,355.3l0.4,0.1l0-0.1l-0.3-0.1l0,0l0,0l0.2-0.3l0,0l0,0l0.2,0.2c0,0,0,0,0,0c0,0,0,0,0,0l0-0.3
				c0,0,0,0,0,0c0,0,0,0,0,0l-0.2,0.1h0l0,0l0,0l0,0l0.4-0.4v0h0l0.1,0c0,0,0,0,0,0c0,0,0,0,0,0l-0.2-0.4c0,0-0.2,0.2-0.2,0.2
				l-0.1,0.1l0,0l0,0L71,354c-0.2,0.3-0.6,0.5-0.9,0.7l0,0c0.2,0,0.4-0.1,0.6-0.2l0,0l0,0l0.1,0.1l0,0l0,0l-0.3,0.4v0h0l-0.5-0.2
				c0,0.1-0.1,0.4-0.1,0.4c0,0,0,0,0,0c0,0,0,0,0.1,0c0,0,0.1,0,0.1,0l0.2,0l0,0l0,0l-0.3,0.4l-0.2,0.2c0,0,0,0,0,0.1c0,0,0,0,0,0
				c0,0,0.1,0.1,0.2,0.1c0.1,0,0.1,0,0.2,0l0.2-0.3L70.7,355.3L70.7,355.3z"/>
			<path id="Fill-152" class="st0" d="M75.8,359.2c0,0.1-0.1,0.1-0.2,0.2l-1.6,1c0,0-0.1,0-0.1,0c0-0.1-0.1-0.2-0.1-0.3l0,0
				c0,0.1,0,0.2,0,0.3c0,0.1-0.1,0.2-0.2,0.2c0.2,0.2,0.4,0.3,0.6,0.2l1.6-1.1c0,0,0.1,0,0.1,0h0c0,0,0,0,0,0c0,0,0,0,0,0
				L75.8,359.2z"/>
			<path id="Fill-156" class="st0" d="M74.3,358.3l0.4-0.3l0,0v0l0.2,0.4l0,0l0,0l-0.4,0.3l0,0l0,0L74.3,358.3L74.3,358.3
				L74.3,358.3z M74.1,359.4L74.1,359.4l0.1,0c0,0,0,0,0,0c0,0,0,0,0,0l0-0.3c0,0,0,0,0,0c0,0,0,0,0,0l-0.2-0.1h0l-0.1-0.2l0,0l0,0
				l0.2-0.1h0l0.1,0c0,0,0,0,0,0c0,0,0,0,0,0l-0.1-0.3v0h0l0,0l0,0l0,0l0.2,0.4l0,0l0,0l-0.1,0.1c0,0,0,0,0,0c0,0,0,0,0,0
				c0,0,0.1,0.1,0.1,0.1c0.1,0.1,0.1,0.1,0.1,0.1c0,0,0,0,0,0l0.2-0.1l0.3-0.2c0.1,0,0.1,0,0.2,0c0,0,0,0,0,0c0,0,0,0,0,0
				c0,0,0-0.3,0-0.3c0,0,0,0,0,0c0,0,0,0,0,0l-0.2,0h0v0l-0.2-0.3l-0.1-0.4c0,0-0.1,0.1-0.2,0.2l-0.4,0.2l-0.3,0.2c0,0,0,0,0,0
				c0,0,0,0,0,0c0,0,0.1,0.1,0.1,0.2l0,0l0,0l-0.2,0.1c-0.2,0.1-0.4,0.2-0.6,0.2c-0.2,0-0.4,0-0.7,0l0,0.1c0.5,0.2,1,0.2,1.4,0.1h0
				v0l0.1,0.2v0h0c-0.1,0.1-0.3,0.2-0.4,0.2c-0.2,0.1-0.3,0.1-0.3,0.1c0,0,0,0-0.1,0c0,0-0.1-0.2-0.1-0.3l0,0c0,0.1,0,0.2,0,0.3
				c0,0-0.1,0.1-0.1,0.1c0,0.1,0.1,0.1,0.1,0.2c0,0,0.1,0.1,0.1,0.1c0,0,0.1,0,0.1,0c0,0,0.1,0,0.3-0.1
				C73.8,359.6,73.9,359.5,74.1,359.4z"/>
			<path id="Fill-160" class="st0" d="M75.4,359.3C75.4,359.3,75.4,359.3,75.4,359.3l-0.1-0.5c0,0-0.1,0.1-0.1,0.1
				c-0.1,0-0.1,0.1-0.1,0.1l-0.8,0.5l-0.3,0.2c0,0,0,0,0,0c0,0,0,0,0,0c0,0,0,0,0.1,0.1c0.1,0.1,0.1,0.1,0.2,0.1l0.2-0.2l0.8-0.5
				C75.2,359.3,75.3,359.3,75.4,359.3L75.4,359.3C75.3,359.3,75.4,359.3,75.4,359.3"/>
			<path id="Fill-162" class="st0" d="M76.1,363.1c0.1,0,0.1,0,0.2,0.1c0,0,0,0,0,0c0,0,0,0,0,0l0-0.2v0l0,0c0.1,0,0.2,0.1,0.2,0.1
				c0.1,0,0.1,0.1,0.1,0.2c0,0,0,0,0,0c0,0,0,0,0,0l0.1-0.4v0l0,0c0.2,0.1,0.3,0.2,0.3,0.2c0,0,0,0,0,0c0,0,0,0,0,0l0.1-0.4
				c-0.5-0.1-0.8-0.2-1.1-0.3l0,0c0.2,0.2,0.4,0.3,0.5,0.4l0,0v0l0,0v0h0c-0.5,0-1-0.2-1.4-0.4l0,0c0.2,0.2,0.3,0.3,0.4,0.3l0,0l0,0
				l-0.7,0.2l-0.3,0.1c0,0,0,0,0,0c0,0,0,0,0,0.1c0,0,0,0.1,0.1,0.2c0.1,0.1,0.1,0.1,0.1,0.1l0.3-0.1L76.1,363.1z"/>
			<path id="Fill-164" class="st0" d="M77.7,364.1C77.7,364.1,77.7,364.1,77.7,364.1l-0.3-0.1l0,0l-0.2-0.8l-0.1,0.1
				c0,0,0.1,0.1,0.1,0.2l0.3,1c0,0,0,0.1,0,0.1h0c0,0,0,0,0,0L77.7,364.1C77.7,364.1,77.7,364.1,77.7,364.1"/>
			<path id="Fill-166" class="st0" d="M77.1,364.5l-0.3-0.1h0v0l-0.3-1.2l-0.1,0.1c0,0.1,0.1,0.1,0.1,0.2l0.1,0.5v0l0,0l-1,0.3
				c0,0-0.1,0-0.1,0c0,0,0,0,0,0c0,0,0-0.2-0.1-0.4h0c0,0.3-0.1,0.4-0.3,0.5c0.1,0.3,0.3,0.4,0.4,0.3l1.2-0.4h0l0,0l0.1,0.5
				c0,0,0,0,0,0h0c0,0,0,0,0,0L77.1,364.5C77.1,364.5,77.1,364.5,77.1,364.5C77.1,364.5,77.1,364.5,77.1,364.5"/>
			<path id="Fill-170" class="st0" d="M77.5,369c-0.3,0-0.6,0-0.8-0.1l0,0l0,0c0.1-0.1,0.2-0.2,0.5-0.2h0c0.1,0.1,0.2,0.1,0.3,0.1h0
				v0L77.5,369L77.5,369L77.5,369z M77.2,368.4L77.2,368.4L77.2,368.4l0.1-0.1c0,0,0,0,0,0c0,0,0,0,0,0l-0.2-0.1l0,0h0h0.6h0v0v0.3
				v0h0c0,0,0,0,0,0c0,0,0.3-0.3,0.3-0.3s0,0,0,0c0,0,0,0,0,0l-0.2-0.2h0v0v-0.9l-0.1,0.1c0,0.1,0,0.2,0,0.2v0.4v0h0h-1.4h0v0l0-0.1
				l0,0h0h0.8c0,0,0.1,0,0.1,0c0,0,0,0,0,0c0,0,0,0,0,0l0.1-0.4c-0.1,0-0.3,0-0.3,0h-0.9h0v0l0-0.2c-0.1,0-0.4,0.2-0.4,0.2
				c-0.1,0-0.1,0-0.1,0c0,0,0,0,0,0c0,0,0,0,0.1,0c0,0,0,0,0.1,0.2c0,0.1,0.1,0.2,0.2,0.4l0.3,0.7l0.1,0l-0.1-0.5l0,0h0h0.7h0v0v0.3
				v0h0c-0.1,0-0.3-0.1-0.5-0.2l0,0c0.1,0.1,0.3,0.3,0.4,0.4v0v0v0l0,0c-0.3,0-0.5,0.1-0.6,0.1l0,0l0,0c-0.3-0.3-0.6-0.6-0.8-1l0,0
				c0.1,0.5,0.3,0.9,0.6,1.2l0,0l0,0c-0.2,0.1-0.3,0.3-0.5,0.4c0.2,0.1,0.2,0.3,0.3,0.4l0,0c0.1-0.3,0.2-0.6,0.4-0.7l0,0h0
				c0.2,0.1,0.5,0.2,0.8,0.3c0.1,0,0.1,0.1,0.1,0.1c0,0,0,0,0,0c0,0,0,0,0,0l0-0.1l0,0h0h0h0v0v0.4c0,0,0,0,0,0c0,0,0,0,0,0l0.3-0.3
				c0,0,0,0,0,0c0,0,0,0,0,0h0l-0.2-0.2h0v0v-0.3v0h0c0,0,0.1,0,0.2,0.1c0.1,0,0.2,0,0.2,0.1c0,0,0,0,0.1,0.1c0,0,0,0,0,0
				c0,0,0,0,0,0l0.2-0.5C78,368.6,77.6,368.5,77.2,368.4z"/>
			<path id="Fill-176" class="st0" d="M77.4,372.4l-1.7-0.5c-0.1,0-0.1-0.1-0.1-0.2c0,0,0,0,0,0c0,0,0,0,0,0h0l-0.3,0.2c0,0,0,0,0,0
				c0,0,0,0,0,0.1l0.1,0.2l0,0l-0.6,2c0,0,0,0,0,0c0,0,0,0,0,0l0.3-0.2c0,0,0,0,0,0c0,0,0,0,0,0l-0.2-0.2v0v0l0.4-1.5l0,0h0l1.9,0.6
				h0v0l-0.5,1.9c0,0,0,0,0,0c0,0,0,0,0,0l0.3-0.2c0,0,0,0,0,0c0,0,0,0,0,0l-0.2-0.2v0l0.4-1.3h0v0l0.3-0.3
				C77.7,372.5,77.4,372.4,77.4,372.4"/>
			<path id="Fill-180" class="st0" d="M76.8,373.8L76.8,373.8l-0.3-0.1h0v0l0.1-0.5v0l0,0l0.3,0.1h0v0L76.8,373.8L76.8,373.8z
				 M77,374.1C77,374,77,374,77,374.1l-0.1-0.2l0,0h0l0.1-0.4l0.3-0.3c-0.1,0-0.2-0.1-0.2-0.1l-0.2-0.1l-0.2-0.1h0c0,0,0,0,0,0
				c0,0,0,0.1,0,0.2c0,0.1,0,0.1,0,0.2l0,0l0,0v0l-0.1,0.5l0,0h0l-0.1,0h0c0,0,0,0,0,0c0,0,0,0.1,0,0.2c0,0.1,0,0.1,0,0.1
				c0,0,0,0,0,0l0.1,0l0.2,0.1h0v0l0,0.1c0,0,0,0,0,0c0,0,0,0,0,0C76.7,374.2,77,374.1,77,374.1C77,374.1,77,374.1,77,374.1z"/>
			<path id="Fill-184" class="st0" d="M76,373.8l0,0.1l0,0l0,0l-0.5-0.1h0l0,0l0-0.1l0,0h0L76,373.8L76,373.8L76,373.8z M75.7,372.9
				L75.7,372.9L75.7,372.9l0-0.1v0h0l0.5,0.1l0,0v0l0,0.1l0,0h0L75.7,372.9z M76.1,373.9L76.1,373.9L76.1,373.9l0-0.1v0l0.2-0.3
				l-0.1,0l0,0l0,0l0.2-0.2c0,0,0,0,0,0c0,0,0,0,0,0v0l-0.1-0.2v0l0-0.1l0.3-0.3c-0.1,0-0.3-0.1-0.3-0.1l-0.5-0.1l-0.3-0.1
				c0,0,0,0,0,0c0,0,0,0,0,0c0,0,0,0.1,0,0.2c0,0.1,0,0.1,0,0.1l0.2,0.1h0v0l0,0.1l0,0h0l-0.1,0l-0.1,0c0,0,0,0,0,0c0,0,0,0,0,0
				c0,0,0,0,0,0.2c0,0.1,0,0.1,0,0.1c0,0,0,0,0,0l0.3,0.1l0.4,0.1h0v0l0,0.1l0,0l0,0l-0.5-0.1l-0.3-0.1c0,0,0,0,0,0c0,0,0,0,0,0
				c0,0,0,0.1,0,0.1c0,0,0,0.1,0,0.1c0,0,0,0,0,0l0.1,0h0v0l0,0.1l0,0h0l-0.1,0c0,0,0,0,0,0c0,0,0,0.1,0,0.2c0,0.1,0,0.1,0,0.1
				c0,0,0,0,0,0l0.2,0l0.3,0.1l0,0l0,0.1c0,0,0,0,0,0c0,0,0,0,0,0c0,0,0.2-0.2,0.2-0.2c0,0,0,0,0,0c0,0,0,0,0,0L76.1,373.9z"/>
			<polygon id="Fill-186" class="st2" points="95.5,358.3 95.5,359.8 93,359.8 93,366.8 91.2,366.8 91.2,359.8 88.7,359.8 
				88.7,358.3 			"/>
			<path id="Fill-188" class="st2" d="M99.5,360.4c0,0,0.1,0,0.1,0v1.7c-0.1,0-0.2,0-0.3,0c-0.1,0-0.1,0-0.2,0
				c-0.7,0-1.1,0.2-1.3,0.6c-0.1,0.2-0.2,0.6-0.2,1.1v3H96v-6.3h1.5v1.1c0.3-0.4,0.5-0.7,0.7-0.9C98.5,360.5,98.9,360.4,99.5,360.4
				C99.5,360.4,99.5,360.4,99.5,360.4"/>
			<path id="Fill-190" class="st2" d="M104.3,363.7c-0.1,0.1-0.2,0.1-0.3,0.2c-0.1,0-0.3,0.1-0.4,0.1l-0.4,0.1
				c-0.3,0.1-0.6,0.1-0.7,0.2c-0.3,0.1-0.4,0.4-0.4,0.7c0,0.3,0.1,0.5,0.2,0.6c0.2,0.1,0.3,0.2,0.6,0.2c0.4,0,0.7-0.1,1-0.3
				c0.3-0.2,0.5-0.6,0.5-1.1V363.7z M103.3,363c0.3,0,0.5-0.1,0.6-0.1c0.2-0.1,0.3-0.3,0.3-0.5c0-0.3-0.1-0.4-0.3-0.5
				c-0.2-0.1-0.4-0.1-0.8-0.1c-0.4,0-0.7,0.1-0.8,0.3c-0.1,0.1-0.2,0.3-0.2,0.6h-1.6c0-0.5,0.2-1,0.5-1.3c0.4-0.6,1.2-0.8,2.2-0.8
				c0.7,0,1.3,0.1,1.8,0.4c0.5,0.3,0.8,0.8,0.8,1.5v2.9c0,0.2,0,0.4,0,0.7c0,0.2,0,0.4,0.1,0.4c0.1,0.1,0.1,0.1,0.2,0.2v0.2h-1.8
				c0-0.1-0.1-0.2-0.1-0.4c0-0.1,0-0.2,0-0.4c-0.2,0.2-0.5,0.5-0.8,0.6c-0.4,0.2-0.7,0.3-1.2,0.3c-0.6,0-1-0.2-1.4-0.5
				c-0.4-0.3-0.6-0.8-0.6-1.4c0-0.8,0.3-1.3,0.9-1.7c0.3-0.2,0.8-0.3,1.4-0.4L103.3,363z"/>
			<polygon id="Fill-192" class="st2" points="111.5,360.5 113.2,360.5 111,366.8 109.3,366.8 107,360.5 108.9,360.5 110.2,365.1 
							"/>
			<path id="Fill-194" class="st2" d="M116,362.1c-0.2,0.2-0.4,0.6-0.4,1h2.8c0-0.4-0.2-0.8-0.4-1c-0.3-0.2-0.6-0.3-1-0.3
				C116.6,361.7,116.3,361.8,116,362.1 M118.5,360.6c0.4,0.2,0.8,0.5,1.1,0.9c0.3,0.4,0.4,0.8,0.5,1.3c0,0.3,0.1,0.7,0.1,1.2h-4.5
				c0,0.6,0.2,1.1,0.6,1.3c0.2,0.2,0.5,0.2,0.9,0.2c0.4,0,0.7-0.1,0.9-0.3c0.1-0.1,0.2-0.2,0.3-0.4h1.7c0,0.4-0.2,0.7-0.6,1.1
				c-0.6,0.6-1.3,0.9-2.3,0.9c-0.8,0-1.6-0.3-2.2-0.8c-0.6-0.5-0.9-1.3-0.9-2.5c0-1.1,0.3-1.9,0.9-2.5c0.6-0.6,1.3-0.9,2.2-0.9
				C117.5,360.4,118,360.5,118.5,360.6"/>
			<polygon id="Fill-196" class="st2" points="121.2,366.8 122.9,366.8 122.9,358.3 121.2,358.3 			"/>
			<path id="Fill-198" class="st2" d="M130.2,363.6h2.1l-1.1-3.3L130.2,363.6z M130.4,358.3h2l3,8.5h-1.9l-0.6-1.7h-3.1l-0.6,1.7
				h-1.8L130.4,358.3z"/>
			<path id="Fill-199" class="st2" d="M140.2,365c0.3-0.3,0.4-0.7,0.4-1.4c0-0.6-0.1-1-0.4-1.4c-0.2-0.3-0.6-0.5-1-0.5
				c-0.6,0-1,0.3-1.2,0.8c-0.1,0.3-0.2,0.6-0.2,1.1c0,0.4,0.1,0.7,0.2,1c0.2,0.5,0.6,0.8,1.2,0.8C139.6,365.4,139.9,365.3,140.2,365
				 M139.6,360.5c0.4,0.2,0.7,0.5,1,0.9v-0.9h1.6v5.9c0,0.8-0.1,1.4-0.4,1.8c-0.5,0.7-1.4,1.1-2.7,1.1c-0.8,0-1.4-0.2-1.9-0.5
				c-0.5-0.3-0.8-0.8-0.8-1.4h1.8c0,0.2,0.1,0.3,0.2,0.4c0.2,0.1,0.5,0.2,0.9,0.2c0.6,0,1-0.2,1.2-0.6c0.1-0.3,0.2-0.7,0.2-1.3v-0.4
				c-0.2,0.3-0.3,0.5-0.5,0.6c-0.3,0.2-0.7,0.4-1.3,0.4c-0.8,0-1.4-0.3-1.9-0.8c-0.5-0.6-0.7-1.3-0.7-2.3c0-0.9,0.2-1.7,0.7-2.3
				c0.5-0.6,1.1-0.9,1.9-0.9C139.1,360.4,139.4,360.4,139.6,360.5"/>
			<path id="Fill-200" class="st2" d="M145.6,362.1c-0.2,0.2-0.4,0.6-0.4,1h2.8c0-0.4-0.2-0.8-0.4-1c-0.3-0.2-0.6-0.3-1-0.3
				C146.1,361.7,145.8,361.8,145.6,362.1 M148,360.6c0.4,0.2,0.8,0.5,1.1,0.9c0.3,0.4,0.4,0.8,0.5,1.3c0,0.3,0.1,0.7,0.1,1.2h-4.5
				c0,0.6,0.2,1.1,0.6,1.3c0.2,0.2,0.5,0.2,0.9,0.2c0.4,0,0.7-0.1,0.9-0.3c0.1-0.1,0.2-0.2,0.3-0.4h1.7c0,0.4-0.2,0.7-0.6,1.1
				c-0.6,0.6-1.3,0.9-2.3,0.9c-0.8,0-1.6-0.3-2.2-0.8c-0.6-0.5-0.9-1.3-0.9-2.5c0-1.1,0.3-1.9,0.9-2.5c0.6-0.6,1.3-0.9,2.2-0.9
				C147.1,360.4,147.5,360.5,148,360.6"/>
			<path id="Fill-201" class="st2" d="M155.7,360.9c0.4,0.3,0.6,0.9,0.6,1.7v4.2h-1.7V363c0-0.3,0-0.6-0.1-0.8
				c-0.2-0.3-0.5-0.5-0.9-0.5c-0.5,0-0.9,0.2-1.1,0.7c-0.1,0.2-0.2,0.6-0.2,1v3.4h-1.6v-6.2h1.6v0.9c0.2-0.3,0.4-0.6,0.6-0.7
				c0.3-0.3,0.8-0.4,1.3-0.4C154.8,360.4,155.3,360.5,155.7,360.9"/>
			<path id="Fill-202" class="st2" d="M157.5,361.7v-1.2h0.9v-1.7h1.6v1.7h1v1.2h-1v3.3c0,0.3,0,0.4,0.1,0.5
				c0.1,0.1,0.3,0.1,0.6,0.1c0,0,0.1,0,0.2,0c0.1,0,0.1,0,0.2,0v1.2l-0.8,0c-0.8,0-1.3-0.1-1.6-0.4c-0.2-0.2-0.3-0.5-0.3-0.9v-3.8
				H157.5z"/>
			<path id="Fill-203" class="st2" d="M163.5,364.8c0,0.3,0.1,0.5,0.2,0.6c0.2,0.2,0.6,0.3,1.1,0.3c0.3,0,0.6,0,0.8-0.1
				c0.2-0.1,0.3-0.2,0.3-0.4c0-0.2-0.1-0.3-0.2-0.4c-0.2-0.1-0.7-0.3-1.7-0.5c-0.7-0.2-1.2-0.4-1.5-0.7c-0.3-0.3-0.4-0.6-0.4-1.1
				c0-0.6,0.2-1.1,0.7-1.5c0.5-0.4,1.1-0.6,1.9-0.6c0.8,0,1.4,0.2,1.9,0.5c0.5,0.3,0.8,0.9,0.8,1.6h-1.6c0-0.2-0.1-0.4-0.2-0.5
				c-0.2-0.2-0.5-0.3-0.9-0.3c-0.4,0-0.6,0.1-0.8,0.2c-0.2,0.1-0.2,0.2-0.2,0.4c0,0.2,0.1,0.3,0.2,0.4c0.2,0.1,0.7,0.2,1.7,0.5
				c0.6,0.2,1.1,0.4,1.5,0.7c0.3,0.3,0.5,0.7,0.5,1.2c0,0.6-0.2,1.1-0.7,1.5c-0.5,0.4-1.2,0.6-2.1,0.6c-1,0-1.7-0.2-2.2-0.6
				c-0.5-0.4-0.7-0.9-0.7-1.6H163.5z"/>
			<path id="Fill-204" class="st2" d="M174.5,359.8v2.3h1.9c0.4,0,0.7,0,0.8-0.1c0.3-0.2,0.5-0.5,0.5-1c0-0.5-0.2-0.9-0.5-1
				c-0.2-0.1-0.5-0.1-0.8-0.1H174.5z M178.1,358.5c0.3,0.1,0.6,0.3,0.8,0.6c0.2,0.2,0.3,0.5,0.4,0.7c0.1,0.3,0.2,0.6,0.2,0.9
				c0,0.4-0.1,0.8-0.3,1.2c-0.2,0.4-0.5,0.7-1,0.8c0.4,0.2,0.7,0.4,0.8,0.7c0.2,0.3,0.2,0.7,0.2,1.3v0.6c0,0.4,0,0.6,0,0.8
				c0,0.2,0.2,0.4,0.3,0.5v0.2h-1.9c-0.1-0.2-0.1-0.3-0.1-0.5c0-0.2-0.1-0.5-0.1-0.7l0-0.8c0-0.5-0.1-0.9-0.3-1.1
				c-0.2-0.2-0.5-0.3-1-0.3h-1.7v3.3h-1.7v-8.5h4C177.3,358.3,177.8,358.4,178.1,358.5z"/>
			<path id="Fill-205" class="st2" d="M182.9,362.1c-0.2,0.2-0.4,0.6-0.4,1h2.8c0-0.4-0.2-0.8-0.4-1c-0.3-0.2-0.6-0.3-1-0.3
				C183.5,361.7,183.1,361.8,182.9,362.1 M185.3,360.6c0.4,0.2,0.8,0.5,1.1,0.9c0.3,0.4,0.4,0.8,0.5,1.3c0,0.3,0.1,0.7,0.1,1.2h-4.5
				c0,0.6,0.2,1.1,0.6,1.3c0.2,0.2,0.5,0.2,0.9,0.2c0.4,0,0.7-0.1,0.9-0.3c0.1-0.1,0.2-0.2,0.3-0.4h1.7c0,0.4-0.2,0.7-0.6,1.1
				c-0.6,0.6-1.3,0.9-2.3,0.9c-0.8,0-1.6-0.3-2.2-0.8c-0.6-0.5-0.9-1.3-0.9-2.5c0-1.1,0.3-1.9,0.9-2.5c0.6-0.6,1.3-0.9,2.2-0.9
				C184.4,360.4,184.9,360.5,185.3,360.6"/>
			<path id="Fill-206" class="st2" d="M191.7,365c0.3-0.3,0.4-0.7,0.4-1.4c0-0.6-0.1-1-0.4-1.4c-0.2-0.3-0.6-0.5-1-0.5
				c-0.6,0-1,0.3-1.2,0.8c-0.1,0.3-0.2,0.6-0.2,1.1c0,0.4,0.1,0.7,0.2,1c0.2,0.5,0.6,0.8,1.2,0.8C191.1,365.4,191.4,365.3,191.7,365
				 M191.1,360.5c0.4,0.2,0.7,0.5,1,0.9v-0.9h1.6v5.9c0,0.8-0.1,1.4-0.4,1.8c-0.5,0.7-1.4,1.1-2.7,1.1c-0.8,0-1.4-0.2-1.9-0.5
				c-0.5-0.3-0.8-0.8-0.8-1.4h1.8c0,0.2,0.1,0.3,0.2,0.4c0.2,0.1,0.5,0.2,0.9,0.2c0.6,0,1-0.2,1.2-0.6c0.1-0.3,0.2-0.7,0.2-1.3v-0.4
				c-0.2,0.3-0.3,0.5-0.5,0.6c-0.3,0.2-0.7,0.4-1.3,0.4c-0.8,0-1.4-0.3-1.9-0.8c-0.5-0.6-0.7-1.3-0.7-2.3c0-0.9,0.2-1.7,0.7-2.3
				c0.5-0.6,1.1-0.9,1.9-0.9C190.6,360.4,190.9,360.4,191.1,360.5"/>
			<path id="Fill-207" class="st2" d="M195.5,366.8h1.6v-6.3h-1.6V366.8z M195.5,359.8h1.6v-1.5h-1.6V359.8z"/>
			<path id="Fill-208" class="st2" d="M200.3,364.8c0,0.3,0.1,0.5,0.2,0.6c0.2,0.2,0.6,0.3,1.1,0.3c0.3,0,0.6,0,0.8-0.1
				c0.2-0.1,0.3-0.2,0.3-0.4c0-0.2-0.1-0.3-0.2-0.4c-0.2-0.1-0.7-0.3-1.7-0.5c-0.7-0.2-1.2-0.4-1.5-0.7c-0.3-0.3-0.4-0.6-0.4-1.1
				c0-0.6,0.2-1.1,0.7-1.5c0.5-0.4,1.1-0.6,1.9-0.6c0.8,0,1.4,0.2,1.9,0.5c0.5,0.3,0.8,0.9,0.8,1.6h-1.6c0-0.2-0.1-0.4-0.2-0.5
				c-0.2-0.2-0.5-0.3-0.9-0.3c-0.4,0-0.6,0.1-0.8,0.2c-0.2,0.1-0.2,0.2-0.2,0.4c0,0.2,0.1,0.3,0.2,0.4c0.2,0.1,0.7,0.2,1.7,0.5
				c0.6,0.2,1.1,0.4,1.5,0.7c0.3,0.3,0.5,0.7,0.5,1.2c0,0.6-0.2,1.1-0.7,1.5c-0.5,0.4-1.2,0.6-2.1,0.6c-1,0-1.7-0.2-2.2-0.6
				c-0.5-0.4-0.7-0.9-0.7-1.6H200.3z"/>
			<path id="Fill-209" class="st2" d="M205.1,361.7v-1.2h0.9v-1.7h1.6v1.7h1v1.2h-1v3.3c0,0.3,0,0.4,0.1,0.5
				c0.1,0.1,0.3,0.1,0.6,0.1c0,0,0.1,0,0.2,0c0.1,0,0.1,0,0.2,0v1.2l-0.8,0c-0.8,0-1.3-0.1-1.6-0.4c-0.2-0.2-0.3-0.5-0.3-0.9v-3.8
				H205.1z"/>
			<path id="Fill-210" class="st2" d="M213.4,360.4c0,0,0.1,0,0.1,0v1.7c-0.1,0-0.2,0-0.3,0c-0.1,0-0.1,0-0.2,0
				c-0.7,0-1.1,0.2-1.3,0.6c-0.1,0.2-0.2,0.6-0.2,1.1v3h-1.6v-6.3h1.5v1.1c0.3-0.4,0.5-0.7,0.7-0.9
				C212.4,360.5,212.8,360.4,213.4,360.4C213.3,360.4,213.4,360.4,213.4,360.4"/>
			<path id="Fill-211" class="st2" d="M215,368l0.2,0c0.2,0,0.3,0,0.5,0c0.1,0,0.3-0.1,0.4-0.1c0.1-0.1,0.2-0.2,0.3-0.4
				c0.1-0.2,0.1-0.3,0.1-0.4l-2.3-6.5h1.8l1.4,4.6l1.3-4.6h1.7l-2.1,6.1c-0.4,1.2-0.7,1.9-1,2.2c-0.2,0.3-0.7,0.4-1.4,0.4
				c-0.1,0-0.3,0-0.3,0c-0.1,0-0.2,0-0.4,0V368z"/>
			<polygon id="Fill-212" class="st2" points="91.1,379.1 91.1,373.8 89.1,373.8 89.1,373.1 93.8,373.1 93.8,373.8 91.8,373.8 
				91.8,379.1 			"/>
			<path id="Fill-213" class="st2" d="M94.5,379.1v-6h0.7v2.2c0.3-0.4,0.8-0.6,1.3-0.6c0.3,0,0.6,0.1,0.8,0.2
				c0.2,0.1,0.4,0.3,0.5,0.5c0.1,0.2,0.2,0.5,0.2,1v2.8h-0.7v-2.8c0-0.4-0.1-0.6-0.2-0.8c-0.2-0.2-0.4-0.3-0.7-0.3
				c-0.2,0-0.4,0.1-0.6,0.2c-0.2,0.1-0.3,0.3-0.4,0.5c-0.1,0.2-0.1,0.5-0.1,0.8v2.4H94.5z"/>
			<path id="Fill-214" class="st2" d="M99.7,376.5h2.4c0-0.4-0.1-0.6-0.3-0.8c-0.2-0.3-0.5-0.4-0.9-0.4c-0.3,0-0.6,0.1-0.8,0.3
				C99.9,375.8,99.7,376.1,99.7,376.5 M102.1,377.7l0.8,0.1c-0.1,0.4-0.3,0.8-0.7,1c-0.3,0.2-0.7,0.4-1.2,0.4
				c-0.6,0-1.1-0.2-1.5-0.6c-0.4-0.4-0.6-0.9-0.6-1.6c0-0.7,0.2-1.3,0.6-1.7c0.4-0.4,0.9-0.6,1.5-0.6c0.6,0,1,0.2,1.4,0.6
				c0.4,0.4,0.5,1,0.5,1.7c0,0,0,0.1,0,0.2h-3.2c0,0.5,0.2,0.8,0.4,1.1c0.2,0.3,0.5,0.4,0.9,0.4c0.3,0,0.5-0.1,0.7-0.2
				C101.9,378.2,102,378,102.1,377.7"/>
			<path id="Fill-215" class="st2" d="M109,376.7V376l2.5,0v2.2c-0.4,0.3-0.8,0.5-1.2,0.7c-0.4,0.2-0.8,0.2-1.3,0.2
				c-0.6,0-1.1-0.1-1.6-0.4c-0.5-0.3-0.8-0.6-1.1-1.1c-0.2-0.5-0.4-1-0.4-1.6c0-0.6,0.1-1.1,0.4-1.6c0.2-0.5,0.6-0.9,1-1.1
				c0.5-0.2,1-0.4,1.6-0.4c0.4,0,0.8,0.1,1.2,0.2c0.3,0.1,0.6,0.3,0.8,0.6c0.2,0.3,0.3,0.6,0.5,1l-0.7,0.2c-0.1-0.3-0.2-0.5-0.3-0.7
				c-0.1-0.2-0.3-0.3-0.6-0.4c-0.2-0.1-0.5-0.2-0.8-0.2c-0.4,0-0.7,0.1-0.9,0.2c-0.3,0.1-0.5,0.3-0.6,0.4c-0.2,0.2-0.3,0.4-0.4,0.6
				c-0.2,0.4-0.2,0.8-0.2,1.2c0,0.5,0.1,1,0.3,1.3c0.2,0.4,0.4,0.6,0.8,0.8c0.3,0.2,0.7,0.3,1.1,0.3c0.3,0,0.7-0.1,1-0.2
				c0.3-0.1,0.6-0.3,0.7-0.4v-1.1H109z"/>
			<path id="Fill-216" class="st2" d="M113.1,376.9c0,0.6,0.1,1,0.4,1.3c0.2,0.3,0.5,0.4,0.9,0.4c0.4,0,0.7-0.1,0.9-0.4
				c0.2-0.3,0.4-0.7,0.4-1.3c0-0.5-0.1-0.9-0.4-1.2c-0.2-0.3-0.5-0.4-0.9-0.4c-0.4,0-0.7,0.1-0.9,0.4
				C113.2,375.9,113.1,376.4,113.1,376.9 M112.3,376.9c0-0.8,0.2-1.4,0.7-1.8c0.4-0.3,0.8-0.5,1.4-0.5c0.6,0,1.1,0.2,1.5,0.6
				c0.4,0.4,0.6,0.9,0.6,1.6c0,0.6-0.1,1-0.2,1.3c-0.2,0.3-0.4,0.6-0.7,0.7c-0.3,0.2-0.7,0.3-1,0.3c-0.6,0-1.1-0.2-1.5-0.6
				C112.5,378.2,112.3,377.6,112.3,376.9"/>
			<path id="Fill-217" class="st2" d="M118.4,379.1l-1.6-4.4h0.8l0.9,2.6c0.1,0.3,0.2,0.6,0.3,0.9c0.1-0.2,0.2-0.5,0.3-0.8l1-2.7
				h0.8l-1.6,4.4H118.4z"/>
			<path id="Fill-218" class="st2" d="M121.9,376.5h2.4c0-0.4-0.1-0.6-0.3-0.8c-0.2-0.3-0.5-0.4-0.9-0.4c-0.3,0-0.6,0.1-0.8,0.3
				C122.1,375.8,121.9,376.1,121.9,376.5 M124.3,377.7l0.8,0.1c-0.1,0.4-0.3,0.8-0.7,1c-0.3,0.2-0.7,0.4-1.2,0.4
				c-0.6,0-1.1-0.2-1.5-0.6c-0.4-0.4-0.6-0.9-0.6-1.6c0-0.7,0.2-1.3,0.6-1.7c0.4-0.4,0.9-0.6,1.5-0.6c0.6,0,1,0.2,1.4,0.6
				c0.4,0.4,0.5,1,0.5,1.7c0,0,0,0.1,0,0.2h-3.2c0,0.5,0.2,0.8,0.4,1.1c0.2,0.3,0.5,0.4,0.9,0.4c0.3,0,0.5-0.1,0.7-0.2
				C124.1,378.2,124.2,378,124.3,377.7"/>
			<path id="Fill-219" class="st2" d="M126,379.1v-4.4h0.7v0.7c0.2-0.3,0.3-0.5,0.5-0.6c0.1-0.1,0.3-0.1,0.5-0.1
				c0.2,0,0.5,0.1,0.8,0.2l-0.3,0.7c-0.2-0.1-0.4-0.2-0.5-0.2c-0.2,0-0.3,0-0.4,0.1c-0.1,0.1-0.2,0.2-0.3,0.4
				c-0.1,0.3-0.1,0.5-0.1,0.9v2.3H126z"/>
			<path id="Fill-220" class="st2" d="M128.8,379.1v-4.4h0.7v0.6c0.3-0.5,0.8-0.7,1.4-0.7c0.3,0,0.5,0,0.7,0.1
				c0.2,0.1,0.4,0.2,0.5,0.4c0.1,0.2,0.2,0.3,0.2,0.5c0,0.1,0,0.4,0,0.7v2.7h-0.7v-2.6c0-0.3,0-0.5-0.1-0.7
				c-0.1-0.1-0.2-0.3-0.3-0.4c-0.1-0.1-0.3-0.1-0.5-0.1c-0.3,0-0.6,0.1-0.8,0.3c-0.2,0.2-0.3,0.6-0.3,1.1v2.4H128.8z"/>
			<path id="Fill-221" class="st2" d="M133.4,379.1v-4.4h0.7v0.6c0.1-0.2,0.3-0.4,0.5-0.5c0.2-0.1,0.5-0.2,0.8-0.2
				c0.3,0,0.6,0.1,0.8,0.2c0.2,0.1,0.3,0.3,0.4,0.6c0.3-0.5,0.8-0.8,1.3-0.8c0.4,0,0.8,0.1,1,0.4c0.2,0.2,0.3,0.6,0.3,1.1v3h-0.7
				v-2.7c0-0.3,0-0.5-0.1-0.6s-0.1-0.2-0.3-0.3c-0.1-0.1-0.3-0.1-0.4-0.1c-0.3,0-0.6,0.1-0.8,0.3c-0.2,0.2-0.3,0.5-0.3,1v2.5H136
				v-2.8c0-0.3-0.1-0.6-0.2-0.7c-0.1-0.2-0.3-0.2-0.6-0.2c-0.2,0-0.4,0.1-0.6,0.2c-0.2,0.1-0.3,0.3-0.4,0.5
				c-0.1,0.2-0.1,0.5-0.1,0.9v2.3H133.4z"/>
			<path id="Fill-222" class="st2" d="M140.9,376.5h2.4c0-0.4-0.1-0.6-0.3-0.8c-0.2-0.3-0.5-0.4-0.9-0.4c-0.3,0-0.6,0.1-0.8,0.3
				C141,375.8,140.9,376.1,140.9,376.5 M143.3,377.7l0.8,0.1c-0.1,0.4-0.3,0.8-0.7,1c-0.3,0.2-0.7,0.4-1.2,0.4
				c-0.6,0-1.1-0.2-1.5-0.6c-0.4-0.4-0.6-0.9-0.6-1.6c0-0.7,0.2-1.3,0.6-1.7c0.4-0.4,0.9-0.6,1.5-0.6c0.6,0,1,0.2,1.4,0.6
				s0.5,1,0.5,1.7c0,0,0,0.1,0,0.2h-3.2c0,0.5,0.2,0.8,0.4,1.1c0.2,0.3,0.5,0.4,0.9,0.4c0.3,0,0.5-0.1,0.7-0.2
				C143,378.2,143.2,378,143.3,377.7"/>
			<path id="Fill-223" class="st2" d="M145,379.1v-4.4h0.7v0.6c0.3-0.5,0.8-0.7,1.4-0.7c0.3,0,0.5,0,0.7,0.1
				c0.2,0.1,0.4,0.2,0.5,0.4c0.1,0.2,0.2,0.3,0.2,0.5c0,0.1,0,0.4,0,0.7v2.7h-0.7v-2.6c0-0.3,0-0.5-0.1-0.7
				c-0.1-0.1-0.2-0.3-0.3-0.4c-0.1-0.1-0.3-0.1-0.5-0.1c-0.3,0-0.6,0.1-0.8,0.3c-0.2,0.2-0.3,0.6-0.3,1.1v2.4H145z"/>
			<path id="Fill-224" class="st2" d="M151.2,378.4l0.1,0.7c-0.2,0-0.4,0.1-0.6,0.1c-0.3,0-0.5,0-0.6-0.1c-0.1-0.1-0.2-0.2-0.3-0.3
				c-0.1-0.1-0.1-0.4-0.1-0.9v-2.5h-0.5v-0.6h0.5v-1.1l0.7-0.4v1.5h0.7v0.6h-0.7v2.5c0,0.2,0,0.3,0,0.4c0,0.1,0.1,0.1,0.1,0.1
				c0.1,0,0.1,0.1,0.3,0.1C150.9,378.5,151,378.5,151.2,378.4"/>
			<path id="Fill-225" class="st2" d="M154.7,376.9c0,0.6,0.1,1,0.4,1.3c0.2,0.3,0.5,0.4,0.9,0.4c0.4,0,0.7-0.1,0.9-0.4
				c0.2-0.3,0.4-0.7,0.4-1.3c0-0.5-0.1-0.9-0.4-1.2c-0.2-0.3-0.5-0.4-0.9-0.4c-0.4,0-0.7,0.1-0.9,0.4
				C154.8,375.9,154.7,376.4,154.7,376.9 M153.9,376.9c0-0.8,0.2-1.4,0.7-1.8c0.4-0.3,0.8-0.5,1.4-0.5c0.6,0,1.1,0.2,1.5,0.6
				c0.4,0.4,0.6,0.9,0.6,1.6c0,0.6-0.1,1-0.2,1.3c-0.2,0.3-0.4,0.6-0.7,0.7c-0.3,0.2-0.7,0.3-1,0.3c-0.6,0-1.1-0.2-1.5-0.6
				C154.1,378.2,153.9,377.6,153.9,376.9"/>
			<path id="Fill-226" class="st2" d="M159,379.1v-3.8h-0.6v-0.6h0.6v-0.5c0-0.3,0-0.5,0.1-0.7c0.1-0.2,0.2-0.3,0.4-0.5
				c0.2-0.1,0.4-0.2,0.7-0.2c0.2,0,0.4,0,0.7,0.1l-0.1,0.6c-0.2,0-0.3,0-0.4,0c-0.2,0-0.4,0-0.5,0.1c-0.1,0.1-0.1,0.3-0.1,0.5v0.4
				h0.8v0.6h-0.8v3.8H159z"/>
			<path id="Fill-227" class="st2" d="M165.1,378.4l0.1,0.7c-0.2,0-0.4,0.1-0.6,0.1c-0.3,0-0.5,0-0.6-0.1c-0.1-0.1-0.2-0.2-0.3-0.3
				c-0.1-0.1-0.1-0.4-0.1-0.9v-2.5h-0.5v-0.6h0.5v-1.1l0.7-0.4v1.5h0.7v0.6h-0.7v2.5c0,0.2,0,0.3,0,0.4c0,0.1,0.1,0.1,0.1,0.1
				c0.1,0,0.1,0.1,0.3,0.1C164.8,378.5,164.9,378.5,165.1,378.4"/>
			<path id="Fill-228" class="st2" d="M165.8,379.1v-6h0.7v2.2c0.3-0.4,0.8-0.6,1.3-0.6c0.3,0,0.6,0.1,0.8,0.2
				c0.2,0.1,0.4,0.3,0.5,0.5c0.1,0.2,0.2,0.5,0.2,1v2.8h-0.7v-2.8c0-0.4-0.1-0.6-0.2-0.8c-0.2-0.2-0.4-0.3-0.7-0.3
				c-0.2,0-0.4,0.1-0.6,0.2c-0.2,0.1-0.3,0.3-0.4,0.5c-0.1,0.2-0.1,0.5-0.1,0.8v2.4H165.8z"/>
			<path id="Fill-229" class="st2" d="M171,376.5h2.4c0-0.4-0.1-0.6-0.3-0.8c-0.2-0.3-0.5-0.4-0.9-0.4c-0.3,0-0.6,0.1-0.8,0.3
				C171.1,375.8,171,376.1,171,376.5 M173.4,377.7l0.8,0.1c-0.1,0.4-0.3,0.8-0.7,1c-0.3,0.2-0.7,0.4-1.2,0.4c-0.6,0-1.1-0.2-1.5-0.6
				c-0.4-0.4-0.6-0.9-0.6-1.6c0-0.7,0.2-1.3,0.6-1.7c0.4-0.4,0.9-0.6,1.5-0.6c0.6,0,1,0.2,1.4,0.6c0.4,0.4,0.5,1,0.5,1.7
				c0,0,0,0.1,0,0.2h-3.2c0,0.5,0.2,0.8,0.4,1.1c0.2,0.3,0.5,0.4,0.9,0.4c0.3,0,0.5-0.1,0.7-0.2C173.1,378.2,173.2,378,173.4,377.7"
				/>
			<polygon id="Fill-230" class="st2" points="177.5,379.1 177.5,373.1 178.2,373.1 178.2,375.6 181.3,375.6 181.3,373.1 
				182.1,373.1 182.1,379.1 181.3,379.1 181.3,376.3 178.2,376.3 178.2,379.1 			"/>
			<path id="Fill-231" class="st2" d="M183.8,376.9c0,0.6,0.1,1,0.4,1.3c0.2,0.3,0.5,0.4,0.9,0.4c0.4,0,0.7-0.1,0.9-0.4
				c0.2-0.3,0.4-0.7,0.4-1.3c0-0.5-0.1-0.9-0.4-1.2c-0.2-0.3-0.5-0.4-0.9-0.4c-0.4,0-0.7,0.1-0.9,0.4
				C184,375.9,183.8,376.4,183.8,376.9 M183.1,376.9c0-0.8,0.2-1.4,0.7-1.8c0.4-0.3,0.8-0.5,1.4-0.5c0.6,0,1.1,0.2,1.5,0.6
				c0.4,0.4,0.6,0.9,0.6,1.6c0,0.6-0.1,1-0.2,1.3c-0.2,0.3-0.4,0.6-0.7,0.7c-0.3,0.2-0.7,0.3-1,0.3c-0.6,0-1.1-0.2-1.5-0.6
				C183.3,378.2,183.1,377.6,183.1,376.9"/>
			<path id="Fill-232" class="st2" d="M188,379.1v-4.4h0.7v0.6c0.3-0.5,0.8-0.7,1.4-0.7c0.3,0,0.5,0,0.7,0.1
				c0.2,0.1,0.4,0.2,0.5,0.4c0.1,0.2,0.2,0.3,0.2,0.5c0,0.1,0,0.4,0,0.7v2.7h-0.7v-2.6c0-0.3,0-0.5-0.1-0.7
				c-0.1-0.1-0.2-0.3-0.3-0.4c-0.1-0.1-0.3-0.1-0.5-0.1c-0.3,0-0.6,0.1-0.8,0.3c-0.2,0.2-0.3,0.6-0.3,1.1v2.4H188z"/>
			<path id="Fill-233" class="st2" d="M193.1,376.8c0,0.6,0.1,1,0.3,1.3c0.2,0.3,0.5,0.4,0.8,0.4c0.3,0,0.6-0.1,0.8-0.4
				c0.2-0.3,0.3-0.7,0.3-1.2c0-0.5-0.1-0.9-0.4-1.2c-0.2-0.3-0.5-0.4-0.8-0.4c-0.3,0-0.6,0.1-0.8,0.4
				C193.2,375.9,193.1,376.3,193.1,376.8 M192.5,379.5l0.7,0.1c0,0.2,0.1,0.4,0.2,0.5c0.2,0.1,0.4,0.2,0.7,0.2
				c0.3,0,0.6-0.1,0.8-0.2c0.2-0.1,0.3-0.3,0.4-0.6c0-0.2,0.1-0.5,0.1-0.9c-0.3,0.4-0.7,0.6-1.2,0.6c-0.6,0-1.1-0.2-1.4-0.6
				c-0.3-0.4-0.5-0.9-0.5-1.6c0-0.4,0.1-0.8,0.2-1.1c0.1-0.4,0.4-0.6,0.6-0.8c0.3-0.2,0.6-0.3,1-0.3c0.5,0,0.9,0.2,1.3,0.6v-0.5h0.7
				v3.8c0,0.7-0.1,1.2-0.2,1.4c-0.1,0.3-0.4,0.5-0.7,0.7c-0.3,0.2-0.7,0.2-1.1,0.2c-0.5,0-0.9-0.1-1.2-0.4
				C192.6,380.3,192.5,379.9,192.5,379.5"/>
			<polygon id="Fill-234" class="st2" points="199.6,379.1 199.6,373.1 200.4,373.1 200.4,376.1 203.4,373.1 204.4,373.1 
				201.9,375.5 204.5,379.1 203.5,379.1 201.4,376.1 200.4,377 200.4,379.1 			"/>
			<path id="Fill-235" class="st2" d="M205.6,376.9c0,0.6,0.1,1,0.4,1.3c0.2,0.3,0.5,0.4,0.9,0.4c0.4,0,0.7-0.1,0.9-0.4
				c0.2-0.3,0.4-0.7,0.4-1.3c0-0.5-0.1-0.9-0.4-1.2c-0.2-0.3-0.5-0.4-0.9-0.4c-0.4,0-0.7,0.1-0.9,0.4
				C205.7,375.9,205.6,376.4,205.6,376.9 M204.8,376.9c0-0.8,0.2-1.4,0.7-1.8c0.4-0.3,0.8-0.5,1.4-0.5c0.6,0,1.1,0.2,1.5,0.6
				c0.4,0.4,0.6,0.9,0.6,1.6c0,0.6-0.1,1-0.2,1.3c-0.2,0.3-0.4,0.6-0.7,0.7c-0.3,0.2-0.7,0.3-1,0.3c-0.6,0-1.1-0.2-1.5-0.6
				C205,378.2,204.8,377.6,204.8,376.9"/>
			<path id="Fill-236" class="st2" d="M209.7,379.1v-4.4h0.7v0.6c0.3-0.5,0.8-0.7,1.4-0.7c0.3,0,0.5,0,0.7,0.1
				c0.2,0.1,0.4,0.2,0.5,0.4s0.2,0.3,0.2,0.5c0,0.1,0,0.4,0,0.7v2.7h-0.7v-2.6c0-0.3,0-0.5-0.1-0.7c-0.1-0.1-0.2-0.3-0.3-0.4
				c-0.1-0.1-0.3-0.1-0.5-0.1c-0.3,0-0.6,0.1-0.8,0.3s-0.3,0.6-0.3,1.1v2.4H209.7z"/>
			<path id="Fill-237" class="st2" d="M214.8,376.8c0,0.6,0.1,1,0.3,1.3c0.2,0.3,0.5,0.4,0.8,0.4c0.3,0,0.6-0.1,0.8-0.4
				c0.2-0.3,0.3-0.7,0.3-1.2c0-0.5-0.1-0.9-0.4-1.2c-0.2-0.3-0.5-0.4-0.8-0.4c-0.3,0-0.6,0.1-0.8,0.4
				C214.9,375.9,214.8,376.3,214.8,376.8 M214.2,379.5l0.7,0.1c0,0.2,0.1,0.4,0.2,0.5c0.2,0.1,0.4,0.2,0.7,0.2
				c0.3,0,0.6-0.1,0.8-0.2c0.2-0.1,0.3-0.3,0.4-0.6c0-0.2,0.1-0.5,0.1-0.9c-0.3,0.4-0.7,0.6-1.2,0.6c-0.6,0-1.1-0.2-1.4-0.6
				c-0.3-0.4-0.5-0.9-0.5-1.6c0-0.4,0.1-0.8,0.2-1.1c0.1-0.4,0.4-0.6,0.6-0.8c0.3-0.2,0.6-0.3,1-0.3c0.5,0,0.9,0.2,1.3,0.6v-0.5h0.7
				v3.8c0,0.7-0.1,1.2-0.2,1.4c-0.1,0.3-0.4,0.5-0.7,0.7c-0.3,0.2-0.7,0.2-1.1,0.2c-0.5,0-0.9-0.1-1.2-0.4
				C214.4,380.3,214.2,379.9,214.2,379.5"/>
			<path id="Fill-238" class="st2" d="M89.1,387.2l0.7-0.1c0,0.3,0.1,0.5,0.2,0.7c0.1,0.2,0.3,0.3,0.6,0.5c0.3,0.1,0.6,0.2,0.9,0.2
				c0.3,0,0.6,0,0.8-0.1c0.2-0.1,0.4-0.2,0.5-0.4c0.1-0.2,0.2-0.3,0.2-0.5c0-0.2-0.1-0.4-0.2-0.5c-0.1-0.1-0.3-0.3-0.5-0.4
				c-0.2-0.1-0.5-0.2-1.1-0.3c-0.5-0.1-0.9-0.3-1.2-0.4c-0.3-0.2-0.5-0.3-0.6-0.6c-0.1-0.2-0.2-0.5-0.2-0.7c0-0.3,0.1-0.6,0.3-0.9
				c0.2-0.3,0.4-0.5,0.7-0.6c0.3-0.1,0.7-0.2,1.1-0.2c0.4,0,0.8,0.1,1.2,0.2c0.3,0.1,0.6,0.4,0.8,0.6c0.2,0.3,0.3,0.6,0.3,0.9
				l-0.8,0.1c0-0.4-0.2-0.7-0.4-0.9c-0.2-0.2-0.6-0.3-1-0.3c-0.5,0-0.8,0.1-1,0.3c-0.2,0.2-0.3,0.4-0.3,0.6c0,0.2,0.1,0.4,0.2,0.5
				c0.2,0.1,0.5,0.3,1.2,0.4c0.6,0.1,1.1,0.3,1.3,0.4c0.3,0.2,0.6,0.4,0.8,0.6c0.2,0.2,0.2,0.5,0.2,0.9c0,0.3-0.1,0.6-0.3,0.9
				c-0.2,0.3-0.4,0.5-0.8,0.7c-0.3,0.2-0.7,0.2-1.1,0.2c-0.5,0-1-0.1-1.4-0.2c-0.4-0.2-0.7-0.4-0.9-0.7
				C89.2,387.9,89.1,387.6,89.1,387.2"/>
			<path id="Fill-239" class="st2" d="M95.5,386.9c0,0.6,0.1,1,0.3,1.2c0.2,0.3,0.5,0.4,0.8,0.4c0.3,0,0.6-0.1,0.8-0.4
				c0.2-0.3,0.3-0.7,0.3-1.3c0-0.6-0.1-1-0.3-1.2c-0.2-0.3-0.5-0.4-0.8-0.4c-0.3,0-0.6,0.1-0.8,0.4C95.6,386,95.5,386.4,95.5,386.9z
				 M94.9,390.8v-6h0.7v0.6c0.2-0.2,0.3-0.4,0.5-0.5c0.2-0.1,0.4-0.2,0.7-0.2c0.4,0,0.7,0.1,1,0.3c0.3,0.2,0.5,0.5,0.6,0.8
				c0.1,0.3,0.2,0.7,0.2,1.1c0,0.4-0.1,0.8-0.2,1.2c-0.2,0.4-0.4,0.6-0.7,0.8c-0.3,0.2-0.6,0.3-1,0.3c-0.2,0-0.5-0.1-0.7-0.2
				c-0.2-0.1-0.4-0.2-0.5-0.4v2.1H94.9z"/>
			<path id="Fill-240" class="st2" d="M100,386.5h2.4c0-0.4-0.1-0.6-0.3-0.8c-0.2-0.3-0.5-0.4-0.9-0.4c-0.3,0-0.6,0.1-0.8,0.3
				C100.2,385.8,100.1,386.1,100,386.5 M102.4,387.7l0.8,0.1c-0.1,0.4-0.3,0.8-0.7,1c-0.3,0.2-0.7,0.4-1.2,0.4
				c-0.6,0-1.1-0.2-1.5-0.6c-0.4-0.4-0.6-0.9-0.6-1.6c0-0.7,0.2-1.3,0.6-1.7c0.4-0.4,0.9-0.6,1.5-0.6c0.6,0,1,0.2,1.4,0.6
				c0.4,0.4,0.5,1,0.5,1.7c0,0,0,0.1,0,0.2H100c0,0.5,0.2,0.8,0.4,1.1c0.2,0.3,0.5,0.4,0.9,0.4c0.3,0,0.5-0.1,0.7-0.2
				C102.2,388.2,102.3,388,102.4,387.7"/>
			<path id="Fill-241" class="st2" d="M106.9,387.5l0.7,0.1c-0.1,0.5-0.3,0.9-0.6,1.2c-0.3,0.3-0.7,0.4-1.2,0.4
				c-0.6,0-1.1-0.2-1.4-0.6c-0.4-0.4-0.5-0.9-0.5-1.7c0-0.5,0.1-0.9,0.2-1.2s0.4-0.6,0.7-0.8c0.3-0.2,0.7-0.3,1-0.3
				c0.5,0,0.9,0.1,1.2,0.4c0.3,0.2,0.5,0.6,0.6,1l-0.7,0.1c-0.1-0.3-0.2-0.5-0.4-0.7c-0.2-0.1-0.4-0.2-0.6-0.2
				c-0.4,0-0.7,0.1-0.9,0.4c-0.2,0.3-0.3,0.7-0.3,1.3c0,0.6,0.1,1,0.3,1.3c0.2,0.3,0.5,0.4,0.9,0.4c0.3,0,0.5-0.1,0.7-0.3
				S106.9,387.9,106.9,387.5"/>
			<path id="Fill-242" class="st2" d="M108.3,389.1h0.7v-4.4h-0.7V389.1z M108.3,383.9h0.7v-0.8h-0.7V383.9z"/>
			<path id="Fill-243" class="st2" d="M112.9,386.9c-0.3,0.1-0.7,0.2-1.2,0.3c-0.3,0-0.5,0.1-0.6,0.1c-0.1,0.1-0.2,0.1-0.3,0.2
				c-0.1,0.1-0.1,0.2-0.1,0.4c0,0.2,0.1,0.4,0.2,0.5c0.1,0.1,0.4,0.2,0.6,0.2c0.3,0,0.5-0.1,0.8-0.2c0.2-0.1,0.4-0.3,0.5-0.5
				c0.1-0.2,0.1-0.4,0.1-0.7V386.9z M112.9,388.6c-0.3,0.2-0.5,0.4-0.8,0.5c-0.3,0.1-0.5,0.1-0.8,0.1c-0.5,0-0.8-0.1-1.1-0.4
				c-0.3-0.2-0.4-0.5-0.4-0.9c0-0.2,0-0.4,0.1-0.6c0.1-0.2,0.2-0.3,0.4-0.4c0.2-0.1,0.3-0.2,0.5-0.2c0.1,0,0.4-0.1,0.6-0.1
				c0.6-0.1,1-0.2,1.3-0.3c0-0.1,0-0.2,0-0.2c0-0.3-0.1-0.5-0.2-0.6c-0.2-0.2-0.5-0.2-0.8-0.2c-0.3,0-0.6,0.1-0.8,0.2
				c-0.2,0.1-0.3,0.3-0.4,0.6L110,386c0.1-0.3,0.2-0.6,0.3-0.7c0.1-0.2,0.4-0.3,0.6-0.4s0.6-0.2,1-0.2c0.4,0,0.7,0,0.9,0.1
				c0.2,0.1,0.4,0.2,0.5,0.3c0.1,0.1,0.2,0.3,0.2,0.5c0,0.1,0,0.4,0,0.7v1c0,0.7,0,1.1,0,1.3c0,0.2,0.1,0.4,0.2,0.5h-0.8
				C113,388.9,113,388.8,112.9,388.6z"/>
			<polygon id="Fill-244" class="st2" points="114.7,389.1 115.5,389.1 115.5,383.1 114.7,383.1 			"/>
			<path id="Fill-245" class="st2" d="M119.6,386.6h2L121,385c-0.2-0.5-0.3-0.9-0.4-1.2c-0.1,0.4-0.2,0.8-0.3,1.1L119.6,386.6z
				 M117.9,389.1l2.3-6h0.8l2.4,6h-0.9l-0.7-1.8h-2.5l-0.7,1.8H117.9z"/>
			<path id="Fill-246" class="st2" d="M124.5,386.9c0,0.6,0.1,1,0.3,1.3c0.2,0.3,0.5,0.4,0.8,0.4c0.3,0,0.6-0.1,0.8-0.4
				c0.2-0.3,0.3-0.7,0.3-1.2c0-0.6-0.1-1-0.3-1.3c-0.2-0.3-0.5-0.4-0.8-0.4c-0.3,0-0.6,0.1-0.8,0.4
				C124.6,385.9,124.5,386.3,124.5,386.9z M126.8,389.1v-0.5c-0.3,0.4-0.7,0.6-1.2,0.6c-0.3,0-0.7-0.1-0.9-0.3
				c-0.3-0.2-0.5-0.5-0.7-0.8c-0.2-0.3-0.2-0.7-0.2-1.2c0-0.4,0.1-0.8,0.2-1.2c0.1-0.4,0.4-0.6,0.6-0.8c0.3-0.2,0.6-0.3,1-0.3
				c0.3,0,0.5,0.1,0.7,0.2c0.2,0.1,0.4,0.3,0.5,0.4v-2.2h0.7v6H126.8z"/>
			<path id="Fill-247" class="st2" d="M128.6,389.1v-4.4h0.7v0.6c0.1-0.2,0.3-0.4,0.5-0.5c0.2-0.1,0.5-0.2,0.8-0.2
				c0.3,0,0.6,0.1,0.8,0.2c0.2,0.1,0.3,0.3,0.4,0.6c0.3-0.5,0.8-0.8,1.3-0.8c0.4,0,0.8,0.1,1,0.4c0.2,0.2,0.3,0.6,0.3,1.1v3h-0.7
				v-2.7c0-0.3,0-0.5-0.1-0.6s-0.1-0.2-0.3-0.3c-0.1-0.1-0.3-0.1-0.4-0.1c-0.3,0-0.6,0.1-0.8,0.3c-0.2,0.2-0.3,0.5-0.3,1v2.5h-0.7
				v-2.8c0-0.3-0.1-0.6-0.2-0.7c-0.1-0.2-0.3-0.2-0.6-0.2c-0.2,0-0.4,0.1-0.6,0.2c-0.2,0.1-0.3,0.3-0.4,0.5
				c-0.1,0.2-0.1,0.5-0.1,0.9v2.3H128.6z"/>
			<path id="Fill-248" class="st2" d="M135.6,389.1h0.7v-4.4h-0.7V389.1z M135.6,383.9h0.7v-0.8h-0.7V383.9z"/>
			<path id="Fill-249" class="st2" d="M137.4,389.1v-4.4h0.7v0.6c0.3-0.5,0.8-0.7,1.4-0.7c0.3,0,0.5,0,0.7,0.1
				c0.2,0.1,0.4,0.2,0.5,0.4s0.2,0.3,0.2,0.5c0,0.1,0,0.4,0,0.7v2.7h-0.7v-2.6c0-0.3,0-0.5-0.1-0.7c-0.1-0.1-0.2-0.3-0.3-0.4
				c-0.1-0.1-0.3-0.1-0.5-0.1c-0.3,0-0.6,0.1-0.8,0.3c-0.2,0.2-0.3,0.6-0.3,1.1v2.4H137.4z"/>
			<path id="Fill-250" class="st2" d="M141.7,387.8l0.7-0.1c0,0.3,0.2,0.5,0.3,0.7c0.2,0.2,0.4,0.2,0.8,0.2c0.3,0,0.6-0.1,0.7-0.2
				c0.2-0.1,0.2-0.3,0.2-0.5c0-0.2-0.1-0.3-0.2-0.4c-0.1-0.1-0.3-0.1-0.7-0.3c-0.5-0.1-0.9-0.3-1.1-0.4c-0.2-0.1-0.4-0.2-0.5-0.4
				c-0.1-0.2-0.2-0.4-0.2-0.6c0-0.2,0-0.4,0.1-0.5c0.1-0.2,0.2-0.3,0.4-0.4c0.1-0.1,0.3-0.2,0.5-0.2c0.2-0.1,0.4-0.1,0.6-0.1
				c0.3,0,0.6,0,0.9,0.1c0.3,0.1,0.4,0.2,0.6,0.4c0.1,0.2,0.2,0.4,0.3,0.7l-0.7,0.1c0-0.2-0.1-0.4-0.3-0.5c-0.2-0.1-0.4-0.2-0.7-0.2
				c-0.3,0-0.6,0.1-0.7,0.2c-0.1,0.1-0.2,0.2-0.2,0.4c0,0.1,0,0.2,0.1,0.3c0.1,0.1,0.2,0.1,0.3,0.2c0.1,0,0.3,0.1,0.6,0.2
				c0.5,0.1,0.9,0.3,1.1,0.3c0.2,0.1,0.4,0.2,0.5,0.4c0.1,0.2,0.2,0.4,0.2,0.6c0,0.2-0.1,0.5-0.2,0.7c-0.1,0.2-0.3,0.4-0.6,0.5
				c-0.3,0.1-0.6,0.2-0.9,0.2c-0.6,0-1-0.1-1.3-0.4C142,388.6,141.8,388.3,141.7,387.8"/>
			<path id="Fill-251" class="st2" d="M147.8,388.4l0.1,0.7c-0.2,0-0.4,0.1-0.6,0.1c-0.3,0-0.5,0-0.6-0.1c-0.1-0.1-0.2-0.2-0.3-0.3
				c-0.1-0.1-0.1-0.4-0.1-0.9v-2.5h-0.5v-0.6h0.5v-1.1l0.7-0.4v1.5h0.7v0.6h-0.7v2.5c0,0.2,0,0.3,0,0.4c0,0.1,0.1,0.1,0.1,0.1
				c0.1,0,0.1,0.1,0.3,0.1C147.6,388.5,147.7,388.5,147.8,388.4"/>
			<path id="Fill-252" class="st2" d="M148.5,389.1v-4.4h0.7v0.7c0.2-0.3,0.3-0.5,0.5-0.6c0.1-0.1,0.3-0.1,0.5-0.1
				c0.2,0,0.5,0.1,0.8,0.2l-0.3,0.7c-0.2-0.1-0.4-0.2-0.5-0.2c-0.2,0-0.3,0-0.4,0.1c-0.1,0.1-0.2,0.2-0.3,0.4
				c-0.1,0.3-0.1,0.5-0.1,0.9v2.3H148.5z"/>
			<path id="Fill-253" class="st2" d="M154,386.9c-0.3,0.1-0.7,0.2-1.2,0.3c-0.3,0-0.5,0.1-0.6,0.1c-0.1,0.1-0.2,0.1-0.3,0.2
				c-0.1,0.1-0.1,0.2-0.1,0.4c0,0.2,0.1,0.4,0.2,0.5c0.1,0.1,0.4,0.2,0.6,0.2c0.3,0,0.5-0.1,0.8-0.2c0.2-0.1,0.4-0.3,0.5-0.5
				c0.1-0.2,0.1-0.4,0.1-0.7V386.9z M154.1,388.6c-0.3,0.2-0.5,0.4-0.8,0.5c-0.3,0.1-0.5,0.1-0.8,0.1c-0.5,0-0.8-0.1-1.1-0.4
				c-0.3-0.2-0.4-0.5-0.4-0.9c0-0.2,0-0.4,0.1-0.6c0.1-0.2,0.2-0.3,0.4-0.4c0.2-0.1,0.3-0.2,0.5-0.2c0.1,0,0.4-0.1,0.7-0.1
				c0.6-0.1,1-0.2,1.3-0.3c0-0.1,0-0.2,0-0.2c0-0.3-0.1-0.5-0.2-0.6c-0.2-0.2-0.5-0.2-0.8-0.2c-0.3,0-0.6,0.1-0.8,0.2
				c-0.2,0.1-0.3,0.3-0.4,0.6l-0.7-0.1c0.1-0.3,0.2-0.6,0.3-0.7c0.1-0.2,0.4-0.3,0.6-0.4c0.3-0.1,0.6-0.2,1-0.2c0.4,0,0.7,0,0.9,0.1
				c0.2,0.1,0.4,0.2,0.5,0.3c0.1,0.1,0.2,0.3,0.2,0.5c0,0.1,0,0.4,0,0.7v1c0,0.7,0,1.1,0,1.3c0,0.2,0.1,0.4,0.2,0.5h-0.8
				C154.2,388.9,154.1,388.8,154.1,388.6z"/>
			<path id="Fill-254" class="st2" d="M157.5,388.4l0.1,0.7c-0.2,0-0.4,0.1-0.6,0.1c-0.3,0-0.5,0-0.6-0.1c-0.1-0.1-0.2-0.2-0.3-0.3
				c-0.1-0.1-0.1-0.4-0.1-0.9v-2.5h-0.5v-0.6h0.5v-1.1l0.7-0.4v1.5h0.7v0.6h-0.7v2.5c0,0.2,0,0.3,0,0.4c0,0.1,0.1,0.1,0.1,0.1
				c0.1,0,0.1,0.1,0.3,0.1C157.3,388.5,157.4,388.5,157.5,388.4"/>
			<path id="Fill-255" class="st2" d="M158.2,389.1h0.7v-4.4h-0.7V389.1z M158.2,383.9h0.7v-0.8h-0.7V383.9z"/>
			<path id="Fill-256" class="st2" d="M161.3,389.1l-1.6-4.4h0.8l0.9,2.6c0.1,0.3,0.2,0.6,0.3,0.9c0.1-0.2,0.2-0.5,0.3-0.8l1-2.7
				h0.8l-1.6,4.4H161.3z"/>
			<path id="Fill-257" class="st2" d="M164.8,386.5h2.4c0-0.4-0.1-0.6-0.3-0.8c-0.2-0.3-0.5-0.4-0.9-0.4c-0.3,0-0.6,0.1-0.8,0.3
				C164.9,385.8,164.8,386.1,164.8,386.5 M167.2,387.7l0.8,0.1c-0.1,0.4-0.3,0.8-0.7,1c-0.3,0.2-0.7,0.4-1.2,0.4
				c-0.6,0-1.1-0.2-1.5-0.6c-0.4-0.4-0.6-0.9-0.6-1.6c0-0.7,0.2-1.3,0.6-1.7c0.4-0.4,0.9-0.6,1.5-0.6c0.6,0,1,0.2,1.4,0.6
				c0.4,0.4,0.5,1,0.5,1.7c0,0,0,0.1,0,0.2h-3.2c0,0.5,0.2,0.8,0.4,1.1c0.2,0.3,0.5,0.4,0.9,0.4c0.3,0,0.5-0.1,0.7-0.2
				C166.9,388.2,167.1,388,167.2,387.7"/>
			<path id="Fill-258" class="st2" d="M172.1,385.7h1.7c0.4,0,0.6,0,0.8-0.1c0.2-0.1,0.4-0.2,0.5-0.4c0.1-0.2,0.2-0.3,0.2-0.5
				c0-0.3-0.1-0.5-0.3-0.7c-0.2-0.2-0.5-0.3-1-0.3h-1.9V385.7z M171.3,389.1v-6h2.6c0.5,0,0.9,0.1,1.2,0.2c0.3,0.1,0.5,0.3,0.7,0.6
				c0.2,0.3,0.2,0.6,0.2,0.9c0,0.4-0.1,0.8-0.4,1.1c-0.3,0.3-0.7,0.5-1.3,0.6c0.2,0.1,0.4,0.2,0.5,0.3c0.2,0.2,0.4,0.5,0.7,0.8
				l1,1.6h-1l-0.8-1.2c-0.2-0.4-0.4-0.6-0.6-0.8c-0.1-0.2-0.3-0.3-0.4-0.4c-0.1-0.1-0.2-0.1-0.4-0.2c-0.1,0-0.2,0-0.4,0h-0.9v2.7
				H171.3z"/>
			<path id="Fill-259" class="st2" d="M177.7,386.5h2.4c0-0.4-0.1-0.6-0.3-0.8c-0.2-0.3-0.5-0.4-0.9-0.4c-0.3,0-0.6,0.1-0.8,0.3
				C177.9,385.8,177.8,386.1,177.7,386.5 M180.1,387.7l0.8,0.1c-0.1,0.4-0.3,0.8-0.7,1c-0.3,0.2-0.7,0.4-1.2,0.4
				c-0.6,0-1.1-0.2-1.5-0.6c-0.4-0.4-0.6-0.9-0.6-1.6c0-0.7,0.2-1.3,0.6-1.7c0.4-0.4,0.9-0.6,1.5-0.6c0.6,0,1,0.2,1.4,0.6
				c0.4,0.4,0.5,1,0.5,1.7c0,0,0,0.1,0,0.2h-3.2c0,0.5,0.2,0.8,0.4,1.1c0.2,0.3,0.5,0.4,0.9,0.4c0.3,0,0.5-0.1,0.7-0.2
				C179.9,388.2,180,388,180.1,387.7"/>
			<path id="Fill-260" class="st2" d="M182.3,386.8c0,0.6,0.1,1,0.3,1.3c0.2,0.3,0.5,0.4,0.8,0.4c0.3,0,0.6-0.1,0.8-0.4
				c0.2-0.3,0.3-0.7,0.3-1.2c0-0.5-0.1-0.9-0.4-1.2c-0.2-0.3-0.5-0.4-0.8-0.4c-0.3,0-0.6,0.1-0.8,0.4
				C182.4,385.9,182.3,386.3,182.3,386.8 M181.7,389.5l0.7,0.1c0,0.2,0.1,0.4,0.2,0.5c0.2,0.1,0.4,0.2,0.7,0.2
				c0.3,0,0.6-0.1,0.8-0.2c0.2-0.1,0.3-0.3,0.4-0.6c0-0.2,0.1-0.5,0.1-0.9c-0.3,0.4-0.7,0.6-1.2,0.6c-0.6,0-1.1-0.2-1.4-0.6
				c-0.3-0.4-0.5-0.9-0.5-1.6c0-0.4,0.1-0.8,0.2-1.1c0.1-0.4,0.4-0.6,0.6-0.8c0.3-0.2,0.6-0.3,1-0.3c0.5,0,0.9,0.2,1.3,0.6v-0.5h0.7
				v3.8c0,0.7-0.1,1.2-0.2,1.4c-0.1,0.3-0.4,0.5-0.7,0.7c-0.3,0.2-0.7,0.2-1.1,0.2c-0.5,0-0.9-0.1-1.2-0.4
				C181.8,390.3,181.7,389.9,181.7,389.5"/>
			<path id="Fill-261" class="st2" d="M186.5,389.1h0.7v-4.4h-0.7V389.1z M186.5,383.9h0.7v-0.8h-0.7V383.9z"/>
			<path id="Fill-262" class="st2" d="M188.8,386.9c0,0.6,0.1,1,0.4,1.3c0.2,0.3,0.5,0.4,0.9,0.4c0.4,0,0.7-0.1,0.9-0.4
				c0.2-0.3,0.4-0.7,0.4-1.3c0-0.5-0.1-0.9-0.4-1.2c-0.2-0.3-0.5-0.4-0.9-0.4c-0.4,0-0.7,0.1-0.9,0.4
				C188.9,385.9,188.8,386.4,188.8,386.9 M188,386.9c0-0.8,0.2-1.4,0.7-1.8c0.4-0.3,0.8-0.5,1.4-0.5c0.6,0,1.1,0.2,1.5,0.6
				c0.4,0.4,0.6,0.9,0.6,1.6c0,0.6-0.1,1-0.2,1.3c-0.2,0.3-0.4,0.6-0.7,0.7c-0.3,0.2-0.7,0.3-1,0.3c-0.6,0-1.1-0.2-1.5-0.6
				C188.2,388.2,188,387.6,188,386.9"/>
			<path id="Fill-263" class="st2" d="M192.9,389.1v-4.4h0.7v0.6c0.3-0.5,0.8-0.7,1.4-0.7c0.3,0,0.5,0,0.7,0.1
				c0.2,0.1,0.4,0.2,0.5,0.4s0.2,0.3,0.2,0.5c0,0.1,0,0.4,0,0.7v2.7h-0.7v-2.6c0-0.3,0-0.5-0.1-0.7c-0.1-0.1-0.2-0.3-0.3-0.4
				c-0.1-0.1-0.3-0.1-0.5-0.1c-0.3,0-0.6,0.1-0.8,0.3c-0.2,0.2-0.3,0.6-0.3,1.1v2.4H192.9z"/>
		</g>
	</g>
</g>
</svg>
