<?xml version="1.0" encoding="UTF-8"?>
<svg width="47px" height="30px" viewBox="0 0 47 30" version="1.1" xmlns="http://www.w3.org/2000/svg" xmlns:xlink="http://www.w3.org/1999/xlink">
    <!-- Generator: Sketch 49.1 (51147) - http://www.bohemiancoding.com/sketch -->
    <title>Group 16 Copy</title>
    <desc>Created with Sketch.</desc>
    <defs></defs>
    <g id="design" stroke="none" stroke-width="1" fill="none" fill-rule="evenodd">
        <g id="Artboard" transform="translate(-81.000000, -20.000000)">
            <g id="Group-16-Copy" transform="translate(82.000000, 21.000000)">
                <rect id="Rectangle-2" stroke="#CCCCCC" x="0" y="0" width="45" height="28" rx="2"></rect>
                <g id="mastercard-logo-09664196" transform="translate(11.000000, 4.000000)">
                    <g id="svg2">
                        <g id="g10" transform="translate(12.098120, 9.562500) scale(1, -1) translate(-12.098120, -9.562500) translate(0.118954, 0.187500)">
                            <g id="g12" transform="translate(0.416338, 0.182292)">
                                <path d="M22.0302417,10.5911458 C22.0302417,6.74479167 18.9850247,3.62152778 15.226085,3.62152778 C11.4671452,3.62152778 8.42192825,6.73871528 8.42192825,10.5911458 C8.42192825,14.4435764 11.4671452,17.5607639 15.226085,17.5607639 C18.9850247,17.5607639 22.0302417,14.4435764 22.0302417,10.5911458 L22.0302417,10.5911458" id="path14" fill="#F59511"></path>
                                <path d="M13.6321042,10.5911458 C13.6321042,6.74479167 10.5868872,3.62152778 6.82794748,3.62152778 C3.06900775,3.62152778 0.0237907578,6.73871528 0.0237907578,10.5911458 C0.0237907578,14.4435764 3.06900775,17.5607639 6.82794748,17.5607639 C10.5868872,17.5607639 13.6321042,14.4435764 13.6321042,10.5911458 L13.6321042,10.5911458" id="path16" fill="#EA1C24"></path>
                                <path d="M11.0270162,16.078125 C9.43898315,14.8020833 8.42192825,12.8211806 8.42192825,10.5911458 C8.42192825,8.3671875 9.43898315,6.38020833 11.0270162,5.10416667 C12.6150493,6.38020833 13.6321042,8.36111111 13.6321042,10.5911458 C13.6321042,12.8211806 12.6150493,14.8020833 11.0270162,16.078125" id="path18" fill="#F14D1C"></path>
                                <path d="M21.6139034,6.89670139 L21.6139034,7.25950627 L21.6971711,7.25950627 L21.6971711,7.33420139 L21.489002,7.33420139 L21.489002,7.25950627 L21.5722696,7.25950627 L21.5722696,6.89670139 L21.6139034,6.89670139 L21.6139034,6.89670139 Z M22.0183463,6.89670139 L22.0183463,7.33420139 L21.9529217,7.33420139 L21.8815495,7.0354209 L21.8101772,7.33420139 L21.7447526,7.33420139 L21.7447526,6.89670139 L21.7923341,6.89670139 L21.7923341,7.22749407 L21.8637064,6.93938432 L21.9112879,6.93938432 L21.9826602,7.22749407 L21.9826602,6.89670139 L22.0183463,6.89670139 L22.0183463,6.89670139 Z" id="path20" fill="#F59511"></path>
                                <path d="M1.53450388,0.176215278 L1.14790406,0.176215278 L1.14790406,2.01736111 L1.52855619,2.01736111 L1.52855619,1.79253472 C1.52855619,1.79253472 1.8616268,2.06597222 2.05790055,2.06597222 C2.44450036,2.05989583 2.67051256,1.72569444 2.67051256,1.72569444 C2.67051256,1.72569444 2.85489093,2.06597222 3.27717688,2.06597222 C3.89573659,2.06597222 3.99089962,1.48871528 3.99089962,1.48871528 L3.99089962,0.188368056 L3.62214287,0.188368056 L3.62214287,1.33072917 C3.62214287,1.33072917 3.62214287,1.67708333 3.22364768,1.67708333 C2.80730942,1.67708333 2.77162328,1.33072917 2.77162328,1.33072917 L2.77162328,0.188368056 L2.38502347,0.188368056 L2.38502347,1.34288194 C2.38502347,1.34288194 2.34933733,1.70746528 1.99842365,1.70746528 C1.54639926,1.70746528 1.53450388,1.33680556 1.53450388,1.33680556 L1.53450388,0.176215278" id="path22" fill="#100F0D"></path>
                                <path d="M13.2811905,2.06597222 C13.0849168,2.07204861 12.7518462,1.79253472 12.7518462,1.79253472 L12.7518462,2.01736111 L12.371194,2.01736111 L12.371194,0.182291667 L12.7577939,0.182291667 L12.7518462,1.33680556 C12.7518462,1.33680556 12.7577939,1.70746528 13.2157659,1.70746528 C13.2990336,1.70746528 13.3644582,1.68923611 13.4179874,1.65277778 L13.4179874,1.65277778 L13.5428889,2.01128472 C13.4655689,2.04166667 13.3763536,2.06597222 13.2811905,2.06597222" id="path24" fill="#100F0D"></path>
                                <path d="M18.7233264,2.06597222 C18.5270526,2.07204861 18.193982,1.79253472 18.193982,1.79253472 L18.193982,2.01736111 L17.8133299,2.01736111 L17.8133299,0.182291667 L18.1999297,0.182291667 L18.193982,1.33680556 C18.193982,1.33680556 18.1999297,1.70746528 18.6579018,1.70746528 C18.7411694,1.70746528 18.806594,1.68923611 18.8601232,1.65277778 L18.8601232,1.65277778 L18.9850247,2.01128472 C18.9017571,2.04166667 18.8184894,2.06597222 18.7233264,2.06597222 L18.7233264,2.06597222" id="path26" fill="#100F0D"></path>
                                <path d="M5.31128667,1.70138889 C5.62056652,1.70138889 5.87631717,1.42795139 5.87631717,1.08767361 C5.87631717,0.747395833 5.62651421,0.473958333 5.31128667,0.473958333 C5.00200682,0.473958333 4.75220387,0.747395833 4.75220387,1.08767361 C4.74625618,1.421875 5.00200682,1.70138889 5.31128667,1.70138889 L5.31128667,1.70138889 Z M5.23396671,2.07204861 C4.65704083,2.07204861 4.34776098,1.54340278 4.34776098,1.09982639 C4.34776098,0.644097222 4.69867466,0.121527778 5.25180978,0.121527778 C5.57298501,0.121527778 5.84063103,0.364583333 5.84063103,0.364583333 L5.84063103,0.176215278 L6.22128316,0.176215278 L6.22128316,2.01736111 L5.84063103,2.01736111 L5.84063103,1.78645833 C5.84063103,1.78645833 5.59082808,2.07204861 5.23396671,2.07204861 L5.23396671,2.07204861 L5.23396671,2.07204861 Z" id="path28" fill="#100F0D"></path>
                                <path d="M16.3977798,1.70138889 C16.7070596,1.70138889 16.9628103,1.42795139 16.9628103,1.08767361 C16.9628103,0.747395833 16.7130073,0.473958333 16.3977798,0.473958333 C16.0884999,0.473958333 15.838697,0.747395833 15.838697,1.08767361 C15.838697,1.421875 16.0884999,1.70138889 16.3977798,1.70138889 L16.3977798,1.70138889 Z M16.3264075,2.07204861 C15.7494816,2.07204861 15.4402018,1.54340278 15.4402018,1.09982639 C15.4402018,0.644097222 15.7911155,0.121527778 16.3442506,0.121527778 C16.6654258,0.121527778 16.9330718,0.364583333 16.9330718,0.364583333 L16.9330718,0.176215278 L17.313724,0.176215278 L17.313724,2.01736111 L16.9330718,2.01736111 L16.9330718,1.78645833 C16.9271242,1.78645833 16.6773212,2.07204861 16.3264075,2.07204861 L16.3264075,2.07204861 L16.3264075,2.07204861 Z" id="path30" fill="#100F0D"></path>
                                <path d="M20.0496611,1.70138889 C20.358941,1.70138889 20.6146916,1.42795139 20.6146916,1.08767361 C20.6146916,0.747395833 20.3648887,0.473958333 20.0496611,0.473958333 C19.7344336,0.473958333 19.4905783,0.747395833 19.4905783,1.08767361 C19.4905783,1.421875 19.7403813,1.70138889 20.0496611,1.70138889 L20.0496611,1.70138889 Z M19.9723412,2.07204861 C19.3954153,2.07204861 19.0861354,1.54340278 19.0861354,1.09982639 C19.0861354,0.644097222 19.4370491,0.121527778 19.9901842,0.121527778 C20.3113595,0.121527778 20.5790055,0.364583333 20.5790055,0.364583333 L20.5790055,0.176215278 L20.9596576,0.176215278 L20.9596576,2.74652778 L20.5790055,2.74652778 L20.5790055,1.78645833 C20.5790055,1.78645833 20.3292025,2.07204861 19.9723412,2.07204861 L19.9723412,2.07204861 L19.9723412,2.07204861 Z" id="path32" fill="#100F0D"></path>
                                <path d="M7.3810826,0.115451389 C6.9885351,0.115451389 6.62572604,0.364583333 6.62572604,0.364583333 L6.79226134,0.625868056 C6.79226134,0.625868056 7.13722733,0.461805556 7.3810826,0.461805556 C7.54167021,0.461805556 7.80931624,0.516493056 7.81526393,0.680555556 C7.82121162,0.850694444 7.36323953,0.905381944 7.36323953,0.905381944 C7.36323953,0.905381944 6.68520293,0.917534722 6.68520293,1.48871528 C6.68520293,1.84722222 7.02422123,2.078125 7.45840256,2.078125 C7.70820552,2.078125 8.17807299,1.85329861 8.17807299,1.85329861 L7.98774692,1.54947917 C7.98774692,1.54947917 7.62493787,1.6953125 7.4346118,1.70138889 C7.27402419,1.70746528 7.07775044,1.62847222 7.07775044,1.48263889 C7.07775044,1.09375 8.20781143,1.51302083 8.20781143,0.723090278 C8.20781143,0.212673611 7.74389166,0.115451389 7.3810826,0.115451389 L7.3810826,0.115451389" id="path34" fill="#100F0D"></path>
                                <path d="M8.83231882,2.55208333 L8.83231882,2.01736111 L8.49330053,2.01736111 L8.49330053,1.62847222 L8.83231882,1.62847222 L8.83231882,0.704861111 C8.83231882,0.704861111 8.80258038,0.0789930556 9.46277391,0.0789930556 C9.64715228,0.0789930556 10.0040136,0.21875 10.0040136,0.21875 L9.84937372,0.619791667 C9.84937372,0.619791667 9.70662917,0.498263889 9.54604156,0.498263889 C9.2427094,0.504340278 9.24865709,0.704861111 9.24865709,0.704861111 L9.24865709,1.62847222 L9.87911217,1.62847222 L9.87911217,2.01736111 L9.24865709,2.01736111 L9.24865709,2.55208333 L8.83231882,2.55208333" id="path36" fill="#100F0D"></path>
                                <path d="M11.0627024,1.68923611 L11.1102839,1.68923611 C11.5742037,1.68923611 11.568256,1.23958333 11.568256,1.23958333 L10.628521,1.23958333 C10.6344687,1.24565972 10.610678,1.66493056 11.0627024,1.68923611 L11.0627024,1.68923611 Z M11.1221793,2.05381944 C10.5036196,2.05381944 10.1943397,1.53125 10.1943397,1.08159722 C10.1943397,0.613715278 10.4738811,0.0911458333 11.1578654,0.0911458333 C11.4493022,0.0911458333 11.8596928,0.352430556 11.8596928,0.352430556 L11.6812621,0.668402778 C11.6812621,0.668402778 11.4017207,0.467881944 11.1578654,0.467881944 C10.6642072,0.467881944 10.6344687,0.960069444 10.6344687,0.960069444 L11.9548558,0.960069444 C11.9548558,0.953993056 12.0500188,2.05381944 11.1221793,2.05381944 L11.1221793,2.05381944 Z" id="path38" fill="#100F0D"></path>
                                <path d="M15.0417066,0.668402778 L15.2201373,0.309895833 C15.2201373,0.309895833 14.9405959,0.121527778 14.6253683,0.121527778 C13.9770702,0.121527778 13.6142611,0.619791667 13.6142611,1.09375 C13.6142611,1.83506944 14.191187,2.05381944 14.5777868,2.05381944 C14.9287005,2.05381944 15.2379804,1.84722222 15.2379804,1.84722222 L15.0417066,1.48871528 C15.0417066,1.48871528 14.9227528,1.68315972 14.5718391,1.68315972 C14.2209255,1.68315972 14.0365471,1.37326389 14.0365471,1.08159722 C14.0365471,0.753472222 14.2506639,0.473958333 14.5777868,0.473958333 C14.8275898,0.473958333 15.0417066,0.668402778 15.0417066,0.668402778 L15.0417066,0.668402778" id="path40" fill="#100F0D"></path>
                                <path d="M21.8127663,0.370883737 C21.8301362,0.370883737 21.8388212,0.370883737 21.8475061,0.36046707 C21.8561911,0.350050403 21.8561911,0.339633737 21.8561911,0.32921707 C21.8561911,0.318800403 21.8561911,0.308383737 21.8475061,0.29796707 C21.8388212,0.287550403 21.8301362,0.287550403 21.8127663,0.287550403 L21.7519717,0.287550403 L21.7519717,0.370883737 L21.8127663,0.370883737 L21.8127663,0.370883737 Z M21.800353,0.379284274 L21.710502,0.379284274 L21.710502,0.181703629 L21.7519717,0.181703629 L21.7519717,0.259324597 L21.7727065,0.259324597 L21.8349111,0.181703629 L21.8832924,0.181703629 L21.8210878,0.259324597 C21.8418227,0.259324597 21.8556459,0.266381048 21.8694692,0.280493952 C21.8832924,0.294606855 21.8832924,0.301663306 21.8832924,0.322832661 C21.8832924,0.344002016 21.8763808,0.358114919 21.8625575,0.372227823 C21.8418227,0.372227823 21.8210878,0.379284274 21.800353,0.379284274 L21.800353,0.379284274 Z M21.7865298,0.111139113 C21.7381484,0.111139113 21.6966787,0.125252016 21.6690323,0.160534274 C21.6413858,0.188760081 21.6206509,0.23109879 21.6206509,0.280493952 C21.6206509,0.329889113 21.6344742,0.365171371 21.6690323,0.400453629 C21.6966787,0.428679435 21.7381484,0.44984879 21.7865298,0.44984879 C21.8349111,0.44984879 21.8694692,0.435735887 21.9040272,0.400453629 C21.9316737,0.372227823 21.9524086,0.329889113 21.9524086,0.280493952 C21.9524086,0.23109879 21.9385853,0.195816532 21.9040272,0.160534274 C21.8694692,0.125252016 21.8349111,0.111139113 21.7865298,0.111139113 L21.7865298,0.111139113 Z M21.7865298,0.4921875 C21.7243252,0.4921875 21.6759439,0.471018145 21.6344742,0.428679435 C21.5930045,0.386340726 21.5722696,0.336945565 21.5722696,0.2734375 C21.5722696,0.209929435 21.5930045,0.160534274 21.6344742,0.118195565 C21.6759439,0.0758568548 21.7243252,0.0546875 21.7865298,0.0546875 C21.8487343,0.0546875 21.8971156,0.0758568548 21.9385853,0.118195565 C21.980055,0.160534274 22.0007899,0.209929435 22.0007899,0.2734375 C22.0007899,0.336945565 21.980055,0.386340726 21.9385853,0.428679435 C21.8971156,0.471018145 21.8487343,0.4921875 21.7865298,0.4921875 L21.7865298,0.4921875 Z" id="path42" fill="#100F0D"></path>
                            </g>
                        </g>
                    </g>
                </g>
            </g>
        </g>
    </g>
</svg>