<?xml version="1.0" encoding="UTF-8"?>
<svg width="47px" height="30px" viewBox="0 0 47 30" version="1.1" xmlns="http://www.w3.org/2000/svg" xmlns:xlink="http://www.w3.org/1999/xlink">
    <!-- Generator: Sketch 49.1 (51147) - http://www.bohemiancoding.com/sketch -->
    <title>Group 16 Copy 4</title>
    <desc>Created with Sketch.</desc>
    <defs></defs>
    <g id="design" stroke="none" stroke-width="1" fill="none" fill-rule="evenodd">
        <g id="Artboard" transform="translate(-258.000000, -20.000000)">
            <g id="Group-16-Copy-4" transform="translate(259.000000, 21.000000)">
                <rect id="Rectangle-2" stroke="#CCCCCC" x="0" y="0" width="45" height="28" rx="2"></rect>
                <g id="diners-club-logo-c3edc4c2" transform="translate(8.000000, 4.000000)">
                    <g id="Layer_1">
                        <g id="unionpay-logo-b203d57f">
                            <g id="Layer_1">
                                <g id="Group">
                                    <path d="M5.90303602,0.430769231 L13.1764197,0.430769231 C14.1778276,0.430769231 14.8102957,1.29230769 14.599473,2.31538462 L11.2263096,17.1230769 C10.9627812,18.1461538 9.96137329,19.0076923 8.95996539,19.0076923 L1.68658172,19.0076923 C0.685173824,19.0076923 0.0527056788,18.1461538 0.263528394,17.1230769 L3.63669183,2.31538462 C3.90022023,1.23846154 4.90162813,0.430769231 5.90303602,0.430769231 L5.90303602,0.430769231 Z" id="Shape" fill="#FE0000"></path>
                                    <path d="M12.5439515,0.430769231 L20.8714488,0.430769231 C21.8728567,0.430769231 21.4512113,1.29230769 21.1876829,2.31538462 L17.8145194,17.1230769 C17.6036967,18.1461538 17.6564024,19.0076923 16.6549945,19.0076923 L8.32749724,19.0076923 C7.32608935,19.0076923 6.6936212,18.1461538 6.90444392,17.1230769 L10.2776074,2.31538462 C10.5411358,1.23846154 11.5425436,0.430769231 12.5439515,0.430769231 L12.5439515,0.430769231 Z" id="Shape" fill="#0B3084"></path>
                                    <path d="M20.5552147,0.430769231 L27.8285984,0.430769231 C28.8300063,0.430769231 29.4624744,1.29230769 29.2516517,2.31538462 L25.8784883,17.1230769 C25.6149599,18.1461538 24.613552,19.0076923 23.6121441,19.0076923 L16.3387604,19.0076923 C15.3373525,19.0076923 14.7048844,18.1461538 14.9157071,17.1230769 L18.2888705,2.31538462 C18.5523989,1.23846154 19.5538068,0.430769231 20.5552147,0.430769231 L20.5552147,0.430769231 Z" id="Shape" fill="#026B6F"></path>
                                    <path d="M19.3956898,14.3230769 L20.0808636,14.3230769 L20.2916863,13.6769231 L19.6065125,13.6769231 L19.3956898,14.3230769 L19.3956898,14.3230769 Z M19.9227466,12.4923077 L19.7119239,13.3 C19.7119239,13.3 19.9754523,13.1384615 20.1335693,13.1384615 C20.2916863,13.0846154 20.502509,13.0846154 20.502509,13.0846154 L20.6606261,12.5461538 L19.9227466,12.5461538 L19.9227466,12.4923077 Z M20.2389806,11.3615385 L20.0281579,12.1153846 C20.0281579,12.1153846 20.2916863,12.0076923 20.3970977,11.9538462 C20.5552147,11.9 20.7660374,11.9 20.7660374,11.9 L20.9241545,11.3615385 L20.2389806,11.3615385 L20.2389806,11.3615385 Z M21.7674453,11.3615385 L20.8714488,14.3769231 L21.1349772,14.3769231 L20.9241545,14.9692308 L20.7133318,14.9692308 L20.6606261,15.1846154 L19.8173352,15.1846154 L19.8700409,14.9692308 L18.1834592,14.9692308 L18.3415762,14.3769231 L18.4996932,14.3769231 L19.3956898,11.3615385 L19.5538068,10.7692308 L20.3970977,10.7692308 L20.2916863,11.0923077 C20.2916863,11.0923077 20.502509,10.9307692 20.7133318,10.8769231 C20.9241545,10.8230769 22.1890908,10.8230769 22.1890908,10.8230769 L22.0309737,11.4153846 L21.7674453,11.4153846 L21.7674453,11.3615385 Z" id="Shape" fill="#FFFFFF"></path>
                                    <path d="M22.1363851,10.7153846 L23.0323816,10.7153846 L23.0323816,11.0384615 C23.0323816,11.0923077 23.0850873,11.1461538 23.1904987,11.1461538 L23.4013214,11.1461538 L23.2432043,11.7384615 L22.7688532,11.7384615 C22.3472078,11.7923077 22.1890908,11.5769231 22.1890908,11.3615385 L22.1363851,10.7153846 L22.1363851,10.7153846 Z" id="Shape" fill="#FFFFFF"></path>
                                    <path d="M22.2945021,13.4615385 L21.3985056,13.4615385 L21.5566226,12.9230769 L22.5580305,12.9230769 L22.7161475,12.4384615 L21.7147397,12.4384615 L21.8728567,11.8461538 L24.613552,11.8461538 L24.4554349,12.4384615 L23.5594384,12.4384615 L23.4013214,12.9230769 L24.3500236,12.9230769 L24.1919066,13.4615385 L23.1904987,13.4615385 L23.0323816,13.6769231 L23.4540271,13.6769231 L23.5594384,14.3230769 C23.5594384,14.3769231 23.5594384,14.4307692 23.6121441,14.4307692 C23.6121441,14.4307692 23.7702611,14.4846154 23.8229668,14.4846154 L23.9283782,14.4846154 L23.7175554,15.1307692 L23.4013214,15.1307692 L23.1904987,15.1307692 C23.0850873,15.1307692 23.0323816,15.0769231 22.9796759,15.0230769 C22.9269703,14.9692308 22.8215589,14.9153846 22.8215589,14.8076923 L22.7161475,14.1615385 L22.2417964,14.8076923 C22.0836794,15.0230769 21.9255624,15.1846154 21.5566226,15.1846154 L20.9241545,15.1846154 L21.0822715,14.6461538 L21.3457999,14.6461538 C21.3985056,14.6461538 21.4512113,14.5923077 21.5039169,14.5923077 C21.5566226,14.5923077 21.6093283,14.5384615 21.662034,14.4846154 L22.2945021,13.4615385 L22.2945021,13.4615385 Z" id="Shape" fill="#FFFFFF"></path>
                                    <path d="M12.7020686,12.0615385 L15.0211184,12.0615385 L14.8630014,12.6 L13.9142992,12.6 L13.7561822,13.0846154 L14.7048844,13.0846154 L14.5467673,13.6769231 L13.5980651,13.6769231 L13.3872424,14.4846154 C13.3345367,14.5923077 13.5980651,14.5923077 13.7034765,14.5923077 L14.1778276,14.5384615 L13.9670049,15.1846154 L12.9128913,15.1846154 C12.8074799,15.1846154 12.7547743,15.1846154 12.6493629,15.1307692 C12.5439515,15.1307692 12.5439515,15.0769231 12.4912459,15.0230769 C12.4385402,14.9692308 12.3858345,14.9153846 12.4385402,14.7538462 L12.7547743,13.7307692 L12.2277175,13.7307692 L12.3858345,13.1384615 L12.9128913,13.1384615 L13.0710083,12.6538462 L12.5439515,12.6538462 L12.7020686,12.0615385 L12.7020686,12.0615385 Z" id="Shape" fill="#FFFFFF"></path>
                                    <path d="M14.2832389,11.0384615 L15.2319412,11.0384615 L15.0738241,11.6307692 L13.7561822,11.6307692 L13.5980651,11.7384615 C13.5453594,11.7923077 13.4926538,11.7923077 13.4399481,11.7923077 C13.3872424,11.8461538 13.2291254,11.9 13.0183027,11.9 L12.5966572,11.9 L12.7547743,11.3076923 L12.8601856,11.3076923 C12.965597,11.3076923 13.0183027,11.3076923 13.0710083,11.2538462 C13.123714,11.2 13.1764197,11.1461538 13.2291254,11.0923077 L13.4926538,10.6615385 L14.441356,10.6615385 L14.2832389,11.0384615 L14.2832389,11.0384615 Z" id="Shape" fill="#FFFFFF"></path>
                                    <path d="M16.075232,12.0076923 C16.075232,12.0076923 16.3387604,11.7923077 16.7604058,11.6846154 L17.4982853,11.6846154 L17.6036967,11.3615385 L16.2860547,11.3615385 L16.075232,12.0076923 L16.075232,12.0076923 Z M17.3401683,12.2769231 L16.0225263,12.2769231 L15.917115,12.5461538 L17.0766399,12.5461538 L17.234757,12.5461538 L17.3401683,12.2769231 L17.3401683,12.2769231 Z M15.6008809,10.7153846 L16.3914661,10.7153846 L16.2860547,11.1461538 C16.2860547,11.1461538 16.5495831,10.9307692 16.7077002,10.8769231 C16.8658172,10.8230769 17.2874626,10.7692308 17.2874626,10.7692308 L18.6051046,10.7692308 L18.1834592,12.2769231 C18.1307535,12.5461538 18.0253421,12.7076923 17.9726365,12.7615385 C17.9199308,12.8153846 17.8672251,12.9230769 17.7618137,12.9769231 C17.6564024,13.0307692 17.550991,13.0846154 17.4455797,13.0846154 L17.0239342,13.0846154 L15.758998,13.0846154 L15.3900582,14.2692308 C15.3373525,14.3769231 15.3373525,14.4307692 15.3373525,14.4846154 C15.3373525,14.5384615 15.3900582,14.5384615 15.4427639,14.5384615 L16.0225263,14.4846154 L15.8117036,15.1307692 L15.1792355,15.1307692 L14.7575901,15.1307692 C14.6521787,15.1307692 14.5467673,15.1307692 14.4940617,15.0769231 C14.441356,15.0230769 14.3359446,14.9692308 14.3359446,14.8615385 C14.3359446,14.8076923 14.3886503,14.7 14.3886503,14.5384615 L15.6008809,10.7153846 L15.6008809,10.7153846 Z" id="Shape" fill="#FFFFFF"></path>
                                    <path d="M17.9726365,13.1923077 L17.9199308,13.5692308 C17.8672251,13.6769231 17.8672251,13.7846154 17.7618137,13.8384615 C17.6564024,13.8923077 17.550991,14 17.3401683,14 L16.8658172,14 L16.8658172,14.4307692 C16.8658172,14.5384615 16.8658172,14.5384615 16.9185229,14.5384615 L16.9712286,14.5923077 L17.1293456,14.5923077 L17.550991,14.5923077 L17.392874,15.1846154 L16.9185229,15.1846154 C16.5495831,15.1846154 16.3387604,15.1846154 16.2333491,15.1307692 C16.1279377,15.0769231 16.1279377,15.0230769 16.1279377,14.9153846 L16.1806434,13.3 L16.9712286,13.3 L16.9712286,13.6230769 L17.1820513,13.6230769 L17.3401683,13.6230769 C17.3401683,13.6230769 17.392874,13.5692308 17.392874,13.5153846 L17.4455797,13.2461538 L17.9726365,13.2461538 L17.9726365,13.1923077 Z" id="Shape" fill="#FFFFFF"></path>
                                    <path d="M6.79903256,5.11538462 C6.74632688,5.22307692 6.27197577,7.64615385 6.27197577,7.64615385 C6.16656442,8.13076923 6.06115306,8.45384615 5.79762466,8.66923077 C5.63950763,8.77692308 5.48139059,8.88461538 5.27056788,8.88461538 C4.9543338,8.88461538 4.74351109,8.72307692 4.69080541,8.4 L4.69080541,8.29230769 L4.79621677,7.64615385 C4.79621677,7.64615385 5.32327356,5.49230769 5.42868491,5.22307692 C5.42868491,5.22307692 5.42868491,5.22307692 5.42868491,5.16923077 L4.2164543,5.16923077 L4.16374862,5.33076923 L3.63669183,7.75384615 L3.58398616,7.96923077 L3.4785748,8.66923077 C3.4785748,8.88461538 3.53128048,9.04615385 3.58398616,9.15384615 C3.84751455,9.58461538 4.53268837,9.63846154 4.90162813,9.63846154 C5.42868491,9.63846154 5.90303602,9.53076923 6.21927009,9.31538462 C6.79903256,8.99230769 6.90444392,8.45384615 7.06256095,7.96923077 L7.11526663,7.75384615 C7.11526663,7.75384615 7.64232342,5.49230769 7.74773478,5.22307692 C7.74773478,5.22307692 7.74773478,5.22307692 7.74773478,5.16923077 C7.06256095,5.16923077 6.85173824,5.16923077 6.79903256,5.11538462 L6.79903256,5.11538462 Z" id="Shape" fill="#FFFFFF"></path>
                                    <path d="M9.80325625,9.58461538 L8.90725971,9.58461538 L8.90725971,9.53076923 C8.95996539,9.36923077 8.95996539,9.20769231 9.01267107,9.04615385 L9.06537675,8.83076923 C9.11808243,8.45384615 9.22349378,8.07692308 9.22349378,7.96923077 C9.22349378,7.91538462 9.27619946,7.7 9.06537675,7.7 C8.95996539,7.7 8.90725971,7.75384615 8.80184835,7.80769231 C8.74914267,7.96923077 8.64373132,8.50769231 8.59102564,8.77692308 C8.48561428,9.26153846 8.48561428,9.31538462 8.4329086,9.58461538 L8.38020292,9.63846154 L7.43150071,9.63846154 L7.43150071,9.58461538 C7.48420638,9.26153846 7.58961774,8.99230769 7.64232342,8.66923077 C7.80044046,7.86153846 7.85314614,7.53846154 7.90585181,7.10769231 L7.95855749,7.10769231 C8.38020292,7.05384615 8.48561428,7.05384615 8.95996539,6.94615385 L9.01267107,7 L8.95996539,7.26923077 C9.01267107,7.21538462 9.11808243,7.16153846 9.1707881,7.10769231 C9.38161082,7 9.64513921,6.94615385 9.75055057,6.94615385 C9.96137329,6.94615385 10.172196,7 10.2776074,7.21538462 C10.3830187,7.43076923 10.330313,7.7 10.172196,8.18461538 L10.1194903,8.45384615 C9.90866761,9.04615385 9.90866761,9.15384615 9.80325625,9.58461538 L9.80325625,9.58461538 L9.80325625,9.58461538 Z" id="Shape" fill="#FFFFFF"></path>
                                    <path d="M11.2790153,9.58461538 L10.8046641,9.58461538 L10.330313,9.58461538 L10.330313,9.58461538 L10.330313,9.58461538 C10.3830187,9.36923077 10.4357244,9.31538462 10.4357244,9.20769231 C10.4884301,9.15384615 10.4884301,9.04615385 10.5411358,8.83076923 C10.5938414,8.56153846 10.6465471,8.34615385 10.6465471,8.18461538 C10.6992528,8.02307692 10.6992528,7.86153846 10.6992528,7.7 L10.6992528,7.7 L10.6992528,7.7 C10.9100755,7.64615385 11.0681925,7.64615385 11.1736039,7.64615385 C11.3317209,7.64615385 11.4371323,7.59230769 11.7006607,7.53846154 L11.7006607,7.53846154 L11.7006607,7.53846154 C11.647955,7.7 11.5952493,7.91538462 11.5952493,8.07692308 C11.5425436,8.23846154 11.489838,8.45384615 11.489838,8.61538462 C11.3844266,8.99230769 11.3844266,9.15384615 11.3317209,9.20769231 C11.3317209,9.31538462 11.3317209,9.36923077 11.2790153,9.58461538 L11.2790153,9.58461538 L11.2790153,9.58461538 L11.2790153,9.58461538 Z" id="Shape" fill="#FFFFFF"></path>
                                    <path d="M13.5980651,8.29230769 C13.5980651,8.4 13.4926538,8.72307692 13.3872424,8.88461538 C13.3345367,8.99230769 13.2291254,9.04615385 13.123714,9.04615385 C13.0710083,9.04615385 12.9128913,9.04615385 12.9128913,8.77692308 C12.9128913,8.61538462 12.9128913,8.50769231 12.965597,8.34615385 C13.0710083,7.91538462 13.1764197,7.53846154 13.4399481,7.53846154 C13.6507708,7.53846154 13.7034765,7.86153846 13.5980651,8.29230769 L13.5980651,8.29230769 Z M14.5467673,8.29230769 C14.6521787,7.7 14.599473,7.43076923 14.441356,7.26923077 C14.2305333,7 13.9142992,6.94615385 13.5453594,6.94615385 C13.3345367,6.94615385 12.8601856,6.94615385 12.4385402,7.32307692 C12.1750118,7.59230769 12.0168948,7.96923077 11.9641891,8.29230769 C11.9114834,8.66923077 11.806072,9.26153846 12.3858345,9.53076923 C12.5439515,9.58461538 12.8074799,9.63846154 12.965597,9.63846154 C13.3872424,9.63846154 13.8088878,9.53076923 14.1251219,9.15384615 C14.3886503,8.88461538 14.4940617,8.50769231 14.5467673,8.29230769 L14.5467673,8.29230769 Z" id="Shape" fill="#FFFFFF"></path>
                                    <path d="M23.4540271,9.63846154 L22.5053248,9.63846154 L22.5053248,9.58461538 C22.6107362,9.15384615 22.7161475,8.72307692 22.8215589,8.29230769 C22.9269703,7.75384615 22.9796759,7.48461538 23.0323816,7.16153846 L23.0850873,7.10769231 C23.5067327,7.05384615 23.6648498,7 24.0864952,6.94615385 L24.0864952,7 C23.9810838,7.37692308 23.9283782,7.7 23.8229668,8.07692308 C23.6121441,8.83076923 23.5594384,9.20769231 23.4540271,9.63846154 L23.4540271,9.63846154 L23.4540271,9.63846154 Z" id="Shape" fill="#FFFFFF"></path>
                                    <path d="M22.8215589,8.34615385 C22.8215589,8.45384615 22.7161475,8.77692308 22.6107362,8.93846154 C22.5580305,9.04615385 22.3472078,9.1 22.2417964,9.1 C22.1890908,9.1 22.0309737,9.1 22.0309737,8.83076923 C22.0309737,8.72307692 22.0309737,8.56153846 22.0836794,8.4 C22.1890908,7.96923077 22.2945021,7.59230769 22.5580305,7.59230769 C22.8215589,7.64615385 22.9269703,7.86153846 22.8215589,8.34615385 L22.8215589,8.34615385 Z M23.6648498,8.34615385 C23.7702611,7.75384615 23.29591,8.29230769 23.1904987,8.13076923 C23.0850873,7.86153846 23.137793,7.26923077 22.6107362,7.05384615 C22.3999135,7 21.978268,7.05384615 21.5566226,7.43076923 C21.2930942,7.7 21.1349772,8.02307692 21.0822715,8.4 C20.9768601,8.72307692 20.9241545,9.36923077 21.4512113,9.58461538 C21.6093283,9.63846154 21.7674453,9.69230769 21.978268,9.69230769 C22.5580305,9.63846154 22.9796759,8.77692308 23.29591,8.45384615 C23.6121441,8.13076923 23.6648498,8.50769231 23.6648498,8.34615385 L23.6648498,8.34615385 Z" id="Shape" fill="#FFFFFF"></path>
                                    <path d="M17.0239342,9.58461538 L16.1279377,9.58461538 L16.1279377,9.53076923 C16.1806434,9.36923077 16.1806434,9.20769231 16.2333491,9.04615385 L16.2860547,8.83076923 C16.3914661,8.45384615 16.4441718,8.07692308 16.4441718,7.96923077 C16.4441718,7.91538462 16.4968775,7.7 16.2860547,7.7 C16.1806434,7.7 16.1279377,7.75384615 16.0225263,7.80769231 C15.9698207,7.96923077 15.8644093,8.50769231 15.8117036,8.77692308 C15.7062923,9.26153846 15.7062923,9.31538462 15.6535866,9.58461538 L15.6008809,9.63846154 L14.6521787,9.63846154 L14.6521787,9.58461538 C14.7048844,9.26153846 14.8102957,8.99230769 14.8630014,8.66923077 C15.0211184,7.86153846 15.0738241,7.53846154 15.1265298,7.10769231 L15.1792355,7.10769231 C15.6008809,7.05384615 15.7062923,7.05384615 16.1806434,6.94615385 L16.2333491,7 L16.1806434,7.26923077 C16.2333491,7.21538462 16.3387604,7.16153846 16.3914661,7.10769231 C16.6022888,7 16.8658172,6.94615385 16.9712286,6.94615385 C17.1820513,6.94615385 17.392874,7 17.4982853,7.21538462 C17.6036967,7.43076923 17.550991,7.7 17.392874,8.18461538 L17.3401683,8.45384615 C17.1820513,9.04615385 17.1293456,9.15384615 17.0239342,9.58461538 L17.0239342,9.58461538 L17.0239342,9.58461538 Z" id="Shape" fill="#FFFFFF"></path>
                                    <path d="M20.186275,5.11538462 L19.8700409,5.11538462 L18.6578103,5.11538462 C18.6578103,5.16923077 18.6051046,5.27692308 18.6051046,5.27692308 L18.3415762,6.62307692 C18.3415762,6.62307692 17.6564024,9.47692308 17.6564024,9.58461538 L18.7632216,9.58461538 C18.8159273,9.47692308 18.9740444,8.66923077 18.9740444,8.66923077 L19.1321614,8.07692308 C19.1321614,8.07692308 19.1848671,8.02307692 19.2375727,7.96923077 L19.2902784,7.96923077 C19.8700409,7.96923077 20.5552147,7.96923077 21.0822715,7.59230769 C21.4512113,7.32307692 21.662034,6.94615385 21.820151,6.46153846 C21.8728567,6.35384615 21.8728567,6.19230769 21.8728567,6.08461538 C21.8728567,5.92307692 21.820151,5.70769231 21.7147397,5.54615385 C21.3457999,5.11538462 20.8187431,5.11538462 20.186275,5.11538462 L20.186275,5.11538462 Z M20.6079204,6.51538462 C20.5552147,6.83846154 20.344392,7.05384615 20.1335693,7.16153846 C19.9227466,7.26923077 19.7119239,7.26923077 19.4483955,7.26923077 L19.2902784,7.26923077 L19.2902784,7.21538462 L19.6065125,5.86923077 L19.6065125,5.81538462 L19.6065125,5.76153846 L19.7119239,5.76153846 L20.344392,5.81538462 C20.5552147,5.97692308 20.6606261,6.19230769 20.6079204,6.51538462 L20.6079204,6.51538462 Z" id="Shape" fill="#FFFFFF"></path>
                                    <path d="M27.0907189,7 L27.0907189,7 C26.6163678,7.05384615 26.5109564,7.05384615 26.089311,7.10769231 L26.0366053,7.16153846 L26.0366053,7.16153846 L26.0366053,7.16153846 C25.7203712,7.86153846 25.7203712,7.75384615 25.5095485,8.29230769 L25.5095485,8.23846154 L25.4568428,7 L25.4041372,6.94615385 C24.9297861,7.05384615 24.9297861,7.05384615 24.5081406,7.10769231 L24.4554349,7.16153846 L24.4554349,7.21538462 L24.4554349,7.21538462 C24.5081406,7.48461538 24.5081406,7.43076923 24.5608463,7.86153846 C24.5608463,8.07692308 24.613552,8.29230769 24.6662577,8.50769231 C24.7189633,8.88461538 24.7189633,9.04615385 24.771669,9.58461538 C24.4554349,10.0692308 24.4027293,10.2846154 24.1392009,10.7153846 L24.1392009,10.7692308 L24.9824917,10.7692308 L25.0351974,10.7153846 C25.2460201,10.1769231 27.0907189,7 27.0907189,7 L27.0907189,7 Z" id="Shape" fill="#FFFFFF"></path>
                                    <path d="M11.647955,7.32307692 C11.9114834,7.16153846 11.9114834,6.89230769 11.7006607,6.78461538 C11.489838,6.67692308 11.1208982,6.67692308 10.9100755,6.89230769 C10.6465471,7.05384615 10.6465471,7.32307692 10.8573698,7.43076923 C11.0681925,7.53846154 11.4371323,7.48461538 11.647955,7.32307692 L11.647955,7.32307692 Z" id="Shape" fill="#FFFFFF"></path>
                                    <path d="M24.9824917,10.7692308 L24.613552,11.4153846 C24.5081406,11.6307692 24.2973179,11.7923077 23.9810838,11.7923077 L23.4013214,11.7923077 L23.5594384,11.2538462 L23.6648498,11.2538462 L23.7702611,11.2538462 C23.8229668,11.2538462 23.8229668,11.2 23.8229668,11.2 L24.0337895,10.8769231 L24.9824917,10.8769231 L24.9824917,10.7692308 Z" id="Shape" fill="#FFFFFF"></path>
                                </g>
                            </g>
                        </g>
                    </g>
                </g>
            </g>
        </g>
    </g>
</svg>